<svg width="48" height="28" viewBox="0 0 48 28" fill="none" xmlns="http://www.w3.org/2000/svg">
<rect x="0.5" y="0.5" width="47" height="27" rx="3.5" fill="white"/>
<path fill-rule="evenodd" clip-rule="evenodd" d="M15 5H32.5116V23H15V5Z" fill="#2F6EB7"/>
<path fill-rule="evenodd" clip-rule="evenodd" d="M21.3713 20.1502V13.7002H32.5106V15.5002L31.2459 16.9002L32.5106 18.3502V20.1502H30.4676L29.3488 18.9002L28.2786 20.1502H21.3713Z" fill="white"/>
<path fill-rule="evenodd" clip-rule="evenodd" d="M22.1023 19.4499V14.3999H26.2369V15.5499H23.4643V16.3499H26.1883V17.4999H23.4643V18.2499H26.2369V19.4499H22.1023Z" fill="#2F6EB7"/>
<path fill-rule="evenodd" clip-rule="evenodd" d="M26.2361 19.4499L28.5223 16.8999L26.2361 14.3999H27.9872L29.3979 15.9999L30.8085 14.3999H32.5111V14.4499L30.2735 16.8999L32.5111 19.3499V19.4499H30.8085L29.3979 17.7999L27.9386 19.4499H26.2361Z" fill="#2F6EB7"/>
<path fill-rule="evenodd" clip-rule="evenodd" d="M21.8596 7.9502H24.5836L25.5078 10.1502V7.9502H28.8642L29.3993 9.6002L29.983 7.9502H32.5124V14.4002H19.0869L21.8596 7.9502Z" fill="white"/>
<path fill-rule="evenodd" clip-rule="evenodd" d="M22.3945 8.6499L20.2056 13.6999H21.7135L22.1026 12.6999H24.3402L24.7294 13.6999H26.2373L24.097 8.6499H22.3945ZM22.5891 11.5499L23.2215 9.94992L23.8538 11.5499H22.5891Z" fill="#2F6EB7"/>
<path fill-rule="evenodd" clip-rule="evenodd" d="M26.2361 13.6999V8.6499H28.3277L29.4465 11.7499L30.5167 8.6499H32.5111V13.6999H31.2463V10.2499L29.9816 13.6999H28.8142L27.5495 10.2499V13.6999H26.2361Z" fill="#2F6EB7"/>
<rect x="0.5" y="0.5" width="47" height="27" rx="3.5" stroke="#EBF0F5"/>
</svg>
