<svg width="120" height="36" viewBox="0 0 120 36" fill="none" xmlns="http://www.w3.org/2000/svg">
<rect width="120" height="36" rx="8" fill="black"/>
<path d="M25.5908 18.136C25.568 15.6093 27.6596 14.3801 27.7553 14.3229C26.5707 12.5958 24.7347 12.3598 24.0895 12.341C22.5474 12.1787 21.0517 13.2637 20.2661 13.2637C19.4649 13.2637 18.2553 12.3567 16.9516 12.3833C15.2739 12.4092 13.7044 13.3805 12.8436 14.8889C11.0672 17.9643 12.3921 22.4839 14.094 24.9698C14.9454 26.1873 15.9402 27.5467 17.2424 27.4988C18.5163 27.4463 18.9922 26.6867 20.5295 26.6867C22.0528 26.6867 22.4996 27.4988 23.8277 27.4683C25.1949 27.4463 26.0557 26.2453 26.8772 25.0168C27.8611 23.6214 28.2562 22.2471 28.2719 22.1765C28.2398 22.1656 25.6166 21.1645 25.5908 18.136Z" fill="white"/>
<path d="M23.0825 10.7058C23.7676 9.84898 24.2364 8.68324 24.1063 7.50024C23.1146 7.54415 21.8744 8.18621 21.1602 9.02426C20.5283 9.76275 19.9639 10.9732 20.1097 12.1115C21.2237 12.1946 22.3675 11.5494 23.0825 10.7058Z" fill="white"/>
<path d="M45.2264 26.8835H43.4163L42.4249 23.768H38.9786L38.0341 26.8835H36.2719L39.6863 16.2769H41.7952L45.2264 26.8835ZM42.126 22.4609L41.2293 19.6913C41.1345 19.4083 40.9568 18.742 40.6945 17.6932H40.6627C40.5583 18.1443 40.3901 18.8106 40.1589 19.6913L39.2782 22.4609H42.126Z" fill="white"/>
<path d="M54.0065 22.9654C54.0065 24.2661 53.655 25.2943 52.952 26.0491C52.3224 26.7209 51.5405 27.0565 50.6072 27.0565C49.5998 27.0565 48.8761 26.6946 48.4353 25.9709H48.4035V29.9999H46.7042V21.7531C46.7042 20.9354 46.6827 20.0962 46.6413 19.2354H48.1357L48.2305 20.4476H48.2624C48.8291 19.5343 49.689 19.0784 50.8431 19.0784C51.7453 19.0784 52.4985 19.4346 53.1011 20.148C53.7052 20.8621 54.0065 21.801 54.0065 22.9654ZM52.2754 23.0276C52.2754 22.2832 52.108 21.6695 51.7716 21.1865C51.4042 20.6828 50.9109 20.4309 50.2924 20.4309C49.8732 20.4309 49.4922 20.5712 49.1519 20.8477C48.8107 21.1267 48.5876 21.4909 48.4832 21.942C48.4306 22.1525 48.4043 22.3246 48.4043 22.4601V23.7353C48.4043 24.2916 48.5748 24.7611 48.9159 25.1444C49.2571 25.5278 49.7002 25.7191 50.2454 25.7191C50.8854 25.7191 51.3835 25.472 51.7398 24.9795C52.0968 24.4861 52.2754 23.8357 52.2754 23.0276Z" fill="white"/>
<path d="M62.8038 22.9654C62.8038 24.2661 62.4523 25.2943 61.7485 26.0491C61.1197 26.7209 60.3378 27.0565 59.4045 27.0565C58.3971 27.0565 57.6734 26.6946 57.2334 25.9709H57.2016V29.9999H55.5023V21.7531C55.5023 20.9354 55.4808 20.0962 55.4394 19.2354H56.9338L57.0286 20.4476H57.0605C57.6264 19.5343 58.4863 19.0784 59.6412 19.0784C60.5426 19.0784 61.2958 19.4346 61.9 20.148C62.5017 20.8621 62.8038 21.801 62.8038 22.9654ZM61.0727 23.0276C61.0727 22.2832 60.9045 21.6695 60.5681 21.1865C60.2007 20.6828 59.709 20.4309 59.0897 20.4309C58.6697 20.4309 58.2895 20.5712 57.9484 20.8477C57.6072 21.1267 57.3849 21.4909 57.2805 21.942C57.2287 22.1525 57.2016 22.3246 57.2016 22.4601V23.7353C57.2016 24.2916 57.3721 24.7611 57.7116 25.1444C58.0528 25.527 58.4959 25.7191 59.0427 25.7191C59.6827 25.7191 60.1808 25.472 60.5371 24.9795C60.8941 24.4861 61.0727 23.8357 61.0727 23.0276Z" fill="white"/>
<path d="M72.6389 23.9092C72.6389 24.8114 72.3257 25.5455 71.6968 26.1122C71.0058 26.7314 70.0438 27.0407 68.8077 27.0407C67.6663 27.0407 66.7514 26.8207 66.0588 26.38L66.4525 24.9637C67.1985 25.4148 68.017 25.6411 68.9089 25.6411C69.5489 25.6411 70.047 25.4961 70.4049 25.2075C70.7611 24.919 70.9389 24.5317 70.9389 24.0487C70.9389 23.6183 70.7922 23.2557 70.4981 22.9616C70.2056 22.6675 69.7171 22.3941 69.0348 22.1414C67.1778 21.4488 66.25 20.4342 66.25 19.1C66.25 18.2281 66.5752 17.5132 67.2264 16.9569C67.8752 16.3997 68.7407 16.1216 69.8231 16.1216C70.7882 16.1216 71.59 16.2898 72.23 16.6253L71.8052 18.0105C71.2075 17.6853 70.5316 17.5227 69.7752 17.5227C69.1775 17.5227 68.7104 17.6702 68.3757 17.9635C68.0927 18.2257 67.9509 18.5453 67.9509 18.9239C67.9509 19.3431 68.1127 19.6898 68.4378 19.9624C68.7208 20.2143 69.2349 20.4868 69.9809 20.7809C70.8935 21.1484 71.5637 21.5779 71.9949 22.0705C72.4245 22.5615 72.6389 23.176 72.6389 23.9092Z" fill="white"/>
<path d="M78.2566 20.5107H76.3836V24.224C76.3836 25.1685 76.7136 25.6403 77.3751 25.6403C77.6788 25.6403 77.9306 25.614 78.1299 25.5614L78.1769 26.8518C77.8422 26.9769 77.4014 27.0399 76.8555 27.0399C76.1844 27.0399 75.66 26.835 75.2814 26.4262C74.9044 26.0165 74.7147 25.3295 74.7147 24.3643V20.5091H73.5989V19.2339H74.7147V17.8335L76.3836 17.3298V19.2339H78.2566V20.5107Z" fill="white"/>
<path d="M86.7076 22.9967C86.7076 24.1723 86.3713 25.1375 85.7002 25.8922C84.9965 26.6693 84.0624 27.0567 82.8979 27.0567C81.7757 27.0567 80.8823 26.6845 80.216 25.94C79.5497 25.1956 79.2165 24.256 79.2165 23.1234C79.2165 21.9382 79.5592 20.9675 80.247 20.2127C80.9333 19.4571 81.8594 19.0793 83.0238 19.0793C84.146 19.0793 85.0491 19.4516 85.7305 20.1968C86.3825 20.9197 86.7076 21.853 86.7076 22.9967ZM84.9446 23.0517C84.9446 22.3463 84.794 21.7414 84.4888 21.2369C84.1325 20.6264 83.6232 20.3219 82.9633 20.3219C82.2802 20.3219 81.7614 20.6271 81.4051 21.2369C81.0999 21.7422 80.9492 22.3567 80.9492 23.0835C80.9492 23.7889 81.0999 24.3938 81.4051 24.8975C81.7725 25.5081 82.2858 25.8125 82.9481 25.8125C83.5969 25.8125 84.1062 25.5017 84.4736 24.8816C84.7868 24.3675 84.9446 23.7562 84.9446 23.0517Z" fill="white"/>
<path d="M92.231 20.7298C92.0628 20.6987 91.8835 20.6828 91.6954 20.6828C91.0976 20.6828 90.6354 20.9083 90.3102 21.3602C90.0273 21.7587 89.8854 22.2624 89.8854 22.8706V26.8835H88.1869L88.2029 21.644C88.2029 20.7625 88.1814 19.9599 88.1391 19.2362H89.6192L89.6814 20.6995H89.7284C89.9077 20.1966 90.1906 19.7917 90.578 19.488C90.9566 19.2147 91.3654 19.0784 91.8062 19.0784C91.9632 19.0784 92.1051 19.0895 92.231 19.1095V20.7298Z" fill="white"/>
<path d="M99.8308 22.6978C99.8308 23.0023 99.8109 23.2589 99.7686 23.4685H94.6709C94.6909 24.2241 94.9371 24.8019 95.4106 25.2004C95.8402 25.5567 96.3957 25.7352 97.0779 25.7352C97.8327 25.7352 98.5213 25.6149 99.1406 25.3734L99.4068 26.553C98.6831 26.8686 97.8287 27.0256 96.8428 27.0256C95.6568 27.0256 94.7259 26.6765 94.0485 25.9791C93.3726 25.2817 93.0339 24.3452 93.0339 23.1704C93.0339 22.0171 93.3487 21.0567 93.9791 20.2908C94.6391 19.4731 95.5309 19.0642 96.6531 19.0642C97.7554 19.0642 98.5899 19.4731 99.1565 20.2908C99.6053 20.9404 99.8308 21.7438 99.8308 22.6978ZM98.2105 22.257C98.2216 21.7533 98.1109 21.3182 97.8805 20.9507C97.5864 20.4781 97.1345 20.2422 96.5264 20.2422C95.9709 20.2422 95.519 20.4725 95.1739 20.9348C94.8909 21.3022 94.7227 21.743 94.6709 22.2563H98.2105V22.257Z" fill="white"/>
<path d="M41.5632 9.75191C41.5632 10.69 41.2818 11.3962 40.7199 11.8704C40.1995 12.3079 39.4598 12.5271 38.5018 12.5271C38.0268 12.5271 37.6203 12.5064 37.28 12.4649V7.33935C37.7239 7.26762 38.2021 7.23096 38.7186 7.23096C39.6312 7.23096 40.319 7.42941 40.7829 7.82633C41.3025 8.27505 41.5632 8.91664 41.5632 9.75191ZM40.6825 9.77503C40.6825 9.1669 40.5215 8.70065 40.1995 8.37547C39.8775 8.05108 39.4072 7.88849 38.788 7.88849C38.5249 7.88849 38.301 7.90603 38.1153 7.94269V11.8393C38.2181 11.8552 38.4062 11.8624 38.6796 11.8624C39.3188 11.8624 39.8121 11.6847 40.1596 11.3292C40.5071 10.9737 40.6825 10.4557 40.6825 9.77503Z" fill="white"/>
<path d="M46.233 10.5712C46.233 11.149 46.068 11.6225 45.7381 11.9939C45.3922 12.3756 44.9339 12.5661 44.3616 12.5661C43.8101 12.5661 43.3709 12.3836 43.0434 12.017C42.7166 11.6512 42.5532 11.1897 42.5532 10.6334C42.5532 10.0516 42.7214 9.57414 43.0593 9.20353C43.3972 8.83292 43.8515 8.64722 44.4238 8.64722C44.9753 8.64722 45.4185 8.82973 45.754 9.19556C46.0728 9.55103 46.233 10.0101 46.233 10.5712ZM45.3667 10.5983C45.3667 10.2516 45.2917 9.95432 45.1427 9.70645C44.9674 9.40677 44.7179 9.25693 44.3935 9.25693C44.058 9.25693 43.8029 9.40677 43.6276 9.70645C43.4777 9.95432 43.4036 10.2564 43.4036 10.6135C43.4036 10.9602 43.4785 11.2574 43.6276 11.5053C43.8085 11.805 44.0604 11.9548 44.3855 11.9548C44.7043 11.9548 44.9546 11.8026 45.1347 11.4973C45.2894 11.2447 45.3667 10.945 45.3667 10.5983Z" fill="white"/>
<path d="M52.4946 8.72412L51.319 12.4812H50.5539L50.0669 10.8498C49.9434 10.4425 49.8429 10.0376 49.7648 9.63591H49.7497C49.6772 10.0488 49.5767 10.4528 49.4476 10.8498L48.9304 12.4812H48.1565L47.051 8.72412H47.9094L48.3342 10.5102C48.437 10.9326 48.5215 11.3351 48.5892 11.7161H48.6044C48.6665 11.4021 48.7694 11.002 48.9144 10.5182L49.4476 8.72492H50.1283L50.6392 10.4799C50.7627 10.9079 50.8631 11.32 50.9404 11.7169H50.9635C51.0201 11.3304 51.1054 10.9183 51.2186 10.4799L51.6745 8.72492H52.4946V8.72412Z" fill="white"/>
<path d="M56.8239 12.4808H55.9886V10.3289C55.9886 9.66575 55.7368 9.33419 55.2315 9.33419C54.9836 9.33419 54.7835 9.42505 54.6281 9.60757C54.4743 9.79008 54.3962 10.0053 54.3962 10.2516V12.48H53.5609V9.79726C53.5609 9.46729 53.5506 9.10943 53.5306 8.72209H54.2647L54.3037 9.30949H54.3269C54.4241 9.12697 54.5691 8.97633 54.7596 8.85598C54.986 8.71571 55.2394 8.64478 55.5168 8.64478C55.8675 8.64478 56.1592 8.75795 56.3911 8.9851C56.6796 9.26326 56.8239 9.6785 56.8239 10.23V12.4808Z" fill="white"/>
<path d="M59.1285 12.4811H58.294V7H59.1285V12.4811Z" fill="white"/>
<path d="M64.0452 10.5712C64.0452 11.149 63.8802 11.6225 63.5503 11.9939C63.2044 12.3756 62.7453 12.5661 62.1738 12.5661C61.6215 12.5661 61.1823 12.3836 60.8555 12.017C60.5288 11.6512 60.3654 11.1897 60.3654 10.6334C60.3654 10.0516 60.5336 9.57414 60.8715 9.20353C61.2094 8.83292 61.6637 8.64722 62.2352 8.64722C62.7875 8.64722 63.2299 8.82973 63.5662 9.19556C63.885 9.55103 64.0452 10.0101 64.0452 10.5712ZM63.178 10.5983C63.178 10.2516 63.1031 9.95432 62.9541 9.70645C62.7795 9.40677 62.5293 9.25693 62.2057 9.25693C61.8694 9.25693 61.6143 9.40677 61.4398 9.70645C61.2899 9.95432 61.2158 10.2564 61.2158 10.6135C61.2158 10.9602 61.2907 11.2574 61.4398 11.5053C61.6207 11.805 61.8725 11.9548 62.1977 11.9548C62.5165 11.9548 62.766 11.8026 62.9461 11.4973C63.1015 11.2447 63.178 10.945 63.178 10.5983Z" fill="white"/>
<path d="M68.0877 12.4809H67.3377L67.2756 12.0481H67.2525C66.9958 12.3932 66.63 12.5661 66.155 12.5661C65.8003 12.5661 65.5134 12.4522 65.2974 12.2258C65.1013 12.0202 65.0033 11.7643 65.0033 11.4607C65.0033 11.0016 65.1946 10.6517 65.5795 10.4094C65.9637 10.1671 66.5041 10.0484 67.1999 10.0539V9.98381C67.1999 9.48886 66.94 9.24179 66.4196 9.24179C66.049 9.24179 65.7222 9.33504 65.44 9.51995L65.2703 8.9716C65.6194 8.75561 66.0506 8.64722 66.5591 8.64722C67.541 8.64722 68.0335 9.16528 68.0335 10.2014V11.585C68.0335 11.9604 68.0519 12.2593 68.0877 12.4809ZM67.2206 11.1897V10.6103C66.2992 10.5943 65.8386 10.847 65.8386 11.3674C65.8386 11.5635 65.8912 11.7101 65.9988 11.8082C66.1063 11.9062 66.2434 11.9548 66.4068 11.9548C66.5901 11.9548 66.7615 11.8966 66.9177 11.7811C67.0747 11.6647 67.1712 11.5173 67.207 11.3363C67.2158 11.2957 67.2206 11.2463 67.2206 11.1897Z" fill="white"/>
<path d="M72.8347 12.4811H72.0935L72.0544 11.8777H72.0313C71.7946 12.3368 71.3913 12.5663 70.8246 12.5663C70.3719 12.5663 69.9949 12.3886 69.696 12.0331C69.3972 11.6777 69.2481 11.2162 69.2481 10.6495C69.2481 10.0414 69.4099 9.54885 69.7351 9.17266C70.0499 8.82197 70.4357 8.64663 70.8947 8.64663C71.3993 8.64663 71.7523 8.8164 71.9532 9.15672H71.9691V7H72.8052V11.4689C72.8052 11.8347 72.8148 12.1718 72.8347 12.4811ZM71.9691 10.8966V10.2701C71.9691 10.1618 71.9612 10.0741 71.946 10.0071C71.899 9.80629 71.7978 9.63732 71.6439 9.50103C71.4885 9.36474 71.3012 9.2962 71.0852 9.2962C70.7736 9.2962 70.5297 9.41973 70.3504 9.66761C70.1727 9.91548 70.0826 10.2319 70.0826 10.6184C70.0826 10.9899 70.1679 11.2911 70.3392 11.5231C70.5202 11.7701 70.764 11.8937 71.0693 11.8937C71.3435 11.8937 71.5627 11.7909 71.7292 11.5844C71.8902 11.3939 71.9691 11.1644 71.9691 10.8966Z" fill="white"/>
<path d="M79.9777 10.5712C79.9777 11.149 79.8127 11.6225 79.4828 11.9939C79.1368 12.3756 78.6794 12.5661 78.1063 12.5661C77.5556 12.5661 77.1164 12.3836 76.7881 12.017C76.4613 11.6512 76.2979 11.1897 76.2979 10.6334C76.2979 10.0516 76.4661 9.57414 76.804 9.20353C77.1419 8.83292 77.5962 8.64722 78.1693 8.64722C78.72 8.64722 79.164 8.82973 79.4987 9.19556C79.8175 9.55103 79.9777 10.0101 79.9777 10.5712ZM79.1121 10.5983C79.1121 10.2516 79.0372 9.95432 78.8882 9.70645C78.712 9.40677 78.4634 9.25693 78.1382 9.25693C77.8034 9.25693 77.5484 9.40677 77.3723 9.70645C77.2224 9.95432 77.1483 10.2564 77.1483 10.6135C77.1483 10.9602 77.2232 11.2574 77.3723 11.5053C77.5532 11.805 77.805 11.9548 78.1302 11.9548C78.449 11.9548 78.7001 11.8026 78.8802 11.4973C79.034 11.2447 79.1121 10.945 79.1121 10.5983Z" fill="white"/>
<path d="M84.4695 12.4808H83.6351V10.3289C83.6351 9.66575 83.3832 9.33419 82.8771 9.33419C82.6292 9.33419 82.4292 9.42505 82.2746 9.60757C82.1199 9.79008 82.0426 10.0053 82.0426 10.2516V12.48H81.2066V9.79726C81.2066 9.46729 81.197 9.10943 81.1771 8.72209H81.9103L81.9494 9.30949H81.9725C82.0705 9.12697 82.2156 8.97633 82.4053 8.85598C82.6324 8.71571 82.8851 8.64478 83.1632 8.64478C83.5131 8.64478 83.8048 8.75795 84.0367 8.9851C84.3261 9.26326 84.4695 9.6785 84.4695 10.23V12.4808Z" fill="white"/>
<path d="M90.0899 9.34944H89.1701V11.1746C89.1701 11.6385 89.3335 11.8704 89.6571 11.8704C89.807 11.8704 89.9313 11.8576 90.0293 11.8313L90.0508 12.465C89.8859 12.5271 89.6691 12.5582 89.4021 12.5582C89.0721 12.5582 88.8155 12.4578 88.6298 12.2569C88.4433 12.0561 88.3508 11.7182 88.3508 11.2439V9.34944H87.8017V8.72378H88.3508V8.03516L89.1693 7.78809V8.72298H90.0891V9.34944H90.0899Z" fill="white"/>
<path d="M94.5117 12.4811H93.6756V10.3451C93.6756 9.67159 93.4238 9.33445 92.9193 9.33445C92.5319 9.33445 92.2673 9.52972 92.1222 9.92026C92.0975 10.0024 92.0832 10.1028 92.0832 10.2207V12.4803H91.2487V7H92.0832V9.26432H92.0991C92.3621 8.85226 92.7391 8.64663 93.2277 8.64663C93.5736 8.64663 93.8597 8.75981 94.0869 8.98696C94.3698 9.2699 94.5117 9.69072 94.5117 10.247V12.4811Z" fill="white"/>
<path d="M99.0732 10.4249C99.0732 10.5747 99.062 10.7007 99.0421 10.8035H96.5371C96.5482 11.1749 96.6678 11.4578 96.8997 11.6539C97.1117 11.8292 97.3851 11.9169 97.7199 11.9169C98.0905 11.9169 98.4284 11.8579 98.7329 11.7392L98.8636 12.3194C98.5073 12.474 98.0881 12.5513 97.6027 12.5513C97.0209 12.5513 96.5626 12.38 96.231 12.0373C95.8979 11.6945 95.7329 11.2347 95.7329 10.6576C95.7329 10.0909 95.8867 9.61911 96.1968 9.24292C96.5203 8.84123 96.9579 8.64038 97.5102 8.64038C98.0506 8.64038 98.4611 8.84123 98.7384 9.24292C98.9624 9.56173 99.0732 9.95625 99.0732 10.4249ZM98.2762 10.2089C98.2825 9.96103 98.2275 9.74743 98.1144 9.56731C97.9693 9.33538 97.7485 9.21901 97.4497 9.21901C97.1771 9.21901 96.9547 9.33219 96.785 9.55934C96.6463 9.74026 96.5642 9.95625 96.5371 10.2089H98.2762Z" fill="white"/>
</svg>
