<svg width="57" height="28" viewBox="0 0 57 28" fill="none" xmlns="http://www.w3.org/2000/svg">
<path d="M0 18.1805H0.996123C1.36158 18.174 1.76528 18.2695 1.76528 18.7142C1.76528 18.9055 1.6517 19.0605 1.48438 19.1431C1.71134 19.2092 1.8514 19.4063 1.8514 19.6478C1.8514 20.1543 1.4781 20.31 1.02261 20.31H0V18.1805ZM0.554164 19.0177H0.983568C1.0791 19.0177 1.21014 18.9679 1.21014 18.8147C1.21014 18.6599 1.10029 18.6091 0.983568 18.6091H0.554164V19.0177ZM0.554164 19.8655H0.998673C1.17444 19.8655 1.29684 19.802 1.29684 19.626C1.29684 19.4387 1.16561 19.3767 0.998673 19.3767H0.554164V19.8655Z" fill="#808285"/>
<path d="M2.37239 19.2388C2.38181 19.0352 2.47754 18.9051 2.61407 18.8243C2.75138 18.7466 2.93087 18.7168 3.10644 18.7168C3.47346 18.7168 3.82793 18.7966 3.82793 19.2355V19.913C3.82793 20.0437 3.82793 20.1867 3.88757 20.3097H3.37813C3.3589 20.2614 3.35419 20.2147 3.34694 20.1629C3.21649 20.2998 3.02287 20.3546 2.8373 20.3546C2.54247 20.3546 2.30981 20.2043 2.30981 19.8853C2.30981 19.3818 2.85849 19.4206 3.21041 19.3498C3.29731 19.3304 3.34478 19.301 3.34478 19.2058C3.34478 19.0901 3.20432 19.0444 3.10016 19.0444C2.9599 19.0444 2.87065 19.1083 2.84731 19.239H2.37239V19.2388ZM3.02915 20.0407C3.27024 20.0407 3.35047 19.9032 3.33909 19.5842C3.2671 19.6295 3.13606 19.6384 3.02523 19.6682C2.91263 19.6949 2.8171 19.742 2.8171 19.8653C2.8171 19.9903 2.91479 20.0407 3.02915 20.0407Z" fill="#808285"/>
<path d="M4.42505 18.7613H4.91781V18.9728H4.9235C5.0159 18.8143 5.2252 18.7168 5.41019 18.7168C5.92551 18.7168 5.96729 19.0919 5.96729 19.3163V20.3097H5.4604V19.5607C5.4604 19.3498 5.48394 19.1338 5.20716 19.1338C5.0159 19.1338 4.93292 19.2955 4.93292 19.465V20.3097H4.42505V18.7613Z" fill="#808285"/>
<path d="M8.06607 20.1207C8.06607 20.3746 8.01879 20.8517 7.29377 20.8517C6.93302 20.8517 6.59248 20.7708 6.53383 20.3565H7.04032C7.05209 20.426 7.07916 20.4674 7.12683 20.4911C7.17195 20.5148 7.23374 20.5246 7.31181 20.5246C7.55368 20.5246 7.57722 20.3546 7.57722 20.1629V20.017H7.57114C7.47914 20.16 7.32378 20.2432 7.15959 20.2432C6.69135 20.2432 6.48047 19.9095 6.48047 19.4738C6.48047 19.0626 6.72214 18.7168 7.15959 18.7168C7.34457 18.7168 7.48562 18.7966 7.57428 18.9555H7.58056V18.7613H8.06607V20.1207ZM7.28278 19.104C7.05798 19.104 6.98677 19.3008 6.98677 19.492C6.98677 19.6729 7.07073 19.8553 7.27866 19.8553C7.49366 19.8553 7.58664 19.6898 7.58664 19.4946C7.58644 19.2982 7.50817 19.104 7.28278 19.104Z" fill="#808285"/>
<path d="M9.17798 18.1802H8.6709V20.3093H9.17798V18.1802Z" fill="#808285"/>
<path d="M9.77791 19.2388C9.78791 19.0352 9.88325 18.9051 10.0192 18.8243C10.1565 18.7466 10.3358 18.7168 10.5116 18.7168C10.879 18.7168 11.2336 18.7966 11.2336 19.2355V19.913C11.2336 20.0437 11.2336 20.1867 11.2929 20.3097H10.7836C10.7654 20.2614 10.7597 20.2147 10.753 20.1629C10.622 20.2998 10.429 20.3546 10.2426 20.3546C9.94798 20.3546 9.71533 20.2043 9.71533 19.8853C9.71533 19.3818 10.2642 19.4206 10.6157 19.3498C10.7028 19.3304 10.7503 19.301 10.7503 19.2058C10.7503 19.0901 10.6104 19.0444 10.5055 19.0444C10.3654 19.0444 10.2758 19.1083 10.2528 19.239H9.77791V19.2388ZM10.4347 20.0407C10.6758 20.0407 10.7568 19.9032 10.7448 19.5842C10.6726 19.6295 10.5412 19.6384 10.4307 19.6682C10.3181 19.6949 10.2228 19.742 10.2228 19.8653C10.2228 19.9903 10.3203 20.0407 10.4347 20.0407Z" fill="#808285"/>
<path d="M13.3641 20.3097H12.8804V20.1304H12.8743C12.7762 20.2762 12.6267 20.3547 12.4488 20.3547C11.9615 20.3547 11.7563 19.9372 11.7563 19.5015C11.7563 19.0984 11.971 18.7169 12.4094 18.7169C12.6012 18.7169 12.7464 18.7873 12.8509 18.9278H12.8568V18.1802H13.3641V20.3097ZM12.2632 19.5184C12.2632 19.7307 12.3407 19.9668 12.5732 19.9668C12.8215 19.9668 12.8743 19.7307 12.8743 19.5331C12.8743 19.3103 12.7941 19.1041 12.5732 19.1041C12.3407 19.1043 12.2632 19.3226 12.2632 19.5184Z" fill="#808285"/>
<path d="M14.4069 19.6582C14.4158 19.8706 14.5378 20.0109 14.7528 20.0109C14.8752 20.0109 14.9939 19.9542 15.0419 19.8414H15.5163C15.4241 20.1992 15.0927 20.3544 14.7469 20.3544C14.2427 20.3544 13.8997 20.0493 13.8997 19.5311C13.8997 19.0569 14.2786 18.7168 14.7347 18.7168C15.2891 18.7168 15.5661 19.1338 15.5427 19.6584H14.4069V19.6582ZM15.0364 19.3763C15.0274 19.2027 14.9042 19.0599 14.7347 19.0599C14.5558 19.0599 14.436 19.188 14.4069 19.3763H15.0364Z" fill="#808285"/>
<path d="M16.4519 19.8002C16.4519 19.8761 16.4852 19.9338 16.536 19.9722C16.5839 20.0083 16.6521 20.0254 16.7237 20.0254C16.8226 20.0254 16.9629 19.9838 16.9629 19.8612C16.9629 19.742 16.8046 19.7182 16.7149 19.6986C16.3959 19.6168 15.9962 19.609 15.9962 19.1905C15.9962 18.8174 16.3987 18.7168 16.7029 18.7168C17.0435 18.7168 17.398 18.8145 17.4152 19.2176H16.9474C16.9474 19.1521 16.9238 19.1101 16.882 19.0834C16.8403 19.0569 16.7838 19.044 16.7206 19.044C16.6376 19.044 16.503 19.054 16.503 19.1605C16.503 19.3074 16.8428 19.3339 17.0753 19.3843C17.3889 19.4473 17.469 19.6731 17.469 19.8018C17.469 20.2163 17.0753 20.3546 16.7257 20.3546C16.3602 20.3546 15.984 20.232 15.9695 19.8002H16.4519Z" fill="#808285"/>
<path d="M17.9807 18.1802H18.488V18.9727H18.4941C18.5718 18.8144 18.7801 18.7167 18.9647 18.7167C19.4808 18.7167 19.5228 19.0918 19.5228 19.3162V20.3093H19.0153V19.5606C19.0153 19.3497 19.0394 19.1337 18.7622 19.1337C18.5718 19.1337 18.488 19.2954 18.488 19.4649V20.3093H17.9807V18.1802Z" fill="#808285"/>
<path d="M21.9233 18.1802H22.4877L23.2839 20.3095H22.705L22.5746 19.9282H21.8307L21.697 20.3095H21.1277L21.9233 18.1802ZM21.959 19.5161H22.4422L22.2076 18.7698H22.2011L21.959 19.5161Z" fill="#808285"/>
<path d="M24.08 19.8002C24.08 19.8761 24.114 19.9338 24.1642 19.9722C24.2128 20.0083 24.2811 20.0254 24.3527 20.0254C24.4504 20.0254 24.5908 19.9838 24.5908 19.8612C24.5908 19.742 24.4333 19.7182 24.3441 19.6986C24.0241 19.6168 23.6245 19.609 23.6245 19.1905C23.6245 18.8174 24.0269 18.7168 24.3309 18.7168C24.6717 18.7168 25.0261 18.8145 25.044 19.2176H24.5761C24.5761 19.1521 24.5512 19.1101 24.5102 19.0834C24.4684 19.0569 24.4121 19.044 24.3486 19.044C24.2656 19.044 24.1318 19.054 24.1318 19.1605C24.1318 19.3074 24.471 19.3339 24.704 19.3843C25.0171 19.4473 25.0975 19.6731 25.0975 19.8018C25.0975 20.2163 24.704 20.3546 24.3543 20.3546C23.9884 20.3546 23.6126 20.232 23.5977 19.8002H24.08Z" fill="#808285"/>
<path d="M26.0011 19.8002C26.0011 19.8761 26.0339 19.9338 26.0847 19.9722C26.1324 20.0083 26.2012 20.0254 26.2724 20.0254C26.3713 20.0254 26.5117 19.9838 26.5117 19.8612C26.5117 19.742 26.3532 19.7182 26.2646 19.6986C25.9446 19.6168 25.545 19.609 25.545 19.1905C25.545 18.8174 25.9474 18.7168 26.2518 18.7168C26.5916 18.7168 26.9464 18.8145 26.9643 19.2176H26.496C26.496 19.1521 26.4721 19.1101 26.4307 19.0834C26.3889 19.0569 26.3324 19.044 26.2691 19.044C26.1865 19.044 26.0515 19.054 26.0515 19.1605C26.0515 19.3074 26.3919 19.3339 26.6243 19.3843C26.9376 19.4473 27.0186 19.6731 27.0186 19.8018C27.0186 20.2163 26.6243 20.3546 26.2757 20.3546C25.9089 20.3546 25.5331 20.232 25.5186 19.8002H26.0011Z" fill="#808285"/>
<path d="M28.2687 18.7168C28.7482 18.7168 29.0857 19.0713 29.0857 19.537C29.0857 20.0017 28.7482 20.3548 28.2687 20.3548C27.7891 20.3548 27.4539 20.0017 27.4539 19.537C27.4539 19.0713 27.7891 18.7168 28.2687 18.7168ZM28.2687 19.9668C28.5039 19.9668 28.5787 19.7331 28.5787 19.537C28.5787 19.3404 28.5039 19.1044 28.2687 19.1044C28.032 19.1044 27.9611 19.3404 27.9611 19.537C27.9611 19.7331 28.032 19.9668 28.2687 19.9668Z" fill="#808285"/>
<path d="M30.6225 19.328C30.6186 19.197 30.5034 19.1042 30.3746 19.1042C30.0919 19.1042 30.0464 19.3467 30.0464 19.5607C30.0464 19.7604 30.1341 19.9668 30.3479 19.9668C30.5248 19.9668 30.6133 19.8651 30.6368 19.7011H31.1298C31.0839 20.1156 30.7636 20.3546 30.351 20.3546C29.8847 20.3546 29.5403 20.0352 29.5403 19.5607C29.5403 19.0683 29.8543 18.7168 30.351 18.7168C30.7355 18.7168 31.078 18.9198 31.1159 19.3278H30.6225V19.328Z" fill="#808285"/>
<path d="M32.1704 18.567H31.6633V18.1802H32.1704V18.567ZM31.6633 18.7612H32.1704V20.3097H31.6633V18.7612Z" fill="#808285"/>
<path d="M32.7729 19.2388C32.7823 19.0352 32.8769 18.9051 33.015 18.8243C33.1513 18.7466 33.3308 18.7168 33.5072 18.7168C33.873 18.7168 34.2289 18.7966 34.2289 19.2355V19.913C34.2289 20.0437 34.2289 20.1867 34.2871 20.3097H33.7779C33.759 20.2614 33.7538 20.2147 33.7479 20.1629C33.6162 20.2998 33.4232 20.3546 33.2388 20.3546C32.942 20.3546 32.71 20.2043 32.71 19.8853C32.71 19.3818 33.2584 19.4206 33.6109 19.3498C33.698 19.3304 33.7443 19.301 33.7443 19.2058C33.7443 19.0901 33.6055 19.0444 33.5001 19.0444C33.36 19.0444 33.271 19.1083 33.2482 19.239H32.7729V19.2388ZM33.4295 20.0407C33.671 20.0407 33.751 19.9032 33.7394 19.5842C33.668 19.6295 33.5366 19.6384 33.4254 19.6682C33.3122 19.6949 33.218 19.742 33.218 19.8653C33.218 19.9903 33.3165 20.0407 33.4295 20.0407Z" fill="#808285"/>
<path d="M35.7573 19.091H35.4433V19.7938C35.4433 19.9164 35.5147 19.9425 35.6257 19.9425C35.6671 19.9425 35.712 19.9382 35.7573 19.9382V20.3107C35.6639 20.3129 35.5719 20.325 35.4788 20.325C35.0476 20.325 34.9372 20.2003 34.9372 19.7795V19.091H34.6802V18.7622H34.9372V18.2949H35.4433V18.7622H35.7573V19.091Z" fill="#808285"/>
<path d="M36.772 18.567H36.2663V18.1802H36.772V18.567ZM36.2661 18.7612H36.7718V20.3097H36.2661V18.7612Z" fill="#808285"/>
<path d="M38.136 18.7168C38.6158 18.7168 38.953 19.0713 38.953 19.537C38.953 20.0017 38.6158 20.3548 38.136 20.3548C37.6559 20.3548 37.3213 20.0017 37.3213 19.537C37.3213 19.0713 37.6559 18.7168 38.136 18.7168ZM38.136 19.9668C38.3704 19.9668 38.4459 19.7331 38.4459 19.537C38.4459 19.3404 38.3704 19.1044 38.136 19.1044C37.9 19.1044 37.8284 19.3404 37.8284 19.537C37.8282 19.7331 37.9 19.9668 38.136 19.9668Z" fill="#808285"/>
<path d="M39.4783 18.7613H39.9703V18.9728H39.9771C40.0693 18.8143 40.2776 18.7168 40.4626 18.7168C40.9785 18.7168 41.0211 19.0919 41.0211 19.3163V20.3097H40.5144V19.5607C40.5144 19.3498 40.538 19.1338 40.26 19.1338C40.0693 19.1338 39.9856 19.2955 39.9856 19.465V20.3097H39.4785V18.7613H39.4783Z" fill="#808285"/>
<path d="M43.5664 18.7168C44.0452 18.7168 44.383 19.0713 44.383 19.537C44.383 20.0017 44.0452 20.3548 43.5664 20.3548C43.0854 20.3548 42.7498 20.0017 42.7498 19.537C42.7498 19.0713 43.0854 18.7168 43.5664 18.7168ZM43.5664 19.9668C43.8014 19.9668 43.8753 19.7331 43.8753 19.537C43.8753 19.3404 43.8014 19.1044 43.5664 19.1044C43.3298 19.1044 43.2584 19.3404 43.2584 19.537C43.2584 19.7331 43.3298 19.9668 43.5664 19.9668Z" fill="#808285"/>
<path d="M45.021 19.09H44.7776V18.7612H45.021C45.021 18.3171 45.1758 18.1802 45.6089 18.1802C45.6888 18.1802 45.7725 18.1855 45.8534 18.189V18.5462C45.8067 18.5403 45.761 18.538 45.7164 18.538C45.5995 18.538 45.5281 18.5521 45.5281 18.6922V18.7612H45.8328V19.09H45.5281V20.3097H45.021V19.09Z" fill="#808285"/>
<path d="M0.555145 22.5721C0.567308 22.8224 0.722474 22.9032 0.957283 22.9032C1.12481 22.9032 1.29743 22.8432 1.29743 22.6856C1.29743 22.4983 0.993377 22.4618 0.686772 22.3761C0.38154 22.2894 0.0633611 22.1523 0.0633611 21.7605C0.0633611 21.2958 0.530821 21.1138 0.930604 21.1138C1.35452 21.1138 1.78117 21.3194 1.78412 21.7994H1.22956C1.2378 21.6061 1.05595 21.543 0.886271 21.543C0.766611 21.543 0.616937 21.5844 0.616937 21.7254C0.616937 21.889 0.925308 21.9196 1.23525 22.0053C1.54205 22.092 1.8516 22.235 1.8516 22.6205C1.8516 23.1602 1.39316 23.3322 0.925308 23.3322C0.435877 23.3322 0.0027463 23.1182 0 22.5723H0.555145V22.5721Z" fill="#808285"/>
<path d="M2.75144 21.6958C3.23086 21.6958 3.56886 22.0514 3.56886 22.516C3.56886 22.9817 3.23086 23.333 2.75144 23.333C2.27084 23.333 1.93677 22.9817 1.93677 22.516C1.93696 22.0514 2.27084 21.6958 2.75144 21.6958ZM2.75144 22.9456C2.98684 22.9456 3.06099 22.7127 3.06099 22.516C3.06099 22.3202 2.98684 22.0842 2.75144 22.0842C2.51565 22.0842 2.44366 22.3202 2.44366 22.516C2.44385 22.7129 2.51565 22.9456 2.75144 22.9456Z" fill="#808285"/>
<path d="M3.86361 22.069H3.61841V21.7406H3.86361C3.86361 21.2961 4.018 21.1592 4.45073 21.1592C4.53116 21.1592 4.61512 21.1645 4.69555 21.168V21.5262C4.64749 21.5199 4.60237 21.5168 4.55862 21.5168C4.44171 21.5168 4.36991 21.5315 4.36991 21.6716V21.7406H4.67436V22.069H4.36991V23.2893H3.86361V22.069Z" fill="#808285"/>
<path d="M5.89515 22.0688H5.58306V22.773C5.58306 22.8937 5.65309 22.9213 5.76412 22.9213C5.8059 22.9213 5.85102 22.9154 5.89515 22.9154V23.2891C5.80217 23.2905 5.70958 23.3029 5.61797 23.3029C5.18543 23.3029 5.07499 23.1775 5.07499 22.7577V22.0688H4.8186V21.7404H5.07499V21.272H5.58306V21.7404H5.89515V22.0688Z" fill="#808285"/>
<path d="M8.02671 23.2891H7.51315L7.26873 22.2601H7.26304L7.02157 23.2891H6.50781L6.02466 21.7402H6.53861L6.79833 22.7426H6.80402L7.02431 21.7402H7.50766L7.73403 22.7401H7.7407L7.99356 21.7402H8.51006L8.02671 23.2891Z" fill="#808285"/>
<path d="M8.57722 22.2182C8.58664 22.0161 8.68237 21.8839 8.81949 21.8031C8.95563 21.7262 9.13512 21.6958 9.31127 21.6958C9.6783 21.6958 10.0334 21.7764 10.0334 22.2152V22.8916C10.0334 23.0232 10.0334 23.1661 10.0924 23.2894H9.58237C9.56452 23.2412 9.55903 23.1933 9.55216 23.1429C9.42112 23.2794 9.22771 23.3328 9.04272 23.3328C8.7471 23.3328 8.51465 23.1845 8.51465 22.8655C8.51465 22.3614 9.06411 22.4002 9.41504 22.3296C9.50194 22.3102 9.54961 22.2808 9.54961 22.1856C9.54961 22.0693 9.40975 22.024 9.3046 22.024C9.16513 22.024 9.07489 22.087 9.05214 22.2182H8.57722ZM9.2334 23.0205C9.47566 23.0205 9.55609 22.883 9.54392 22.5642C9.47291 22.6086 9.34089 22.6184 9.23085 22.648C9.11727 22.6747 9.02252 22.7223 9.02252 22.8441C9.02252 22.9703 9.12099 23.0205 9.2334 23.0205Z" fill="#808285"/>
<path d="M10.3064 21.74H10.7984V22.0111H10.8043C10.8786 21.8149 11.0512 21.71 11.269 21.71C11.3078 21.71 11.3498 21.7135 11.3886 21.7223V22.1847C11.3227 22.1668 11.2631 22.1553 11.195 22.1553C10.9445 22.1553 10.8131 22.3287 10.8131 22.5217V23.2887H10.3064V21.74Z" fill="#808285"/>
<path d="M11.9832 22.6394C11.9928 22.8507 12.1148 22.9908 12.3294 22.9908C12.4522 22.9908 12.5703 22.9347 12.6183 22.8213H13.0923C13.0007 23.1785 12.6691 23.3333 12.3237 23.3333C11.8188 23.3333 11.4761 23.0298 11.4761 22.5114C11.4761 22.0362 11.8551 21.6963 12.3111 21.6963C12.8663 21.6963 13.1431 22.1141 13.1201 22.6396H11.9832V22.6394ZM12.6128 22.3554C12.6044 22.1828 12.4816 22.039 12.3111 22.039C12.1328 22.039 12.013 22.1681 11.9832 22.3554H12.6128Z" fill="#808285"/>
<path d="M15.2459 23.1084C15.0617 23.26 14.8744 23.3322 14.6355 23.3322C14.2567 23.3322 13.9255 23.0793 13.9255 22.6825C13.9255 22.3779 14.1519 22.1817 14.4089 22.0616C14.3037 21.9463 14.2204 21.8151 14.2204 21.6534C14.2204 21.3223 14.5217 21.1138 14.8289 21.1138C15.1482 21.1138 15.4315 21.3258 15.4315 21.6658C15.4315 21.9137 15.2793 22.0862 15.0674 22.1935L15.2881 22.4587C15.3301 22.3957 15.3569 22.3237 15.3658 22.2501H15.8007C15.7834 22.441 15.6971 22.6287 15.5659 22.7686L16.0141 23.2886H15.396L15.2459 23.1084ZM14.6615 22.3957C14.5584 22.444 14.4146 22.5479 14.4146 22.6766C14.4146 22.8255 14.5584 22.921 14.6949 22.921C14.7904 22.921 14.8979 22.8434 14.9787 22.7688L14.6615 22.3957ZM15.017 21.6358C15.017 21.5342 14.9419 21.4722 14.8383 21.4722C14.7457 21.4722 14.6714 21.5412 14.6714 21.6299C14.6714 21.7462 14.7541 21.8151 14.8204 21.8984C14.9242 21.8349 15.017 21.7641 15.017 21.6358Z" fill="#808285"/>
<path d="M17.3358 21.1592H16.78V23.2891H17.3358V21.1592Z" fill="#808285"/>
<path d="M17.6184 21.7411H18.1104V21.953H18.1171C18.2098 21.7941 18.4182 21.6958 18.6033 21.6958C19.1191 21.6958 19.1608 22.0722 19.1608 22.2961V23.2896H18.653V22.5405C18.653 22.3296 18.6769 22.1136 18.4001 22.1136C18.2098 22.1136 18.1255 22.2753 18.1255 22.4448V23.2896H17.6184V21.7411Z" fill="#808285"/>
<path d="M19.5286 22.069H19.2842V21.7406H19.5286C19.5286 21.2961 19.6842 21.1592 20.1149 21.1592C20.1963 21.1592 20.2797 21.1645 20.3605 21.168V21.5262C20.3125 21.5199 20.2683 21.5168 20.2238 21.5168C20.1067 21.5168 20.0353 21.5315 20.0353 21.6716V21.7406H20.3393V22.069H20.0353V23.2893H19.5286V22.069Z" fill="#808285"/>
<path d="M21.1839 21.6958C21.6639 21.6958 22.0013 22.0514 22.0013 22.516C22.0013 22.9817 21.6639 23.333 21.1839 23.333C20.7042 23.333 20.3704 22.9817 20.3704 22.516C20.3704 22.0514 20.7042 21.6958 21.1839 21.6958ZM21.1839 22.9456C21.4196 22.9456 21.4938 22.7127 21.4938 22.516C21.4938 22.3202 21.4196 22.0842 21.1839 22.0842C20.9481 22.0842 20.8763 22.3202 20.8763 22.516C20.8763 22.7129 20.9481 22.9456 21.1839 22.9456Z" fill="#808285"/>
<path d="M22.2046 21.74H22.6964V22.0111H22.7021C22.7772 21.8149 22.95 21.71 23.1676 21.71C23.206 21.71 23.2484 21.7135 23.2858 21.7223V22.1847C23.2207 22.1668 23.1615 22.1553 23.0934 22.1553C22.8425 22.1553 22.7121 22.3287 22.7121 22.5217V23.2887H22.2046V21.74Z" fill="#808285"/>
<path d="M23.3774 21.7411H23.871V21.953H23.8765C23.9695 21.7978 24.1329 21.6958 24.321 21.6958C24.5148 21.6958 24.6878 21.7588 24.7708 21.9471C24.8936 21.7823 25.045 21.6958 25.2541 21.6958C25.7461 21.6958 25.7997 22.0693 25.7997 22.3649V23.2896H25.2932V22.3786C25.2932 22.2121 25.2124 22.1134 25.0807 22.1134C24.8638 22.1134 24.8428 22.2806 24.8428 22.5309V23.2894H24.3359V22.4083C24.3359 22.2268 24.2827 22.1134 24.1446 22.1134C23.9626 22.1134 23.8843 22.218 23.8843 22.5344V23.2896H23.3774V21.7411Z" fill="#808285"/>
<path d="M26.0369 22.2182C26.0461 22.0161 26.1411 21.8839 26.279 21.8031C26.4161 21.7262 26.5946 21.6958 26.7705 21.6958C27.1376 21.6958 27.4926 21.7764 27.4926 22.2152V22.8916C27.4926 23.0232 27.4926 23.1661 27.5519 23.2894H27.0416C27.0236 23.2412 27.0177 23.1933 27.0122 23.1429C26.881 23.2794 26.6878 23.3328 26.502 23.3328C26.2062 23.3328 25.9751 23.1845 25.9751 22.8655C25.9751 22.3614 26.5236 22.4002 26.8749 22.3296C26.9614 22.3102 27.0087 22.2808 27.0087 22.1856C27.0087 22.0693 26.8686 22.024 26.7645 22.024C26.6244 22.024 26.5348 22.087 26.5114 22.2182H26.0369ZM26.6925 23.0205C26.9345 23.0205 27.0154 22.883 27.0032 22.5642C26.9324 22.6086 26.8004 22.6184 26.6897 22.648C26.5767 22.6747 26.4814 22.7223 26.4814 22.8441C26.4814 22.9703 26.5795 23.0205 26.6925 23.0205Z" fill="#808285"/>
<path d="M28.6814 22.0688H28.3681V22.773C28.3681 22.8937 28.4393 22.9213 28.5503 22.9213C28.5921 22.9213 28.6363 22.9154 28.6814 22.9154V23.2891C28.5884 23.2905 28.4958 23.3029 28.4034 23.3029C27.9717 23.3029 27.8608 23.1775 27.8608 22.7577V22.0688H27.6042V21.7404H27.8608V21.272H28.3681V21.7404H28.6814V22.0688Z" fill="#808285"/>
<path d="M29.3544 21.5464H28.8477V21.1592H29.3544V21.5464ZM28.8477 21.7406H29.3544V23.2895H28.8477V21.7406Z" fill="#808285"/>
<path d="M30.3731 21.6958C30.8531 21.6958 31.1903 22.0514 31.1903 22.516C31.1903 22.9817 30.8531 23.333 30.3731 23.333C29.8921 23.333 29.5586 22.9817 29.5586 22.516C29.5584 22.0514 29.8919 21.6958 30.3731 21.6958ZM30.3731 22.9456C30.6077 22.9456 30.683 22.7127 30.683 22.516C30.683 22.3202 30.6077 22.0842 30.3731 22.0842C30.1371 22.0842 30.0657 22.3202 30.0657 22.516C30.0655 22.7129 30.1369 22.9456 30.3731 22.9456Z" fill="#808285"/>
<path d="M31.3762 21.7411H31.8686V21.953H31.8739C31.9661 21.7941 32.1766 21.6958 32.3618 21.6958C32.8753 21.6958 32.9196 22.0722 32.9196 22.2961V23.2896H32.4116V22.5405C32.4116 22.3296 32.4357 22.1136 32.1577 22.1136C31.9659 22.1136 31.8833 22.2753 31.8833 22.4448V23.2896H31.3762V21.7411Z" fill="#808285"/>
<path d="M34.2881 22.5721C34.3013 22.8224 34.4566 22.9032 34.6924 22.9032C34.8596 22.9032 35.0316 22.8432 35.0316 22.6856C35.0316 22.4983 34.7283 22.4618 34.42 22.3761C34.1169 22.2894 33.7969 22.1523 33.7969 21.7605C33.7969 21.2958 34.2652 21.1138 34.6654 21.1138C35.0893 21.1138 35.5146 21.3194 35.5185 21.7994H34.9631C34.9726 21.6061 34.7901 21.543 34.6202 21.543C34.501 21.543 34.3515 21.5844 34.3515 21.7254C34.3515 21.889 34.6595 21.9196 34.9694 22.0053C35.276 22.092 35.5879 22.235 35.5879 22.6205C35.5879 23.1602 35.1275 23.3322 34.6595 23.3322C34.1701 23.3322 33.7379 23.1182 33.7354 22.5723H34.2881V22.5721Z" fill="#808285"/>
<path d="M36.1792 22.6394C36.1884 22.8507 36.3106 22.9908 36.5256 22.9908C36.6478 22.9908 36.7663 22.9347 36.8156 22.8213H37.2897C37.1965 23.1785 36.8654 23.3333 36.5194 23.3333C36.0146 23.3333 35.6721 23.0298 35.6721 22.5114C35.6721 22.0362 36.0525 21.6963 36.508 21.6963C37.0625 21.6963 37.3405 22.1141 37.3154 22.6396H36.1792V22.6394ZM36.8085 22.3554C36.8001 22.1828 36.6779 22.039 36.5078 22.039C36.3285 22.039 36.2092 22.1681 36.1792 22.3554H36.8085Z" fill="#808285"/>
<path d="M37.5059 21.74H37.9978V22.0111H38.0037C38.0787 21.8149 38.2517 21.71 38.4684 21.71C38.5073 21.71 38.5502 21.7135 38.5897 21.7223V22.1847C38.5232 22.1668 38.4629 22.1553 38.3945 22.1553C38.1438 22.1553 38.0131 22.3287 38.0131 22.5217V23.2887H37.5059V21.74Z" fill="#808285"/>
<path d="M39.7224 23.2891H39.1374L38.6223 21.7402H39.1498L39.4321 22.7636H39.4399L39.7232 21.7402H40.2413L39.7224 23.2891Z" fill="#808285"/>
<path d="M40.8489 21.5464H40.3418V21.1592H40.8489V21.5464ZM40.3418 21.7406H40.8489V23.2895H40.3418V21.7406Z" fill="#808285"/>
<path d="M42.1359 22.3082C42.133 22.176 42.0175 22.0844 41.888 22.0844C41.6041 22.0844 41.5596 22.3249 41.5596 22.5409C41.5596 22.741 41.6475 22.9458 41.8613 22.9458C42.0373 22.9458 42.1265 22.8441 42.1507 22.6805H42.643C42.5973 23.0948 42.277 23.333 41.8654 23.333C41.3982 23.333 41.0537 23.0148 41.0537 22.5407C41.0537 22.0475 41.3676 21.6958 41.8654 21.6958C42.2497 21.6958 42.5922 21.8992 42.6293 22.3078H42.1359V22.3082Z" fill="#808285"/>
<path d="M43.2487 22.6394C43.2581 22.8507 43.3803 22.9908 43.5951 22.9908C43.7173 22.9908 43.8348 22.9347 43.8847 22.8213H44.3582C44.266 23.1785 43.9345 23.3333 43.5879 23.3333C43.0843 23.3333 42.7412 23.0298 42.7412 22.5114C42.7412 22.0362 43.1212 21.6963 43.5767 21.6963C44.131 21.6963 44.409 22.1141 44.3849 22.6396H43.2487V22.6394ZM43.877 22.3554C43.8697 22.1828 43.7475 22.039 43.5765 22.039C43.397 22.039 43.2787 22.1681 43.2487 22.3554H43.877Z" fill="#808285"/>
<path d="M44.9518 22.779C44.9518 22.8561 44.985 22.9132 45.0358 22.9516C45.0824 22.9881 45.1511 23.0058 45.2235 23.0058C45.32 23.0058 45.461 22.9638 45.461 22.8416C45.461 22.7223 45.3043 22.6986 45.2151 22.6774C44.8947 22.5966 44.4959 22.5878 44.4959 22.1703C44.4959 21.7978 44.8982 21.6958 45.2019 21.6958C45.5438 21.6958 45.8959 21.7941 45.916 22.1976H45.4465C45.4465 22.1319 45.4226 22.0901 45.381 22.0626C45.3388 22.0359 45.2825 22.0242 45.2205 22.0242C45.1368 22.0242 45.0018 22.033 45.0018 22.1411C45.0018 22.2865 45.3428 22.3141 45.574 22.3653C45.8881 22.4265 45.9683 22.6543 45.9683 22.7824C45.9683 23.1963 45.574 23.3334 45.226 23.3334C44.859 23.3334 44.4836 23.2118 44.4692 22.7794H44.9518V22.779Z" fill="#808285"/>
<path d="M0 4.88379H4.6336C6.75453 4.88379 8.91764 5.38813 8.91764 7.89452C8.91764 8.84572 8.43762 9.78143 7.48034 10.0855V10.1704C8.67027 10.5904 9.42511 11.4529 9.42511 12.7492C9.42511 14.9829 7.33459 15.7478 5.41767 15.7478H0V4.88379ZM4.05256 9.0615C4.6336 9.0615 5.28742 9.00403 5.28742 8.25625C5.28742 7.44785 4.54572 7.50592 3.96468 7.50592H3.68887V9.0615H4.05256ZM3.68887 13.1535H4.13927C4.79289 13.1535 5.7382 13.1394 5.7382 12.2454C5.7382 11.3384 4.72011 11.3517 4.08081 11.3517H3.68887V13.1535Z" fill="#808285"/>
<path d="M13.9437 15.7481H9.73145L13.537 4.88428H17.937L21.8446 15.7481H17.6322L17.2683 14.3928H14.2636L13.9437 15.7481ZM16.5715 11.8134L16.1054 9.89706C15.9899 9.43627 15.9187 8.96057 15.8457 8.50018H15.7001L14.9735 11.8134H16.5715Z" fill="#808285"/>
<path d="M23.326 11.8569L23.5292 12.0156C24.2403 12.5629 25.0973 13.0092 26.0128 13.0092C26.4046 13.0092 27.0284 12.8507 27.0284 12.3609C27.0284 11.872 26.5052 11.8271 26.1435 11.7555L25.3437 11.6119C23.7899 11.3386 22.4826 10.4306 22.4826 8.73005C22.4826 6.15088 24.8494 4.71143 27.2308 4.71143C28.48 4.71143 29.6275 5.01313 30.7033 5.66223L29.6275 8.44228C28.9459 7.98149 28.1757 7.62094 27.3179 7.62094C26.9701 7.62094 26.4618 7.75158 26.4618 8.19786C26.4618 8.60097 26.9568 8.65924 27.261 8.73005L28.1618 8.93269C29.8469 9.30697 31.0652 10.2001 31.0652 12.0442C31.0652 14.6377 28.6852 15.9207 26.3177 15.9207C24.9367 15.9207 23.3393 15.546 22.1052 14.9267L23.326 11.8569Z" fill="#808285"/>
<path d="M36.3111 4.88428H32.3325V15.7481H36.3111V4.88428Z" fill="#808285"/>
<path d="M38.8092 11.8569L39.0137 12.0156C39.7253 12.5629 40.581 13.0092 41.4981 13.0092C41.8888 13.0092 42.5128 12.8507 42.5128 12.3609C42.5128 11.872 41.9914 11.8271 41.6277 11.7555L40.8299 11.6119C39.2734 11.3386 37.9675 10.4306 37.9675 8.73005C37.9675 6.15088 40.335 4.71143 42.7165 4.71143C43.9652 4.71143 45.1132 5.01313 46.187 5.66223L45.113 8.44228C44.429 7.98149 43.6606 7.62094 42.8043 7.62094C42.4559 7.62094 41.9469 7.75158 41.9469 8.19786C41.9469 8.60097 42.4403 8.65924 42.7463 8.73005L43.6463 8.93269C45.3307 9.30697 46.5495 10.2001 46.5495 12.0442C46.5495 14.6377 44.1685 15.9207 41.8021 15.9207C40.4221 15.9207 38.8238 15.546 37.5901 14.9267L38.8092 11.8569Z" fill="#808285"/>
<path d="M48.9194 13.1481V10.3296L51.3146 11.7394L53.7325 13.1481L51.3254 14.5569L48.9194 15.966V13.1481Z" fill="#6EC8BF"/>
<path d="M48.9194 7.4848V4.6665L51.3146 6.07634L53.7325 7.4848L51.3254 8.89463L48.9194 10.3033V7.4848Z" fill="#007F3E"/>
<path d="M51.7322 10.2834V7.46533L54.094 8.8736L56.4947 10.2834L54.1144 11.6927L51.7322 13.1021V10.2834Z" fill="#ED1C24"/>
<path d="M55.1413 4.66748C55.3353 4.66748 55.5186 4.7024 55.6906 4.77262C55.863 4.84285 56.0156 4.94486 56.15 5.07903C56.2803 5.21066 56.3809 5.36288 56.4513 5.5357C56.5221 5.70852 56.5574 5.89017 56.5574 6.08065C56.5574 6.27367 56.5227 6.45454 56.4533 6.62304C56.3838 6.79135 56.2826 6.94044 56.15 7.06932C56.0111 7.20467 55.8546 7.30903 55.6802 7.3822C55.5064 7.45556 55.3263 7.49225 55.1413 7.49225C54.9548 7.49225 54.7769 7.45655 54.608 7.38514C54.4389 7.31374 54.2861 7.20957 54.1493 7.07304C54.0144 6.93887 53.9112 6.78664 53.8398 6.61637C53.7684 6.4461 53.7327 6.26759 53.7327 6.08065C53.7327 5.89155 53.769 5.71049 53.8408 5.53767C53.9126 5.36465 54.0167 5.20929 54.1532 5.07158C54.2823 4.93995 54.4314 4.83971 54.6005 4.77086C54.7692 4.70201 54.9495 4.66748 55.1413 4.66748ZM56.2679 6.07986C56.2679 5.92941 56.2396 5.78621 56.1834 5.64987C56.1271 5.51334 56.0462 5.3925 55.9415 5.28736C55.8324 5.17849 55.7108 5.0961 55.576 5.04059C55.4415 4.98487 55.2979 4.95682 55.1449 4.95682C54.9911 4.95682 54.8471 4.98409 54.7133 5.03862C54.5793 5.09316 54.46 5.17339 54.3563 5.27991C54.2488 5.38878 54.166 5.51197 54.1087 5.64987C54.0508 5.78758 54.0224 5.93098 54.0224 6.07986C54.0224 6.22875 54.051 6.37117 54.1079 6.50691C54.1648 6.64305 54.2464 6.76389 54.3527 6.87041C54.4608 6.9783 54.5821 7.06029 54.7172 7.11738C54.8522 7.17446 54.995 7.20271 55.1451 7.20271C55.2943 7.20271 55.4375 7.17407 55.5743 7.1164C55.7114 7.05872 55.835 6.97555 55.9454 6.86668C56.0517 6.76271 56.132 6.64403 56.1865 6.51064C56.2408 6.37745 56.2679 6.23405 56.2679 6.07986ZM55.394 5.81387C55.3903 5.73501 55.3667 5.67282 55.3232 5.6279C55.2794 5.58278 55.2212 5.56022 55.1488 5.56022C55.0576 5.56022 54.9862 5.60515 54.934 5.6946C54.8822 5.78405 54.8565 5.91038 54.8565 6.07319C54.8565 6.23738 54.8818 6.36058 54.933 6.44257C54.9844 6.52457 55.0613 6.56576 55.1639 6.56576C55.2386 6.56576 55.2959 6.54281 55.3357 6.49711C55.3761 6.4512 55.3977 6.38451 55.4016 6.29682L55.8677 6.29506C55.8601 6.4818 55.792 6.6305 55.6627 6.74133C55.534 6.85216 55.364 6.90768 55.1525 6.90768C54.9087 6.90768 54.7164 6.8351 54.5768 6.68974C54.4373 6.54438 54.3678 6.3439 54.3678 6.0883C54.3678 5.8376 54.4373 5.63516 54.576 5.48019C54.7151 5.32542 54.8961 5.24813 55.1188 5.24813C55.3391 5.24813 55.5135 5.29795 55.6417 5.3976C55.77 5.49726 55.8391 5.63594 55.8491 5.81387H55.394Z" fill="#808285"/>
</svg>
