<svg width="48" height="28" viewBox="0 0 48 28" fill="none" xmlns="http://www.w3.org/2000/svg">
<rect x="0.5" y="0.5" width="47" height="27" rx="3.5" fill="white"/>
<path d="M38.455 14.8106L30.7598 13.6382L31.7799 18.0964L38.455 14.8106Z" fill="#D12053"/>
<path d="M38.4536 14.8104L32.6549 6.97754L30.7598 13.6394L38.4536 14.8104Z" fill="#E2136E"/>
<path d="M30.5802 13.5492L24.5044 6L32.4609 6.92404L30.5802 13.5492Z" fill="#D12053"/>
<path d="M27.8138 10.3948L24.4399 7.30371H25.328L27.8138 10.3948Z" fill="#9E1638"/>
<path d="M40.095 11.0029L38.6671 14.7684L36.3525 11.6562L40.095 11.0029Z" fill="#D12053"/>
<path d="M32.677 17.8705L38.2798 15.6824L38.5149 14.9868L32.677 17.8705Z" fill="#E2136E"/>
<path d="M28.1958 22L30.5959 13.8145L31.8134 19.1403L28.1958 22Z" fill="#9E1638"/>
<path d="M40.3189 11.0322L39.7299 12.5869L41.8543 12.5531L40.3189 11.0322ZM6 11.6558C6.10303 11.6642 6.20751 11.6826 6.3178 11.6826C6.42808 11.6826 6.51805 11.6642 6.63559 11.6558V14.967C6.9708 14.4125 7.39307 14.0471 8.01415 14.0471C9.13732 14.0471 9.61909 15.1278 9.61909 16.121C9.61909 17.3103 8.96609 18.4488 7.82116 18.4488C7.59193 18.4537 7.36568 18.3975 7.16694 18.2864C6.96819 18.1752 6.80452 18.0134 6.69363 17.8182C6.50209 17.9819 6.3323 18.178 6.15092 18.3558H6.0058L6 11.6558ZM6.62108 16.526C6.62108 17.4909 7.0419 18.1638 7.73409 18.1638C8.63233 18.1638 8.92111 16.99 8.92111 16.1577C8.92111 15.1913 8.59315 14.4309 7.81535 14.4224C6.90695 14.4154 6.62108 15.4608 6.62108 16.5273V16.526Z" fill="#E2136E"/>
<path d="M12.548 13.7977L11.8718 14.6442C12.5074 15.5471 13.1662 16.4317 13.8047 17.346L14.449 18.3335V18.3828C14.2908 18.373 14.1471 18.3533 14.0136 18.3533C13.8802 18.3533 13.7118 18.373 13.5696 18.3828C13.394 18.0669 13.2199 17.7748 13.0211 17.4884L11.2798 14.9842C11.2405 14.9447 11.1462 14.9137 11.1462 14.9546V18.3828C11.0185 18.373 10.9068 18.3533 10.7965 18.3533C10.6862 18.3533 10.5585 18.373 10.4468 18.3828V11.6561C10.5585 11.6646 10.679 11.6857 10.7965 11.6857C10.9141 11.6857 11.0185 11.6646 11.1462 11.6561V14.6922C11.1462 14.7514 11.2652 14.7119 11.3436 14.6329C11.4948 14.4806 11.6362 14.3194 11.7673 14.1504L13.7249 11.6533C13.8279 11.6617 13.9309 11.683 14.0427 11.683C14.1544 11.683 14.2401 11.6617 14.3532 11.6533L12.548 13.7977ZM17.8141 17.6253C17.8141 17.9752 17.7909 18.1529 18.2596 18.0372V18.2334C18.183 18.2706 18.1028 18.3004 18.0202 18.3222C17.6066 18.4026 17.2642 18.3306 17.2003 17.8044L17.1292 17.882C16.9909 18.0581 16.8126 18.2008 16.6082 18.2987C16.4037 18.3966 16.1788 18.4471 15.9509 18.4463C15.3878 18.4463 14.8945 18.0147 14.8945 17.3529C14.8945 16.333 15.62 16.1989 16.3644 16.0649C16.9942 15.9492 17.209 15.8956 17.209 15.4653C17.209 14.8022 16.8753 14.4185 16.2788 14.4185C16.0751 14.4146 15.8752 14.4717 15.706 14.5819C15.5367 14.6922 15.4064 14.8504 15.3327 15.035H15.2457V14.5384C15.6038 14.2356 16.0584 14.0621 16.5328 14.0474C17.3672 14.0474 17.8214 14.5384 17.8214 15.55L17.8141 17.6253ZM17.1785 16.1481L16.8985 16.2102C16.3572 16.3259 15.5461 16.4148 15.5461 17.2317C15.5461 17.796 15.8362 18.0782 16.3238 18.0782C16.576 18.0479 16.8067 17.9247 16.9681 17.7339C17.0262 17.669 17.1858 17.5166 17.1858 17.4517L17.1785 16.1481ZM19.2319 17.5068C19.4205 17.858 19.7717 18.1726 20.1461 18.1726C20.3597 18.162 20.5607 18.071 20.7064 17.9188C20.8522 17.7666 20.9312 17.5652 20.9268 17.3572C20.9268 16.1496 19.0475 16.934 19.0475 15.3708C19.0475 14.513 19.628 14.0489 20.3434 14.0489C20.6597 14.0421 20.9717 14.1222 21.2431 14.2803C21.1648 14.4872 21.1017 14.6994 21.0544 14.9151H20.9819C20.8774 14.6202 20.6003 14.324 20.3057 14.324C19.9081 14.324 19.5801 14.5849 19.5801 15.0689C19.5801 16.2131 21.4594 15.6036 21.4594 17.0356C21.4594 17.9934 20.696 18.4463 19.9937 18.4463C19.642 18.4461 19.2976 18.3482 19.0011 18.1642C19.0724 17.9496 19.1281 17.7304 19.168 17.5081L19.2319 17.5068ZM22.5303 11.6561C22.6362 11.6646 22.7392 11.683 22.8495 11.683C22.9598 11.683 23.0497 11.6646 23.1688 11.6561V14.9137C23.4474 14.3677 23.8841 14.0474 24.4501 14.0474C25.373 14.0474 25.7315 14.6626 25.7315 15.7912V18.3828C25.611 18.373 25.5181 18.3561 25.4122 18.3561C25.3063 18.3561 25.1974 18.3744 25.0929 18.3828V15.9958C25.0929 15.0082 24.8884 14.5102 24.2107 14.5102C23.4938 14.5102 23.1688 15.0125 23.1688 15.9422V18.3828C23.0497 18.373 22.9554 18.3561 22.8495 18.3561C22.7436 18.3561 22.6376 18.3744 22.5303 18.3828V11.6561Z" fill="#231F20"/>
<rect x="0.5" y="0.5" width="47" height="27" rx="3.5" stroke="#EBF0F5"/>
</svg>
