<svg width="53" height="28" viewBox="0 0 53 28" fill="none" xmlns="http://www.w3.org/2000/svg">
<path fill-rule="evenodd" clip-rule="evenodd" d="M16.832 9.70312H44.2738C48.3134 9.70312 51.5977 12.976 51.5977 17.027C51.5977 21.0666 48.3248 24.351 44.2738 24.351H16.832C12.7924 24.351 9.50806 21.0781 9.50806 17.027C9.50806 12.9874 12.7924 9.70312 16.832 9.70312Z" fill="#7CB928"/>
<path fill-rule="evenodd" clip-rule="evenodd" d="M16.832 11.1021C13.5651 11.1021 10.9071 13.7601 10.9071 17.0271C10.9071 20.3041 13.5636 22.952 16.832 22.952H44.2738C47.5508 22.952 50.1988 20.2955 50.1988 17.0271C50.1988 13.7501 47.5422 11.1021 44.2738 11.1021H16.832ZM8.10913 17.0271C8.10913 12.2149 12.0198 8.3042 16.832 8.3042H44.2738C49.0846 8.3042 52.9967 12.202 52.9967 17.0271C52.9967 21.8379 49.0989 25.75 44.2738 25.75H16.832C12.0212 25.75 8.10913 21.8522 8.10913 17.0271Z" fill="#7CB928"/>
<path fill-rule="evenodd" clip-rule="evenodd" d="M17.3821 15.3789H43.7253C45.7508 15.3789 47.3873 17.0153 47.3873 19.0409C47.3873 21.0664 45.7508 22.7028 43.7253 22.7028H17.3821V15.3789Z" fill="white"/>
<path fill-rule="evenodd" clip-rule="evenodd" d="M5.49255 1.78868C6.89501 0.556896 8.67672 0 10.6983 0C12.7472 0 14.5403 0.60773 15.9416 1.92029C17.3161 3.20768 18.1744 5.04287 18.6416 7.24832L18.6734 7.39834V12.8615H15.746V7.709C15.352 5.94543 14.7134 4.78086 13.9404 4.0568C13.1732 3.33812 12.1397 2.92737 10.6983 2.92737C9.2296 2.92737 8.18474 3.32029 7.42435 3.98815C6.67023 4.65049 6.05118 5.71074 5.67346 7.32635V12.049H2.74609V7.00359L2.78024 6.84828C3.24169 4.74963 4.10701 3.00562 5.49255 1.78868Z" fill="#E0EFED"/>
<path d="M10.7901 26.7195C15.8399 26.7195 19.9336 22.6258 19.9336 17.576C19.9336 12.5262 15.8399 8.43258 10.7901 8.43258C5.74035 8.43258 1.64669 12.5262 1.64669 17.576C1.64669 22.6258 5.74035 26.7195 10.7901 26.7195Z" fill="#7CB928"/>
<path fill-rule="evenodd" clip-rule="evenodd" d="M10.7901 9.7133C6.44768 9.7133 2.92742 13.2336 2.92742 17.576C2.92742 21.9185 6.44768 25.4388 10.7901 25.4388C15.1326 25.4388 18.6529 21.9185 18.6529 17.576C18.6529 13.2336 15.1326 9.7133 10.7901 9.7133ZM0.365967 17.576C0.365967 11.8189 5.03303 7.15186 10.7901 7.15186C16.5473 7.15186 21.2143 11.8189 21.2143 17.576C21.2143 23.3331 16.5473 28.0002 10.7901 28.0002C5.03303 28.0002 0.365967 23.3331 0.365967 17.576Z" fill="#E0EFED"/>
<path fill-rule="evenodd" clip-rule="evenodd" d="M6.03979 16.4199L6.69208 20.7342H8.25986V16.4199H6.03979Z" fill="white"/>
<path fill-rule="evenodd" clip-rule="evenodd" d="M8.52246 16.8667V20.5744C9.00309 20.5172 9.3464 20.5172 9.56383 20.5744C9.8957 20.6545 11.452 21.2267 12.4591 21.2267C13.4661 21.2267 14.2328 20.8949 14.2672 20.5744C14.29 20.357 14.2557 20.1625 14.1756 19.9679C14.5876 19.945 14.7821 19.7963 14.7478 19.5445C14.7135 19.2927 14.6334 19.1211 14.496 19.0524C14.9309 18.6634 15.114 18.3544 15.0797 18.1369C15.0339 17.9195 14.9194 17.7364 14.7478 17.5762C15.2055 16.7179 15.1254 16.2487 14.496 16.1686C13.5691 16.0428 12.1158 16.3289 11.8068 16.0199C11.4978 15.7223 12.871 13.3764 11.9098 12.8843C10.9485 12.3922 10.2733 15.4248 9.76981 16.0199C9.42651 16.409 9.01454 16.695 8.52246 16.8667Z" fill="white"/>
<path d="M23.7441 19.9906H24.5337C24.5681 20.3568 24.7283 20.6772 25.1288 20.6772C25.5179 20.6772 25.6667 20.4369 25.6667 20.0936C25.6667 19.7274 25.4836 19.51 24.9343 19.2468C24.1676 18.8806 23.87 18.5601 23.87 17.8964C23.87 17.1869 24.3278 16.6948 25.1403 16.6948C26.1473 16.6948 26.3876 17.37 26.4105 17.9536H25.6323C25.6095 17.7019 25.5522 17.3242 25.1403 17.3242C24.8198 17.3242 24.6825 17.5302 24.6825 17.8277C24.6825 18.1482 24.8313 18.2969 25.3462 18.5487C26.1473 18.9149 26.5021 19.2696 26.5021 20.0135C26.5021 20.723 26.0672 21.2952 25.1288 21.2952C24.076 21.318 23.767 20.6543 23.7441 19.9906ZM29.3515 18.5601V19.2468H27.9211V20.5513H29.5232L29.4202 21.2379H27.1315V16.7749H29.4202V17.473H27.9211V18.5601H29.3515ZM31.9607 19.9334H32.7503C32.7274 20.1622 32.6473 21.3066 31.4114 21.3066C30.1411 21.3066 29.9924 20.1966 29.9924 18.995C29.9924 17.5531 30.4158 16.7063 31.4571 16.7063C32.6358 16.7063 32.7274 17.7247 32.7503 18.0795H31.9607C31.9492 17.9307 31.9378 17.3814 31.4457 17.3814C30.9422 17.3814 30.8163 17.9994 30.8163 19.0179C30.8163 19.8647 30.8964 20.6543 31.4228 20.6543C31.9034 20.6543 31.9492 20.105 31.9607 19.9334ZM33.3568 16.7749H34.1578V19.8418C34.1578 20.208 34.2494 20.6429 34.7415 20.6429C35.2106 20.6429 35.3136 20.2767 35.3136 19.8533V16.7749H36.1147V19.8647C36.1147 20.6658 35.8057 21.318 34.73 21.318C33.6658 21.318 33.3568 20.7001 33.3568 19.8647V16.7749ZM38.0601 19.3269H37.7168V21.2379H36.9272V16.7749H38.289C39.1015 16.7749 39.5592 17.1983 39.5592 17.988C39.5592 18.6288 39.2045 18.9149 38.9756 19.0064C39.3189 19.1666 39.4791 19.4642 39.4791 20.1165V20.2996C39.4791 20.8031 39.502 20.9976 39.5363 21.2379H38.7696C38.7009 21.032 38.701 20.6772 38.701 20.2996V20.1394C38.701 19.5328 38.5636 19.3269 38.0601 19.3269ZM37.7168 17.4158V18.686H38.0944C38.5751 18.686 38.7696 18.48 38.7696 18.0337C38.7696 17.6446 38.5865 17.4158 38.1745 17.4158H37.7168ZM42.4888 18.5601V19.2468H41.0583V20.5513H42.6604L42.5574 21.2379H40.2687V16.7749H42.5574V17.473H41.0583V18.5601H42.4888Z" fill="#636362"/>
<path d="M27.1888 11.7173C26.6853 11.6944 26.4335 11.9805 26.3649 12.4382C26.3534 12.5298 26.3305 12.6328 26.3305 12.7243C26.3077 12.896 26.2848 13.0676 26.2848 13.2393C26.2962 13.4796 26.3992 13.6169 26.6281 13.6856C26.754 13.7199 26.8913 13.7313 27.0172 13.7199C27.4406 13.697 27.6809 13.491 27.761 13.0676C27.7839 12.9646 27.7953 12.8731 27.8068 12.7701C27.8297 12.5755 27.864 12.381 27.8525 12.175C27.8411 11.9347 27.7038 11.7745 27.4749 11.7287C27.3834 11.7173 27.2918 11.7287 27.1888 11.7173ZM27.4749 11.168C27.6237 11.1909 27.7839 11.2023 27.9326 11.2481C28.0929 11.2938 28.2416 11.374 28.3789 11.4769C28.6078 11.66 28.7108 11.9118 28.7108 12.1979C28.7108 12.5412 28.665 12.8845 28.5964 13.2164C28.4819 13.697 28.1844 14.0174 27.7267 14.1662C27.2117 14.3264 26.6853 14.3379 26.1589 14.1776C26.0444 14.1433 25.9529 14.0861 25.8499 14.0289C25.5409 13.8343 25.415 13.5368 25.4265 13.182C25.4379 12.896 25.4723 12.6099 25.5295 12.3238C25.6554 11.7173 26.033 11.3511 26.651 11.2252C26.7654 11.2023 26.8684 11.1909 26.9828 11.1794H27.4749V11.168Z" fill="white"/>
<path d="M35.3833 11.7173C34.8454 11.6944 34.6051 11.969 34.5364 12.4039C34.4907 12.6556 34.4563 12.9074 34.4449 13.1592C34.422 13.4681 34.5822 13.6627 34.8683 13.697C35.0171 13.7199 35.1544 13.7199 35.3032 13.7085C35.6007 13.6741 35.8067 13.5139 35.8868 13.2278C35.9898 12.896 36.0241 12.5526 36.0241 12.1979C36.0241 11.9118 35.8868 11.7745 35.6121 11.7173C35.532 11.7173 35.4634 11.7287 35.3833 11.7173ZM35.6694 11.168C35.7952 11.1909 35.9211 11.2023 36.0355 11.2366C36.2186 11.2824 36.3903 11.3511 36.5391 11.4655C36.7451 11.6143 36.8709 11.8203 36.8824 12.072C36.9053 12.5183 36.8595 12.9646 36.7107 13.3995C36.5848 13.7771 36.3102 14.0174 35.944 14.1433C35.4176 14.3264 34.8797 14.3379 34.3533 14.1776C33.8155 14.0289 33.5637 13.6627 33.5981 13.1019C33.6095 12.8273 33.6438 12.5526 33.7011 12.2894C33.8269 11.6715 34.2275 11.3396 34.8225 11.2252C34.937 11.2023 35.0514 11.1909 35.1658 11.1794H35.6694V11.168Z" fill="white"/>
<path d="M42.7407 13.7311C42.7636 13.7311 42.775 13.7311 42.7979 13.7311C43.2442 13.7196 43.4845 13.5251 43.5761 13.0788C43.599 12.9872 43.6104 12.8957 43.6219 12.7927C43.6448 12.5753 43.6905 12.3693 43.6676 12.1518C43.6448 11.9344 43.5074 11.7856 43.3014 11.7399C43.1412 11.7055 42.981 11.717 42.8323 11.7284C42.5004 11.7628 42.3058 11.9687 42.2143 12.2892C42.18 12.4036 42.1685 12.5066 42.1571 12.621C42.1342 12.827 42.0884 13.0216 42.0999 13.2275C42.0999 13.5022 42.2257 13.651 42.4889 13.7082C42.5462 13.7196 42.6492 13.7311 42.7407 13.7311ZM43.29 11.1677C43.4159 11.1906 43.5532 11.202 43.6791 11.2364C43.908 11.2936 44.1254 11.3966 44.297 11.5797C44.503 11.7971 44.5488 12.0832 44.5259 12.3693C44.503 12.621 44.4801 12.8728 44.4344 13.1246C44.3314 13.6967 43.9881 14.0515 43.4273 14.1888C42.981 14.3032 42.5233 14.3147 42.0655 14.2003C41.8138 14.1316 41.5849 14.0172 41.4132 13.8112C41.2988 13.6738 41.2416 13.5136 41.2301 13.342C41.2073 12.9529 41.2645 12.5524 41.356 12.1747C41.4819 11.6827 41.8252 11.3851 42.3058 11.2478C42.4661 11.202 42.6377 11.1906 42.7979 11.1562H43.29V11.1677Z" fill="white"/>
<path fill-rule="evenodd" clip-rule="evenodd" d="M22.1411 13.0556C22.164 12.861 22.1869 12.6665 22.2212 12.4605C22.3357 11.751 22.7247 11.3734 23.4228 11.2589C23.6288 11.2246 23.8348 11.2246 24.0408 11.2246C24.3841 11.2246 24.7388 11.2246 25.0821 11.2246C25.1851 11.2246 25.1966 11.2361 25.1622 11.3276C25.0707 11.6022 24.899 11.7968 24.5557 11.7853C24.2811 11.7739 23.995 11.7625 23.7203 11.7968C23.3885 11.8311 23.171 12.0142 23.1024 12.3461C23.0452 12.6207 22.9994 12.8954 22.9994 13.17C22.9994 13.4447 23.1482 13.6049 23.4228 13.6392C23.7661 13.6735 24.098 13.6507 24.4413 13.6621C24.5672 13.6621 24.693 13.6621 24.8189 13.6621C24.8761 13.6621 24.899 13.685 24.8876 13.7422C24.8189 14.0283 24.6015 14.2228 24.304 14.2228C23.9835 14.2228 23.6517 14.2343 23.3312 14.2228C22.9994 14.2114 22.6904 14.1198 22.4272 13.891C22.2555 13.7422 22.1869 13.5477 22.1411 13.3302V13.0556Z" fill="white"/>
<path fill-rule="evenodd" clip-rule="evenodd" d="M32.1432 12.5523C32.0287 12.6897 31.9257 12.827 31.8113 12.9643C31.6511 13.1703 31.4909 13.3648 31.3307 13.5708C31.1476 13.8111 30.9645 13.8111 30.8271 13.5251C30.6784 13.2275 30.5182 12.9185 30.3579 12.621C30.3465 12.5981 30.3236 12.5638 30.3007 12.5066C30.2778 12.6782 30.2664 12.8155 30.2435 12.9529C30.2092 13.2275 30.1748 13.5022 30.1405 13.7768C30.1062 14.04 29.9002 14.2002 29.6484 14.2002C29.534 14.2002 29.4081 14.2002 29.2937 14.2002C29.2365 14.2002 29.2136 14.1773 29.225 14.1201C29.3051 13.4793 29.3852 12.8499 29.4653 12.209C29.4997 11.9115 29.534 11.6254 29.5683 11.3279C29.5798 11.2592 29.6027 11.2363 29.6713 11.2363C29.8315 11.2478 29.9803 11.2249 30.1405 11.2478C30.2778 11.2707 30.3808 11.3393 30.4495 11.4652C30.6784 11.8428 30.9187 12.209 31.1476 12.5867C31.2048 12.6782 31.2048 12.6782 31.2734 12.5981C31.6167 12.1976 31.9715 11.8085 32.3148 11.408C32.4292 11.2821 32.578 11.2478 32.7382 11.2363C32.8527 11.2363 32.9785 11.2363 33.093 11.2363C33.1731 11.2363 33.196 11.2592 33.1845 11.3393C33.1502 11.5911 33.1159 11.8428 33.093 12.0946C33.0358 12.5981 32.9671 13.1016 32.9099 13.6052C32.8984 13.6624 32.8984 13.7196 32.887 13.7768C32.8412 14.0286 32.6467 14.1888 32.3949 14.2002C32.2919 14.2002 32.1775 14.2002 32.0745 14.2002C31.9944 14.2002 31.9715 14.1659 31.9829 14.0972C32.0173 13.7883 32.063 13.4793 32.0974 13.1703C32.1203 12.9643 32.1432 12.7583 32.1775 12.5523C32.1546 12.5638 32.1432 12.5523 32.1432 12.5523Z" fill="white"/>
<path fill-rule="evenodd" clip-rule="evenodd" d="M38.7236 11.2598C39.0097 11.2712 39.353 11.2369 39.6849 11.2941C39.9367 11.3399 40.177 11.3971 40.383 11.5573C40.589 11.7175 40.6919 11.9349 40.7148 12.1981C40.7263 12.4613 40.6805 12.7131 40.6462 12.9763C40.6233 13.148 40.6004 13.3196 40.5317 13.4684C40.3715 13.8575 40.0625 14.0635 39.662 14.1436C39.4675 14.1893 39.2615 14.2122 39.0555 14.2122C38.7008 14.2122 38.3574 14.2122 38.0027 14.2122C37.9111 14.2122 37.8196 14.2008 37.728 14.1779C37.5564 14.1207 37.4877 14.0177 37.5106 13.846C37.5335 13.6629 37.5564 13.4684 37.5793 13.2853C37.6251 12.9191 37.6708 12.5643 37.7166 12.1981C37.728 12.118 37.7509 12.0837 37.831 12.0952C37.9684 12.1066 38.1057 12.0837 38.243 12.1066C38.4376 12.1409 38.5749 12.3126 38.552 12.5186C38.5177 12.8733 38.4719 13.2166 38.4261 13.5714C38.4147 13.6515 38.4376 13.6744 38.5062 13.6744C38.7008 13.6629 38.8953 13.6858 39.0898 13.6629C39.5133 13.6057 39.7192 13.4112 39.765 12.9763C39.7879 12.8161 39.8108 12.6444 39.8337 12.4842C39.8909 12.0951 39.6849 11.8434 39.2958 11.8319C39.0097 11.8205 38.7236 11.8319 38.4376 11.8319C38.3803 11.8319 38.3231 11.8319 38.2659 11.8319C37.9684 11.8205 37.8425 11.6717 37.8425 11.3513C37.8425 11.2827 37.8883 11.2827 37.934 11.2827C38.1972 11.2598 38.4376 11.2598 38.7236 11.2598Z" fill="white"/>
</svg>
