<svg width="48" height="28" viewBox="0 0 48 28" fill="none" xmlns="http://www.w3.org/2000/svg">
<rect x="0.5" y="0.5" width="47" height="27" rx="3.5" fill="white"/>
<path d="M32.8753 10.5551C32.8753 13.3124 28.8739 15.5471 23.9374 15.5471C19.002 15.5471 15 13.3124 15 10.5551C15 7.79833 19.002 5.5625 23.9374 5.5625C28.8739 5.5625 32.8753 7.79833 32.8753 10.5551Z" fill="url(#paint0_linear_10140_10394)"/>
<path d="M32.8751 10.0493C32.8751 12.8379 28.8821 15.0987 23.9564 15.0987C19.0307 15.0987 15.0376 12.8379 15.0376 10.0493C15.0376 7.26077 19.0307 5 23.9564 5C28.8821 5 32.8751 7.26077 32.8751 10.0493Z" fill="url(#paint1_linear_10140_10394)" stroke="#C5C5C6" stroke-width="0.3854" stroke-miterlimit="10"/>
<path fill-rule="evenodd" clip-rule="evenodd" d="M26.7731 14.9392C26.5256 14.978 26.2968 15.0232 26.0668 15.0469C25.5557 15.0991 25.0429 15.1419 24.5312 15.1854C24.4159 15.1952 24.3012 15.1952 24.1859 15.1952C24.1613 15.1952 24.1307 15.1819 24.1132 15.1657C23.01 14.1669 21.9621 13.1228 21.1051 11.9286C20.8336 11.5509 20.6012 11.154 20.4217 10.7293C20.128 10.0341 20.2391 9.39096 20.6841 8.78318C21.0276 8.31272 21.472 7.93611 21.9554 7.59545C22.6881 7.07861 23.4874 6.66492 24.312 6.29238C25.232 5.87696 26.1791 5.51948 27.1496 5.2153C27.206 5.19734 27.2763 5.19386 27.3346 5.20545C27.5436 5.24948 27.7502 5.30279 27.9579 5.36768C27.8054 5.42099 27.6517 5.47313 27.4997 5.52759C26.4038 5.91983 25.3461 6.38334 24.3636 6.98416C23.8358 7.30631 23.3409 7.66725 22.9277 8.11454C22.6155 8.45178 22.3663 8.82138 22.2623 9.26234C22.1765 9.6256 22.2101 9.97725 22.3686 10.3209C22.583 10.7855 22.8827 11.2004 23.2118 11.5984C23.8274 12.3435 24.5246 13.0202 25.2591 13.6627C25.7395 14.0828 26.2368 14.4866 26.7262 14.8974C26.737 14.9073 26.7467 14.9165 26.7731 14.9392Z" fill="#E8242A"/>
<path fill-rule="evenodd" clip-rule="evenodd" d="M23.2674 15.1938C23.0746 15.1851 22.904 15.1833 22.7341 15.1694C22.3852 15.1417 22.0345 15.1202 21.6879 15.0721C21.2309 15.009 20.7769 14.9238 20.3222 14.8467C20.3024 14.8433 20.2814 14.8282 20.2676 14.8131C19.4659 13.9122 18.7248 12.973 18.1843 11.911C17.9789 11.5066 17.821 11.0877 17.7471 10.6427C17.6654 10.1508 17.7819 9.70062 18.0492 9.27767C18.3332 8.8269 18.7224 8.46016 19.15 8.12758C19.801 7.6224 20.5198 7.21217 21.2669 6.8431C22.7485 6.11017 24.3057 5.54411 25.8954 5.04816C26.1242 4.9769 26.3308 5.02035 26.5482 5.05453C26.646 5.07076 26.7433 5.0893 26.8616 5.11073C26.6905 5.16867 26.5374 5.21908 26.386 5.27238C25.1225 5.71387 23.8931 6.22257 22.7275 6.85642C22.0543 7.22201 21.4111 7.62699 20.8442 8.12758C20.5463 8.39066 20.2791 8.67685 20.0683 9.00713C19.7121 9.56448 19.6491 10.1433 19.8887 10.7551C20.1103 11.3189 20.4274 11.8345 20.7823 12.3322C21.3859 13.1775 22.0777 13.9585 22.8026 14.7164C22.9497 14.8705 23.1004 15.0223 23.2674 15.1938Z" fill="#214596"/>
<path fill-rule="evenodd" clip-rule="evenodd" d="M29.7213 14.0468C29.4979 14.1354 29.2901 14.2224 29.08 14.3011C28.5869 14.4859 28.0807 14.6354 27.5666 14.7611C27.5203 14.7722 27.4861 14.767 27.4477 14.7391C26.3817 13.9685 25.3566 13.1574 24.4239 12.2484C23.9224 11.7582 23.451 11.2454 23.0913 10.6533C22.9495 10.4215 22.8324 10.1794 22.7784 9.91518C22.6889 9.48292 22.7808 9.0768 22.9976 8.69149C23.2234 8.28997 23.5423 7.95739 23.9026 7.65729C24.544 7.12426 25.2713 6.71 26.0304 6.34035C26.715 6.00662 27.4231 5.72272 28.1461 5.46837C28.2074 5.44694 28.2614 5.44404 28.3233 5.46489C28.5197 5.53153 28.7166 5.5941 28.9268 5.66189C28.7028 5.74416 28.4926 5.81716 28.2854 5.8977C27.4567 6.22099 26.664 6.60397 25.9547 7.12136C25.5253 7.43481 25.1428 7.78995 24.8725 8.23612C24.6563 8.59243 24.5554 8.97364 24.5818 9.38268C24.6017 9.69036 24.7332 9.95978 24.9055 10.2158C25.1878 10.6382 25.5409 11.0073 25.9211 11.3549C26.6693 12.0392 27.4939 12.6365 28.3533 13.1939C28.7851 13.4743 29.2289 13.7385 29.6673 14.0103C29.6793 14.0172 29.692 14.0259 29.7213 14.0468Z" fill="#0D984A"/>
<path d="M16.0435 22.9999V18.5845H17.4409C17.8401 18.5845 18.1967 18.6724 18.5107 18.8483C18.8268 19.0222 19.0732 19.2709 19.25 19.5943C19.4267 19.9158 19.5151 20.2817 19.5151 20.6921V20.8953C19.5151 21.3057 19.4278 21.6706 19.2531 21.99C19.0805 22.3095 18.8362 22.5571 18.5201 22.733C18.204 22.9089 17.8474 22.9978 17.4502 22.9999H16.0435ZM16.9792 19.3214V22.269H17.4315C17.7974 22.269 18.0772 22.1528 18.2706 21.9203C18.4639 21.6878 18.5627 21.3552 18.5669 20.9226V20.6891C18.5669 20.2402 18.4712 19.9006 18.2799 19.6702C18.0886 19.4376 17.8089 19.3214 17.4409 19.3214H16.9792ZM20.1982 22.9999V18.5845H21.789C22.34 18.5845 22.758 18.6876 23.0429 18.8938C23.3278 19.098 23.4702 19.3982 23.4702 19.7945C23.4702 20.0108 23.4131 20.2019 23.2987 20.3676C23.1844 20.5314 23.0252 20.6517 22.8215 20.7285C23.0544 20.7851 23.2374 20.8993 23.3705 21.0712C23.5056 21.243 23.5732 21.4533 23.5732 21.702C23.5732 22.1265 23.4339 22.448 23.1552 22.6663C22.8766 22.8847 22.4794 22.9959 21.9637 22.9999H20.1982ZM21.134 21.0773V22.269H21.9356C22.1561 22.269 22.3276 22.2185 22.4503 22.1174C22.5751 22.0143 22.6374 21.8728 22.6374 21.6929C22.6374 21.2885 22.4222 21.0833 21.9918 21.0773H21.134ZM21.134 20.4343H21.8264C22.2985 20.4263 22.5345 20.2433 22.5345 19.8855C22.5345 19.6853 22.4742 19.5418 22.3536 19.4548C22.235 19.3659 22.0469 19.3214 21.789 19.3214H21.134V20.4343ZM24.2781 22.9999V18.5845H25.8689C26.42 18.5845 26.838 18.6876 27.1228 18.8938C27.4078 19.098 27.5502 19.3982 27.5502 19.7945C27.5502 20.0108 27.493 20.2019 27.3786 20.3676C27.2643 20.5314 27.1051 20.6517 26.9014 20.7285C27.1343 20.7851 27.3173 20.8993 27.4504 21.0712C27.5855 21.243 27.6531 21.4533 27.6531 21.702C27.6531 22.1265 27.5138 22.448 27.2351 22.6663C26.9565 22.8847 26.5593 22.9959 26.0436 22.9999H24.2781ZM25.2139 21.0773V22.269H26.0155C26.236 22.269 26.4075 22.2185 26.5302 22.1174C26.655 22.0143 26.7174 21.8728 26.7174 21.6929C26.7174 21.2885 26.5021 21.0833 26.0717 21.0773H25.2139ZM25.2139 20.4343H25.9064C26.3784 20.4263 26.6144 20.2433 26.6144 19.8855C26.6144 19.6853 26.5541 19.5418 26.4335 19.4548C26.315 19.3659 26.1268 19.3214 25.8689 19.3214H25.2139V20.4343ZM29.2938 22.269H31.2808V22.9999H28.3581V18.5845H29.2938V22.269Z" fill="black"/>
<rect x="0.5" y="0.5" width="47" height="27" rx="3.5" stroke="#EBF0F5"/>
<defs>
<linearGradient id="paint0_linear_10140_10394" x1="15.3043" y1="10.5548" x2="32.419" y2="10.5548" gradientUnits="userSpaceOnUse">
<stop stop-color="#949494"/>
<stop offset="0.055" stop-color="#A6A6A6"/>
<stop offset="0.165" stop-color="#D5D5D5"/>
<stop offset="0.2527" stop-color="white"/>
<stop offset="0.3697" stop-color="#CACACA"/>
<stop offset="0.5142" stop-color="#8F8F8F"/>
<stop offset="0.621" stop-color="#6A6A6A"/>
<stop offset="0.6774" stop-color="#5C5C5C"/>
<stop offset="0.7181" stop-color="#636464"/>
<stop offset="0.7796" stop-color="#787878"/>
<stop offset="0.8543" stop-color="#9A9A9A"/>
<stop offset="0.9386" stop-color="#C9C9C9"/>
<stop offset="1" stop-color="#EFF0F0"/>
</linearGradient>
<linearGradient id="paint1_linear_10140_10394" x1="23.9564" y1="4.47237" x2="23.9564" y2="15.559" gradientUnits="userSpaceOnUse">
<stop stop-color="#C2C4C6"/>
<stop offset="0.2146" stop-color="#DCDDDE"/>
<stop offset="0.4462" stop-color="white"/>
<stop offset="0.766" stop-color="#C2C4C6"/>
<stop offset="1" stop-color="#9C9FA1"/>
</linearGradient>
</defs>
</svg>
