<svg width="48" height="28" viewBox="0 0 48 28" fill="none" xmlns="http://www.w3.org/2000/svg">
<rect x="0.5" y="0.5" width="47" height="27" rx="3.5" fill="white"/>
<path d="M9.3649 19.9053C12.2056 19.9053 14.5084 17.5278 14.5084 14.595C14.5084 11.6622 12.2056 9.28467 9.3649 9.28467C6.52424 9.28467 4.22144 11.6622 4.22144 14.595C4.22144 17.5278 6.52424 19.9053 9.3649 19.9053Z" fill="white"/>
<path d="M18.0373 11.367C18.0373 10.8466 17.7742 10.8809 17.5222 10.8752V10.7251C17.7402 10.7357 17.9646 10.7357 18.1834 10.7357C18.4188 10.7357 18.738 10.7251 19.1527 10.7251C20.6039 10.7251 21.3938 11.725 21.3938 12.7494C21.3938 13.322 21.0692 14.7631 19.0856 14.7631C18.8004 14.7631 18.5357 14.7517 18.2735 14.7517C18.0215 14.7517 17.7742 14.7574 17.5222 14.7631V14.6122C17.858 14.5772 18.0207 14.5657 18.0373 14.1726V11.367ZM18.5863 14.0805C18.5863 14.5266 18.8952 14.578 19.1693 14.578C20.3803 14.578 20.7777 13.6351 20.7777 12.7731C20.7777 11.6916 20.1054 10.9102 19.0239 10.9102C18.7941 10.9102 18.6882 10.9265 18.5871 10.9331V14.0805H18.5863Z" fill="black"/>
<path d="M21.5894 14.6122H21.696C21.8532 14.6122 21.9646 14.6122 21.9646 14.4205V12.8538C21.9646 12.5993 21.8809 12.5642 21.6731 12.4492V12.3563C21.9369 12.2747 22.2506 12.1662 22.2727 12.1475C22.3122 12.1246 22.3454 12.1189 22.3738 12.1189C22.4014 12.1189 22.4125 12.1532 22.4125 12.1997V14.4205C22.4125 14.6122 22.5365 14.6122 22.6929 14.6122H22.7877V14.7631C22.5974 14.7631 22.4014 14.7517 22.2 14.7517C21.9986 14.7517 21.7963 14.7574 21.5894 14.7631V14.6122ZM22.1897 11.2283C22.0436 11.2283 21.9148 11.0896 21.9148 10.9388C21.9148 10.7936 22.0491 10.6606 22.1897 10.6606C22.3351 10.6606 22.4646 10.7822 22.4646 10.9388C22.4638 11.0954 22.3406 11.2283 22.1897 11.2283Z" fill="black"/>
<path d="M23.3215 12.8879C23.3215 12.6742 23.2599 12.6163 22.9968 12.507V12.3969C23.2378 12.3162 23.4668 12.2403 23.7362 12.1196C23.7528 12.1196 23.7694 12.131 23.7694 12.1767V12.5535C24.0893 12.3162 24.3642 12.1196 24.7395 12.1196C25.2158 12.1196 25.3841 12.4777 25.3841 12.9295V14.4204C25.3841 14.6121 25.5081 14.6121 25.6645 14.6121H25.7656V14.763C25.5689 14.763 25.373 14.7516 25.1724 14.7516C24.9701 14.7516 24.7687 14.7573 24.5665 14.763V14.6121H24.6676C24.8248 14.6121 24.9362 14.6121 24.9362 14.4204V12.923C24.9362 12.5927 24.7403 12.4312 24.4211 12.4312C24.2418 12.4312 23.9566 12.5813 23.771 12.7093V14.4204C23.771 14.6121 23.895 14.6121 24.0522 14.6121H24.1533V14.763C23.9574 14.763 23.7607 14.7516 23.5585 14.7516C23.357 14.7516 23.1556 14.7573 22.9534 14.763V14.6121H23.0553C23.2117 14.6121 23.3239 14.6121 23.3239 14.4204V12.8879H23.3215Z" fill="black"/>
<path d="M26.1924 13.166C26.1805 13.2182 26.1805 13.3047 26.1924 13.5013C26.2247 14.051 26.5676 14.502 27.0155 14.502C27.3236 14.502 27.5653 14.3283 27.7723 14.1138L27.8505 14.1945C27.5922 14.5477 27.2738 14.8478 26.8141 14.8478C25.923 14.8478 25.7437 13.9572 25.7437 13.5869C25.7437 12.4532 26.4831 12.1172 26.8749 12.1172C27.3291 12.1172 27.8173 12.4116 27.822 13.0249C27.822 13.06 27.822 13.0951 27.8173 13.1293L27.766 13.1644H26.1924V13.166ZM27.1838 12.9809C27.3236 12.9809 27.3394 12.9059 27.3394 12.8365C27.3394 12.5413 27.1656 12.304 26.852 12.304C26.5107 12.304 26.2753 12.5641 26.2082 12.9809H27.1838Z" fill="black"/>
<path d="M27.9493 14.6124H28.101C28.2574 14.6124 28.3688 14.6124 28.3688 14.4208V12.7961C28.3688 12.6167 28.1618 12.5824 28.0781 12.5351V12.4495C28.4873 12.27 28.7116 12.1191 28.7622 12.1191C28.7954 12.1191 28.812 12.1355 28.812 12.1942V12.7145H28.8238C28.9636 12.4894 29.1991 12.1191 29.5403 12.1191C29.6801 12.1191 29.8595 12.217 29.8595 12.4258C29.8595 12.5816 29.7536 12.7211 29.5964 12.7211C29.4226 12.7211 29.4226 12.5816 29.2267 12.5816C29.1319 12.5816 28.8175 12.7145 28.8175 13.062V14.4208C28.8175 14.6124 28.9289 14.6124 29.0861 14.6124H29.3997V14.7633C29.0916 14.7576 28.857 14.7519 28.6153 14.7519C28.3854 14.7519 28.15 14.7576 27.9478 14.7633V14.6124H27.9493Z" fill="black"/>
<path d="M30.107 13.9591C30.1804 14.3408 30.4048 14.6654 30.814 14.6654C31.1442 14.6654 31.2666 14.4566 31.2666 14.2544C31.2666 13.5717 30.0461 13.7911 30.0461 12.8597C30.0461 12.5351 30.2989 12.1191 30.9151 12.1191C31.0944 12.1191 31.3346 12.1713 31.5534 12.2863L31.5929 12.8768H31.4641C31.408 12.5123 31.2121 12.3043 30.8527 12.3043C30.6284 12.3043 30.4159 12.438 30.4159 12.686C30.4159 13.3637 31.7153 13.1549 31.7153 14.0627C31.7153 14.4444 31.4183 14.8498 30.7516 14.8498C30.5264 14.8498 30.2634 14.769 30.0675 14.654L30.0059 13.9885L30.107 13.9591Z" fill="black"/>
<path d="M36.7749 11.7715H36.635C36.5284 11.0954 36.0631 10.823 35.4367 10.823C34.7913 10.823 33.8552 11.2683 33.8552 12.6565C33.8552 13.826 34.6633 14.6653 35.5251 14.6653C36.0797 14.6653 36.5395 14.2721 36.6516 13.6645L36.7796 13.6988L36.6516 14.5437C36.4162 14.6946 35.7827 14.8504 35.4122 14.8504C34.1016 14.8504 33.2729 13.9769 33.2729 12.6752C33.2729 11.4893 34.2975 10.6387 35.3964 10.6387C35.8506 10.6387 36.2867 10.7896 36.7188 10.9453L36.7749 11.7715Z" fill="black"/>
<path d="M36.9751 14.6119H37.0817C37.2389 14.6119 37.3511 14.6119 37.3511 14.4203V11.1995C37.3511 10.8227 37.2666 10.8113 37.0541 10.7476V10.6547C37.2777 10.5796 37.5131 10.476 37.6316 10.4059C37.6932 10.3716 37.7382 10.3423 37.7548 10.3423C37.7888 10.3423 37.7998 10.3774 37.7998 10.4238V14.4203C37.7998 14.6119 37.9238 14.6119 38.0803 14.6119H38.1751V14.7628C37.9855 14.7628 37.7888 14.7514 37.5865 14.7514C37.3851 14.7514 37.1836 14.7571 36.9751 14.7628V14.6119Z" fill="black"/>
<path d="M40.5766 14.4437C40.5766 14.5481 40.6374 14.5538 40.733 14.5538C40.8001 14.5538 40.8846 14.5481 40.9573 14.5481V14.6696C40.7156 14.6925 40.2566 14.814 40.1492 14.8483L40.1215 14.8311V14.363C39.7858 14.646 39.5275 14.8483 39.1293 14.8483C38.8268 14.8483 38.514 14.646 38.514 14.1607V12.6788C38.514 12.5279 38.491 12.3835 38.1782 12.355V12.2449C38.3805 12.2384 38.8276 12.2049 38.901 12.2049C38.9634 12.2049 38.9634 12.2449 38.9634 12.3721V13.8647C38.9634 14.0376 38.9634 14.5359 39.4509 14.5359C39.6404 14.5359 39.8932 14.385 40.1279 14.1836V12.6266C40.1279 12.5116 39.8593 12.448 39.6578 12.3892V12.2848C40.1618 12.2498 40.4762 12.2041 40.5315 12.2041C40.5766 12.2041 40.5766 12.2441 40.5766 12.3085V14.4437Z" fill="black"/>
<path d="M41.6879 12.5348C41.9122 12.339 42.2156 12.1188 42.5229 12.1188C43.173 12.1188 43.5648 12.7036 43.5648 13.3332C43.5648 14.0909 43.0269 14.8486 42.225 14.8486C41.8103 14.8486 41.5931 14.71 41.4469 14.6463L41.2787 14.7785L41.1617 14.7149C41.2107 14.3739 41.2392 14.0371 41.2392 13.6848V11.198C41.2392 10.8212 41.1554 10.8098 40.9421 10.7462V10.6532C41.1673 10.5782 41.4011 10.4746 41.5196 10.4044C41.5804 10.3702 41.6262 10.3408 41.6436 10.3408C41.6768 10.3408 41.6879 10.3759 41.6879 10.4224V12.5348ZM41.6879 14.1089C41.6879 14.3291 41.8893 14.6994 42.2653 14.6994C42.8649 14.6994 43.1169 14.0917 43.1169 13.5763C43.1169 12.9515 42.6572 12.4312 42.2203 12.4312C42.0118 12.4312 41.8388 12.5698 41.6871 12.7036L41.6879 14.1089Z" fill="black"/>
<path d="M17.5115 18.1264H17.5541C17.6639 18.1264 17.7801 18.1117 17.7801 17.9469V16.2978C17.7801 16.1339 17.6639 16.1184 17.5541 16.1184H17.5115V16.0229C17.6308 16.0229 17.8132 16.036 17.9633 16.036C18.1158 16.036 18.2983 16.0229 18.4413 16.0229V16.1184H18.3986C18.2888 16.1184 18.1727 16.1331 18.1727 16.2978V17.9469C18.1727 18.1109 18.2888 18.1264 18.3986 18.1264H18.4413V18.221C18.2951 18.221 18.1118 18.2087 17.9594 18.2087C17.8101 18.2087 17.63 18.221 17.5115 18.221V18.1264Z" fill="black"/>
<path d="M18.4452 18.2349C18.2982 18.2349 18.115 18.2226 17.9633 18.2226C17.814 18.2226 17.6347 18.2349 17.5154 18.2349H17.502V18.2218V18.1272V18.1142H17.5154H17.558C17.6686 18.1117 17.7698 18.1019 17.7705 17.9478V16.2986C17.7698 16.1445 17.6686 16.1347 17.558 16.1323H17.502V16.1192V16.0107H17.5154C17.6347 16.0107 17.8179 16.023 17.9672 16.023C18.1189 16.023 18.3014 16.0107 18.4452 16.0107H18.4586V16.0246V16.1323H18.4452H18.4025C18.2919 16.1347 18.19 16.1445 18.19 16.2986V17.9478C18.1908 18.1019 18.2919 18.1117 18.4025 18.1142H18.4586V18.1272V18.2349H18.4452ZM18.4317 18.208V18.1411H18.4025C18.2935 18.1411 18.1639 18.1215 18.1632 17.9478V16.2986C18.1639 16.1249 18.2935 16.1054 18.4025 16.1054H18.4317V16.0385C18.2911 16.0385 18.1142 16.0507 17.9665 16.0507C17.8219 16.0507 17.6465 16.0393 17.528 16.0385V16.1054H17.5573C17.6655 16.1054 17.7958 16.1249 17.7958 16.2986V17.9478C17.7958 18.1215 17.6655 18.1411 17.5573 18.1411H17.528V18.208C17.6457 18.2063 17.8187 18.1949 17.9633 18.1949C18.1118 18.1949 18.288 18.2063 18.4317 18.208Z" fill="black"/>
<path d="M20.5406 17.6008L20.5469 17.5943V16.4141C20.5469 16.1564 20.3731 16.1189 20.2815 16.1189H20.2151V16.0234C20.3581 16.0234 20.4987 16.0365 20.6417 16.0365C20.7665 16.0365 20.8921 16.0234 21.0161 16.0234V16.1189H20.9711C20.8431 16.1189 20.6994 16.1433 20.6994 16.5177V17.9507C20.6994 18.0608 20.7033 18.1709 20.7175 18.268H20.6014L19.0317 16.4614V17.7582C19.0317 18.0331 19.0831 18.126 19.3177 18.126H19.3698V18.2207C19.2387 18.2207 19.1076 18.2084 18.9764 18.2084C18.8406 18.2084 18.6992 18.2207 18.5625 18.2207V18.126H18.6052C18.8153 18.126 18.8801 17.9792 18.8801 17.7272V16.4019C18.8801 16.2257 18.7395 16.1189 18.6028 16.1189H18.5633V16.0234C18.6786 16.0234 18.7979 16.0365 18.9132 16.0365C19.0049 16.0365 19.0934 16.0234 19.185 16.0234L20.5406 17.6008Z" fill="black"/>
<path d="M20.7166 18.282L20.591 18.2771L19.0435 16.4967V17.7576C19.0474 18.0316 19.0877 18.1099 19.3168 18.1124H19.3824V18.1254V18.2339H19.3689C19.237 18.2339 19.1059 18.2217 18.9755 18.2217C18.8397 18.2217 18.6998 18.2339 18.5608 18.2339H18.5474V18.2208V18.1132H18.5608H18.6042C18.8057 18.1116 18.8633 17.9778 18.8657 17.7266V16.4013C18.8649 16.2341 18.7314 16.1321 18.6011 16.1313H18.5474V16.1174V16.0098H18.5608C18.6777 16.0098 18.7962 16.022 18.9115 16.022C19.0024 16.022 19.0901 16.0098 19.1936 16.0147L20.5333 17.5716V16.4143C20.5318 16.1639 20.3698 16.1337 20.2805 16.1313H20.2V16.1174V16.0098H20.2134C20.3572 16.0098 20.4978 16.022 20.64 16.022C20.764 16.022 20.8888 16.0098 21.0144 16.0098H21.0286V16.0228V16.1313H21.0144H20.9694C20.843 16.1354 20.7142 16.1468 20.7111 16.5179V17.9509C20.7111 18.0602 20.7142 18.1703 20.7292 18.2665L20.7316 18.2828L20.7166 18.282ZM20.6005 18.2543H20.7016C20.6874 18.1597 20.6858 18.0545 20.6858 17.9509V16.5179C20.6858 16.1403 20.8391 16.1052 20.9702 16.1052H21.0026V16.0383C20.8817 16.0391 20.7616 16.0505 20.6408 16.0505C20.5009 16.0505 20.3651 16.0391 20.2268 16.0383V16.1052H20.2805C20.3746 16.1052 20.5594 16.1484 20.5594 16.4151L20.5555 17.6051L20.5491 17.6108L20.5389 17.6206L19.1833 16.0383C19.0924 16.0383 19.004 16.0505 18.9115 16.0505C18.8002 16.0505 18.6848 16.0391 18.575 16.0383L18.5742 16.1052H18.6011C18.7441 16.1052 18.8918 16.2177 18.8918 16.4021V17.7274C18.8918 17.9794 18.8239 18.1401 18.6042 18.1409L18.575 18.1401V18.2086C18.7069 18.207 18.8428 18.1956 18.9755 18.1956C19.1035 18.1956 19.2299 18.207 19.3555 18.2086V18.1417H19.3168C19.0766 18.1409 19.0174 18.0333 19.0174 17.7592V16.4274L20.6005 18.2543Z" fill="black"/>
<path d="M21.4726 16.1811C21.2436 16.1811 21.2357 16.2382 21.189 16.4673H21.0974C21.1101 16.3793 21.1251 16.2912 21.1345 16.1998C21.1464 16.1117 21.1527 16.0237 21.1527 15.9323H21.2262C21.2507 16.0269 21.3265 16.0228 21.4094 16.0228H22.9823C23.0644 16.0228 23.1411 16.0204 23.1474 15.9258L23.22 15.9388C23.209 16.0228 23.1963 16.1085 23.1869 16.1933C23.1806 16.2781 23.1805 16.3629 23.1805 16.4478L23.0897 16.4828C23.0834 16.3662 23.0684 16.1794 22.8638 16.1794H22.3637V17.8547C22.3637 18.0977 22.4704 18.1246 22.6165 18.1246H22.6742V18.2192C22.5557 18.2192 22.3416 18.207 22.1773 18.207C21.9948 18.207 21.7807 18.2192 21.6614 18.2192V18.1246H21.7191C21.8874 18.1246 21.9719 18.1099 21.9719 17.8612V16.1794H21.4726V16.1811Z" fill="black"/>
<path d="M22.6745 18.2351C22.5544 18.2351 22.3411 18.2229 22.1768 18.2229C21.9943 18.2229 21.781 18.2351 21.6609 18.2351H21.6483V18.222V18.1144H21.6609H21.7186C21.8869 18.1103 21.9548 18.1079 21.958 17.864V16.1953H21.4714V16.1822V16.1692H21.9848V17.864C21.9848 18.116 21.8861 18.1421 21.7186 18.1421H21.6736V18.209C21.7944 18.2082 21.9991 18.1968 22.176 18.1968C22.3348 18.1968 22.5386 18.2082 22.6595 18.209V18.1421H22.6152C22.4675 18.1421 22.3482 18.1054 22.3482 17.8575V16.1692H22.8617C23.0663 16.17 23.0932 16.3486 23.0995 16.4661L23.1658 16.4408C23.1658 16.3592 23.1666 16.2768 23.1714 16.1937C23.18 16.1129 23.1911 16.033 23.203 15.9522L23.1564 15.9441C23.1413 16.0354 23.056 16.0403 22.9794 16.0395H21.4066C21.4003 16.0395 21.3955 16.0395 21.3908 16.0395C21.3189 16.0395 21.2407 16.0354 21.2138 15.9482H21.1633C21.1633 16.0354 21.1569 16.1194 21.1451 16.2034C21.1364 16.2899 21.123 16.3731 21.1111 16.4555H21.1759C21.2162 16.2369 21.2423 16.1651 21.4698 16.1692V16.1822V16.1953C21.2446 16.2002 21.2494 16.2385 21.1996 16.4718L21.198 16.4824H21.187H21.0803L21.0827 16.4661C21.0945 16.378 21.1103 16.2899 21.1198 16.1985C21.1325 16.1113 21.138 16.024 21.138 15.9335V15.9196H21.1506H21.2344L21.2367 15.9294C21.2581 16.0085 21.3134 16.0093 21.3916 16.011C21.3971 16.011 21.401 16.011 21.4074 16.011H22.9802C23.0647 16.0093 23.1271 16.0077 23.1319 15.9253L23.1327 15.9106L23.1461 15.9131L23.2322 15.927L23.2306 15.94C23.2188 16.0248 23.2069 16.1096 23.1982 16.1937C23.1919 16.2777 23.1919 16.3633 23.1919 16.4481V16.4579L23.1832 16.462L23.075 16.5028L23.0742 16.484C23.0655 16.3657 23.0537 16.1945 22.8609 16.1945H22.3743V17.8558C22.3774 18.0932 22.4691 18.1103 22.6144 18.1136H22.6847V18.1266V18.2351H22.6745Z" fill="black"/>
<path d="M23.3164 18.1264H23.3591C23.4689 18.1264 23.5842 18.1117 23.5842 17.9469V16.2978C23.5842 16.1339 23.4689 16.1184 23.3591 16.1184H23.3164V16.0229C23.5013 16.0229 23.8196 16.036 24.0756 16.036C24.3323 16.036 24.6483 16.0229 24.8553 16.0229C24.8505 16.1583 24.8529 16.3671 24.8624 16.505L24.7699 16.5302C24.7557 16.3255 24.7186 16.1624 24.3987 16.1624H23.976V16.9862H24.3378C24.5211 16.9862 24.5614 16.8801 24.5788 16.7097H24.6696C24.6641 16.8328 24.6609 16.9552 24.6609 17.0775C24.6609 17.1974 24.6641 17.3165 24.6696 17.4364L24.5788 17.4551C24.5614 17.2659 24.5519 17.1436 24.341 17.1436H23.976V17.8768C23.976 18.0815 24.1522 18.0815 24.3473 18.0815C24.7139 18.0815 24.875 18.0562 24.9659 17.6974L25.0512 17.7194C25.0117 17.8866 24.9753 18.0522 24.9477 18.2202C24.7526 18.2202 24.4018 18.2079 24.1269 18.2079C23.8528 18.2079 23.4902 18.2202 23.3164 18.2202V18.1264Z" fill="black"/>
<path d="M24.9479 18.2349C24.752 18.2349 24.4013 18.2218 24.1272 18.2218C23.853 18.2218 23.4904 18.2349 23.3167 18.2349H23.3032V18.2218V18.1272V18.1142H23.3167H23.3593C23.4691 18.1117 23.5702 18.1019 23.571 17.9478V16.2986C23.5702 16.1453 23.4691 16.1347 23.3593 16.1323H23.3032V16.1192V16.0107H23.3167C23.5023 16.0107 23.8199 16.023 24.0758 16.023C24.3318 16.023 24.6485 16.0107 24.8555 16.0107H24.8689V16.0246C24.8666 16.0719 24.865 16.1274 24.865 16.1877C24.865 16.2962 24.8689 16.4153 24.8745 16.505V16.5164L24.865 16.5197L24.7583 16.549L24.7575 16.5327C24.7394 16.3288 24.7133 16.1804 24.3989 16.1779H23.9881V16.9748H24.3381C24.5142 16.974 24.545 16.8802 24.5656 16.7105L24.5664 16.6983H24.5782H24.6841V16.7122C24.6778 16.8353 24.6746 16.9576 24.6746 17.08C24.6746 17.1991 24.6786 17.319 24.6841 17.4388V17.4495L24.673 17.4519L24.5664 17.4731L24.5656 17.4584C24.5443 17.2659 24.5435 17.1615 24.3412 17.1583L23.9881 17.1575V17.8776C23.9889 18.0693 24.1485 18.0685 24.3476 18.0693C24.7149 18.0669 24.8618 18.0481 24.9535 17.6949L24.9566 17.6819L24.9693 17.6843L25.0672 17.7104L25.0641 17.7235C25.0246 17.8899 24.9882 18.0563 24.9606 18.2226L24.9582 18.2341L24.9479 18.2349ZM24.9369 18.2071C24.9629 18.0481 24.9977 17.8891 25.0356 17.7308L24.9748 17.7153C24.8839 18.0677 24.707 18.0987 24.3468 18.0962C24.154 18.0962 23.9621 18.0962 23.9613 17.8776V17.1306H24.3404C24.5537 17.1281 24.5751 17.261 24.5901 17.4405L24.6564 17.4266C24.6509 17.3108 24.6477 17.1942 24.6477 17.0784C24.6477 16.9601 24.6509 16.8426 24.6564 16.7236H24.5901C24.5735 16.8883 24.5237 17.0033 24.3373 17.0009H23.9613V16.1486H24.3989C24.7157 16.1469 24.7686 16.3158 24.782 16.5131L24.8484 16.4952C24.8429 16.4063 24.8397 16.2929 24.8397 16.1877C24.8397 16.1331 24.8405 16.0825 24.8421 16.0377C24.6351 16.0385 24.3262 16.0499 24.075 16.0499C23.8246 16.0499 23.5157 16.0385 23.3293 16.0377V16.1045H23.3593C23.4675 16.1045 23.5979 16.1241 23.5987 16.2978V17.947C23.5979 18.1207 23.4683 18.1394 23.3593 18.1403H23.3293V18.2071C23.5062 18.2063 23.8594 18.1949 24.1272 18.1949C24.3965 18.1949 24.7402 18.2063 24.9369 18.2071Z" fill="black"/>
<path d="M25.459 16.3573C25.459 16.1273 25.3366 16.1184 25.2426 16.1184H25.1873V16.0229C25.2852 16.0229 25.474 16.036 25.6604 16.036C25.8429 16.036 25.9891 16.0229 26.1518 16.0229C26.5349 16.0229 26.877 16.1306 26.877 16.5776C26.877 16.8606 26.6945 17.0335 26.4536 17.1322L26.9749 17.9372C27.0603 18.0709 27.1203 18.1076 27.2704 18.1264V18.221C27.1701 18.221 27.0721 18.2087 26.9718 18.2087C26.877 18.2087 26.779 18.221 26.685 18.221C26.4504 17.9037 26.249 17.5636 26.0507 17.2007H25.85V17.8744C25.85 18.1174 25.9591 18.1256 26.0997 18.1256H26.155V18.2202C25.9804 18.2202 25.8034 18.2079 25.6296 18.2079C25.4835 18.2079 25.3405 18.2202 25.1873 18.2202V18.1256H25.2426C25.3547 18.1256 25.459 18.0734 25.459 17.9559V16.3573ZM25.8492 17.0873H25.9978C26.3027 17.0873 26.467 16.9682 26.467 16.5963C26.467 16.3166 26.2932 16.1363 26.0215 16.1363C25.9298 16.1363 25.8903 16.1461 25.8485 16.1494V17.0873H25.8492Z" fill="black"/>
<path d="M27.2718 18.235C27.1699 18.235 27.0727 18.2228 26.9724 18.2228C26.88 18.2228 26.782 18.235 26.6754 18.2301C26.4423 17.9129 26.2417 17.5752 26.0442 17.2155H25.8641V17.8754C25.8672 18.1127 25.9597 18.1102 26.1003 18.1143H26.1682V18.1274V18.2358H26.1548C25.9802 18.2358 25.8033 18.2236 25.6303 18.2236C25.4841 18.2236 25.3419 18.2358 25.1887 18.2358H25.176V18.2228V18.1151H25.1887H25.244C25.3538 18.1143 25.4454 18.0646 25.447 17.9585V16.3592C25.4446 16.1357 25.3388 16.1365 25.244 16.1332H25.176V16.1202V16.0117H25.1887C25.2882 16.0117 25.4762 16.024 25.6619 16.024C25.8435 16.024 25.9905 16.0117 26.1532 16.0117C26.5371 16.0117 26.891 16.1226 26.8918 16.5786C26.8918 16.8632 26.7093 17.0402 26.4747 17.1389L26.9866 17.9308C27.0719 18.0621 27.1249 18.0947 27.2726 18.1143L27.2837 18.1151V18.1266V18.235H27.2718ZM25.8507 17.1878H26.0592L26.0632 17.1951C26.2614 17.5573 26.4621 17.8966 26.6864 18.2081C26.7797 18.2081 26.8776 18.1951 26.9724 18.1951C27.0696 18.1951 27.1644 18.2057 27.2584 18.2073V18.138C27.1154 18.12 27.0482 18.076 26.9653 17.9455L26.4344 17.1258L26.4502 17.1193C26.6888 17.0222 26.865 16.8542 26.8658 16.5777C26.865 16.1414 26.5363 16.0394 26.154 16.0378C25.9928 16.0378 25.8459 16.0501 25.6626 16.0501C25.4825 16.0501 25.3024 16.0386 25.2029 16.0378V16.1047H25.2448C25.3395 16.1047 25.4738 16.121 25.4738 16.3575V17.9569C25.4738 18.0833 25.3601 18.1412 25.2448 18.1412H25.2029V18.2081C25.3498 18.2073 25.4881 18.1959 25.631 18.1959C25.8017 18.1959 25.9739 18.2073 26.1429 18.2081V18.1412H26.1011C25.962 18.1412 25.838 18.1233 25.838 17.8754V17.1878H25.8507ZM25.8507 17.1014H25.8372V16.1373L25.8491 16.1365C25.8909 16.1324 25.932 16.1251 26.0244 16.1251C26.3017 16.1251 26.4826 16.311 26.4834 16.5981C26.4826 16.9733 26.308 17.1022 26.0007 17.1022L25.8507 17.1014ZM26 17.0744C26.3017 17.0712 26.4542 16.9635 26.4566 16.5973C26.455 16.3225 26.2891 16.152 26.0237 16.1504C25.9407 16.1504 25.9028 16.1577 25.8633 16.1618V17.0736L26 17.0744Z" fill="black"/>
<path d="M29.3422 17.6013L29.3477 17.5948V16.4146C29.3477 16.1569 29.1739 16.1194 29.0831 16.1194H29.0159V16.0239C29.1597 16.0239 29.2988 16.037 29.4433 16.037C29.5689 16.037 29.6929 16.0239 29.8185 16.0239V16.1194H29.7727C29.6448 16.1194 29.501 16.1438 29.501 16.5182V17.9512C29.501 18.0613 29.5034 18.1714 29.5184 18.2684H29.403L27.8326 16.4619V17.7587C27.8326 18.0336 27.8847 18.1265 28.1193 18.1265H28.1715V18.2211C28.0403 18.2211 27.9084 18.2089 27.7773 18.2089C27.6398 18.2089 27.5 18.2211 27.3625 18.2211V18.1265H27.4044C27.6153 18.1265 27.6793 17.9797 27.6793 17.7277V16.4024C27.6793 16.2262 27.5387 16.1194 27.402 16.1194H27.3625V16.0239C27.4779 16.0239 27.598 16.037 27.7133 16.037C27.8041 16.037 27.8926 16.0239 27.9843 16.0239L29.3422 17.6013Z" fill="black"/>
<path d="M29.5192 18.2823L29.3935 18.2774L27.846 16.497V17.7579C27.85 18.0328 27.8902 18.1103 28.1201 18.1127H28.1849V18.1257V18.2342H28.1715C28.0395 18.2342 27.9084 18.2212 27.7781 18.2212C27.6414 18.2212 27.5008 18.2342 27.3633 18.2342H27.3491V18.2212V18.1135H27.3633H27.4052C27.6066 18.1127 27.6643 17.9781 27.6667 17.7269V16.4016C27.6659 16.2336 27.534 16.1324 27.4028 16.1316H27.3491V16.1186V16.0101H27.3633C27.4795 16.0101 27.5987 16.0223 27.7141 16.0223C27.8041 16.0223 27.8918 16.0101 27.9945 16.0134L29.3351 17.5711V16.4138C29.3351 16.1634 29.1716 16.1324 29.0831 16.1308H29.0025V16.1178V16.0093H29.0159C29.1605 16.0093 29.3003 16.0215 29.4433 16.0215C29.5673 16.0215 29.6929 16.0093 29.8185 16.0093H29.832V16.0231V16.1308H29.8185H29.7735C29.6479 16.1341 29.5176 16.1463 29.5144 16.5174V17.9504C29.5144 18.0597 29.5168 18.169 29.5326 18.266L29.5342 18.2823H29.5192ZM29.4038 18.2546H29.5034C29.4907 18.1608 29.4876 18.0548 29.4876 17.9512V16.5182C29.4876 16.1406 29.6416 16.1055 29.7727 16.1055H29.8043V16.0386C29.6843 16.0395 29.5634 16.0509 29.4425 16.0509C29.3027 16.0509 29.166 16.0395 29.0286 16.0386V16.1055H29.0823C29.1763 16.1063 29.3612 16.1487 29.3612 16.4154L29.3572 17.6054L29.3517 17.6111L29.3422 17.6217L27.9858 16.0386C27.895 16.0386 27.8065 16.0509 27.7149 16.0509C27.6019 16.0509 27.4882 16.0395 27.3768 16.0386V16.1055H27.4036C27.5466 16.1063 27.6935 16.2173 27.6935 16.4024V17.7277C27.6935 17.9806 27.6248 18.1404 27.406 18.1421H27.3768V18.2089C27.5087 18.2081 27.6446 18.1967 27.7781 18.1967C27.9053 18.1967 28.0324 18.2081 28.158 18.2089V18.1421H28.1193C27.8792 18.1421 27.8191 18.0344 27.8184 17.7595V16.4277L29.4038 18.2546Z" fill="black"/>
<path d="M30.3086 17.7711C30.2778 17.8779 30.2407 17.9603 30.2407 18.0166C30.2407 18.1112 30.3695 18.1267 30.4698 18.1267H30.5037V18.2213C30.3813 18.2148 30.2565 18.2091 30.134 18.2091C30.0242 18.2091 29.9144 18.2148 29.8054 18.2213V18.1267H29.8236C29.9429 18.1267 30.044 18.0541 30.0882 17.922L30.5764 16.4776C30.6159 16.3609 30.6712 16.2035 30.6894 16.0869C30.7873 16.0526 30.909 15.9898 30.9675 15.9515C30.9769 15.9482 30.9817 15.9458 30.9919 15.9458C31.0006 15.9458 31.007 15.9458 31.0133 15.9548C31.022 15.9801 31.0314 16.0086 31.0409 16.0339L31.6018 17.6806C31.6381 17.7907 31.6745 17.9073 31.714 18.0019C31.7511 18.09 31.8151 18.1267 31.9154 18.1267H31.9336V18.2213C31.7969 18.2148 31.6595 18.2091 31.5133 18.2091C31.364 18.2091 31.2116 18.2148 31.0567 18.2213V18.1267H31.0899C31.1594 18.1267 31.2787 18.1153 31.2787 18.0362C31.2787 17.9946 31.2518 17.9098 31.2171 17.8094L31.0986 17.4441H30.4066L30.3086 17.7711ZM30.7534 16.3764H30.7471L30.4635 17.2679H31.0338L30.7534 16.3764Z" fill="black"/>
<path d="M31.9323 18.2352C31.7956 18.2294 31.6589 18.2221 31.5128 18.2221C31.3635 18.2221 31.2118 18.2294 31.0562 18.2352L31.0427 18.236V18.2213V18.1128H31.0562H31.0894C31.1597 18.1128 31.2639 18.0965 31.2639 18.0362C31.2647 18.0003 31.2379 17.9138 31.2039 17.8143L31.0878 17.4579H30.4147L30.3199 17.7752C30.2891 17.8828 30.2528 17.966 30.2528 18.0174C30.2536 18.0941 30.3681 18.1128 30.4692 18.1128H30.5158V18.1275V18.2368L30.5024 18.236C30.38 18.2303 30.2559 18.2229 30.1343 18.2229C30.0253 18.2229 29.9147 18.2303 29.8057 18.236L29.7922 18.2368V18.2221V18.1136H29.8049H29.823C29.9368 18.1136 30.0308 18.0468 30.075 17.9187L30.564 16.4743C30.6043 16.3577 30.6588 16.2011 30.6849 16.0755C30.7805 16.0412 30.9029 15.9776 30.9622 15.9401C30.9709 15.9368 30.9788 15.9327 30.9914 15.9327C30.9985 15.9319 31.0159 15.9352 31.0246 15.9515C31.0341 15.9776 31.0435 16.0053 31.0522 16.0306L31.6139 17.6773C31.6494 17.7874 31.6858 17.904 31.7253 17.9962C31.7608 18.0802 31.8169 18.1136 31.9149 18.1136H31.9465V18.1283V18.2376L31.9323 18.2352ZM31.0688 18.2066C31.2189 18.2017 31.3674 18.1952 31.5128 18.1952C31.655 18.1952 31.7869 18.2017 31.9196 18.2066V18.1414H31.9149C31.8106 18.1422 31.7387 18.0998 31.7008 18.0076C31.6613 17.9122 31.6242 17.7956 31.5886 17.6854L31.027 16.0388C31.0175 16.0135 31.0088 15.9849 31.0009 15.9629C30.9977 15.9596 30.9985 15.9596 30.9961 15.9596C30.9946 15.9596 30.9922 15.9596 30.9906 15.9596C30.9843 15.9596 30.9811 15.9621 30.9732 15.9637C30.914 16.0029 30.7915 16.0649 30.7015 16.0901C30.6833 16.21 30.628 16.3666 30.5885 16.4824L30.1011 17.9277C30.0545 18.0647 29.9479 18.1414 29.823 18.1414H29.8183V18.2066C29.9226 18.2017 30.0284 18.1952 30.1343 18.1952C30.252 18.1952 30.3729 18.2017 30.489 18.2066V18.1414H30.47C30.3705 18.1405 30.2315 18.1291 30.2283 18.0174C30.2283 17.9546 30.2654 17.8738 30.2954 17.7678L30.3958 17.4318H31.1059L31.2284 17.8053C31.2632 17.9065 31.2908 17.9905 31.2908 18.0362C31.2861 18.1324 31.1581 18.1397 31.0894 18.1414H31.0688V18.2066ZM30.4447 17.2817L30.737 16.3634H30.7473H30.7536H30.7631L31.0522 17.2817H30.4447ZM30.4819 17.254H31.0151L30.7497 16.4099L30.4819 17.254Z" fill="black"/>
<path d="M32.0701 16.1811C31.841 16.1811 31.8323 16.2382 31.7865 16.4673H31.6948C31.7075 16.3793 31.7225 16.2912 31.732 16.1998C31.7446 16.1117 31.7501 16.0237 31.7501 15.9323H31.8228C31.8473 16.0269 31.9239 16.0228 32.0061 16.0228H33.5797C33.6618 16.0228 33.7377 16.0204 33.744 15.9258L33.8175 15.9388C33.8056 16.0228 33.7938 16.1085 33.7843 16.1933C33.7772 16.2781 33.7772 16.3629 33.7772 16.4478L33.6863 16.4828C33.6808 16.3662 33.665 16.1794 33.4612 16.1794H32.9611V17.8547C32.9611 18.0977 33.0678 18.1246 33.2139 18.1246H33.2716V18.2192C33.1531 18.2192 32.9398 18.207 32.7755 18.207C32.5922 18.207 32.3781 18.2192 32.2596 18.2192V18.1246H32.3181C32.4864 18.1246 32.5717 18.1099 32.5717 17.8612V16.1794H32.0701V16.1811Z" fill="black"/>
<path d="M33.2703 18.2349C33.151 18.2349 32.9377 18.2227 32.7742 18.2227C32.5917 18.2227 32.3784 18.2349 32.2584 18.2349H32.2457V18.2219V18.1142H32.2584H32.3168C32.4851 18.1101 32.5522 18.1077 32.5562 17.8638V16.1951H32.0703V16.1821V16.169H32.583V17.8638C32.583 18.1159 32.4851 18.1403 32.3168 18.142H32.2718V18.2088C32.3927 18.2072 32.5973 18.1958 32.7742 18.1958C32.933 18.1958 33.1376 18.2072 33.2577 18.2088L33.2569 18.142H33.2118C33.0649 18.1411 32.9464 18.1053 32.9464 17.8573V16.169H33.4599C33.6653 16.1698 33.6914 16.3485 33.6977 16.4659L33.764 16.4406C33.764 16.3591 33.764 16.2767 33.7704 16.1935C33.779 16.1128 33.7909 16.032 33.8012 15.9521L33.7553 15.9431C33.7411 16.0345 33.655 16.0393 33.5784 16.0385H32.0048C31.9985 16.0385 31.9937 16.0385 31.989 16.0385C31.9171 16.0393 31.8397 16.0345 31.812 15.9464H31.7623C31.7615 16.0345 31.7559 16.1185 31.7433 16.2025C31.7346 16.2897 31.7196 16.3721 31.7085 16.4545H31.7741C31.8144 16.2359 31.8405 16.1633 32.0688 16.1682V16.1813V16.1943C31.842 16.1984 31.8476 16.2375 31.7978 16.4708L31.7954 16.4814H31.7852H31.6777L31.6801 16.4651C31.6927 16.377 31.7078 16.2889 31.7172 16.1984C31.7299 16.1095 31.7354 16.0222 31.7354 15.9325V15.9186H31.7488H31.8318L31.8341 15.9284C31.8555 16.0075 31.9116 16.0084 31.989 16.01C31.9945 16.01 31.9992 16.01 32.0048 16.01H33.5784C33.6629 16.0084 33.7245 16.0067 33.7293 15.9243L33.7301 15.9097L33.7443 15.9121L33.8312 15.926L33.8288 15.939C33.8162 16.0239 33.8043 16.1087 33.7956 16.1927C33.7901 16.2767 33.7901 16.3623 33.7901 16.4471V16.4569L33.7806 16.461L33.6724 16.5018V16.483C33.6645 16.3648 33.6519 16.1935 33.4591 16.1935H32.9725V17.8549C32.9756 18.0922 33.0665 18.1093 33.2118 18.1126H33.2829V18.1256V18.2341H33.2703V18.2349Z" fill="black"/>
<path d="M33.9287 18.1264H33.9714C34.082 18.1264 34.1973 18.1117 34.1973 17.9469V16.2978C34.1973 16.1339 34.082 16.1184 33.9714 16.1184H33.9287V16.0229C34.048 16.0229 34.2305 16.036 34.3798 16.036C34.5322 16.036 34.7155 16.0229 34.8593 16.0229V16.1184H34.8166C34.706 16.1184 34.5899 16.1331 34.5899 16.2978V17.9469C34.5899 18.1109 34.706 18.1264 34.8166 18.1264H34.8593V18.221C34.7124 18.221 34.5299 18.2087 34.3774 18.2087C34.2273 18.2087 34.048 18.221 33.9287 18.221V18.1264Z" fill="black"/>
<path d="M34.8585 18.2349C34.7116 18.2349 34.5283 18.2218 34.3766 18.2218C34.2273 18.2218 34.0472 18.2349 33.9279 18.2349H33.9153V18.2218V18.1272V18.1142H33.9279H33.9706C34.0812 18.1117 34.1815 18.1019 34.1823 17.9478V16.2986C34.1815 16.1453 34.0812 16.1347 33.9706 16.1323H33.9153V16.1192V16.0107H33.9279C34.0472 16.0107 34.2297 16.023 34.379 16.023C34.5315 16.023 34.7139 16.0107 34.8585 16.0107H34.8704V16.0238V16.1323H34.8585H34.8158C34.7045 16.1347 34.6041 16.1453 34.6026 16.2986V17.9478C34.6033 18.1019 34.7045 18.1117 34.8158 18.1142H34.8704V18.1272V18.2357L34.8585 18.2349ZM34.8451 18.2071V18.1403H34.8166C34.7076 18.1403 34.5773 18.1207 34.5773 17.947V16.2978C34.5773 16.1241 34.7068 16.1045 34.8166 16.1045H34.8451V16.0377C34.7045 16.0385 34.5283 16.0499 34.3798 16.0499C34.2352 16.0499 34.0598 16.0385 33.9421 16.0377V16.1045H33.9714C34.0796 16.1045 34.2099 16.1241 34.2099 16.2978V17.947C34.2099 18.1207 34.0796 18.1403 33.9714 18.1403H33.9421V18.2071C34.0598 18.2055 34.2321 18.1949 34.3774 18.1949C34.5243 18.1949 34.7013 18.2063 34.8451 18.2071Z" fill="black"/>
<path d="M36.0726 15.9766C36.7227 15.9766 37.241 16.3925 37.241 17.0629C37.241 17.7872 36.7378 18.2684 36.0884 18.2684C35.4414 18.2684 34.9485 17.8157 34.9485 17.138C34.9485 16.4839 35.4391 15.9766 36.0726 15.9766ZM36.1184 18.1297C36.7109 18.1297 36.8128 17.5914 36.8128 17.1323C36.8128 16.6723 36.5727 16.1152 36.0663 16.1152C35.5331 16.1152 35.3743 16.6062 35.3743 17.027C35.3751 17.5914 35.6247 18.1297 36.1184 18.1297Z" fill="black"/>
<path d="M34.9351 17.1382C34.9366 16.4759 35.4327 15.9637 36.0734 15.9629V15.9768V15.9906C35.4462 15.9906 34.9611 16.4906 34.9611 17.1382C34.9619 17.8078 35.4485 18.2539 36.0892 18.2547C36.7322 18.2539 37.2275 17.78 37.2291 17.0623C37.2283 16.4 36.718 15.9906 36.0734 15.9906V15.9768V15.9629C36.7283 15.9637 37.2528 16.3837 37.2544 17.0623C37.2536 17.7939 36.7449 18.2808 36.0892 18.2824C35.4375 18.2808 34.9366 17.8224 34.9351 17.1382ZM35.3624 17.0281C35.3632 16.6048 35.5244 16.1015 36.0679 16.1015C36.5861 16.1024 36.827 16.67 36.8278 17.1333C36.827 17.5916 36.7227 18.1438 36.1192 18.1438V18.1307V18.1177C36.6998 18.1169 36.7994 17.5925 36.801 17.1341C36.801 16.6774 36.5624 16.1309 36.0671 16.1301C35.5441 16.1309 35.3893 16.6097 35.3885 17.0289C35.3893 17.59 35.6365 18.1161 36.1192 18.1177V18.1307V18.1438C35.6136 18.1422 35.3632 17.5949 35.3624 17.0281Z" fill="black"/>
<path d="M39.2966 17.6013L39.3029 17.5948V16.4146C39.3029 16.1569 39.1291 16.1194 39.0367 16.1194H38.9711V16.0239C39.1133 16.0239 39.2539 16.037 39.3969 16.037C39.5225 16.037 39.6474 16.0239 39.7722 16.0239V16.1194H39.7263C39.5984 16.1194 39.4546 16.1438 39.4546 16.5182V17.9512C39.4546 18.0613 39.4585 18.1714 39.4728 18.2684H39.3566L37.787 16.4619V17.7587C37.787 18.0336 37.8383 18.1265 38.0737 18.1265H38.1251V18.2211C37.994 18.2211 37.8628 18.2089 37.7317 18.2089C37.5942 18.2089 37.4536 18.2211 37.3162 18.2211V18.1265H37.3596C37.5705 18.1265 37.6337 17.9797 37.6337 17.7277V16.4024C37.6337 16.2262 37.4939 16.1194 37.3565 16.1194H37.317V16.0239C37.4331 16.0239 37.5516 16.037 37.6677 16.037C37.7585 16.037 37.847 16.0239 37.9387 16.0239L39.2966 17.6013Z" fill="black"/>
<path d="M39.4751 18.2822L39.3487 18.2773L37.8019 16.4968V17.7577C37.8059 18.0326 37.8462 18.1093 38.0753 18.1117H38.1416V18.1264V18.2341H38.1282C37.9963 18.2341 37.8651 18.2218 37.7348 18.2218C37.5981 18.2218 37.4583 18.2341 37.3193 18.2341H37.3066V18.221V18.1125H37.3193H37.3627C37.5642 18.1117 37.6218 17.9788 37.6234 17.7276V16.4022C37.6234 16.2342 37.4907 16.1331 37.3596 16.1323H37.3074V16.1192V16.0107H37.3201C37.437 16.0107 37.5563 16.023 37.6708 16.023C37.7609 16.023 37.8486 16.0107 37.9528 16.0156L39.2918 17.5726V16.4153C39.291 16.1649 39.1291 16.1347 39.039 16.1323H38.9592V16.1192V16.0107H38.9727C39.1164 16.0107 39.2571 16.023 39.3985 16.023C39.5241 16.023 39.6481 16.0107 39.7745 16.0107H39.7871V16.0238V16.1323H39.7745H39.7287C39.6031 16.1363 39.4735 16.1478 39.4704 16.5189V17.9519C39.4704 18.0611 39.4727 18.1713 39.4869 18.2675L39.4893 18.2838H39.4751V18.2822ZM39.359 18.2544H39.4601C39.4467 18.1598 39.4443 18.0546 39.4443 17.951V16.518C39.4443 16.1396 39.5983 16.1054 39.7287 16.1054H39.7618V16.0385C39.641 16.0393 39.5201 16.0507 39.3985 16.0507C39.261 16.0507 39.1244 16.0393 38.9861 16.0385V16.1054H39.039C39.1338 16.1062 39.3179 16.1486 39.3179 16.4153L39.3139 17.6052L39.3084 17.6109L39.2989 17.6215L37.941 16.0385C37.8509 16.0385 37.7625 16.0507 37.67 16.0507C37.5578 16.0507 37.4425 16.0393 37.3319 16.0385V16.1054H37.358C37.5018 16.1062 37.6487 16.2171 37.6487 16.4022V17.7276C37.6487 17.9796 37.5808 18.1403 37.3611 18.1411H37.3311V18.208C37.4638 18.2071 37.5989 18.1957 37.7332 18.1957C37.8604 18.1957 37.9876 18.2071 38.1132 18.208V18.1411H38.0737C37.8343 18.1411 37.7743 18.0334 37.7743 17.7586V16.4267L39.359 18.2544Z" fill="black"/>
<path d="M40.2626 17.7711C40.2334 17.8779 40.1963 17.9603 40.1963 18.0166C40.1963 18.1112 40.325 18.1267 40.4246 18.1267H40.4585V18.2213C40.3361 18.2148 40.2121 18.2091 40.0896 18.2091C39.979 18.2091 39.8692 18.2148 39.761 18.2213V18.1267H39.7776C39.8969 18.1267 39.9988 18.0541 40.043 17.922L40.532 16.4776C40.5715 16.3609 40.626 16.2035 40.6442 16.0869C40.7413 16.0526 40.8638 15.9898 40.9214 15.9515C40.9309 15.9482 40.9372 15.9458 40.9459 15.9458C40.9546 15.9458 40.9602 15.9458 40.9673 15.9548C40.9767 15.9801 40.9854 16.0086 40.9949 16.0339L41.5558 17.6806C41.5913 17.7907 41.6293 17.9073 41.6688 18.0019C41.7051 18.09 41.7699 18.1267 41.8702 18.1267H41.8884V18.2213C41.7517 18.2148 41.6135 18.2091 41.4681 18.2091C41.3188 18.2091 41.1655 18.2148 41.0107 18.2213V18.1267H41.0447C41.1142 18.1267 41.2343 18.1153 41.2343 18.0362C41.2343 17.9946 41.2066 17.9098 41.1727 17.8094L41.0542 17.4441H40.3629L40.2626 17.7711ZM40.7074 16.3764H40.701L40.4174 17.2679H40.9886L40.7074 16.3764Z" fill="black"/>
<path d="M41.8878 18.235C41.7504 18.2293 41.6129 18.2228 41.4683 18.2228C41.3198 18.2228 41.1666 18.2301 41.011 18.235L40.9975 18.2358V18.2212V18.1135H41.0102H41.0433C41.1144 18.1135 41.2195 18.0964 41.2203 18.036C41.2211 18.0001 41.1934 17.9145 41.1587 17.8142L41.0433 17.4578H40.3703L40.2763 17.775C40.2463 17.8835 40.2091 17.9659 40.2099 18.0164C40.2099 18.0939 40.3237 18.1135 40.4248 18.1135H40.4714V18.1265V18.2358L40.458 18.235C40.3363 18.2293 40.2115 18.2228 40.0899 18.2228C39.9801 18.2228 39.871 18.2301 39.7612 18.235L39.7478 18.2358V18.2212V18.1135H39.7612H39.7778C39.8916 18.1127 39.9872 18.045 40.0314 17.9178L40.5196 16.4733C40.5583 16.3567 40.6136 16.2001 40.6405 16.0745C40.7368 16.0403 40.8593 15.9766 40.9177 15.9391C40.9256 15.9359 40.9351 15.9318 40.947 15.9318C40.9549 15.931 40.9707 15.9334 40.9801 15.9505C40.9888 15.975 40.9975 16.0035 41.0078 16.0288L41.5687 17.6755C41.605 17.7856 41.6421 17.9023 41.6816 17.9952C41.7172 18.0792 41.7725 18.1119 41.8704 18.1135H41.9012V18.1265V18.2358L41.8878 18.235ZM41.0236 18.2065C41.1737 18.2008 41.323 18.1951 41.4676 18.1951C41.609 18.1951 41.7417 18.2016 41.8744 18.2065V18.1412H41.8696C41.7662 18.1412 41.6943 18.0996 41.6564 18.0075C41.6161 17.912 41.5797 17.7954 41.5434 17.6853L40.9833 16.0386C40.9738 16.0133 40.9643 15.9848 40.9564 15.9636C40.9541 15.9595 40.9541 15.9595 40.9517 15.9595C40.9509 15.9595 40.9485 15.9595 40.9462 15.9595C40.9399 15.9595 40.9367 15.962 40.928 15.9636C40.8688 16.0019 40.7471 16.0655 40.6563 16.09C40.6381 16.2099 40.5828 16.3665 40.5441 16.4823L40.0559 17.9275C40.0093 18.0646 39.9034 18.1412 39.7778 18.1412H39.7731V18.2065C39.8781 18.2016 39.9832 18.1951 40.0899 18.1951C40.2076 18.1951 40.3276 18.2016 40.4461 18.2065V18.1412H40.4248C40.3261 18.1404 40.187 18.129 40.1831 18.0164C40.1839 17.9545 40.2218 17.8737 40.2518 17.7677L40.3521 17.4317H41.0631L41.1847 17.8052C41.2187 17.9063 41.2464 17.9903 41.2464 18.036C41.2416 18.1323 41.1144 18.1396 41.0441 18.1412H41.0244V18.2065H41.0236ZM40.4003 17.28L40.6942 16.3624H40.7029H40.7092H40.7195L41.0078 17.28H40.4003ZM40.4374 17.253H40.9715L40.706 16.4105L40.4374 17.253Z" fill="black"/>
<path d="M42.6554 17.9128C42.6554 18.0393 42.7399 18.0768 42.8379 18.089C42.9635 18.0988 43.1001 18.0988 43.2408 18.0825C43.3679 18.0678 43.4785 17.9911 43.533 17.9128C43.5812 17.8427 43.6089 17.7554 43.6278 17.6861H43.7163C43.6824 17.8655 43.6397 18.0425 43.6034 18.2211C43.3356 18.2211 43.067 18.2089 42.7992 18.2089C42.5306 18.2089 42.262 18.2211 41.9934 18.2211V18.1265H42.0353C42.1459 18.1265 42.2644 18.1118 42.2644 17.9161V16.2988C42.2644 16.1348 42.1459 16.1194 42.0353 16.1194H41.9934V16.0239C42.1554 16.0239 42.3141 16.037 42.4753 16.037C42.6309 16.037 42.7834 16.0239 42.939 16.0239V16.1194H42.8624C42.747 16.1194 42.6562 16.1226 42.6562 16.289V17.9128H42.6554Z" fill="black"/>
<path d="M43.6034 18.2349C43.3348 18.2349 43.067 18.2226 42.7992 18.2226C42.5306 18.2226 42.262 18.2349 41.9926 18.2349H41.98V18.2218V18.1142H41.9926H42.0353C42.1459 18.1117 42.2509 18.1036 42.2517 17.916V16.2978C42.2509 16.1453 42.1467 16.1339 42.0353 16.1323H41.98V16.1192V16.0107H41.9926C42.1554 16.0107 42.3141 16.023 42.4745 16.023C42.6293 16.023 42.7818 16.0107 42.9382 16.0107H42.9501V16.0238V16.1323H42.9382H42.8616C42.7439 16.1355 42.6696 16.1298 42.6673 16.2897V17.9135C42.6688 18.031 42.7431 18.062 42.8387 18.0766C42.8916 18.0807 42.9493 18.0824 43.0069 18.0824C43.0812 18.0824 43.1586 18.0783 43.2384 18.0701C43.3624 18.0546 43.4683 17.9812 43.5212 17.9062C43.5686 17.8385 43.5947 17.752 43.6128 17.6835L43.616 17.6729H43.6263H43.7305L43.7274 17.6901C43.6934 17.8695 43.6515 18.0457 43.6144 18.2251L43.6113 18.2349H43.6034ZM43.5923 18.2071C43.6278 18.0367 43.6673 17.8695 43.6997 17.699H43.6373C43.6192 17.7684 43.5915 17.8524 43.5433 17.9209C43.4864 18.0032 43.3735 18.0799 43.2408 18.0962C43.161 18.1052 43.082 18.1093 43.0069 18.1093C42.9485 18.1093 42.89 18.1068 42.8355 18.1027C42.7368 18.0913 42.6404 18.0473 42.6412 17.9127V16.2889C42.6412 16.1135 42.7478 16.1045 42.8616 16.1045H42.9248V16.0377C42.7747 16.0385 42.6254 16.0499 42.4745 16.0499C42.3157 16.0499 42.1617 16.0385 42.0061 16.0377V16.1045H42.0353C42.1443 16.1045 42.2778 16.1241 42.2778 16.297V17.9152C42.2778 18.1191 42.1451 18.1403 42.0353 18.1403H42.0061V18.2071C42.2691 18.2063 42.5337 18.1949 42.7984 18.1949C43.0638 18.1949 43.3277 18.2063 43.5923 18.2071Z" fill="black"/>
<path d="M43.6779 15.9351C43.862 15.9351 43.9986 16.081 43.9986 16.267C43.9986 16.453 43.8612 16.5973 43.6779 16.5973C43.4946 16.5973 43.3572 16.453 43.3572 16.267C43.3572 16.081 43.4946 15.9351 43.6779 15.9351ZM43.6779 16.5353C43.8217 16.5353 43.9323 16.4089 43.9323 16.2662C43.9323 16.1235 43.824 15.9954 43.6779 15.9954C43.5333 15.9954 43.4235 16.1235 43.4235 16.2662C43.4235 16.4089 43.5325 16.5353 43.6779 16.5353ZM43.5183 16.4415V16.4252C43.557 16.4195 43.5649 16.4212 43.5649 16.3959V16.1504C43.5649 16.1153 43.561 16.1039 43.5191 16.1055V16.0884H43.6842C43.7403 16.0884 43.7924 16.1169 43.7924 16.1765C43.7924 16.2262 43.7616 16.2621 43.7166 16.2768L43.7688 16.3526C43.794 16.3861 43.8217 16.4195 43.8398 16.4301V16.4407H43.7774C43.7474 16.4407 43.7214 16.3755 43.6621 16.2882H43.6266V16.3975C43.6266 16.4203 43.6337 16.4187 43.6732 16.4236V16.4399H43.5183V16.4415ZM43.6266 16.267H43.6637C43.7056 16.267 43.7245 16.2352 43.7245 16.183C43.7245 16.13 43.6945 16.112 43.6613 16.112H43.6258V16.267H43.6266Z" fill="black"/>
<path d="M9.37334 19.9999C6.42598 20.0146 4 17.5491 4 14.5477C4 11.2682 6.42598 8.99918 9.37334 9H10.755C13.6676 8.99918 16.3258 11.2674 16.3258 14.5477C16.3258 17.5474 13.6676 19.9999 10.755 19.9999H9.37334ZM9.38519 9.45429C6.69141 9.4551 4.50953 11.7086 4.50874 14.4898C4.50953 17.2701 6.69141 19.5236 9.38519 19.5244C12.079 19.5236 14.2616 17.271 14.2624 14.4898C14.2624 11.7094 12.079 9.45592 9.38519 9.45429ZM8.27845 17.4683V11.512C7.11957 11.9728 6.29722 13.131 6.29406 14.4906C6.29722 15.8494 7.11957 17.0075 8.27845 17.4683ZM12.4771 14.4906C12.4747 13.131 11.6516 11.9712 10.4919 11.512V17.47C11.6516 17.0091 12.4747 15.8502 12.4771 14.4906Z" fill="#006AAA"/>
<rect x="0.5" y="0.5" width="47" height="27" rx="3.5" stroke="#EBF0F5"/>
</svg>
