<svg width="33" height="28" viewBox="0 0 33 28" fill="none" xmlns="http://www.w3.org/2000/svg">
<path fill-rule="evenodd" clip-rule="evenodd" d="M12.6705 9.12142L12.696 10.7721L17.6269 15.703L16.5103 16.8196C15.8371 17.4928 14.7457 17.4928 14.0725 16.8196C13.3993 16.1465 13.3993 15.055 14.0725 14.3819L14.835 13.6194L14.0224 12.8068L13.2599 13.5693C12.138 14.6912 12.138 16.5103 13.2599 17.6322C14.3819 18.7542 16.201 18.7542 17.3229 17.6322L18.4395 16.5156L19.7808 17.8568L20.5934 17.0442L12.6705 9.12142Z" fill="#2D5B78"/>
<path fill-rule="evenodd" clip-rule="evenodd" d="M15.5465 11.2836L16.013 10.817C16.5123 10.3177 16.5123 9.50826 16.013 9.00899C15.5138 8.50972 14.7043 8.50972 14.205 9.00899L13.7385 9.47555L12.9259 8.66295L13.3924 8.19639C14.3405 7.24834 15.8776 7.24834 16.8256 8.19639C17.7737 9.14445 17.7737 10.6815 16.8256 11.6296L16.3591 12.0962L15.5465 11.2836Z" fill="#2A95B4"/>
<path d="M18.9481 11.9441C18.7465 11.7424 18.5072 11.6012 18.253 11.5203L18.253 10.3379C18.8053 10.4398 19.3335 10.7043 19.7607 11.1315C20.8827 12.2534 20.8827 14.0725 19.7607 15.1945L19.609 15.3461L18.7965 14.5335L18.9481 14.3819C19.6213 13.7087 19.6213 12.6172 18.9481 11.9441Z" fill="#2A95B4"/>
<path d="M6.31934 17.4448L6.11325 16.7018C6.07878 16.5775 6.06507 16.4522 6.07213 16.326C6.07741 16.2002 6.1068 16.0821 6.1603 15.9717C6.2138 15.8612 6.29264 15.7629 6.39683 15.6766C6.49924 15.5909 6.63035 15.5258 6.79014 15.4815C6.95172 15.4367 7.1006 15.4289 7.2368 15.458C7.37072 15.4859 7.49029 15.5378 7.5955 15.6138C7.69844 15.6885 7.78593 15.7799 7.85799 15.888C7.92777 15.9949 7.97842 16.1051 8.00994 16.2188L8.20494 16.9219L6.31934 17.4448ZM7.73883 16.4201C7.70977 16.3154 7.6709 16.22 7.62221 16.1341C7.57126 16.0469 7.51132 15.9756 7.4424 15.9201C7.3717 15.8652 7.29099 15.8292 7.20026 15.8123C7.10726 15.7941 7.00305 15.801 6.88764 15.8331C6.77401 15.8646 6.68128 15.9094 6.60946 15.9676C6.53763 16.0257 6.48572 16.0937 6.45374 16.1714C6.41948 16.2478 6.40288 16.3327 6.40393 16.4261C6.40271 16.5182 6.41638 16.6158 6.44494 16.7188L6.52988 17.025L7.80826 16.6705L7.73883 16.4201Z" fill="#015172"/>
<path d="M6.96508 12.9064C7.08299 12.9082 7.18953 12.9301 7.2847 12.9722C7.37803 13.0141 7.45732 13.0707 7.52256 13.1417C7.5878 13.2127 7.6381 13.2964 7.67346 13.3928C7.70698 13.4891 7.72287 13.5935 7.72113 13.7059C7.71939 13.8183 7.70027 13.9221 7.66378 14.0173C7.62545 14.1126 7.57257 14.1956 7.50513 14.2664C7.43773 14.3354 7.35673 14.3894 7.26214 14.4285C7.16574 14.4657 7.05859 14.4834 6.94068 14.4816L5.70264 14.4624L5.70803 14.1142L6.93502 14.1332C6.98292 14.134 7.0337 14.1274 7.08735 14.1135C7.13917 14.0995 7.18744 14.0763 7.23217 14.0438C7.27692 14.0095 7.31447 13.9649 7.3448 13.9101C7.37332 13.8534 7.38823 13.7837 7.38951 13.7007C7.39079 13.6178 7.37805 13.5485 7.35127 13.4928C7.32268 13.4353 7.28653 13.3896 7.24283 13.3557C7.19915 13.32 7.15164 13.2944 7.10028 13.2789C7.04708 13.2633 6.99653 13.2552 6.94863 13.2544L5.72164 13.2354L5.72704 12.8872L6.96508 12.9064Z" fill="#015172"/>
<path d="M5.92969 11.5518L6.06873 11.1116L7.74054 10.6456L7.7422 10.6403L6.35596 10.2024L6.46087 9.87035L8.32675 10.4598L8.19354 10.8815L6.4711 11.3518L6.46944 11.3571L7.90048 11.8092L7.79558 12.1412L5.92969 11.5518Z" fill="#015172"/>
<path d="M9.9394 7.39021L10.5654 7.39166L10.2753 7.70686L9.97016 7.70777C9.98565 7.8297 9.97909 7.93885 9.95048 8.03523C9.92187 8.13161 9.86515 8.22589 9.78029 8.31808C9.72165 8.3818 9.65538 8.43475 9.5815 8.47693C9.51022 8.519 9.43637 8.54619 9.35994 8.55848C9.28216 8.56953 9.20503 8.5649 9.12856 8.5446C9.05073 8.52305 8.97724 8.48045 8.9081 8.41682C8.8593 8.37189 8.82205 8.32258 8.79635 8.26888C8.76929 8.21393 8.7513 8.1573 8.74236 8.09899C8.73332 8.03808 8.73339 7.97679 8.74257 7.91512C8.75039 7.8522 8.76614 7.79157 8.7898 7.73321C8.74283 7.73255 8.69778 7.73115 8.65466 7.72903C8.61279 7.72555 8.57211 7.71941 8.53263 7.71061C8.49314 7.70182 8.45412 7.68844 8.41556 7.67048C8.37825 7.65116 8.34197 7.62528 8.30672 7.59284C8.24842 7.53918 8.20689 7.48092 8.18212 7.41805C8.15859 7.35382 8.15006 7.28963 8.15653 7.22547C8.16164 7.16005 8.17983 7.09541 8.21108 7.03152C8.24234 6.96763 8.28293 6.90857 8.33284 6.85435C8.38275 6.80012 8.43695 6.75484 8.49542 6.71851C8.5539 6.68219 8.61422 6.65882 8.67638 6.64842C8.73844 6.63542 8.80114 6.63804 8.86448 6.65627C8.92908 6.67316 8.99052 6.70843 9.04882 6.76208C9.09356 6.80326 9.12742 6.84945 9.15041 6.90066C9.17204 6.95062 9.18596 7.00351 9.19219 7.05932C9.19706 7.11389 9.19615 7.17065 9.18947 7.2296C9.18267 7.28596 9.17187 7.33987 9.15705 7.39134L9.62055 7.38973L9.52439 7.00448L9.7883 6.71775L9.9394 7.39021ZM8.55621 7.05242C8.51253 7.09987 8.48865 7.15302 8.48457 7.21187C8.47914 7.26947 8.49811 7.31824 8.54149 7.35817C8.56047 7.37564 8.5832 7.38904 8.60966 7.39838C8.63477 7.40646 8.66306 7.41246 8.69452 7.41637C8.72462 7.41904 8.75467 7.4204 8.78466 7.42046C8.8159 7.41917 8.84647 7.41725 8.87635 7.41471C8.88423 7.38439 8.89199 7.35147 8.89964 7.31594C8.90594 7.27917 8.90902 7.24318 8.90886 7.20798C8.9086 7.17018 8.90324 7.13519 8.89278 7.10302C8.88232 7.07086 8.86353 7.0423 8.83641 7.01734C8.7971 6.98115 8.75089 6.96742 8.69779 6.97614C8.64333 6.98361 8.59614 7.00904 8.55621 7.05242ZM9.07643 7.71155C9.06888 7.74968 9.06264 7.78775 9.05769 7.82577C9.05139 7.86255 9.049 7.89916 9.05051 7.93561C9.05202 7.97206 9.05936 8.00761 9.07253 8.04227C9.08695 8.07558 9.10975 8.10658 9.14093 8.13528C9.17212 8.16398 9.20688 8.18471 9.24522 8.19747C9.28357 8.21022 9.32159 8.21516 9.35928 8.2123C9.39823 8.20808 9.4356 8.1974 9.47141 8.18027C9.50721 8.16314 9.53946 8.13898 9.56816 8.1078C9.61932 8.05222 9.64933 7.98968 9.65818 7.92021C9.66704 7.85073 9.67069 7.78146 9.66913 7.71242L9.07643 7.71155Z" fill="#015172"/>
<path d="M11.3188 4.56934L12.0181 4.26445C12.0856 4.23499 12.156 4.21435 12.2293 4.20252C12.3018 4.189 12.3715 4.18977 12.4383 4.20483C12.5061 4.21747 12.5686 4.24551 12.6258 4.28894C12.6829 4.33237 12.7291 4.39463 12.7645 4.4757C12.8087 4.57703 12.8164 4.67316 12.7877 4.76407C12.759 4.85498 12.7045 4.93504 12.6241 5.00426L12.6263 5.00932C12.685 4.99178 12.7435 4.98536 12.8018 4.99007C12.8611 4.99236 12.9161 5.00557 12.9668 5.02968C13.0168 5.05211 13.0621 5.08461 13.1028 5.12718C13.1444 5.16732 13.1778 5.21611 13.2028 5.27353C13.2455 5.37149 13.2618 5.46188 13.2517 5.54469C13.2408 5.6258 13.2121 5.70062 13.1656 5.76914C13.1201 5.83524 13.0596 5.89477 12.9842 5.94775C12.9105 5.99999 12.8314 6.04452 12.747 6.08134L12.1009 6.36303L11.3188 4.56934ZM11.9562 5.15979L12.2476 5.03275C12.354 4.98636 12.4245 4.93147 12.4592 4.86811C12.4948 4.80232 12.4979 4.73564 12.4685 4.66809C12.4346 4.59039 12.3817 4.54512 12.3097 4.53226C12.2387 4.51698 12.1425 4.53586 12.0208 4.58888L11.7574 4.70376L11.9562 5.15979ZM12.3009 5.95023L12.5947 5.82209C12.6353 5.80441 12.6772 5.7831 12.7206 5.75815C12.7657 5.73246 12.8036 5.70186 12.8344 5.66634C12.8651 5.63083 12.8858 5.59065 12.8964 5.54583C12.9063 5.49931 12.8983 5.4465 12.8725 5.38738C12.8313 5.2928 12.7713 5.24056 12.6926 5.23065C12.6156 5.22 12.5121 5.24303 12.3821 5.29974L12.0755 5.4334L12.3009 5.95023Z" fill="#015172"/>
<path d="M13.8501 3.65137L14.5217 3.54545C14.6145 3.53081 14.7051 3.52584 14.7935 3.53055C14.8835 3.53315 14.9654 3.55008 15.0394 3.58132C15.1133 3.61256 15.1759 3.66051 15.2272 3.72518C15.2784 3.78984 15.3126 3.87678 15.3298 3.98598C15.3519 4.12613 15.3313 4.24969 15.268 4.35668C15.2065 4.46337 15.1054 4.53807 14.9648 4.58077L15.6128 5.35434L15.1978 5.41978L14.6209 4.67137L14.3698 4.71099L14.4989 5.53001L14.1549 5.58426L13.8501 3.65137ZM14.5908 4.37394C14.6399 4.36619 14.6888 4.35662 14.7374 4.34523C14.7856 4.33202 14.8285 4.31407 14.866 4.29137C14.905 4.26657 14.9345 4.23487 14.9545 4.19627C14.9742 4.15585 14.9791 4.10379 14.969 4.04009C14.9601 3.98367 14.9411 3.94003 14.912 3.90918C14.8829 3.87833 14.8479 3.85773 14.8071 3.84738C14.7661 3.83521 14.7214 3.83012 14.6732 3.83212C14.6269 3.83384 14.5818 3.83814 14.5382 3.84503L14.2406 3.89196L14.3233 4.41614L14.5908 4.37394Z" fill="#015172"/>
<path d="M17.0978 3.46467L17.3974 3.49692L18.026 5.5327L17.6303 5.4901L17.4969 5.0254L16.6532 4.93456L16.4294 5.36079L16.042 5.31907L17.0978 3.46467ZM17.4079 4.71561L17.1936 3.89195L16.8034 4.65051L17.4079 4.71561Z" fill="#015172"/>
<path d="M19.3303 3.88721L20.0426 4.18272C20.1617 4.23215 20.2688 4.29853 20.3639 4.38187C20.4597 4.46351 20.5346 4.55942 20.5886 4.66961C20.6426 4.7798 20.6715 4.9025 20.6753 5.03771C20.6797 5.17122 20.6502 5.31455 20.5866 5.46772C20.5224 5.62259 20.4368 5.74468 20.3299 5.83399C20.2254 5.92231 20.1109 5.98449 19.9862 6.02053C19.8639 6.05558 19.738 6.06817 19.6085 6.0583C19.4813 6.04744 19.3633 6.01941 19.2544 5.97422L18.5804 5.69459L19.3303 3.88721ZM19.2628 5.63659C19.3632 5.67826 19.4622 5.70638 19.5599 5.72098C19.66 5.73458 19.7531 5.73132 19.8393 5.71121C19.9261 5.68939 20.0041 5.64796 20.0734 5.58691C20.145 5.52486 20.2037 5.43853 20.2496 5.32791C20.2948 5.21899 20.3167 5.11833 20.3151 5.02592C20.3135 4.93351 20.292 4.85077 20.2505 4.7777C20.2114 4.70363 20.1548 4.63823 20.0806 4.58151C20.0088 4.52379 19.9235 4.47445 19.8248 4.43349L19.5312 4.31168L19.0228 5.53703L19.2628 5.63659Z" fill="#015172"/>
<path d="M22.5284 6.14767C22.5319 6.08285 22.5161 6.02183 22.4811 5.9646C22.4488 5.90704 22.4056 5.85745 22.3516 5.81581C22.3195 5.79105 22.2853 5.77051 22.249 5.75417C22.2142 5.73896 22.1782 5.72981 22.1411 5.72673C22.1053 5.72478 22.0701 5.7313 22.0352 5.74631C22.0015 5.75986 21.9711 5.78414 21.9441 5.81916C21.9036 5.87168 21.8909 5.92587 21.906 5.98173C21.9211 6.03758 21.9477 6.09654 21.986 6.1586C22.0242 6.22066 22.0681 6.28593 22.1177 6.35441C22.1672 6.42289 22.2061 6.49473 22.2342 6.56992C22.2623 6.64512 22.2732 6.7245 22.2669 6.80807C22.2606 6.89165 22.222 6.97939 22.1511 7.07131C22.087 7.15447 22.0154 7.21561 21.9364 7.25471C21.8585 7.29236 21.7775 7.31135 21.6935 7.3117C21.6109 7.31316 21.5274 7.29766 21.4431 7.2652C21.3588 7.23274 21.2787 7.18725 21.2028 7.12873C21.1065 7.05446 21.0263 6.96696 20.962 6.86622C20.8978 6.76548 20.8628 6.65241 20.8571 6.52703L21.2203 6.48605C21.2145 6.56299 21.2273 6.63687 21.2588 6.70769C21.2929 6.77817 21.3405 6.83705 21.4018 6.88431C21.4339 6.90906 21.4694 6.92944 21.5082 6.94545C21.5471 6.96145 21.5864 6.97082 21.6262 6.97357C21.6659 6.97632 21.704 6.97075 21.7403 6.95687C21.7777 6.94152 21.8099 6.91635 21.8369 6.88133C21.8808 6.82443 21.8963 6.76659 21.8835 6.70782C21.8706 6.64905 21.8451 6.58863 21.8069 6.52657C21.7698 6.46305 21.7264 6.39705 21.6769 6.32857C21.6273 6.26009 21.5879 6.18898 21.5587 6.11525C21.5306 6.04005 21.5191 5.9614 21.5243 5.87928C21.5306 5.79571 21.5691 5.70796 21.64 5.61605C21.7019 5.5358 21.7714 5.47888 21.8485 5.44528C21.9271 5.4128 22.0073 5.39785 22.0891 5.40042C22.1734 5.40267 22.2572 5.42075 22.3404 5.45467C22.4236 5.48859 22.501 5.53312 22.5725 5.58826C22.6542 5.65128 22.7234 5.72445 22.7801 5.80777C22.8383 5.89221 22.8761 5.98651 22.8935 6.09068L22.5284 6.14767Z" fill="#015172"/>
<path d="M23.8547 7.32883L23.477 6.86301L23.7217 6.66455L24.6966 7.86666L24.4519 8.06512L24.0741 7.5993L22.799 8.6334L22.5797 8.36292L23.8547 7.32883Z" fill="#015172"/>
<path d="M25.269 8.79736L25.5587 9.41248C25.5987 9.4975 25.6288 9.58311 25.6491 9.6693C25.6717 9.75638 25.6784 9.83979 25.6691 9.91952C25.6598 9.99925 25.6313 10.0728 25.5836 10.14C25.5358 10.2073 25.4619 10.2645 25.3619 10.3116C25.2336 10.3721 25.1092 10.3868 24.9887 10.356C24.8691 10.3268 24.7691 10.2507 24.6887 10.1276L24.1274 10.9662L23.9485 10.5861L24.5055 9.82285L24.3972 9.5928L23.6471 9.94602L23.4987 9.63096L25.269 8.79736ZM24.7826 9.71069C24.8038 9.7557 24.8267 9.79992 24.8512 9.84336C24.8774 9.88602 24.9066 9.92215 24.9389 9.95176C24.9736 9.98225 25.0123 10.0017 25.055 10.0101C25.0993 10.0178 25.1507 10.0079 25.209 9.98038C25.2607 9.95605 25.2972 9.92559 25.3187 9.889C25.3402 9.85242 25.3502 9.81309 25.3487 9.77102C25.3489 9.72817 25.3413 9.68389 25.3259 9.63819C25.3112 9.59416 25.2945 9.55214 25.2757 9.51214L25.1473 9.23958L24.6672 9.46564L24.7826 9.71069Z" fill="#015172"/>
<path d="M26.2324 11.2183L26.477 12.4912L26.1675 12.5507L25.9887 11.6197L25.5164 11.7104L25.6859 12.5925L25.3765 12.652L25.207 11.7699L24.6859 11.87L24.8741 12.8498L24.5647 12.9092L24.3108 11.5874L26.2324 11.2183Z" fill="#015172"/>
<path d="M26.5632 13.8022L26.4849 15.0961L26.1704 15.0771L26.2277 14.1308L25.7477 14.1017L25.6934 14.9983L25.3789 14.9793L25.4332 14.0827L24.9035 14.0506L24.8432 15.0465L24.5287 15.0275L24.61 13.684L26.5632 13.8022Z" fill="#015172"/>
<path d="M25.8265 16.6596L26.0048 16.087L26.3057 16.1807L25.8456 17.6584L25.5447 17.5648L25.723 16.9921L24.1555 16.5041L24.2591 16.1716L25.8265 16.6596Z" fill="#015172"/>
<path d="M0.4375 23.4183C0.4375 21.6423 0.4375 20.7543 0.989229 20.2026C1.54096 19.6509 2.42895 19.6509 4.20494 19.6509H28.0654C29.8414 19.6509 30.7294 19.6509 31.2811 20.2026C31.8328 20.7543 31.8328 21.6423 31.8328 23.4183V23.7323C31.8328 25.5083 31.8328 26.3963 31.2811 26.948C30.7294 27.4997 29.8414 27.4997 28.0654 27.4997H4.20494C2.42895 27.4997 1.54096 27.4997 0.989229 26.948C0.4375 26.3963 0.4375 25.5083 0.4375 23.7323V23.4183Z" fill="#015172"/>
<path d="M5.81525 26.5694H5.54639V23.9256H6.32309C6.45255 23.9256 6.57204 23.9381 6.68157 23.963C6.7936 23.9878 6.88944 24.0289 6.96911 24.0862C7.05126 24.141 7.11474 24.2131 7.15955 24.3028C7.20436 24.3924 7.22676 24.5019 7.22676 24.6314C7.22676 24.7285 7.20934 24.8168 7.17448 24.8965C7.13963 24.9762 7.09233 25.0459 7.03259 25.1056C6.97284 25.1629 6.90189 25.2089 6.81974 25.2438C6.73759 25.2786 6.64797 25.301 6.55088 25.311L7.32385 26.5694H6.99524L6.26335 25.3334H5.81525V26.5694ZM5.81525 25.1019H6.28202C6.4986 25.1019 6.66539 25.0633 6.7824 24.9861C6.8994 24.9065 6.9579 24.7882 6.9579 24.6314C6.9579 24.5442 6.94172 24.4708 6.90936 24.4111C6.877 24.3513 6.83219 24.3028 6.77493 24.2654C6.71767 24.2281 6.64797 24.2007 6.56581 24.1833C6.48366 24.1658 6.3928 24.1571 6.29322 24.1571H5.81525V25.1019Z" fill="white"/>
<path d="M8.0133 26.3304H9.42855V26.5694H7.74444V23.9256H9.38374V24.1646H8.0133V25.0757H9.29412V25.311H8.0133V26.3304Z" fill="white"/>
<path d="M11.9222 24.3999C11.8301 24.3028 11.7206 24.2281 11.5936 24.1758C11.4666 24.121 11.321 24.0937 11.1567 24.0937C10.9874 24.0937 10.8343 24.1248 10.6974 24.187C10.563 24.2492 10.4485 24.3339 10.3539 24.4409C10.2593 24.5455 10.1858 24.6675 10.1336 24.8069C10.0838 24.9463 10.0589 25.0932 10.0589 25.2475C10.0589 25.4019 10.0838 25.5487 10.1336 25.6881C10.1858 25.8276 10.2593 25.9495 10.3539 26.0541C10.4485 26.1586 10.563 26.242 10.6974 26.3043C10.8343 26.3665 10.9874 26.3976 11.1567 26.3976C11.3061 26.3976 11.443 26.3815 11.5675 26.3491C11.6919 26.3167 11.7928 26.2757 11.8699 26.2259V25.423H11.2538V25.1878H12.1388V26.379C11.9944 26.4661 11.8388 26.5308 11.672 26.5731C11.5052 26.6155 11.3322 26.6366 11.153 26.6366C10.9538 26.6366 10.7696 26.6018 10.6003 26.5321C10.431 26.4624 10.2854 26.3665 10.1634 26.2445C10.0414 26.1201 9.9456 25.9732 9.87589 25.8039C9.80868 25.6346 9.77507 25.4492 9.77507 25.2475C9.77507 25.0459 9.80992 24.8604 9.87963 24.6911C9.94933 24.5218 10.0452 24.3762 10.1672 24.2542C10.2916 24.1297 10.4373 24.0327 10.6041 23.963C10.7733 23.8933 10.9563 23.8584 11.153 23.8584C11.3646 23.8584 11.5488 23.8895 11.7056 23.9518C11.8625 24.014 11.9969 24.1011 12.1089 24.2131L11.9222 24.3999Z" fill="white"/>
<path d="M13.0585 26.5694H12.7897V23.9256H13.0585V26.5694Z" fill="white"/>
<path d="M15.0031 24.3513C14.9459 24.2716 14.8724 24.2082 14.7828 24.1609C14.6932 24.1111 14.5849 24.0862 14.458 24.0862C14.3932 24.0862 14.3273 24.0961 14.26 24.1161C14.1928 24.136 14.1318 24.1671 14.0771 24.2094C14.0223 24.2492 13.9775 24.3003 13.9426 24.3625C13.9103 24.4247 13.8941 24.4982 13.8941 24.5828C13.8941 24.6675 13.9103 24.7372 13.9426 24.7919C13.975 24.8467 14.0173 24.894 14.0696 24.9338C14.1244 24.9712 14.1854 25.0023 14.2526 25.0272C14.3223 25.0521 14.3945 25.077 14.4692 25.1019C14.5613 25.1318 14.6534 25.1641 14.7455 25.199C14.8401 25.2338 14.9247 25.2799 14.9994 25.3371C15.0741 25.3919 15.1351 25.4628 15.1824 25.55C15.2297 25.6346 15.2533 25.7429 15.2533 25.8749C15.2533 26.0068 15.2272 26.1213 15.1749 26.2184C15.1251 26.313 15.0592 26.3914 14.977 26.4536C14.8973 26.5159 14.8052 26.5619 14.7007 26.5918C14.5986 26.6217 14.4953 26.6366 14.3907 26.6366C14.3111 26.6366 14.2314 26.6279 14.1518 26.6105C14.0721 26.5955 13.9962 26.5719 13.924 26.5395C13.8518 26.5072 13.7846 26.4661 13.7223 26.4163C13.6601 26.3665 13.6053 26.3093 13.558 26.2445L13.7895 26.0728C13.8468 26.1674 13.9265 26.247 14.0285 26.3117C14.1331 26.374 14.2551 26.4051 14.3945 26.4051C14.4617 26.4051 14.5301 26.3951 14.5999 26.3752C14.6696 26.3528 14.7318 26.3205 14.7866 26.2781C14.8438 26.2333 14.8899 26.1798 14.9247 26.1176C14.9621 26.0528 14.9807 25.9782 14.9807 25.8935C14.9807 25.8014 14.9621 25.7255 14.9247 25.6657C14.8899 25.6035 14.8426 25.5525 14.7828 25.5126C14.7231 25.4703 14.6546 25.4355 14.5774 25.4081C14.5003 25.3807 14.4194 25.3533 14.3347 25.3259C14.2476 25.2985 14.1617 25.2674 14.0771 25.2326C13.9924 25.1977 13.9165 25.1529 13.8493 25.0981C13.7821 25.0409 13.7273 24.9712 13.685 24.889C13.6451 24.8069 13.6252 24.7061 13.6252 24.5866C13.6252 24.4596 13.6501 24.3501 13.6999 24.258C13.7522 24.1658 13.8194 24.0899 13.9016 24.0302C13.9837 23.9704 14.0746 23.9269 14.1742 23.8995C14.2737 23.8721 14.3721 23.8584 14.4692 23.8584C14.6484 23.8584 14.8015 23.8908 14.9285 23.9555C15.0554 24.0177 15.1513 24.0924 15.216 24.1795L15.0031 24.3513Z" fill="white"/>
<path d="M16.5748 26.5694H16.3059V24.1646H15.4209V23.9256H17.4598V24.1646H16.5748V26.5694Z" fill="white"/>
<path d="M18.0883 26.3304H19.5035V26.5694H17.8194V23.9256H19.4587V24.1646H18.0883V25.0757H19.3691V25.311H18.0883V26.3304Z" fill="white"/>
<path d="M20.2608 26.5694H19.9919V23.9256H20.7686C20.8981 23.9256 21.0176 23.9381 21.1271 23.963C21.2391 23.9878 21.335 24.0289 21.4147 24.0862C21.4968 24.141 21.5603 24.2131 21.6051 24.3028C21.6499 24.3924 21.6723 24.5019 21.6723 24.6314C21.6723 24.7285 21.6549 24.8168 21.62 24.8965C21.5852 24.9762 21.5379 25.0459 21.4781 25.1056C21.4184 25.1629 21.3474 25.2089 21.2653 25.2438C21.1831 25.2786 21.0935 25.301 20.9964 25.311L21.7694 26.5694H21.4408L20.7089 25.3334H20.2608V26.5694ZM20.2608 25.1019H20.7276C20.9441 25.1019 21.1109 25.0633 21.2279 24.9861C21.3449 24.9065 21.4034 24.7882 21.4034 24.6314C21.4034 24.5442 21.3873 24.4708 21.3549 24.4111C21.3225 24.3513 21.2777 24.3028 21.2205 24.2654C21.1632 24.2281 21.0935 24.2007 21.0114 24.1833C20.9292 24.1658 20.8383 24.1571 20.7388 24.1571H20.2608V25.1019Z" fill="white"/>
<path d="M22.4588 26.3304H23.8741V26.5694H22.19V23.9256H23.8293V24.1646H22.4588V25.0757H23.7397V25.311H22.4588V26.3304Z" fill="white"/>
<path d="M24.3625 23.9256H25.24C25.4043 23.9256 25.5686 23.953 25.733 24.0078C25.8997 24.0625 26.0491 24.1459 26.1811 24.258C26.3155 24.3675 26.4238 24.5057 26.5059 24.6724C26.5881 24.8368 26.6292 25.0284 26.6292 25.2475C26.6292 25.4691 26.5881 25.662 26.5059 25.8263C26.4238 25.9906 26.3155 26.1288 26.1811 26.2408C26.0491 26.3503 25.8997 26.4325 25.733 26.4873C25.5686 26.542 25.4043 26.5694 25.24 26.5694H24.3625V23.9256ZM24.6314 26.3304H25.1654C25.3645 26.3304 25.5375 26.2993 25.6844 26.2371C25.8338 26.1748 25.957 26.0939 26.0541 25.9943C26.1512 25.8923 26.2234 25.7765 26.2707 25.6471C26.3205 25.5176 26.3454 25.3844 26.3454 25.2475C26.3454 25.1106 26.3205 24.9774 26.2707 24.848C26.2234 24.7185 26.1512 24.604 26.0541 24.5044C25.957 24.4023 25.8338 24.3202 25.6844 24.258C25.5375 24.1957 25.3645 24.1646 25.1654 24.1646H24.6314V26.3304Z" fill="white"/>
<path d="M26.9493 24.0589H26.7109V23.9648H27.2881V24.0589H27.0497V24.7051H26.9493V24.0589Z" fill="white"/>
<path d="M27.3667 23.9648H27.5163L27.7515 24.5253H27.7557L27.9889 23.9648H28.1384V24.7051H28.038V24.0966H28.0359L27.786 24.7051H27.7191L27.4692 24.0966H27.4671V24.7051H27.3667V23.9648Z" fill="white"/>
<path d="M9.3894 20.5814H10.2669C10.4312 20.5814 10.5955 20.6088 10.7598 20.6635C10.9266 20.7183 11.076 20.8017 11.2079 20.9137C11.3424 21.0233 11.4507 21.1614 11.5328 21.3282C11.615 21.4925 11.656 21.6842 11.656 21.9033C11.656 22.1248 11.615 22.3178 11.5328 22.4821C11.4507 22.6464 11.3424 22.7845 11.2079 22.8966C11.076 23.0061 10.9266 23.0882 10.7598 23.143C10.5955 23.1978 10.4312 23.2252 10.2669 23.2252H9.3894V20.5814ZM9.65826 22.9862H10.1923C10.3914 22.9862 10.5644 22.9551 10.7113 22.8928C10.8607 22.8306 10.9839 22.7497 11.081 22.6501C11.1781 22.548 11.2503 22.4323 11.2976 22.3028C11.3474 22.1734 11.3722 22.0402 11.3722 21.9033C11.3722 21.7664 11.3474 21.6332 11.2976 21.5037C11.2503 21.3743 11.1781 21.2597 11.081 21.1602C10.9839 21.0581 10.8607 20.976 10.7113 20.9137C10.5644 20.8515 10.3914 20.8204 10.1923 20.8204H9.65826V22.9862Z" fill="white"/>
<path d="M12.8802 22.4261H12.0438V22.2132H12.8802V22.4261Z" fill="white"/>
<path d="M14.3863 23.2924C14.1871 23.2924 14.0241 23.2588 13.8971 23.1916C13.7701 23.1219 13.6693 23.0347 13.5946 22.9302C13.5199 22.8256 13.4677 22.7123 13.4378 22.5904C13.4104 22.4659 13.3967 22.3489 13.3967 22.2393V20.5814H13.6656V22.2095C13.6656 22.3165 13.678 22.4211 13.7029 22.5231C13.7278 22.6227 13.7676 22.7123 13.8224 22.792C13.8797 22.8692 13.9544 22.9327 14.0465 22.9824C14.1386 23.0297 14.2518 23.0534 14.3863 23.0534C14.5207 23.0534 14.634 23.0297 14.7261 22.9824C14.8182 22.9327 14.8916 22.8692 14.9464 22.792C15.0037 22.7123 15.0447 22.6227 15.0696 22.5231C15.0945 22.4211 15.107 22.3165 15.107 22.2095V20.5814H15.3758V22.2393C15.3758 22.3489 15.3609 22.4659 15.331 22.5904C15.3036 22.7123 15.2526 22.8256 15.1779 22.9302C15.1032 23.0347 15.0012 23.1219 14.8717 23.1916C14.7448 23.2588 14.5829 23.2924 14.3863 23.2924Z" fill="white"/>
<path d="M16.7275 22.4261H15.891V22.2132H16.7275V22.4261Z" fill="white"/>
<path d="M19.1334 22.8331H19.1409V20.5814H19.4098V23.2252H19.0737L17.5352 20.9511H17.5277V23.2252H17.2589V20.5814H17.5949L19.1334 22.8331Z" fill="white"/>
<path d="M20.7752 22.4261H19.9388V22.2132H20.7752V22.4261Z" fill="white"/>
<path d="M22.5437 21.0071C22.4865 20.9274 22.413 20.8639 22.3234 20.8166C22.2338 20.7668 22.1255 20.7419 21.9985 20.7419C21.9338 20.7419 21.8678 20.7519 21.8006 20.7718C21.7334 20.7917 21.6724 20.8229 21.6176 20.8652C21.5629 20.905 21.5181 20.956 21.4832 21.0183C21.4508 21.0805 21.4347 21.1539 21.4347 21.2386C21.4347 21.3232 21.4508 21.3929 21.4832 21.4477C21.5156 21.5025 21.5579 21.5498 21.6102 21.5896C21.6649 21.6269 21.7259 21.6581 21.7931 21.683C21.8629 21.7078 21.935 21.7327 22.0097 21.7576C22.1018 21.7875 22.1939 21.8199 22.2861 21.8547C22.3807 21.8896 22.4653 21.9356 22.54 21.9929C22.6147 22.0477 22.6757 22.1186 22.723 22.2057C22.7703 22.2904 22.7939 22.3987 22.7939 22.5306C22.7939 22.6626 22.7678 22.7771 22.7155 22.8742C22.6657 22.9688 22.5997 23.0472 22.5176 23.1094C22.4379 23.1716 22.3458 23.2177 22.2412 23.2476C22.1392 23.2774 22.0359 23.2924 21.9313 23.2924C21.8516 23.2924 21.772 23.2837 21.6923 23.2662C21.6127 23.2513 21.5367 23.2277 21.4645 23.1953C21.3923 23.1629 21.3251 23.1219 21.2629 23.0721C21.2007 23.0223 21.1459 22.965 21.0986 22.9003L21.3301 22.7285C21.3874 22.8231 21.467 22.9028 21.5691 22.9675C21.6737 23.0297 21.7956 23.0609 21.935 23.0609C22.0023 23.0609 22.0707 23.0509 22.1404 23.031C22.2101 23.0086 22.2724 22.9762 22.3271 22.9339C22.3844 22.8891 22.4304 22.8356 22.4653 22.7733C22.5026 22.7086 22.5213 22.6339 22.5213 22.5493C22.5213 22.4572 22.5026 22.3812 22.4653 22.3215C22.4304 22.2593 22.3831 22.2082 22.3234 22.1684C22.2637 22.1261 22.1952 22.0912 22.118 22.0638C22.0408 22.0365 21.9599 22.0091 21.8753 21.9817C21.7882 21.9543 21.7023 21.9232 21.6176 21.8883C21.533 21.8535 21.4571 21.8087 21.3899 21.7539C21.3226 21.6966 21.2679 21.6269 21.2256 21.5448C21.1857 21.4626 21.1658 21.3618 21.1658 21.2423C21.1658 21.1154 21.1907 21.0058 21.2405 20.9137C21.2928 20.8216 21.36 20.7457 21.4421 20.6859C21.5243 20.6262 21.6152 20.5826 21.7147 20.5552C21.8143 20.5279 21.9126 20.5142 22.0097 20.5142C22.189 20.5142 22.3421 20.5465 22.469 20.6112C22.596 20.6735 22.6918 20.7482 22.7566 20.8353L22.5437 21.0071Z" fill="white"/>
<path d="M23.46 20.832H23.6964C23.7394 20.832 23.7748 20.838 23.8027 20.8501C23.8305 20.8615 23.8524 20.8763 23.8682 20.8947C23.8846 20.9124 23.896 20.9327 23.9024 20.9554C23.9087 20.9776 23.9119 20.9991 23.9119 21.02C23.9119 21.0415 23.9081 21.0624 23.9005 21.0827C23.8929 21.1023 23.8818 21.1203 23.8672 21.1368C23.8533 21.1526 23.8359 21.1662 23.815 21.1776C23.7948 21.1884 23.772 21.195 23.7467 21.1975L23.9375 21.5042H23.8236L23.6527 21.208H23.5511V21.5042H23.46V20.832ZM23.5511 21.1282H23.6707C23.6884 21.1282 23.7058 21.127 23.7229 21.1244C23.7407 21.1213 23.7562 21.1159 23.7695 21.1083C23.7834 21.1007 23.7945 21.0899 23.8027 21.076C23.8109 21.0615 23.815 21.0428 23.815 21.02C23.815 20.9972 23.8109 20.9789 23.8027 20.9649C23.7945 20.9504 23.7834 20.9393 23.7695 20.9317C23.7562 20.9241 23.7407 20.9191 23.7229 20.9165C23.7058 20.9134 23.6884 20.9118 23.6707 20.9118H23.5511V21.1282Z" fill="white"/>
<path fill-rule="evenodd" clip-rule="evenodd" d="M23.6546 21.7132C23.9557 21.7132 24.1998 21.4691 24.1998 21.168C24.1998 20.8669 23.9557 20.6228 23.6546 20.6228C23.3535 20.6228 23.1094 20.8669 23.1094 21.168C23.1094 21.4691 23.3535 21.7132 23.6546 21.7132ZM23.6546 21.8028C24.0052 21.8028 24.2894 21.5186 24.2894 21.168C24.2894 20.8174 24.0052 20.5332 23.6546 20.5332C23.304 20.5332 23.0198 20.8174 23.0198 21.168C23.0198 21.5186 23.304 21.8028 23.6546 21.8028Z" fill="white"/>
<path fill-rule="evenodd" clip-rule="evenodd" d="M28.6987 18.4524C29.2205 17.0227 29.5053 15.4789 29.5053 13.8686C29.5053 6.48531 23.52 0.5 16.1367 0.5C8.75338 0.5 2.76807 6.48531 2.76807 13.8686C2.76807 15.4789 3.05278 17.0227 3.5746 18.4524H5.4441C4.84034 17.0459 4.506 15.4963 4.506 13.8686C4.506 7.44515 9.71321 2.23793 16.1367 2.23793C22.5601 2.23793 27.7673 7.44515 27.7673 13.8686C27.7673 15.4963 27.433 17.0459 26.8292 18.4524H28.6987Z" fill="#015172"/>
</svg>
