<svg width="40" height="28" viewBox="0 0 40 28" fill="none" xmlns="http://www.w3.org/2000/svg">
<path fill-rule="evenodd" clip-rule="evenodd" d="M29.2108 4.19966C25.6175 5.34839 19.7072 12.9972 18.506 18.0532C17.8693 20.7332 18.503 22.8656 20.1807 23.6881C20.7367 23.9606 20.9627 24.006 21.7341 23.9994C23.6754 23.9831 25.3202 22.9398 27.2901 20.4754C27.7519 19.8977 28.2393 19.3837 28.3732 19.3333C28.6597 19.2253 30.3462 19.3157 30.425 19.4432C30.4547 19.4914 30.5749 20.0811 30.6921 20.754C30.9528 22.2499 30.9553 22.2557 31.4384 22.5695C31.9492 22.9014 32.0196 22.892 32.285 22.4567C32.5334 22.0491 32.5714 21.5345 32.3887 21.0536C32.2352 20.6503 31.9723 17.7954 31.852 15.2286C31.752 13.0912 31.6928 12.8943 31.1508 12.8943C30.6704 12.8943 30.5054 12.9926 30.2327 13.4414C29.5573 14.5533 25.3673 20.0145 24.8073 20.5132C23.8157 21.396 22.9653 21.8643 22.3541 21.8643C19.8396 21.8643 20.4292 17.3537 23.5632 12.6122C25.5453 9.61339 27.9784 7.1644 29.992 6.14137C30.4118 5.92812 30.4836 5.92011 30.6336 6.07006C30.8749 6.3114 30.7587 6.91618 30.2765 7.92973C29.9346 8.64835 29.6665 8.98019 28.4993 10.1299C27.7433 10.8746 27.095 11.6061 27.0587 11.7556C26.9729 12.1079 27.2243 12.7022 27.558 12.9359C28.1889 13.3778 29.1195 12.927 30.2072 11.6527C31.6901 9.91533 32.5399 8.01131 32.5483 6.40652C32.5545 5.21627 32.1074 4.47091 31.1911 4.14415C30.6058 3.93542 29.9828 3.9529 29.2108 4.19966ZM34.3086 13.0864C33.6959 13.3904 32.7342 14.2512 32.3477 14.8413C32.0657 15.2719 32.2718 15.7892 32.7771 15.9197L33.13 16.0109L33.2144 17.6401C33.2674 18.6623 33.252 19.7139 33.1733 20.4629C33.0641 21.5027 33.0712 21.7017 33.2291 22.0072C33.3289 22.2 33.4628 22.3901 33.5268 22.4297C33.5908 22.4692 34.1001 22.3381 34.6587 22.1383C36.3295 21.5406 37.1581 20.5686 37.3197 19.0169C37.4181 18.0719 37.1771 17.4443 36.4905 16.8573L35.9761 16.4176L36.2702 16.0321C36.9106 15.1925 37.0804 14.247 36.7253 13.4987C36.3594 12.7276 35.3713 12.5591 34.3086 13.0864ZM9.11564 14.028C8.54178 14.1711 7.19447 14.8531 6.54761 15.328C5.64824 15.9882 4.41635 17.3783 4.06466 18.1299C3.61875 19.0826 3.45153 20.0311 3.62541 20.62C4.06105 22.0957 5.48711 22.6328 7.57381 22.1072C9.16528 21.7064 11.5321 20.217 12.0243 19.307C12.233 18.9208 12.2343 18.8872 12.0499 18.6058C11.7332 18.1225 11.3359 18.2112 10.1303 19.0343C9.54699 19.4326 8.79971 19.8952 8.46979 20.0624C7.84911 20.3769 6.81276 20.5423 6.28776 20.4105C5.95152 20.3261 5.56948 19.818 5.72507 19.6624C5.78171 19.6058 6.28246 19.4277 6.83781 19.2668C8.79565 18.6994 10.2626 17.6597 11.0527 16.2792C11.566 15.3827 11.5008 14.5943 10.8799 14.1875C10.5399 13.9648 9.68058 13.8871 9.11564 14.028ZM35.5022 14.2528C35.5932 14.4 34.7503 15.7259 34.5968 15.677C34.5347 15.6573 34.4687 15.4359 34.45 15.1852C34.4206 14.7923 34.4648 14.6883 34.7689 14.4324C35.1422 14.1183 35.3826 14.0594 35.5022 14.2528ZM9.49531 15.7151C9.54902 15.7151 9.54112 15.864 9.47771 16.046C9.23343 16.7464 7.84731 17.7485 6.75578 18.0134C6.21115 18.1457 6.37487 17.6996 7.15848 16.916C7.86062 16.2139 8.95181 15.559 9.24731 15.6625C9.3299 15.6914 9.44149 15.7151 9.49531 15.7151ZM13.8782 16.3606C13.0279 16.4508 12.6299 17.5045 13.2459 18.0345C13.511 18.2624 13.6132 18.2718 15.3164 18.2231C16.9275 18.1769 17.1336 18.1484 17.3619 17.9392C17.6549 17.6707 17.7077 17.0123 17.463 16.6776C17.2262 16.3538 15.4346 16.1954 13.8782 16.3606ZM30.3656 17.1134C30.3656 17.9089 30.2748 18.0156 29.6957 17.8998C29.4521 17.851 29.3839 17.7859 29.4327 17.649C29.5069 17.4409 30.2463 16.392 30.3188 16.392C30.3445 16.392 30.3656 16.7166 30.3656 17.1134ZM35.6043 17.85C35.8997 18.1765 35.9569 18.9035 35.7333 19.489C35.5349 20.0084 34.9153 20.7155 34.7487 20.6125C34.5947 20.5174 34.6311 17.9261 34.7886 17.7686C34.9911 17.566 35.3826 17.6051 35.6043 17.85Z" fill="#2C5286"/>
</svg>
