<?xml version="1.0" encoding="utf-8"?>
<!-- Generator: Adobe Illustrator 25.3.0, SVG Export Plug-In . SVG Version: 6.00 Build 0)  -->
<svg version="1.1" id="Layer_1" xmlns="http://www.w3.org/2000/svg" xmlns:xlink="http://www.w3.org/1999/xlink" x="0px" y="0px"
	 viewBox="0 0 100 100" style="enable-background:new 0 0 100 100;" xml:space="preserve">
<style type="text/css">
	.st0{fill:#1882FF;}
</style>
<g>
	<g>
		<path class="st0" d="M9.71,72.45c-2.03,0.39-3.19,0.72-3.87,1C2.11,66.45,0,58.47,0,49.99c0-27.61,22.38-50,50-50
			c20.29,0,37.74,12.08,45.58,29.42l-1.06,0.12l-30.26-5.59c-0.21-0.05-0.41,0.04-0.56,0.2c-0.15,0.16-0.19,0.37-0.13,0.57l1.6,5.61
			c0.07,0.27,0.32,0.44,0.58,0.45l17.3,0.1l-3.17,0.37c-0.01,0-0.02,0.01-0.02,0.01l-15,2.47c-9.53,1.97-15.66,3.04-18.24,3.18
			c0.24-0.39,0.43-0.74,0.58-1.08c0.41-0.32,0.94-0.66,1.58-1.06c1.94-0.48,2.23-1.73,2.23-2.44v-0.34c0-0.48-0.19-0.96-0.56-1.43
			l-0.12-0.15c-0.11-0.15-0.29-0.23-0.47-0.23h-0.19c-0.69,0-1.44,0.12-2.34,0.41c-0.29,0.13-0.56,0.27-0.83,0.4
			c-0.56-0.78-1.9-1.29-4.34-1.68c-0.05-0.01-0.16-0.01-0.21,0c-2.84,0.3-4.8,0.72-5.87,1.22c-2.36,0.54-5.77,1.92-10.14,4.13
			c-7.55,4.46-11.22,8.51-11.22,12.4c0,1.01,0.35,2.11,1.06,3.23c1.04,1.73,3.19,3.06,6.64,4.06c3.02,0.58,6.05,1.1,8.94,1.52
			c3.23,0.71,5.02,1.88,5.33,3.46c-0.04,0.07-0.06,0.16-0.06,0.26v0.4c0,0.24-0.13,0.96-1.33,2.31c-1.68,1.64-3.35,2.83-4.98,3.5
			l-4.01,1.94C21.96,69.47,16.35,71.05,9.71,72.45z M96.65,32c-0.54,0.44-1.75,0.9-4.4,1.66c-0.02,0-0.11,0.02-0.13,0.02
			c-1.89,0.26-3.79,0.52-5.69,0.82l-18.52,5.39c-1.96,4.27-3.64,8.11-4.99,11.42l-0.11,0.2c-0.11,0.17-0.62,1.17-3.43,8.12
			c-0.84,1.74-1.47,3.23-1.92,4.43c-0.1,0.28-0.46,1.14-2.19,5.07l-2.79,6.47c-0.02,0.04-0.05,0.09-0.07,0.12
			c-1.24,1.63-1.88,1.92-2.37,1.99c-0.04,0.01-0.1,0.01-0.15,0.01c-0.1,0-0.19-0.01-0.26-0.04c-0.83-0.32-1.21-0.74-1.21-1.32
			c0-1.69,1.38-5.59,4.31-12.26c2.86-6.79,6.2-14.88,9.91-24.05c0.01-0.02,0.05-0.1,0.06-0.12c0.24-0.44,0.47-0.91,0.69-1.41
			c-7.56,1.41-12.1,2.2-13.53,2.35l-2.41,0.34c-0.19,0-0.37-0.02-0.5-0.07l-0.97,0.07c-1.04,0-1.83-0.18-2.48-0.48
			c-1.08,1.13-2.37,2.35-3.91,3.71c-2.4,1.77-3.28,2-3.82,2h-0.23c-1.61-0.18-2.52-1.1-2.52-2.44c0-0.65,0.37-1.07,2.68-2.47
			c2.93-2.44,4.58-4.09,5.5-5.2c0.23-0.95,0.72-1.83,1.46-2.64c-0.1-0.02-0.21-0.02-0.3-0.06c-3,0.19-6.95,1.44-11.75,3.69
			c-1.38,0.51-3.74,1.97-7.07,4.35c-2.17,1.95-3.59,3.74-4.18,5.31c-0.12,0.49-0.16,0.68-0.17,0.75c0,1.4,2.74,2.58,7.51,3.2
			c7.53,1.17,9.34,2.11,10.05,2.7c1.91,1.1,3.34,2.85,4.18,5.13l0.05,0.24l0.01,1.95c0,5.83-8.77,10.57-27.59,14.88l-4.62,0.89
			c-0.04,0.01-0.11,0.01-0.15,0.01c-0.13,0-0.27-0.02-0.39-0.06l-0.43,0.05H7.73C16.6,90.71,32.21,100.01,50,100.01
			c13.81,0,26.3-5.6,35.36-14.65C94.4,76.31,100,63.8,100,49.99C100,43.65,98.82,37.57,96.65,32z"/>
	</g>
</g>
</svg>
