<svg width="59" height="20" viewBox="0 0 59 20" fill="none" xmlns="http://www.w3.org/2000/svg">
<g clip-path="url(#clip0_10140_10776)">
<path d="M56.982 12.2227L58.5911 13.3499C58.0688 14.1583 56.8198 15.5452 54.6603 15.5452C51.9787 15.5452 49.9817 13.3648 49.9817 10.5911C49.9817 7.63959 51.9999 5.63721 54.4345 5.63721C56.8832 5.63721 58.0829 7.68399 58.4711 8.78899L58.6828 9.35268L52.374 12.0966C52.8538 13.0904 53.6019 13.5947 54.6603 13.5947C55.7189 13.5947 56.4528 13.0459 56.982 12.2227ZM52.0353 10.4355L56.2482 8.59625C56.0153 7.98078 55.3238 7.54328 54.498 7.54328C53.4466 7.54328 51.9859 8.52221 52.0353 10.4355Z" fill="#FF302F"/>
<path d="M46.9402 0.587033H48.9724V15.093H46.9402V0.586914V0.587033Z" fill="#20B15A"/>
<path d="M43.7364 6.02286H45.6982V14.8332C45.6982 18.4893 43.6447 19.9948 41.217 19.9948C38.9307 19.9948 37.5547 18.3781 37.0394 17.0655L38.8389 16.2793C39.1635 17.0876 39.9468 18.0444 41.217 18.0444C42.7766 18.0444 43.7364 17.0283 43.7364 15.1299V14.418H43.6658C43.2 15.0112 42.3109 15.5451 41.1818 15.5451C38.8248 15.5451 36.6653 13.387 36.6653 10.6061C36.6653 7.81012 38.8248 5.62988 41.1818 5.62988C42.3039 5.62988 43.2 6.15643 43.6658 6.73488H43.7364V6.02298V6.02286ZM43.8774 10.6061C43.8774 8.85584 42.7696 7.58024 41.3582 7.58024C39.9327 7.58024 38.733 8.85584 38.733 10.6061C38.733 12.3339 39.9327 13.5873 41.3582 13.5873C42.7697 13.5948 43.8776 12.3339 43.8776 10.6061H43.8774Z" fill="#3686F7"/>
<path d="M25.5083 10.5692C25.5083 13.4245 23.3913 15.5231 20.7943 15.5231C18.1974 15.5231 16.0803 13.4171 16.0803 10.5692C16.0803 7.69922 18.1974 5.60791 20.7943 5.60791C23.3913 5.60791 25.5083 7.69922 25.5083 10.5692ZM23.4477 10.5692C23.4477 8.78946 22.2197 7.56565 20.7943 7.56565C19.3689 7.56565 18.1409 8.78946 18.1409 10.5692C18.1409 12.3342 19.3689 13.5728 20.7943 13.5728C22.2198 13.5728 23.4477 12.3342 23.4477 10.5692Z" fill="#FF302F"/>
<path d="M35.8044 10.5911C35.8044 13.4464 33.6873 15.5451 31.0904 15.5451C28.4935 15.5451 26.3765 13.4463 26.3765 10.5911C26.3765 7.72114 28.4935 5.63721 31.0904 5.63721C33.6873 5.63721 35.8044 7.71375 35.8044 10.5911ZM33.7367 10.5911C33.7367 8.81137 32.5088 7.58756 31.0833 7.58756C29.6579 7.58756 28.4299 8.81137 28.4299 10.5911C28.4299 12.3561 29.6579 13.5947 31.0833 13.5947C32.5159 13.5947 33.7367 12.3488 33.7367 10.5911Z" fill="#FFBA40"/>
<path d="M8.33192 13.3724C5.37505 13.3724 3.06049 10.8658 3.06049 7.75838C3.06049 4.65112 5.37505 2.14445 8.33192 2.14445C9.92681 2.14445 11.0911 2.80445 11.952 3.64993L13.3706 2.15933C12.1709 0.950524 10.569 0.0307617 8.33192 0.0307617C4.28132 0.0308808 0.872803 3.50171 0.872803 7.75838C0.872803 12.0153 4.28132 15.486 8.33192 15.486C10.5196 15.486 12.1709 14.7296 13.4623 13.3205C14.789 11.9262 15.1982 9.96838 15.1982 8.38136C15.1982 7.88445 15.1418 7.37279 15.0783 6.99457H8.33192V9.05624H13.1377C12.9965 10.3467 12.6084 11.2292 12.0368 11.8298C11.3452 12.5641 10.2515 13.3724 8.33192 13.3724Z" fill="#3686F7"/>
</g>
<defs>
<clipPath id="clip0_10140_10776">
<rect width="58" height="20" fill="white" transform="translate(0.788574)"/>
</clipPath>
</defs>
</svg>
