<svg width="45" height="28" viewBox="0 0 45 28" fill="none" xmlns="http://www.w3.org/2000/svg">
<path d="M7.6781 18.4717H9.80864L8.21843 25.9995H6.08789L7.6781 18.4717Z" fill="#184D87"/>
<path d="M15.1965 24.757H12.783L12.1852 25.9995H10.0146L14.1906 18.4717H16.5095L17.5043 25.9995H15.2782L15.1965 24.757ZM15.0994 23.1292L14.9117 20.423L13.5887 23.1292H15.0994Z" fill="#184D87"/>
<path d="M19.5864 18.4717H26.0485L25.6559 20.3305H23.4878L22.2902 25.9995H20.1644L21.362 20.3305H19.1938L19.5864 18.4717Z" fill="#184D87"/>
<path d="M30.221 24.757H27.8075L27.2097 25.9995H25.0391L29.215 18.4717H31.5338L32.5287 25.9995H30.3028L30.221 24.757ZM30.1239 23.1292L29.9362 20.423L28.6131 23.1292H30.1239Z" fill="#184D87"/>
<path d="M0.577148 9.82275H12.2881C12.2881 9.82275 12.3351 10.9515 13.5344 12.5036C14.7337 14.0556 17.0382 15.0668 17.0382 15.0668C17.0382 15.0668 16.4033 16.9951 14.5926 16.9951C12.7818 16.9951 8.43135 16.9951 7.91403 16.9951C6.97342 16.9951 6.10335 15.5371 6.10335 15.5371C6.10335 15.5371 12.3556 15.5371 12.5849 15.5371C12.8142 15.5371 12.8495 15.0962 12.5849 15.0962C12.3204 15.0962 6.69419 15.0962 6.00635 15.0962C5.12451 15.0962 4.20739 13.6588 4.20739 13.6588C4.20739 13.6588 11.4562 13.6588 11.659 13.6588C11.8618 13.6588 11.8618 13.209 11.659 13.209C11.4562 13.209 4.42785 13.209 3.91638 13.209C3.15799 13.209 2.50543 11.7275 2.50543 11.7275C2.50543 11.7275 10.4244 11.7275 10.636 11.7275C10.8477 11.7275 10.9535 11.2866 10.636 11.2866C10.3186 11.2866 2.42606 11.2866 2.0645 11.2866C1.50012 11.2866 0.577148 9.82275 0.577148 9.82275Z" fill="#184D87"/>
<path d="M37.9792 9.82275H26.2683C26.2683 9.82275 26.2212 10.9515 25.0219 12.5036C23.8226 14.0556 21.5181 15.0668 21.5181 15.0668C21.5181 15.0668 22.153 16.9951 23.9637 16.9951C25.7745 16.9951 30.1249 16.9951 30.6423 16.9951C31.5828 16.9951 32.4529 15.5371 32.4529 15.5371C32.4529 15.5371 26.2007 15.5371 25.9714 15.5371C25.7421 15.5371 25.7068 15.0962 25.9714 15.0962C26.2359 15.0962 31.8621 15.0962 32.5499 15.0962C33.4318 15.0962 34.3489 13.6588 34.3489 13.6588C34.3489 13.6588 27.1001 13.6588 26.8973 13.6588C26.6945 13.6588 26.6945 13.209 26.8973 13.209C27.1001 13.209 34.1285 13.209 34.6399 13.209C35.3983 13.209 36.0509 11.7275 36.0509 11.7275C36.0509 11.7275 28.1319 11.7275 27.9203 11.7275C27.7086 11.7275 27.6028 11.2866 27.9203 11.2866C28.2377 11.2866 36.1302 11.2866 36.4918 11.2866C37.0562 11.2866 37.9792 9.82275 37.9792 9.82275Z" fill="#184D87"/>
<path d="M19.0758 10.4968V8.07812H16.4766C16.5065 9.17366 16.7655 10.0954 17.1181 10.852C17.6524 10.6602 18.3028 10.5186 19.0758 10.4968Z" fill="#184D87"/>
<path d="M16.9186 4.32283C17.1411 3.90709 17.3816 3.5552 17.6083 3.26744C18.1027 2.63984 18.5947 2.2246 18.8932 2.00195C17.6135 2.08682 16.446 2.58002 15.52 3.35393C15.6189 3.46617 16.0735 3.94575 16.9186 4.32283Z" fill="#184D87"/>
<path d="M19.0757 4.79749V2.39795C18.6566 2.72557 17.9065 3.40995 17.3188 4.48164C17.8028 4.65096 18.3867 4.77618 19.0757 4.79749Z" fill="#184D87"/>
<path d="M21.2425 11.2335C20.7615 11.066 20.1823 10.9417 19.4995 10.9199V13.3149C19.9245 12.9792 20.6638 12.2952 21.2425 11.2335Z" fill="#184D87"/>
<path d="M21.8286 4.71324C22.1909 5.50055 22.4703 6.48046 22.5003 7.65479H25.1614C25.1054 6.07657 24.4279 4.65751 23.3656 3.63379C23.2327 3.78716 22.7371 4.30865 21.8286 4.71324Z" fill="#184D87"/>
<path d="M23.0506 3.35007C22.1195 2.57334 20.9444 2.08 19.6572 2C19.9555 2.22222 20.4488 2.63803 20.9446 3.26739C21.1727 3.55684 21.4146 3.91121 21.6383 4.33012C22.5058 3.94655 22.9615 3.45342 23.0506 3.35007Z" fill="#184D87"/>
<path d="M19.4995 2.41504V4.79708C20.1809 4.77549 20.7582 4.65295 21.2376 4.48716C20.6595 3.43057 19.9233 2.74965 19.4995 2.41504Z" fill="#184D87"/>
<path d="M19.0754 7.65466V5.22056C18.3049 5.19876 17.6563 5.05809 17.1229 4.86719C16.7674 5.62642 16.5058 6.55264 16.4761 7.65466H19.0754Z" fill="#184D87"/>
<path d="M16.0532 7.65461C16.0833 6.47766 16.3639 5.49592 16.7273 4.70776C15.8332 4.30698 15.3424 3.79466 15.2057 3.6377C14.1458 4.66113 13.4699 6.07857 13.4141 7.65468H16.0532V7.65461Z" fill="#184D87"/>
<path d="M16.7224 11.0118C16.3616 10.226 16.0835 9.24872 16.0532 8.07812H13.4141C13.4699 9.65063 14.1426 11.0653 15.1984 12.0881C15.3241 11.942 15.8151 11.4197 16.7224 11.0118Z" fill="#184D87"/>
<path d="M21.4315 4.87158C20.9022 5.05973 20.2604 5.19829 19.499 5.22058V7.65483H22.0764C22.0467 6.55485 21.786 5.63004 21.4315 4.87158Z" fill="#184D87"/>
<path d="M22.5002 8.07812C22.47 9.24604 22.1931 10.2216 21.8335 11.0065C22.7585 11.4196 23.2534 11.9524 23.3728 12.0922C24.431 11.0691 25.1056 9.65275 25.1614 8.07812H22.5002Z" fill="#184D87"/>
<path d="M21.6424 11.3916C21.4175 11.8141 21.1739 12.1713 20.9443 12.4627C20.4465 13.0945 19.9512 13.5111 19.6533 13.7327C20.9455 13.6532 22.1245 13.1569 23.0578 12.3758C22.9887 12.2951 22.5305 11.7864 21.6424 11.3916Z" fill="#184D87"/>
<path d="M19.4995 8.07812V10.497C20.2633 10.5194 20.9069 10.6588 21.4372 10.8478C21.7888 10.092 22.0469 9.17168 22.0768 8.0782H19.4995V8.07812Z" fill="#184D87"/>
<path d="M15.5122 12.3722C16.4403 13.1505 17.6121 13.6467 18.8967 13.731C18.5985 13.509 18.1046 13.0929 17.6082 12.4628C17.3796 12.1726 17.137 11.8172 16.9129 11.397C16.045 11.7854 15.5911 12.2808 15.5122 12.3722Z" fill="#184D87"/>
<path d="M19.0758 13.3324V10.9199C18.384 10.9412 17.7981 11.0674 17.313 11.2377C17.9015 12.3156 18.6552 13.0035 19.0758 13.3324Z" fill="#184D87"/>
</svg>
