<svg width="24" height="24" viewBox="0 0 24 24" fill="none" xmlns="http://www.w3.org/2000/svg"><path fill-rule="evenodd" clip-rule="evenodd" d="M11 4.00001C7.13403 4.00001 4.00001 7.13403 4.00001 11C4.00001 14.8661 7.13403 18.0001 11 18.0001C14.8661 18.0001 18.0001 14.8661 18.0001 11C18.0001 7.13403 14.8661 4.00001 11 4.00001ZM2 11C2 6.02946 6.02946 2 11 2C15.9706 2 20.0001 6.02946 20.0001 11C20.0001 15.9706 15.9706 20.0001 11 20.0001C6.02946 20.0001 2 15.9706 2 11Z" fill="#77818C"></path><path fill-rule="evenodd" clip-rule="evenodd" d="M15.9429 15.943C16.3334 15.5524 16.9666 15.5524 17.3571 15.943L21.7071 20.293C22.0976 20.6835 22.0976 21.3167 21.7071 21.7072C21.3166 22.0977 20.6834 22.0977 20.2929 21.7072L15.9429 17.3572C15.5523 16.9666 15.5523 16.3335 15.9429 15.943Z" fill="#77818C"></path></svg>