<svg width="24" height="24" viewBox="0 0 24 24" fill="none" xmlns="http://www.w3.org/2000/svg" class="MuiTab-iconWrapper"><path opacity="0.6" d="M5.00171 17.1122C14.2549 15.3146 18.9981 10.9507 18.9981 6V20C18.9981 21.1046 18.1026 22 16.9981 22H7.00171C5.89714 22 5.00171 21.1046 5.00171 20V17.1122Z" fill="#BECAD6"></path><path d="M4.25 7.00342V20.0001H5.75V7.00342H4.25ZM7 22.7501H17V21.2501H7V22.7501ZM19.75 20.0001V7.00342H18.25V20.0001H19.75ZM17 4.25342H7V5.75342H17V4.25342ZM19.75 7.00342C19.75 5.48463 18.5188 4.25342 17 4.25342V5.75342C17.6904 5.75342 18.25 6.31306 18.25 7.00342H19.75ZM17 22.7501C18.5188 22.7501 19.75 21.5188 19.75 20.0001H18.25C18.25 20.6904 17.6904 21.2501 17 21.2501V22.7501ZM4.25 20.0001C4.25 21.5188 5.48122 22.7501 7 22.7501V21.2501C6.30964 21.2501 5.75 20.6904 5.75 20.0001H4.25ZM5.75 7.00342C5.75 6.31306 6.30964 5.75342 7 5.75342V4.25342C5.48122 4.25342 4.25 5.48464 4.25 7.00342H5.75Z" fill="#3E4957"></path><path d="M4.25 7C4.25 7.41421 4.58579 7.75 5 7.75C5.41421 7.75 5.75 7.41421 5.75 7H4.25ZM18.25 7C18.25 7.41421 18.5858 7.75 19 7.75C19.4142 7.75 19.75 7.41421 19.75 7H18.25ZM15.1162 1.25H7V2.75H15.1162V1.25ZM4.25 4V7H5.75V4H4.25ZM16.0405 3.15839L17.9242 5.22708L19.0333 4.21715L17.1496 2.14847L16.0405 3.15839ZM18.25 6.06869V7H19.75V6.06869H18.25ZM17.9242 5.22708C18.1338 5.45726 18.25 5.75737 18.25 6.06869H19.75C19.75 5.3838 19.4944 4.72355 19.0333 4.21715L17.9242 5.22708ZM7 1.25C5.48122 1.25 4.25 2.48122 4.25 4H5.75C5.75 3.30964 6.30964 2.75 7 2.75V1.25ZM15.1162 2.75C15.4681 2.75 15.8036 2.89826 16.0405 3.15839L17.1496 2.14847C16.6284 1.57618 15.8903 1.25 15.1162 1.25V2.75Z" fill="#3E4957"></path><ellipse opacity="0.3" cx="12" cy="11.4983" rx="2" ry="2" fill="#BECAD6"></ellipse><path d="M14 11.4983C14 12.6029 13.1046 13.4983 12 13.4983C10.8954 13.4983 10 12.6029 10 11.4983C10 10.3937 10.8954 9.49829 12 9.49829C13.1046 9.49829 14 10.3937 14 11.4983Z" stroke="#3E4957" stroke-width="1.5"></path><path d="M9.5 17.4983H14.5" stroke="#3E4957" stroke-width="1.5" stroke-linecap="round"></path></svg>