<svg width="24" height="24" viewBox="0 0 24 24" fill="none" xmlns="http://www.w3.org/2000/svg"><path d="M7.20744 5.93491C7.20721 6.39459 7.02438 6.83536 6.69918 7.16024C6.37397 7.48512 5.93302 7.66751 5.47334 7.66728C5.01365 7.66705 4.57289 7.48422 4.24801 7.15901C3.92312 6.83381 3.74074 6.39286 3.74097 5.93318C3.7412 5.47349 3.92403 5.03273 4.24923 4.70785C4.57444 4.38296 5.01539 4.20058 5.47507 4.20081C5.93475 4.20104 6.37552 4.38386 6.7004 4.70907C7.02528 5.03428 7.20767 5.47523 7.20744 5.93491ZM7.25944 8.95074H3.79296V19.8008H7.25944V8.95074ZM12.7365 8.95074H9.28733V19.8008H12.7018V14.1071C12.7018 10.9353 16.8356 10.6406 16.8356 14.1071V19.8008H20.2587V12.9285C20.2587 7.58148 14.1404 7.78081 12.7018 10.4067L12.7365 8.95074Z" fill="#9BA6B2"></path></svg>