<svg width="24" height="24" viewBox="0 0 24 24" fill="none" xmlns="http://www.w3.org/2000/svg"><g clip-path="url(#clip0_2019_31846)"><path d="M15.3 5.5506C14.54 5.55048 13.8103 5.84872 13.2679 6.38117C12.7256 6.91362 12.4139 7.6377 12.4 8.3976L12.372 9.9726C12.3704 10.0572 12.3509 10.1404 12.3148 10.2169C12.2787 10.2934 12.2269 10.3614 12.1626 10.4165C12.0984 10.4715 12.0233 10.5124 11.9422 10.5364C11.8611 10.5603 11.7758 10.5669 11.692 10.5556L10.131 10.3436C8.077 10.0636 6.109 9.1176 4.221 7.5446C3.623 10.8546 4.791 13.1476 7.604 14.9166L9.351 16.0146C9.43401 16.0668 9.50297 16.1385 9.55185 16.2235C9.60073 16.3084 9.62804 16.4041 9.6314 16.5021C9.63475 16.6001 9.61405 16.6974 9.5711 16.7855C9.52814 16.8736 9.46425 16.9499 9.385 17.0076L7.793 18.1706C8.74 18.2296 9.639 18.1876 10.385 18.0396C15.103 17.0976 18.24 13.5476 18.24 7.6916C18.24 7.2136 17.228 5.5506 15.3 5.5506V5.5506ZM10.4 8.3606C10.4175 7.39665 10.7189 6.45927 11.2666 5.66582C11.8142 4.87238 12.5838 4.25812 13.4789 3.89997C14.374 3.54182 15.3549 3.45568 16.2987 3.65235C17.2426 3.84902 18.1074 4.31975 18.785 5.0056C19.496 5.0006 20.101 5.1806 21.454 4.3606C21.119 6.0006 20.954 6.7126 20.24 7.6916C20.24 15.3336 15.543 19.0496 10.777 20.0006C7.509 20.6526 2.757 19.5816 1.395 18.1596C2.089 18.1056 4.909 17.8026 6.539 16.6096C5.16 15.7006 -0.328996 12.4706 3.278 3.7866C4.971 5.7636 6.688 7.1096 8.428 7.8236C9.586 8.2986 9.87 8.2886 10.401 8.3616L10.4 8.3606Z" fill="#9BA6B2"></path></g><defs><clipPath id="clip0_2019_31846"><rect width="24" height="24" fill="white" transform="translate(0 0.000610352)"></rect></clipPath></defs></svg>