<svg width="24" height="24" viewBox="0 0 24 24" fill="none" xmlns="http://www.w3.org/2000/svg"><ellipse opacity="0.5" cx="12" cy="20.0006" rx="4" ry="2" fill="#9BA6B2"></ellipse><path fill-rule="evenodd" clip-rule="evenodd" d="M12.0038 2.00061C15.7135 2.01868 18.75 5.14575 18.75 9.00061C18.75 11.1844 17.805 13.3668 16.5846 14.8945L16.4998 15.0006L12.5532 19.7057C12.5339 19.7301 12.5137 19.7533 12.4925 19.775C12.4741 19.7938 12.4553 19.8116 12.4355 19.8284C12.3913 19.866 12.3442 19.8981 12.2943 19.924C12.2797 19.9318 12.2646 19.9391 12.2491 19.9457L12.218 19.9581L12.185 19.9697C12.1205 19.9902 12.0546 20.0006 11.9882 20.0006C11.8832 20.0006 11.7792 19.9746 11.6822 19.924C11.5852 19.8733 11.4971 19.7992 11.4232 19.7057L7.50016 15.0006L7.40081 14.8761C6.18227 13.3519 5.25 11.1851 5.25 9.00061C5.25 5.13464 8.27187 2.00061 12.0038 2.00061ZM12 11.0006C13.5533 11.0006 14.8125 9.74141 14.8125 8.18811C14.8125 6.63481 13.5533 5.37561 12 5.37561C10.4467 5.37561 9.1875 6.63481 9.1875 8.18811C9.1875 9.74141 10.4467 11.0006 12 11.0006Z" fill="#9BA6B2"></path></svg>