<svg width="24" height="24" viewBox="0 0 24 24" fill="none" xmlns="http://www.w3.org/2000/svg" class="MuiTab-iconWrapper"><path opacity="0.3" d="M19.4475 16.9349L18.3138 9.83838L17.5246 10.5736L16.6396 11.3086L14.7991 12.7145L17.1329 17.6517C17.4636 18.3513 18.3518 18.5723 18.9715 18.1092C19.336 17.8368 19.5194 17.3845 19.4475 16.9349Z" fill="#F27D00"></path><path d="M18.3138 9.83838L19.0544 9.72006L18.8323 8.33026L17.8025 9.28961L18.3138 9.83838ZM19.4475 16.9349L20.1881 16.8166L19.4475 16.9349ZM17.1329 17.6517L17.811 17.3312H17.811L17.1329 17.6517ZM14.7991 12.7145L14.3438 12.1185L13.8618 12.4867L14.121 13.035L14.7991 12.7145ZM16.6396 11.3086L17.0949 11.9046L17.1071 11.8953L17.1188 11.8855L16.6396 11.3086ZM17.5246 10.5736L18.0038 11.1505L18.0202 11.1369L18.0358 11.1223L17.5246 10.5736ZM18.9715 18.1092L19.4205 18.7099H19.4205L18.9715 18.1092ZM17.5732 9.9567L18.7069 17.0533L20.1881 16.8166L19.0544 9.72006L17.5732 9.9567ZM17.811 17.3312L15.4771 12.394L14.121 13.035L16.4549 17.9723L17.811 17.3312ZM15.2543 13.3105L17.0949 11.9046L16.1844 10.7126L14.3438 12.1185L15.2543 13.3105ZM17.1188 11.8855L18.0038 11.1505L17.0454 9.99661L16.1604 10.7316L17.1188 11.8855ZM18.0358 11.1223L18.825 10.3871L17.8025 9.28961L17.0134 10.0248L18.0358 11.1223ZM18.5225 17.5084C18.2829 17.6875 17.9392 17.6023 17.811 17.3312L16.4549 17.9723C16.9881 19.1002 18.4208 19.457 19.4205 18.7099L18.5225 17.5084ZM19.4205 18.7099C20.0084 18.2706 20.3039 17.5413 20.1881 16.8166L18.7069 17.0533C18.7348 17.2277 18.6636 17.4029 18.5225 17.5084L19.4205 18.7099Z" fill="#1A2B3D"></path><path opacity="0.3" d="M7.045 4.52539L14.1375 5.65981L13.4027 6.44943L12.563 7.50124L11.9779 8.28744L11.2813 9.18516L6.32862 6.84131C5.62949 6.51044 5.40861 5.62171 5.87142 5.00173C6.14369 4.63701 6.59572 4.45353 7.045 4.52539Z" fill="#F27D00"></path><path d="M14.1375 5.65944L14.6865 6.17036L15.6444 5.14094L14.2559 4.91885L14.1375 5.65944ZM7.045 4.52502L6.92654 5.26561L6.92654 5.26561L7.045 4.52502ZM6.32862 6.84094L6.64944 6.16302H6.64944L6.32862 6.84094ZM11.2813 9.1848L10.9605 9.86271L11.5047 10.1203L11.8738 9.64458L11.2813 9.1848ZM12.563 7.50087L11.9769 7.03294L11.9689 7.04288L11.9614 7.05309L12.563 7.50087ZM13.4027 6.44907L12.8537 5.93815L12.8343 5.95894L12.8166 5.98114L13.4027 6.44907ZM11.9779 8.28707L12.5704 8.74686L12.575 8.7409L12.5795 8.73486L11.9779 8.28707ZM5.87142 5.00137L5.27042 4.55271L5.27042 4.55271L5.87142 5.00137ZM14.2559 4.91885L7.16345 3.78444L6.92654 5.26561L14.019 6.40003L14.2559 4.91885ZM6.00779 7.51886L10.9605 9.86271L11.6021 8.50688L6.64944 6.16302L6.00779 7.51886ZM13.1491 7.9688L13.9888 6.917L12.8166 5.98114L11.9769 7.03294L13.1491 7.9688ZM13.9518 6.95998L14.6865 6.17036L13.5884 5.14853L12.8537 5.93815L13.9518 6.95998ZM11.8738 9.64458L12.5704 8.74686L11.3853 7.82729L10.6887 8.72501L11.8738 9.64458ZM12.5795 8.73486L13.1647 7.94866L11.9614 7.05309L11.3762 7.83929L12.5795 8.73486ZM5.27042 4.55271C4.52429 5.5522 4.88012 6.98519 6.00779 7.51886L6.64944 6.16302C6.37885 6.03497 6.29292 5.69049 6.47243 5.45002L5.27042 4.55271ZM6.47243 5.45002C6.57791 5.30873 6.75284 5.23783 6.92654 5.26561L7.16345 3.78444C6.4386 3.6685 5.70948 3.96455 5.27042 4.55271L6.47243 5.45002Z" fill="#1A2B3D"></path><path opacity="0.6" d="M20.9998 3.48423C20.9847 4.22881 20.9117 5.67662 20.5844 6.64831C19.7239 9.20254 15.9852 11.7925 15.9852 11.7925L14.7589 12.7424C13.7627 13.5142 12.3484 13.4245 11.4575 12.533C10.5666 11.6416 10.4769 10.2265 11.2482 9.22969L12.1976 8.00269C12.1976 8.00269 14.7681 4.23507 17.3246 3.38661C18.3076 3.06038 19.7723 3.00515 20.5222 3.00001C20.7913 2.99817 21.0052 3.21504 20.9998 3.48423Z" fill="#F27D00"></path><path d="M10.2096 20.2095L10.7401 20.7397H10.7401L10.2096 20.2095ZM9.55919 20.8603L9.02871 20.3302L9.55919 20.8603ZM8.7994 20.7259L8.10985 21.0212L8.1152 21.0331L8.7994 20.7259ZM7.82643 16.5484C7.66336 16.1677 7.22249 15.9912 6.84173 16.1543C6.46097 16.3173 6.2845 16.7582 6.44757 17.139L7.82643 16.5484ZM10.0914 16.6855L10.8329 16.5733V16.5733L10.0914 16.6855ZM10.4937 19.3447L9.75218 19.4569L9.75218 19.4569L10.4937 19.3447ZM3.79039 13.7856L3.25991 13.2554H3.25991L3.79039 13.7856ZM3.13945 14.4369L3.66993 14.9671H3.66993L3.13945 14.4369ZM3.27379 15.1971L2.96627 15.8813L2.97828 15.8864L3.27379 15.1971ZM6.85827 17.5498C7.23897 17.713 7.6799 17.5367 7.84311 17.156C8.00632 16.7753 7.83001 16.3343 7.44931 16.1711L6.85827 17.5498ZM7.30774 13.9003L7.19621 14.6419L7.19621 14.6419L7.30774 13.9003ZM4.65362 13.5011L4.54209 14.2428L4.54209 14.2428L4.65362 13.5011ZM20.5845 6.64813L19.8738 6.40868V6.40868L20.5845 6.64813ZM20.9843 3.96435L20.235 3.93069V3.93069L20.9843 3.96435ZM20.0423 3.00916L20.0662 3.75878L20.0423 3.00916ZM17.3247 3.38643L17.561 4.09825L17.3247 3.38643ZM12.1977 8.0025L12.7909 8.46146L12.8046 8.44372L12.8173 8.42519L12.1977 8.0025ZM7.78153 13.7101L7.18836 13.2512L7.78153 13.7101ZM15.9854 11.7923L15.5583 11.1758L15.5419 11.1872L15.5261 11.1994L15.9854 11.7923ZM10.2813 16.2109L10.7406 16.8038L10.2813 16.2109ZM9.67916 19.6793L9.02871 20.3302L10.0897 21.3905L10.7401 20.7397L9.67916 19.6793ZM9.48885 20.4307L7.83147 16.5602L6.45257 17.1506L8.10996 21.0211L9.48885 20.4307ZM7.83145 16.5601L7.82643 16.5484L6.44757 17.139L6.45259 17.1507L7.83145 16.5601ZM9.02871 20.3302C9.15856 20.2002 9.39791 20.2278 9.48361 20.4187L8.1152 21.0331C8.46899 21.8211 9.493 21.9875 10.0897 21.3905L9.02871 20.3302ZM9.3498 16.7977L9.75218 19.4569L11.2353 19.2325L10.8329 16.5733L9.3498 16.7977ZM3.25991 13.2554L2.60896 13.9067L3.66993 14.9671L4.32087 14.3157L3.25991 13.2554ZM2.97828 15.8864L6.84651 17.5447L7.43753 16.1661L3.5693 14.5078L2.97828 15.8864ZM6.8465 17.5447L6.85827 17.5498L7.44931 16.1711L7.43754 16.1661L6.8465 17.5447ZM2.60896 13.9067C2.01289 14.5031 2.17837 15.527 2.96632 15.8812L3.58127 14.513C3.77242 14.599 3.79918 14.8377 3.66993 14.9671L2.60896 13.9067ZM7.41927 13.1586L4.76515 12.7595L4.54209 14.2428L7.19621 14.6419L7.41927 13.1586ZM21.2953 6.88758C21.5983 5.98799 21.698 4.7885 21.7335 3.99801L20.235 3.93069C20.1999 4.71191 20.1038 5.72598 19.8738 6.40868L21.2953 6.88758ZM20.0183 2.25954C19.2203 2.28507 18.0023 2.37134 17.0885 2.67461L17.561 4.09825C18.2507 3.86933 19.2773 3.78401 20.0662 3.75878L20.0183 2.25954ZM17.0885 2.67461C15.6148 3.16371 14.2225 4.44625 13.2501 5.5054C12.7503 6.04969 12.3348 6.56506 12.0441 6.94427C11.8985 7.13422 11.7835 7.29089 11.7043 7.40107C11.6646 7.45618 11.6339 7.49972 11.6127 7.53004C11.6021 7.54521 11.5938 7.55707 11.5881 7.56544C11.5852 7.56962 11.5829 7.57292 11.5813 7.57533C11.5804 7.57653 11.5798 7.57751 11.5792 7.57826C11.579 7.57863 11.5788 7.57895 11.5786 7.57921C11.5785 7.57934 11.5784 7.57949 11.5784 7.57956C11.5783 7.57969 11.5782 7.57982 12.1977 8.0025C12.8173 8.42519 12.8172 8.42529 12.8171 8.42537C12.8171 8.42537 12.8171 8.42544 12.8171 8.42546C12.8171 8.42549 12.8171 8.42546 12.8171 8.42538C12.8173 8.42521 12.8175 8.42482 12.8179 8.42421C12.8188 8.42299 12.8202 8.42088 12.8223 8.4179C12.8264 8.41196 12.8329 8.40256 12.8417 8.38993C12.8594 8.36465 12.8864 8.32642 12.9221 8.27685C12.9934 8.17767 13.0992 8.03337 13.2345 7.85685C13.5057 7.50311 13.8925 7.02354 14.355 6.51988C15.3069 5.48311 16.4782 4.45761 17.561 4.09825L17.0885 2.67461ZM11.6045 7.54355L7.18836 13.2512L8.37471 14.1691L12.7909 8.46146L11.6045 7.54355ZM19.8738 6.40868C19.5079 7.49457 18.4832 8.67184 17.4522 9.62821C16.951 10.0931 16.4743 10.4825 16.1229 10.7555C15.9475 10.8917 15.8042 10.9983 15.7057 11.0702C15.6564 11.1061 15.6185 11.1333 15.5934 11.1511C15.5808 11.16 15.5715 11.1666 15.5656 11.1707C15.5626 11.1728 15.5605 11.1743 15.5593 11.1751C15.5587 11.1756 15.5583 11.1758 15.5581 11.1759C15.558 11.176 15.558 11.176 15.558 11.176C15.558 11.176 15.5581 11.1759 15.5581 11.1759C15.5582 11.1759 15.5583 11.1758 15.9854 11.7923C16.4125 12.4089 16.4126 12.4088 16.4127 12.4087C16.4128 12.4086 16.4129 12.4085 16.4131 12.4084C16.4133 12.4083 16.4136 12.408 16.414 12.4078C16.4148 12.4073 16.4157 12.4066 16.4169 12.4058C16.4193 12.4041 16.4226 12.4018 16.4267 12.3989C16.435 12.3931 16.4468 12.3848 16.4618 12.3741C16.4919 12.3528 16.5351 12.3218 16.5897 12.282C16.6991 12.2022 16.8545 12.0865 17.0431 11.94C17.4195 11.6476 17.9313 11.2298 18.4723 10.7279C19.5258 9.75075 20.8006 8.35591 21.2953 6.88758L19.8738 6.40868ZM15.5261 11.1994L9.822 15.6179L10.7406 16.8038L16.4447 12.3853L15.5261 11.1994ZM7.19621 14.6419C7.64579 14.7095 8.0966 14.5285 8.37471 14.1691L7.18836 13.2512C7.24276 13.1809 7.33107 13.1453 7.41927 13.1586L7.19621 14.6419ZM4.32087 14.3157C4.37897 14.2576 4.46106 14.2306 4.54209 14.2428L4.76516 12.7595C4.21309 12.6765 3.6545 12.8606 3.25991 13.2554L4.32087 14.3157ZM10.8329 16.5733C10.8462 16.661 10.811 16.7492 10.7406 16.8038L9.822 15.6179C9.46233 15.8965 9.28175 16.348 9.3498 16.7977L10.8329 16.5733ZM21.7335 3.99801C21.7773 3.02441 20.9937 2.22835 20.0183 2.25954L20.0662 3.75878C20.1215 3.75701 20.1621 3.77691 20.19 3.80517C20.2179 3.83346 20.2375 3.8748 20.235 3.93069L21.7335 3.99801ZM10.7401 20.7397C11.1352 20.3444 11.3189 19.785 11.2353 19.2325L9.75218 19.4569C9.76454 19.5385 9.73736 19.6211 9.67916 19.6793L10.7401 20.7397Z" fill="#1A2B3D"></path></svg>