<svg width="133" height="108" viewBox="0 0 133 108" fill="none" xmlns="http://www.w3.org/2000/svg"><g clip-path="url(#clip0_14_14749)"><path d="M130.555 16.6804C130.555 65.2815 91.1556 104.68 42.554 104.68C-6.04747 104.68 -45.4468 65.2815 -45.4468 16.6804C-45.4468 -31.9206 -6.04747 -71.3196 42.554 -71.3196C91.1556 -71.3196 130.555 -31.9206 130.555 16.6804ZM-19.0465 16.6804C-19.0465 50.7012 8.53299 78.2804 42.554 78.2804C76.5751 78.2804 104.155 50.7012 104.155 16.6804C104.155 -17.3403 76.5751 -44.9196 42.554 -44.9196C8.53299 -44.9196 -19.0465 -17.3403 -19.0465 16.6804Z" fill="url(#paint0_linear_14_14749)"></path></g><defs><linearGradient id="paint0_linear_14_14749" x1="-1.44636" y1="-43.8196" x2="77.5533" y2="97.681" gradientUnits="userSpaceOnUse"><stop stop-color="white" stop-opacity="0.16"></stop><stop offset="1" stop-color="white" stop-opacity="0.04"></stop><stop offset="1" stop-color="white" stop-opacity="0"></stop></linearGradient><clipPath id="clip0_14_14749"><rect width="132.001" height="108" fill="white"></rect></clipPath></defs></svg>