<svg width="24" height="24" viewBox="0 0 24 24" fill="none" xmlns="http://www.w3.org/2000/svg"><path fill-rule="evenodd" clip-rule="evenodd" d="M9.13954 17.5049C8.83821 17.1844 8.83821 16.6648 9.13954 16.3443L13.2236 12.0006L9.13954 7.6569C8.83821 7.33641 8.83821 6.81679 9.13954 6.4963C9.44087 6.17581 9.92942 6.17581 10.2308 6.4963L14.8604 11.4203C15.1617 11.7408 15.1617 12.2604 14.8604 12.5809L10.2308 17.5049C9.92942 17.8254 9.44087 17.8254 9.13954 17.5049Z" fill="#9BA6B2"></path><path fill-rule="evenodd" clip-rule="evenodd" d="M14.8604 12.5809C15.1617 12.2604 15.1617 11.7408 14.8604 11.4203L10.2308 6.4963C9.92942 6.17581 9.44087 6.17581 9.13954 6.4963C8.83821 6.81679 8.83821 7.33641 9.13954 7.6569L13.2236 12.0006L9.13954 16.3443C8.83821 16.6648 8.83821 17.1844 9.13954 17.5049C9.44087 17.8254 9.92942 17.8254 10.2308 17.5049L14.8604 12.5809ZM12.8792 12.0006L8.9625 16.1663C8.568 16.5859 8.568 17.2633 8.9625 17.6829C9.36079 18.1065 10.0095 18.1065 10.4078 17.6829L15.0374 12.7589C15.4319 12.3393 15.4319 11.6619 15.0374 11.2423L10.4078 6.31832C10.0095 5.89471 9.36079 5.89471 8.9625 6.31832C8.568 6.73791 8.568 7.41529 8.9625 7.83488L12.8792 12.0006Z" fill="#9BA6B2"></path></svg>