<svg width="24" height="24" viewBox="0 0 24 24" fill="none" xmlns="http://www.w3.org/2000/svg"><path d="M17.562 21.5606C17.3999 21.5602 17.2403 21.5204 17.097 21.4446L12 18.7646L6.90301 21.4446C6.73797 21.5311 6.55206 21.5697 6.36624 21.5562C6.18042 21.5426 6.00208 21.4775 5.85132 21.368C5.70057 21.2585 5.5834 21.1091 5.51302 20.9366C5.44264 20.7641 5.42186 20.5753 5.45301 20.3916L6.42601 14.7156L2.30201 10.6956C2.1686 10.5654 2.07426 10.4004 2.02965 10.2194C1.98504 10.0383 1.99194 9.84842 2.04956 9.67109C2.10717 9.49377 2.21322 9.33608 2.35573 9.21584C2.49823 9.0956 2.67151 9.01759 2.85601 8.99063L8.55501 8.16263L11.104 2.99863C11.1958 2.84247 11.3269 2.713 11.4841 2.62305C11.6413 2.5331 11.8194 2.48578 12.0005 2.48578C12.1817 2.48578 12.3597 2.5331 12.5169 2.62305C12.6742 2.713 12.8052 2.84247 12.897 2.99863L15.445 8.16263L21.144 8.99063C21.3285 9.01759 21.5018 9.0956 21.6443 9.21584C21.7868 9.33608 21.8928 9.49377 21.9505 9.67109C22.0081 9.84842 22.015 10.0383 21.9704 10.2194C21.9258 10.4004 21.8314 10.5654 21.698 10.6956L17.574 14.7156L18.548 20.3916C18.5726 20.5351 18.5656 20.6822 18.5274 20.8227C18.4893 20.9632 18.4209 21.0937 18.3271 21.205C18.2333 21.3163 18.1163 21.4058 17.9844 21.4672C17.8524 21.5287 17.7086 21.5605 17.563 21.5606H17.562Z" fill="#F27D00"></path></svg>