<svg width="32" height="32" viewBox="0 0 32 32" fill="none" xmlns="http://www.w3.org/2000/svg">
<path fill-rule="evenodd" clip-rule="evenodd" d="M16.8234 0.0554997C16.8128 0.0830912 16.8093 0.150935 16.8156 0.206224C16.8248 0.286729 16.8448 0.306731 16.9158 0.306731C16.9866 0.306731 17.0068 0.286694 17.0159 0.207076C17.034 0.0490451 16.8742 -0.0768188 16.8234 0.0554997ZM15.7898 0.241547C15.7654 0.251406 15.7452 0.309994 15.7449 0.371738C15.7442 0.530052 15.7019 0.579454 15.5452 0.604882C15.4401 0.622012 15.4086 0.643326 15.4086 0.697445C15.4086 0.752841 15.4362 0.770076 15.5389 0.778623C15.6105 0.784581 15.6852 0.808804 15.7048 0.832459C15.7245 0.856184 15.7456 1.14235 15.7519 1.47203C15.7627 2.04457 15.7665 2.07131 15.8445 2.13444C15.9617 2.22916 16.2326 2.26413 16.3031 2.19359C16.3939 2.1028 16.3337 2.02677 16.1711 2.02677C16.0871 2.02677 16.0209 2.00825 16.0125 1.98243C15.9854 1.89906 15.967 0.980736 15.9907 0.891897C16.0097 0.820826 16.0422 0.799725 16.1548 0.785504C16.264 0.771708 16.2976 0.751032 16.306 0.692302C16.3152 0.627615 16.2938 0.613358 16.1564 0.592789C16.0051 0.570091 15.995 0.561403 15.9745 0.437737C15.9365 0.208459 15.9186 0.189556 15.7898 0.241547ZM11.6451 0.624068C11.622 0.684287 11.7357 0.891897 11.7917 0.891897C11.8539 0.891897 11.9153 0.812563 11.9153 0.732307C11.9153 0.691345 11.8961 0.63868 11.8727 0.615273C11.8138 0.556296 11.669 0.561899 11.6451 0.624068ZM14.2742 0.669995C14.1112 0.686593 14.0432 0.731739 14.0432 0.823202C14.0432 0.920695 14.0843 0.928851 14.2943 0.872959C14.4 0.844836 14.5466 0.821606 14.62 0.821394C14.7328 0.821039 14.7644 0.838878 14.8238 0.936228C14.8624 0.999639 14.8941 1.10149 14.8942 1.1626C14.8943 1.28325 14.8369 1.31605 14.6239 1.31698C14.4721 1.31765 14.2216 1.41043 14.124 1.50217C14.0562 1.5659 14.0432 1.61467 14.0432 1.80596C14.0432 2.01946 14.0511 2.04177 14.1683 2.15894L14.2933 2.28403L14.6027 2.25874C14.7729 2.24484 14.9759 2.22253 15.0539 2.2092L15.1958 2.18494L15.195 1.90193C15.1937 1.4665 15.1165 0.924028 15.0411 0.820968C14.9295 0.668257 14.7117 0.625381 14.2742 0.669995ZM16.7589 0.685493C16.7299 0.777382 16.6615 2.16564 16.6842 2.20224C16.7191 2.2587 16.8301 2.24693 16.8849 2.18097C16.9227 2.1355 16.9335 1.95896 16.9335 1.39188V0.661377L16.8536 0.650029C16.8096 0.643787 16.767 0.659746 16.7589 0.685493ZM17.6783 0.795079C17.4569 0.918886 17.3641 1.141 17.3482 1.58516C17.3368 1.89987 17.3443 1.95665 17.4116 2.07081C17.5224 2.25856 17.7512 2.38141 17.9901 2.38141C18.1819 2.38141 18.2674 2.34045 18.4457 2.1633C18.5365 2.07312 18.6252 1.71851 18.6308 1.42387C18.635 1.20019 18.6217 1.13277 18.5472 0.999887C18.4746 0.870583 18.4263 0.830366 18.2812 0.778375C18.0436 0.69326 17.8508 0.698615 17.6783 0.795079ZM12.9438 0.880584C12.5609 0.966373 12.5367 0.976835 12.5246 1.06106C12.5143 1.13313 12.5279 1.14015 12.6776 1.14015C12.7681 1.14015 12.8689 1.12642 12.9018 1.10961C12.9979 1.0605 13.2116 1.03752 13.2651 1.07053C13.3058 1.09568 13.3004 1.12763 13.2343 1.25357C13.1902 1.33747 13.05 1.60399 12.9227 1.84582C12.7107 2.2486 12.6947 2.29392 12.7327 2.38549C12.8126 2.57852 12.8511 2.58115 13.4403 2.43354C13.5476 2.40666 13.6803 2.37538 13.7352 2.36403C13.8051 2.3496 13.8315 2.32516 13.8231 2.28261C13.8097 2.21455 13.7023 2.20948 13.2904 2.25739C13.018 2.28906 12.9683 2.24941 13.0586 2.07244C13.1009 1.98956 13.3036 1.6091 13.4985 1.24654C13.5248 1.19778 13.5463 1.08206 13.5465 0.989425L13.5467 0.820968L13.3605 0.82494C13.2581 0.827139 13.0706 0.852177 12.9438 0.880584ZM18.3017 1.03103C18.4094 1.1388 18.4279 1.2314 18.4079 1.56193C18.3964 1.75202 18.3001 1.98442 18.1934 2.07996C18.0054 2.24828 17.615 2.10943 17.5677 1.85742C17.5336 1.67545 17.5725 1.31166 17.6401 1.18101C17.7453 0.977474 17.82 0.927362 18.0179 0.927362C18.1697 0.927362 18.2143 0.943676 18.3017 1.03103ZM19.1678 1.0922C19.1556 1.16735 19.1291 1.26871 19.1089 1.31747C19.0888 1.36624 19.0596 1.47795 19.0441 1.56573C19.0285 1.6535 18.9803 1.85299 18.9369 2.00903C18.8059 2.47975 18.8058 2.48781 18.9276 2.48781C19.0464 2.48781 19.1004 2.40244 19.152 2.13316C19.1689 2.04538 19.2088 1.86983 19.2407 1.74305C19.3682 1.23683 19.4252 1.18026 19.7369 1.25002C20.0048 1.30995 20.0539 1.38507 20.0253 1.69106C20.0136 1.81696 19.9881 1.94963 19.9687 1.98584C19.9493 2.02205 19.9094 2.16178 19.8801 2.29633C19.8507 2.43092 19.8166 2.57554 19.8042 2.61775C19.7785 2.70559 19.8848 2.7861 19.9628 2.73787C20.0933 2.65722 20.2931 1.63814 20.2351 1.349C20.2019 1.18324 20.0334 1.08312 19.7096 1.03681C19.5676 1.01652 19.3927 0.989922 19.3208 0.977757C19.1916 0.95584 19.1899 0.957152 19.1678 1.0922ZM11.8322 1.20211C11.8104 1.23739 11.8652 1.51448 11.9147 1.61892C11.9332 1.65793 11.9639 1.76965 11.983 1.86717C12.0853 2.39046 12.1941 2.67928 12.2945 2.69378C12.3454 2.70113 12.3778 2.68105 12.3931 2.63264C12.4147 2.56455 12.3947 2.476 12.2322 1.92037C12.1951 1.79359 12.1351 1.57814 12.0987 1.4416C12.0404 1.22257 12.0219 1.19207 11.9418 1.18246C11.8919 1.17647 11.8426 1.1853 11.8322 1.20211ZM21.9397 1.38822C21.8905 1.44664 21.8401 1.52643 21.8277 1.56555C21.8153 1.60467 21.7783 1.63939 21.7455 1.64272C21.7126 1.64605 21.6539 1.65176 21.6149 1.65542C21.5759 1.6591 21.524 1.66435 21.4996 1.66708C21.4284 1.67517 21.4478 1.73007 21.5621 1.84437L21.6689 1.95119L21.5939 2.13968C21.5527 2.24338 21.5037 2.36811 21.4851 2.41688C21.4664 2.46564 21.4141 2.58533 21.3689 2.68286C21.1766 3.09758 21.1657 3.23256 21.3244 3.23256C21.3959 3.23256 21.4238 3.19391 21.5099 2.97544C21.5656 2.83405 21.632 2.68683 21.6574 2.64835C21.6828 2.60991 21.7036 2.55405 21.7037 2.52423C21.7039 2.49444 21.7253 2.42911 21.7515 2.37904C21.7776 2.32899 21.8096 2.24565 21.8226 2.19387C21.8566 2.05844 21.9609 2.01254 22.1173 2.06418C22.22 2.09808 22.2498 2.09681 22.2747 2.05751C22.3281 1.97318 22.3097 1.93459 22.1912 1.88242C22.0952 1.84022 22.0741 1.80979 22.0651 1.70102C22.0517 1.5409 22.1329 1.48448 22.3532 1.50054C22.4835 1.51008 22.5029 1.50182 22.5128 1.4322C22.5267 1.33542 22.4094 1.28201 22.1832 1.28201C22.0555 1.28201 22.0137 1.30024 21.9397 1.38822ZM10.6608 1.53774C10.5657 1.59991 10.4222 1.65956 10.342 1.67031C10.2369 1.68439 10.1926 1.7084 10.1834 1.75635C10.1699 1.82678 10.2568 2.14632 10.3404 2.33357C10.3679 2.39503 10.3903 2.4678 10.3903 2.49525C10.3903 2.5227 10.4138 2.57615 10.4424 2.61402C10.471 2.65186 10.495 2.70882 10.4956 2.74053C10.4976 2.84373 10.6674 3.18695 10.7279 3.21018C10.8837 3.26998 10.8877 3.13734 10.7422 2.73577C10.6822 2.57012 10.6167 2.37875 10.5966 2.31048C10.5766 2.24221 10.5449 2.16745 10.5261 2.14433C10.5072 2.12124 10.497 2.04989 10.5032 1.98584C10.5121 1.89321 10.5468 1.84767 10.6722 1.76362C10.9349 1.58768 11.1607 1.64162 11.2391 1.89909C11.2934 2.0772 11.3827 2.31995 11.4381 2.43996C11.4665 2.50142 11.4897 2.5687 11.4897 2.58948C11.4897 2.66353 11.61 2.87792 11.6515 2.87792C11.6748 2.87792 11.7147 2.85274 11.7402 2.82199C11.7894 2.76269 11.7551 2.5693 11.6528 2.3297C11.589 2.18033 11.4642 1.84682 11.439 1.75851C11.4276 1.71829 11.3643 1.62651 11.2985 1.55459C11.1917 1.43805 11.16 1.4239 11.0062 1.42429C10.8724 1.42461 10.7947 1.45015 10.6608 1.53774ZM14.9582 1.53735C15.0052 1.58438 15.0154 1.87785 14.9723 1.94559C14.9298 2.01251 14.6972 2.09769 14.5569 2.09769C14.2727 2.09769 14.1491 1.76837 14.3651 1.58661C14.4569 1.50937 14.5092 1.4948 14.6949 1.4948C14.8193 1.4948 14.9342 1.51338 14.9582 1.53735ZM9.1948 2.1455C9.11267 2.16799 9.02567 2.20632 9.00152 2.23069C8.97733 2.25509 8.94414 2.27502 8.92776 2.27502C8.88484 2.27502 8.68801 2.42507 8.68801 2.45777C8.68801 2.47291 8.72039 2.50263 8.75997 2.5238C8.8193 2.55558 8.87839 2.5371 9.09674 2.41868C9.2424 2.33967 9.37638 2.27502 9.39447 2.27502C9.41252 2.27502 9.47643 2.31633 9.53644 2.36684C9.69854 2.50323 9.68872 2.64906 9.51211 2.72893C9.07876 2.92484 8.92889 3.23515 9.11898 3.54277C9.28981 3.81918 9.66475 3.83277 9.94169 3.5726C9.9973 3.52036 10.0887 3.46844 10.1448 3.4572C10.3449 3.41719 10.3421 3.37598 10.107 2.88824C9.83661 2.32743 9.74021 2.18384 9.60162 2.1355C9.47072 2.08989 9.39096 2.09184 9.1948 2.1455ZM22.5367 2.33825C22.3978 2.45706 22.211 2.72099 22.1313 2.91104C22.0295 3.15415 22.04 3.45461 22.1555 3.60139C22.3211 3.81202 22.4019 3.84851 22.7023 3.84851C22.9781 3.84851 22.9834 3.84681 23.1202 3.71318C23.3111 3.52674 23.4874 3.15894 23.5034 2.91338C23.5187 2.67903 23.448 2.54448 23.2244 2.38248C23.0942 2.28821 23.0473 2.27516 22.8419 2.27619C22.6733 2.27704 22.5879 2.29442 22.5367 2.33825ZM23.1787 2.5992C23.3236 2.74411 23.3253 2.89856 23.185 3.18242C23.0437 3.46833 22.9378 3.59058 22.7746 3.65647C22.6458 3.70843 22.5457 3.67796 22.3862 3.5383C22.2129 3.38659 22.3183 2.92689 22.6001 2.60604C22.7057 2.48582 22.7191 2.48089 22.9009 2.49596C23.0424 2.5077 23.1137 2.53423 23.1787 2.5992ZM8.0832 2.74737C7.93191 2.81734 7.53173 3.11695 7.43313 3.23412C7.35866 3.32264 7.34036 3.38141 7.34036 3.53195C7.34036 3.7296 7.3982 3.83759 7.5929 4.00321C7.64404 4.04672 7.69536 4.12982 7.70696 4.18787C7.72082 4.25721 7.76459 4.31232 7.83438 4.34842C7.91531 4.39027 7.95365 4.44712 7.99514 4.58689C8.02511 4.68782 8.04965 4.78957 8.04965 4.81297C8.04965 4.89639 8.28794 5.04126 8.42512 5.04126C8.5546 5.04126 8.89371 4.87585 9.06486 4.72924C9.26116 4.56107 9.30879 4.27618 9.16916 4.10545C9.04975 3.95945 8.81299 3.9409 8.4676 4.05052C8.3255 4.09563 8.19406 4.14546 8.17555 4.16131C8.157 4.17716 8.09717 4.19011 8.04256 4.19011C7.95996 4.19011 7.94326 4.175 7.94326 4.10035C7.94326 4.04566 7.96755 4.00317 8.00532 3.99165C8.31337 3.89784 8.52328 3.6902 8.5557 3.44723C8.57807 3.27948 8.55445 3.20869 8.37167 2.89565C8.25939 2.70332 8.22109 2.68364 8.0832 2.74737ZM9.81263 2.87082C9.87051 2.9076 9.96474 3.13901 9.96474 3.24434C9.96474 3.33115 9.81246 3.46067 9.59726 3.55685C9.50125 3.59976 9.48927 3.59512 9.3756 3.4711C9.29723 3.38559 9.25545 3.30448 9.25545 3.23792C9.25545 3.02928 9.65145 2.7684 9.81263 2.87082ZM23.8196 3.33275C23.6912 3.5244 23.5699 3.72389 23.55 3.77606C23.5302 3.82823 23.4987 3.87093 23.48 3.87093C23.4614 3.87093 23.4351 3.90685 23.4218 3.95072C23.4084 3.99459 23.3741 4.05712 23.3456 4.08967C23.2797 4.16486 23.2988 4.31001 23.3765 4.3248C23.4593 4.34058 23.871 3.78684 24.0228 3.45549C24.0848 3.32002 24.2173 3.27491 24.3801 3.33378C24.6858 3.44432 24.7609 3.29796 24.4686 3.1611C24.3705 3.11514 24.2728 3.05655 24.2515 3.03091C24.2302 3.00527 24.1769 2.98431 24.1329 2.98431C24.0713 2.98431 23.9997 3.064 23.8196 3.33275ZM8.24488 3.17632C8.43771 3.36914 8.38323 3.58359 8.10242 3.73712C7.8602 3.86951 7.76097 3.86444 7.64603 3.71371C7.50605 3.53022 7.52243 3.41177 7.71196 3.23707C7.84378 3.11556 7.89524 3.0907 8.015 3.0907C8.12023 3.0907 8.18243 3.11386 8.24488 3.17632ZM6.68224 3.72109C6.60312 3.79375 6.50825 3.87032 6.47144 3.89128C6.41058 3.9259 6.40884 3.94044 6.45232 4.05087C6.47864 4.11769 6.51765 4.18833 6.539 4.20784C6.56039 4.22734 6.62255 4.30916 6.67717 4.38963C6.73179 4.4701 6.82307 4.58979 6.87999 4.65562C6.93695 4.72144 7.00029 4.79489 7.02075 4.81882C7.04125 4.8428 7.10672 4.93458 7.16623 5.02275C7.24304 5.13659 7.29858 5.18312 7.35767 5.18312C7.54804 5.18312 7.49481 5.03704 7.13615 4.57515C6.72604 4.04701 6.73093 4.05619 6.80169 3.94547C6.83414 3.89472 6.88081 3.83209 6.90546 3.80634C6.9301 3.78056 6.95025 3.7207 6.95025 3.67335C6.95025 3.54759 6.85219 3.56508 6.68224 3.72109ZM25.8207 3.72353C25.7737 3.73726 25.6883 3.80642 25.631 3.8772C25.4926 4.04821 25.4944 4.25242 25.6381 4.69182C25.7774 5.11804 25.7817 5.32763 25.653 5.42878C25.5482 5.51127 25.347 5.52446 25.2268 5.45673C25.1848 5.43304 25.0597 5.32898 24.9488 5.22553C24.7374 5.02821 24.6727 5.0109 24.6529 5.1462C24.6372 5.25358 24.9547 5.58011 25.1908 5.69941C25.4016 5.80591 25.5334 5.80871 25.7045 5.71026C25.9306 5.58014 25.978 5.48645 25.9698 5.18666C25.9632 4.94643 25.9396 4.84276 25.7953 4.41946C25.7287 4.22426 25.7338 4.14485 25.82 4.0353C25.9647 3.85138 26.1995 3.93778 26.5924 4.31941C26.7274 4.45049 26.7916 4.46769 26.8246 4.38162C26.8624 4.28313 26.7652 4.14684 26.5089 3.9393C26.3013 3.77109 26.2315 3.73492 26.0833 3.71836C25.9858 3.7075 25.8676 3.70981 25.8207 3.72353ZM5.25522 4.19472C5.08747 4.24309 4.81003 4.53021 4.75123 4.71626C4.64962 5.03775 4.80503 5.38133 5.24404 5.80573C5.74488 6.2899 6.15729 6.3332 6.53141 5.94096C6.69274 5.77186 6.73746 5.65802 6.73746 5.41662C6.73746 5.22319 6.60876 4.9133 6.5035 4.8533C6.47612 4.83769 6.45374 4.8106 6.45374 4.79308C6.45374 4.77556 6.33405 4.64342 6.18772 4.49947C5.96373 4.27909 5.8933 4.23118 5.74172 4.19621C5.53326 4.14808 5.41825 4.14773 5.25522 4.19472ZM8.93488 4.23228C9.02064 4.32431 9.02589 4.40573 8.95492 4.54298C8.89013 4.66824 8.61038 4.82914 8.46189 4.82652C8.32794 4.82414 8.2086 4.6897 8.17328 4.50142C8.14973 4.37587 8.15225 4.37243 8.32113 4.29696C8.47129 4.22986 8.68397 4.17081 8.81962 4.15854C8.84324 4.15638 8.89513 4.18958 8.93488 4.23228ZM5.61848 4.40612C5.73431 4.43531 5.83371 4.50528 6.02214 4.69041C6.37803 5.03998 6.49726 5.22816 6.50261 5.44875C6.50612 5.5928 6.48814 5.651 6.40757 5.7563C6.26947 5.93685 6.06849 6.01373 5.88127 5.95763C5.71654 5.9083 5.32058 5.55752 5.1179 5.28146C5.00051 5.12151 4.98409 5.07452 4.9831 4.89539C4.9821 4.71676 4.99515 4.67739 5.08836 4.5783C5.18308 4.47758 5.35732 4.37264 5.43616 4.36881C5.4519 4.36807 5.53393 4.38484 5.61848 4.40612ZM26.6331 5.01047C26.6331 5.03257 26.666 5.10371 26.7061 5.16865C26.7993 5.31955 26.7941 5.32849 26.3572 5.75959C26.1643 5.94986 25.9856 6.14478 25.9599 6.19272C25.8939 6.31596 25.9769 6.52169 26.1357 6.62869C26.2431 6.70111 26.2622 6.70416 26.3097 6.65657C26.3573 6.60901 26.3546 6.59411 26.2853 6.52035C26.1376 6.36306 26.1758 6.27302 26.5533 5.88971C26.763 5.67678 26.927 5.53868 26.97 5.53879C27.009 5.5389 27.0786 5.57862 27.1245 5.62703C27.2234 5.73133 27.258 5.73644 27.3009 5.65302C27.3384 5.58011 27.3161 5.49609 27.2485 5.45619C27.1774 5.41417 27.1903 5.28724 27.2748 5.1973C27.3251 5.14371 27.3415 5.09438 27.3256 5.04427C27.2978 4.9565 27.16 4.94416 27.0942 5.02353C27.0699 5.05278 27.0036 5.07672 26.9468 5.07672C26.8879 5.07672 26.8349 5.05395 26.8233 5.02353C26.7997 4.96196 26.6331 4.95054 26.6331 5.01047ZM14.8057 5.91071C14.1393 5.99086 13.7502 6.05558 13.4403 6.13786C12.9481 6.26851 12.4602 6.4198 12.3409 6.47878C12.2921 6.50286 12.1964 6.53425 12.1281 6.5485C12.0598 6.56276 11.988 6.5867 11.9685 6.60174C11.949 6.61674 11.8453 6.66476 11.738 6.70838C11.4992 6.80552 10.8534 7.1264 10.7804 7.18424C10.7512 7.2074 10.6873 7.24556 10.6386 7.26904C10.5898 7.29252 10.5074 7.33951 10.4555 7.37345C10.4036 7.40735 10.2839 7.4819 10.1895 7.5391C9.73986 7.81161 9.15182 8.30145 8.52622 8.92463C7.81438 9.63371 7.21914 10.3928 7.2878 10.5038C7.32309 10.5609 7.53754 10.5426 7.61074 10.4762C7.6484 10.4421 7.81441 10.2394 7.97968 10.026C8.32507 9.57974 9.21034 8.68355 9.48739 8.49966C9.59073 8.43107 9.70592 8.37493 9.74337 8.37493C9.78079 8.37493 10.0137 8.49062 10.261 8.63205C10.5902 8.8203 10.7165 8.91158 10.7326 8.97276C10.7447 9.01876 10.7382 9.06663 10.7182 9.07915C10.6398 9.12831 9.95169 10.0366 9.83501 10.2449C9.70365 10.4793 9.70475 10.5383 9.8404 10.5383C9.99616 10.5383 10.0881 10.4754 10.2307 10.2712C10.7019 9.5968 11.0801 9.15498 11.1857 9.15554C11.269 9.15597 11.4867 9.22147 11.7734 9.33234C12.1167 9.46508 12.4633 9.58023 12.5204 9.58048C12.5913 9.5808 12.8612 9.7106 12.8909 9.75862C12.9145 9.79678 12.8418 10.0227 12.7227 10.2819C12.6843 10.3652 12.6621 10.457 12.6731 10.4858C12.6943 10.5409 12.8601 10.5565 12.9328 10.5104C12.9909 10.4734 13.144 10.2435 13.1745 10.1475C13.1883 10.104 13.2322 10.0132 13.2721 9.94548C13.333 9.84242 13.3596 9.82575 13.4368 9.84253C13.4875 9.85356 13.6406 9.87959 13.7772 9.90041C13.9137 9.92123 14.1292 9.96091 14.256 9.98857C14.3827 10.0162 14.7259 10.0494 15.0184 10.0622C15.6189 10.0885 15.7047 10.0956 15.7306 10.1215C15.7407 10.1316 15.7681 10.2171 15.7915 10.3117C15.8252 10.4477 15.8541 10.4905 15.9295 10.517C16.0559 10.5613 16.1356 10.4946 16.1356 10.3444C16.1356 10.1427 16.2019 10.117 16.8298 10.0762C17.1404 10.056 17.5143 10.0165 17.6606 9.9885C18.4169 9.84366 18.5176 9.82966 18.5766 9.86122C18.6102 9.8792 18.6784 9.97105 18.7281 10.0654C18.955 10.4959 19.0296 10.5681 19.2093 10.5313C19.3182 10.509 19.2748 10.3362 19.0584 9.92991C18.9911 9.80359 18.9952 9.72447 19.0703 9.70074C19.1044 9.68993 19.1882 9.66003 19.2565 9.63428C19.3247 9.60853 19.4923 9.55278 19.6289 9.51037C19.7654 9.46799 20.0128 9.38128 20.1786 9.31772C20.6692 9.12966 20.707 9.12019 20.811 9.15888C20.9357 9.2053 21.0525 9.33496 21.525 9.95155C21.7422 10.2349 21.9499 10.4828 21.9867 10.5025C22.0732 10.5488 22.2604 10.5486 22.2891 10.5022C22.3129 10.4637 22.2194 10.2942 22.0424 10.0547C21.9828 9.97403 21.9101 9.87246 21.8809 9.82898C21.8328 9.75749 21.5755 9.43997 21.3088 9.12285C21.1628 8.94935 21.1769 8.88956 21.3932 8.76377C21.4956 8.70419 21.6033 8.64134 21.6326 8.62407C22.1811 8.30053 22.2243 8.289 22.4007 8.41926C22.5244 8.51055 23.0626 8.99606 23.2784 9.21108C23.584 9.51547 23.9274 9.91211 24.1869 10.2605C24.2547 10.3515 24.3525 10.4512 24.4043 10.4821C24.5067 10.5432 24.6669 10.5569 24.6976 10.5072C24.7246 10.4635 24.5924 10.2382 24.3596 9.93144C23.5553 8.8714 22.3229 7.80207 21.207 7.19612C20.6607 6.89946 20.4209 6.77902 20.3765 6.77902C20.3504 6.77902 20.3101 6.75611 20.2868 6.7281C20.2636 6.70012 20.1967 6.66667 20.1383 6.65383C20.0798 6.641 19.9891 6.60816 19.9368 6.58085C19.8844 6.55354 19.8173 6.53113 19.7875 6.53098C19.7577 6.53088 19.7018 6.50914 19.6634 6.48275C19.6249 6.45633 19.5535 6.42551 19.5047 6.41427C19.456 6.40306 19.3363 6.36781 19.2387 6.336C19.1412 6.30415 18.9776 6.25518 18.8752 6.22712C18.7728 6.19907 18.6053 6.15307 18.5028 6.12488C18.2573 6.05732 17.7709 5.97742 17.0818 5.89145C16.3535 5.80063 15.6735 5.80637 14.8057 5.91071ZM3.42641 6.052C3.39694 6.12882 3.43577 6.20733 3.52784 6.25699C3.57196 6.28078 3.69374 6.37593 3.79851 6.46846C3.90323 6.56099 4.10864 6.72703 4.25494 6.83747C4.40123 6.94791 4.5289 7.04799 4.53865 7.05987C4.58256 7.11331 4.9194 7.37593 4.99498 7.41565C5.06477 7.45236 5.08825 7.45044 5.13449 7.40416C5.225 7.31369 5.1434 7.22059 4.61777 6.81449C4.35268 6.60968 4.09953 6.41019 4.0552 6.37118C4.01087 6.33217 3.93792 6.2722 3.89313 6.23787C3.8483 6.20358 3.76145 6.13573 3.70013 6.08714C3.57451 5.98763 3.45691 5.97252 3.42641 6.052ZM27.5788 6.02246C27.5346 6.06668 27.5551 6.10243 27.7503 6.32111C27.9572 6.55304 27.9823 6.6383 27.8853 6.77998C27.7536 6.97241 27.7016 6.96606 27.4829 6.73104C27.3857 6.62663 27.2408 6.51173 27.1608 6.47566C27.0156 6.41016 27.0153 6.41019 26.8516 6.49705C26.6073 6.62667 26.4289 6.93071 26.5216 7.05937C26.544 7.09047 26.5767 7.14786 26.5943 7.18687C26.6118 7.22588 26.663 7.28174 26.7081 7.31099C26.8009 7.37135 26.934 7.50612 27.0465 7.65387L27.1231 7.7543L27.2416 7.66798C27.446 7.51914 27.7783 7.23219 27.9719 7.03731C28.138 6.8701 28.1581 6.8336 28.1581 6.69891C28.1581 6.58209 28.1254 6.49779 28.0135 6.32667C27.8288 6.04398 27.6691 5.9322 27.5788 6.02246ZM16.9973 6.21461C17.0556 6.23134 17.2247 6.25493 17.3731 6.26702C17.6419 6.28897 18.0074 6.36902 18.1363 6.4342C18.2012 6.46708 18.2005 6.47144 18.1185 6.53677C18.0167 6.61791 17.5001 6.8685 17.2819 6.94259C16.7735 7.11516 16.5939 7.14161 15.9228 7.14254C15.4001 7.14328 15.2351 7.13165 15.1115 7.08537C15.0262 7.05341 14.9145 7.02678 14.8633 7.02614C14.8121 7.02554 14.7392 7.0016 14.7014 6.97295C14.6635 6.94432 14.6032 6.92088 14.5674 6.92088C14.48 6.92088 13.8937 6.62032 13.818 6.53666C13.77 6.48364 13.7669 6.46279 13.8029 6.43459C13.8701 6.38196 14.1948 6.31699 14.5751 6.28007C14.7604 6.26209 14.936 6.23734 14.9653 6.22503C15.149 6.14775 16.7358 6.13963 16.9973 6.21461ZM13.2795 6.62599C13.4936 6.72813 13.455 6.81215 13.0768 7.06654C12.6038 7.38465 11.7906 8.00528 11.5429 8.23705C11.156 8.59921 11.1253 8.62319 11.0496 8.62319C11.0082 8.62319 10.9028 8.58276 10.8154 8.53335C10.7279 8.48395 10.6084 8.42033 10.5499 8.39199C10.3527 8.29648 10.1599 8.14186 10.1507 8.07196C10.142 8.00507 10.3245 7.84413 10.5113 7.75402C10.552 7.73437 10.655 7.67323 10.74 7.61815C10.9386 7.48949 11.7733 7.05788 12.004 6.96454C12.219 6.87755 13.0715 6.57851 13.1288 6.57C13.1427 6.56794 13.2105 6.59312 13.2795 6.62599ZM19.4515 6.76984C19.8727 6.91563 20.0012 6.97114 20.5155 7.22914C21.2987 7.62209 21.8077 7.94858 21.8092 8.05898C21.8096 8.09022 21.7289 8.16144 21.6283 8.21857C21.5284 8.27531 21.3569 8.37295 21.2471 8.43558C20.8631 8.65454 20.9186 8.65397 20.6719 8.44146C20.5501 8.3366 20.3933 8.19545 20.3234 8.12782C20.101 7.91262 19.5547 7.50119 19.043 7.16364C18.6396 6.89758 18.5472 6.82109 18.5472 6.75345C18.5472 6.569 18.8893 6.57521 19.4515 6.76984ZM27.3568 6.85378C27.4464 6.95344 27.5197 7.04703 27.5197 7.06178C27.5197 7.11931 27.3782 7.26418 27.2597 7.32802L27.1352 7.39504L26.9878 7.29748C26.8091 7.17924 26.7174 6.99465 26.7783 6.87574C26.8412 6.75299 26.9593 6.6743 27.082 6.67341C27.1722 6.67277 27.2256 6.70778 27.3568 6.85378ZM13.9883 7.06001C13.9994 7.07803 14.0596 7.10395 14.122 7.11768C14.3063 7.15814 14.4408 7.27634 14.4158 7.37589C14.3964 7.45306 14.1508 7.80963 13.9741 8.01702C13.934 8.06401 13.9013 8.1154 13.9013 8.13126C13.9013 8.14711 13.8557 8.22836 13.7999 8.31184C13.7119 8.44356 13.5597 8.68369 13.4115 8.92463C13.3875 8.96364 13.3457 9.04344 13.3185 9.10196C13.2914 9.16047 13.2284 9.24648 13.1787 9.29311C13.0948 9.3717 13.0759 9.37507 12.9185 9.33946C12.6458 9.27783 12.1706 9.12753 11.933 9.02773C11.8745 9.00315 11.7741 8.96375 11.71 8.94013C11.6459 8.91651 11.5769 8.86633 11.5567 8.82863C11.5258 8.77079 11.5467 8.73415 11.6911 8.5941C12.0112 8.28347 12.7855 7.67596 13.0778 7.50605C13.1114 7.48654 13.2146 7.41795 13.3072 7.35366C13.4957 7.22283 13.8611 7.03086 13.9258 7.0287C13.949 7.02792 13.9772 7.04199 13.9883 7.06001ZM18.269 7.1086C18.3404 7.15165 18.476 7.23308 18.5705 7.28954C19.3888 7.77867 20.3913 8.58148 20.3913 8.74763C20.3913 8.84147 20.203 8.97783 20.0734 8.97783C20.03 8.97783 19.9521 8.99982 19.9003 9.0267C19.6427 9.1604 18.9261 9.38043 18.8386 9.35266C18.8011 9.34078 18.7281 9.25321 18.6763 9.15813C18.6246 9.06302 18.4626 8.80622 18.3164 8.58744C18.1703 8.36862 18.0507 8.18413 18.0507 8.17747C18.0507 8.15647 17.8977 7.9395 17.7238 7.7138C17.6318 7.59439 17.5373 7.45463 17.5139 7.40324C17.4657 7.29738 17.503 7.25411 17.7315 7.15091C17.7998 7.12005 17.8796 7.08058 17.9088 7.06313C17.9986 7.00965 18.1332 7.0266 18.269 7.1086ZM3.40847 7.1231C3.25607 7.18368 2.90753 7.72185 2.96282 7.81126C3.01609 7.89747 3.12085 7.8325 3.22664 7.64759C3.28814 7.54013 3.39396 7.40987 3.46184 7.35809L3.58526 7.26397L3.71616 7.33976C3.88025 7.4348 3.87905 7.50509 3.70836 7.78767C3.52798 8.08632 3.53167 8.24623 3.72329 8.43785C3.8771 8.59166 4.03867 8.63687 4.23923 8.58222C4.33285 8.55672 4.50319 8.38727 4.50319 8.31968C4.50319 8.26013 4.63083 8.02741 4.71186 7.93921C4.78091 7.86406 4.79407 7.82679 4.76687 7.78363C4.73761 7.73728 4.4352 7.51992 4.022 7.24822C3.81876 7.11459 3.56174 7.06217 3.40847 7.1231ZM28.3444 7.35919C28.2225 7.43998 27.9513 7.61776 27.7417 7.7543C27.5322 7.89084 27.3555 8.03032 27.349 8.06423C27.3319 8.15434 27.4979 8.22439 27.5757 8.15987C27.6076 8.13338 27.6635 8.09515 27.6999 8.07487C27.7363 8.05462 27.8628 7.97021 27.9809 7.88729C28.0991 7.80438 28.2047 7.73657 28.2157 7.73657C28.2266 7.73657 28.2762 7.70465 28.3257 7.66564C28.4733 7.54956 28.6098 7.57283 28.7645 7.74033C28.8384 7.82041 28.9046 7.92017 28.9116 7.96198C28.9259 8.04791 28.8475 8.23307 28.7968 8.23307C28.7784 8.23307 28.711 8.27875 28.647 8.33454C28.5829 8.39036 28.4826 8.46239 28.4241 8.49459C28.0793 8.68436 27.9041 8.83136 27.9168 8.92024C27.9339 9.03975 28.0578 9.02872 28.2493 8.89062C28.3455 8.82136 28.4471 8.75391 28.4751 8.74075C28.6018 8.68145 28.9854 8.40522 29.0429 8.33191C29.1237 8.22896 29.1649 7.99011 29.1215 7.87683C29.103 7.82895 29.0196 7.71224 28.9359 7.61751C28.8522 7.52279 28.7587 7.39515 28.728 7.3339C28.6974 7.27266 28.6484 7.22024 28.6191 7.21744C28.5899 7.21464 28.4662 7.27844 28.3444 7.35919ZM15.5401 7.47388C15.6319 7.48562 15.7277 7.52006 15.7529 7.55045C15.8231 7.63507 15.8206 9.59438 15.7502 9.69493C15.7025 9.76298 15.6765 9.76568 15.2881 9.74255C15.0618 9.72908 14.7729 9.70227 14.6461 9.6829C14.5193 9.66358 14.2514 9.62616 14.0507 9.59977C13.6832 9.5514 13.5821 9.51083 13.5821 9.41163C13.5821 9.26243 14.4825 7.87357 14.8021 7.52963C14.9101 7.41345 14.9161 7.41175 15.1426 7.43196C15.2694 7.44328 15.4482 7.46214 15.5401 7.47388ZM17.1737 7.60358C17.3368 7.79689 17.7014 8.29521 17.9717 8.69411C18.1652 8.97964 18.3456 9.35847 18.32 9.42532C18.2916 9.49937 18.1403 9.55048 17.8024 9.60013C17.6366 9.62449 17.4052 9.66099 17.2882 9.68124C17.1712 9.70152 16.8921 9.72309 16.6681 9.72922L16.2608 9.74032L16.207 9.63393C16.1642 9.54899 16.1535 9.38089 16.1542 8.80051C16.1547 8.40064 16.1707 7.94581 16.1897 7.78977L16.2242 7.50605L16.4501 7.48115C16.5744 7.46743 16.6848 7.4475 16.6954 7.43682C16.7061 7.42611 16.7828 7.41739 16.8658 7.41739C17.0043 7.41739 17.0296 7.43274 17.1737 7.60358ZM4.30303 7.72341C4.45006 7.84633 4.46744 7.90393 4.40832 8.07249C4.30108 8.37827 4.07268 8.46913 3.89316 8.2774C3.76063 8.13587 3.74825 8.05614 3.83369 7.89534C3.98558 7.60954 4.11159 7.56336 4.30303 7.72341ZM2.57037 8.47416C2.42014 8.56821 2.37194 8.63602 2.2964 8.85977C2.25994 8.96779 2.19728 9.10054 2.15717 9.1548C2.05045 9.29914 2.0951 9.38128 2.35041 9.51037C2.47138 9.57151 2.68208 9.68319 2.81862 9.75858C3.37297 10.0646 3.48432 10.0934 3.50273 9.93506C3.51365 9.84097 3.53642 9.85672 2.89529 9.51494C2.42613 9.26485 2.43305 9.27116 2.43947 9.10015C2.44532 8.94481 2.56746 8.73568 2.67655 8.69419C2.77627 8.65627 2.95402 8.6956 3.1378 8.79622C3.87965 9.20243 3.8689 9.19792 3.94001 9.13359C4.04601 9.03762 4.02034 8.99024 3.80276 8.88048C3.69062 8.82391 3.46319 8.70447 3.29739 8.6151C2.93324 8.4188 2.72372 8.3782 2.57037 8.47416ZM28.9029 8.933C28.7468 8.99879 28.6121 9.09103 28.4861 9.21839C28.3143 9.39206 28.3 9.41947 28.3003 9.57346C28.3007 9.73546 28.3355 9.82104 28.5755 10.2519C28.6198 10.3314 28.6766 10.3964 28.7018 10.3964C28.7656 10.3964 30.4995 9.52423 30.5641 9.45965C30.6074 9.41635 30.6087 9.39716 30.5712 9.35198C30.509 9.27715 30.4414 9.28311 30.2287 9.3822C30.1289 9.42866 30.0319 9.45643 30.0131 9.44391C29.9943 9.43139 29.9344 9.33851 29.88 9.23754C29.7176 8.93623 29.6135 8.85881 29.3544 8.8464C29.1773 8.83792 29.0876 8.85512 28.9029 8.933ZM29.448 9.06688C29.6571 9.15423 29.8521 9.52009 29.7394 9.61361C29.6312 9.70344 28.8553 10.0772 28.7771 10.0772C28.6759 10.0772 28.5538 9.87955 28.5249 9.66882C28.5055 9.52753 28.5136 9.50774 28.6403 9.38465C28.7642 9.26431 28.9061 9.18374 29.2043 9.06436C29.2628 9.04092 29.3128 9.01986 29.3152 9.01752C29.3177 9.01521 29.3775 9.03741 29.448 9.06688ZM1.81582 10.0506C1.68003 10.1447 1.51707 10.4618 1.51707 10.6321C1.51707 10.9165 1.74064 11.1432 2.1766 11.3009C2.49713 11.4169 2.67052 11.4157 2.84277 11.2963C3.21178 11.0406 3.26271 10.5011 2.94019 10.2648C2.55671 9.98382 2.05124 9.88753 1.81582 10.0506ZM2.3956 10.2426C2.59778 10.3108 2.70875 10.3739 2.84522 10.4982C2.97573 10.617 2.98513 10.8774 2.86295 10.9887C2.699 11.1381 2.54029 11.1767 2.36811 11.1093C2.32332 11.0917 2.21966 11.0594 2.1378 11.0375C1.98325 10.9961 1.78738 10.8305 1.73741 10.6991C1.69091 10.5768 1.73805 10.4331 1.8671 10.3041C2.0069 10.1643 2.1233 10.1507 2.3956 10.2426ZM30.1969 10.3317C30.1871 10.3575 30.2132 10.4665 30.2549 10.5737C30.3722 10.875 30.3784 11.0026 30.28 11.0928C30.1373 11.2235 30.054 11.2282 29.9702 11.1104C29.9293 11.053 29.8959 10.9869 29.8959 10.9633C29.8959 10.9398 29.8456 10.843 29.7841 10.7482C29.6431 10.5304 29.5102 10.4777 29.2563 10.5386C28.886 10.6274 28.7884 10.9613 29.027 11.3235C29.1051 11.4422 29.1511 11.5549 29.1511 11.628C29.1511 11.695 29.1698 11.7458 29.1954 11.7481C29.2896 11.7568 29.3864 11.7395 29.5058 11.6924C29.574 11.6655 29.7256 11.6076 29.8427 11.5639C30.4183 11.3485 30.5697 11.227 30.5697 10.9801C30.5697 10.8288 30.524 10.6874 30.3928 10.4319C30.326 10.302 30.2275 10.2516 30.1969 10.3317ZM29.6268 10.8397C29.6719 10.8884 29.7369 11.0018 29.7712 11.0915C29.8322 11.2513 29.832 11.2563 29.7604 11.3279C29.7105 11.3777 29.6264 11.406 29.4958 11.4168C29.3206 11.4314 29.2978 11.4245 29.2286 11.3365C29.0726 11.1382 29.0889 10.8297 29.2578 10.7827C29.4364 10.733 29.5432 10.7495 29.6268 10.8397ZM0.625734 11.3067C0.580588 11.3518 0.602399 11.4883 0.658185 11.5098C0.763763 11.5503 0.847849 11.5313 0.887002 11.4581C0.916083 11.4038 0.915303 11.3718 0.883917 11.334C0.840827 11.282 0.668576 11.2638 0.625734 11.3067ZM1.22289 11.4956C1.1294 11.5989 1.17923 11.6619 1.40684 11.7283C1.52012 11.7613 1.64474 11.8025 1.68375 11.8198C1.72276 11.8371 1.83448 11.8733 1.932 11.9002C2.02953 11.9271 2.22675 11.9833 2.37024 12.0251C2.57072 12.0835 2.64264 12.0916 2.68055 12.0601C2.80496 11.9569 2.71935 11.874 2.38797 11.7767C2.25423 11.7374 2.065 11.6808 1.96747 11.6508C1.86994 11.6208 1.70925 11.5758 1.61041 11.5508C1.51153 11.5257 1.39783 11.4877 1.35776 11.4662C1.29875 11.4346 1.273 11.4402 1.22289 11.4956ZM12.9615 11.4659C12.8835 11.4845 12.7079 11.5211 12.5714 11.5473C12.247 11.6094 11.791 11.7472 11.667 11.8204C11.6378 11.8377 11.566 11.8758 11.5075 11.9049C11.2945 12.011 10.909 12.2983 10.7513 12.4684C10.5565 12.6786 10.3583 13.05 10.2293 13.4464C10.1527 13.6819 10.119 14.434 10.1721 14.7231C10.2236 15.0035 10.2831 15.2288 10.3169 15.2714C10.333 15.2917 10.3584 15.3479 10.3733 15.3964C10.4819 15.7496 11.251 16.4472 11.8089 16.6987C11.8967 16.7383 12.0268 16.7967 12.098 16.8285C12.1692 16.8604 12.2499 16.8864 12.2774 16.8864C12.3048 16.8864 12.3583 16.9099 12.3962 16.9385C12.434 16.9672 12.5049 16.9912 12.5537 16.9919C12.6024 16.9927 12.6869 17.0165 12.7413 17.0449C12.7958 17.0733 12.8995 17.1073 12.9719 17.1204C13.0442 17.1335 13.1465 17.166 13.1991 17.1926C13.2518 17.2193 13.3292 17.2411 13.3711 17.2411C13.413 17.2411 13.4976 17.2626 13.559 17.289C13.6205 17.3154 13.7346 17.3541 13.8127 17.3751C13.8907 17.3961 14.0662 17.447 14.2028 17.4883C14.3393 17.5297 14.5308 17.5851 14.6283 17.6114C14.7259 17.6378 14.8535 17.6755 14.9121 17.6952C14.9706 17.7149 15.178 17.7816 15.3731 17.8433C15.5682 17.905 15.7876 17.9964 15.8607 18.0464C15.9754 18.1248 15.9937 18.1561 15.9937 18.2729C15.9937 18.3949 15.9787 18.4172 15.843 18.4966C15.5065 18.6934 14.2798 18.7155 13.6837 18.5354C13.075 18.3515 12.4079 17.8864 12.1197 17.445L12.0097 17.2766H11.1714C10.5534 17.2766 10.3169 17.2883 10.2719 17.3212C10.2154 17.3625 10.2116 17.4845 10.2208 18.9362C10.2293 20.286 10.2382 20.5112 10.2839 20.5401C10.3704 20.5947 12.1112 20.5846 12.1572 20.5292C12.178 20.5042 12.1999 20.3901 12.2059 20.2758C12.2222 19.9636 12.2549 19.9584 12.7352 20.1921C12.9572 20.3001 13.2505 20.4205 13.3871 20.4596C13.5236 20.4988 13.6992 20.55 13.7772 20.5734C14.331 20.7396 15.5422 20.8041 16.1356 20.699C16.3209 20.6662 16.5603 20.6145 16.6676 20.5842C17.0179 20.4853 17.5542 20.2613 17.5542 20.2138C17.5542 20.1978 17.5694 20.1847 17.5881 20.1847C17.6896 20.1847 18.2983 19.6595 18.2987 19.5715C18.299 19.5359 18.4496 19.3197 18.4851 19.304C18.4998 19.2974 18.5118 19.2735 18.5119 19.2508C18.5121 19.228 18.5371 19.1615 18.5677 19.103C18.8373 18.5864 18.9067 17.5808 18.7048 17.115C18.6134 16.9043 18.4804 16.6293 18.4313 16.5495C18.3545 16.4248 18.0376 16.0594 17.8941 15.93C17.8178 15.8611 17.7312 15.7809 17.7018 15.7518C17.6724 15.7227 17.6199 15.6828 17.5852 15.6631C17.5505 15.6435 17.4136 15.5627 17.281 15.4834C16.9523 15.287 16.8529 15.2502 16.0469 15.0258C15.9494 14.9986 15.7579 14.9432 15.6213 14.9026C15.4848 14.8619 15.2933 14.8061 15.1958 14.7784C15.0982 14.7508 14.9136 14.6951 14.7854 14.6547C14.6573 14.6143 14.5216 14.5811 14.484 14.581C14.4463 14.5809 14.3742 14.5592 14.3236 14.5328C14.273 14.5064 14.1693 14.4735 14.0931 14.4596C13.938 14.4314 13.6574 14.3451 13.4881 14.2737C13.4267 14.2478 13.3501 14.2266 13.3179 14.2266C13.22 14.2266 13.0565 14.1252 13.0325 14.0497C13.0201 14.0104 12.9951 13.9783 12.9769 13.9783C12.9587 13.9783 12.9438 13.9233 12.9438 13.8559C12.9438 13.6806 13.1414 13.4938 13.3619 13.4607C13.622 13.4217 14.4693 13.468 14.7026 13.5339C15.1883 13.6712 15.4183 13.7529 15.5786 13.8451C15.6721 13.8989 15.7557 13.9429 15.7644 13.9429C15.7969 13.9429 16.167 14.2135 16.3019 14.336C16.379 14.4059 16.4954 14.5296 16.5607 14.6109L16.6794 14.7586L17.5512 14.758C18.0432 14.7577 18.4462 14.7427 18.4763 14.7236C18.5224 14.6942 18.5281 14.4946 18.5188 13.2107C18.513 12.3972 18.5001 11.7185 18.4902 11.7024C18.4802 11.6863 18.0666 11.6731 17.5711 11.6731C16.5485 11.6731 16.5966 11.6583 16.5966 11.9734C16.5966 12.1635 16.5437 12.2023 16.3949 12.1213C15.9254 11.8658 15.594 11.73 15.2572 11.6551C15.135 11.6279 15.02 11.5964 15.0016 11.585C14.9832 11.5737 14.8678 11.5497 14.7451 11.5317C14.6223 11.5137 14.4422 11.4833 14.3446 11.464C14.1199 11.4198 13.1493 11.4211 12.9615 11.4659ZM23.0512 11.4833C22.2483 11.6357 21.9371 11.7191 21.6095 11.8699C21.5481 11.8982 21.4754 11.9214 21.4482 11.9214C21.4208 11.9214 21.3834 11.9359 21.3648 11.9537C21.3463 11.9715 21.2299 12.0393 21.1062 12.1045C20.7633 12.285 20.618 12.3851 20.3441 12.6297C20.1747 12.781 19.804 13.2733 19.6626 13.535C19.4916 13.8514 19.3285 14.2945 19.2894 14.549C19.2727 14.6581 19.2426 14.7903 19.2226 14.8429C19.1508 15.032 19.1014 16.2301 19.142 16.7978C19.1843 17.3885 19.2455 17.6789 19.4229 18.1314C19.5678 18.5009 19.6248 18.6143 19.8044 18.8902C19.9437 19.1042 20.6086 19.7945 20.6754 19.7945C20.6951 19.7945 20.7869 19.8468 20.8793 19.9108C21.1138 20.0728 21.6805 20.3468 21.9872 20.4464C22.7625 20.6981 22.9978 20.7318 23.991 20.7331C24.833 20.7344 25.1591 20.7052 25.5514 20.5936C25.649 20.5659 25.8644 20.5088 26.0302 20.4668C26.6135 20.3191 27.2852 19.9267 27.7538 19.46C27.9118 19.3026 28.0828 19.1072 28.1338 19.0258C28.2617 18.8216 28.5127 18.3388 28.5127 18.2969C28.5127 18.278 28.5349 18.2123 28.562 18.1508C28.6303 17.9958 28.7469 17.5845 28.7946 17.3298C28.8166 17.2127 28.8489 17.0451 28.8666 16.9574C28.8842 16.8696 28.8998 16.4866 28.9011 16.1062C28.9038 15.3794 28.8479 14.9305 28.6827 14.3507C28.564 13.934 28.3787 13.4818 28.3268 13.4818C28.312 13.4818 28.3 13.4648 28.3 13.4439C28.3 13.2859 27.6442 12.5878 27.2745 12.3522C26.8747 12.0974 26.2359 11.7795 26.1237 11.7795C26.0898 11.7795 26.0184 11.7569 25.965 11.7293C25.852 11.6709 25.604 11.6149 24.8422 11.4762C24.4747 11.4093 23.419 11.4135 23.0512 11.4833ZM3.82596 11.5754C3.82408 11.5999 3.82415 12.0668 3.8261 12.613C3.82805 13.1591 3.82957 13.6235 3.8295 13.6449C3.8294 13.6708 4.03108 13.6907 4.43428 13.7043C4.82361 13.7175 5.05743 13.7399 5.09038 13.7672C5.134 13.8034 5.14155 14.1444 5.14155 16.076V18.3423L5.05059 18.3768C5.00054 18.3959 4.71647 18.4114 4.41931 18.4114C4.04637 18.4114 3.86582 18.4246 3.83645 18.454C3.77574 18.5147 3.77574 20.4715 3.83645 20.5322C3.86887 20.5646 4.56224 20.5748 6.74076 20.5748C9.31758 20.5748 9.60463 20.5692 9.62403 20.5187C9.66216 20.4193 9.64825 18.5536 9.60885 18.48C9.57498 18.4167 9.52966 18.4114 9.02599 18.4114C8.72561 18.4114 8.43891 18.3959 8.38887 18.3768L8.2979 18.3423L8.29844 16.0982C8.29879 14.749 8.31237 13.833 8.33255 13.801C8.35986 13.7578 8.48239 13.7457 8.98801 13.7367C9.59371 13.7258 9.61038 13.7235 9.62879 13.648C9.63921 13.6054 9.64325 13.1157 9.63776 12.5598L9.62783 11.549L6.72859 11.5399C4.42226 11.5327 3.82865 11.54 3.82596 11.5754ZM30.5685 11.7762C30.4995 11.79 30.424 11.8132 30.4006 11.8276C30.3772 11.8421 30.2581 11.8764 30.1359 11.9039C29.4913 12.049 29.2948 12.1371 29.3419 12.2602C29.3604 12.3083 29.3923 12.3162 29.4975 12.2985C29.7465 12.2568 29.9491 12.2127 30.0555 12.177C30.5049 12.0263 30.5284 12.0224 30.6205 12.0827C30.6686 12.1142 30.7402 12.1945 30.7795 12.2612C30.845 12.3723 30.9483 12.4175 31.0055 12.3603C31.0177 12.3481 30.9935 12.2724 30.9517 12.1918C30.9099 12.1114 30.8667 11.9817 30.8557 11.9037C30.8337 11.7475 30.7955 11.7306 30.5685 11.7762ZM0.991623 12.171C0.941086 12.293 0.841288 12.36 0.751457 12.332C0.568672 12.2752 0.552146 12.5122 0.73337 12.592C0.833912 12.6363 0.848133 12.6603 0.857496 12.8021C0.870724 13.0021 0.937291 13.0296 1.00662 12.8637C1.05862 12.7392 1.06294 12.7371 1.26523 12.7369C1.3784 12.7368 1.54278 12.7594 1.63055 12.787C1.84405 12.8542 2.08525 12.9163 2.21756 12.9381C2.36928 12.9632 2.5348 12.8058 2.56888 12.6041C2.61314 12.342 2.49217 12.2952 2.37315 12.5285L2.2986 12.6747L2.08791 12.6508C1.97204 12.6377 1.81774 12.6061 1.74503 12.5807C1.67233 12.5552 1.53725 12.5232 1.4449 12.5095C1.23626 12.4786 1.16962 12.3965 1.19565 12.2025C1.21306 12.0725 1.20842 12.0633 1.12529 12.0633C1.05957 12.0633 1.02457 12.0914 0.991623 12.171ZM30.0732 12.8257C30.0244 12.8536 29.9635 12.877 29.9378 12.8777C29.9121 12.8784 29.8401 12.9178 29.7778 12.9654C29.6096 13.0937 29.5625 13.2902 29.6237 13.6073C29.6502 13.7445 29.695 13.9041 29.7231 13.9619C29.7739 14.0661 29.7767 14.0669 30.039 14.0563C30.1846 14.0504 30.3824 14.0225 30.4786 13.9942C30.5748 13.966 30.7045 13.9429 30.7667 13.9429C30.829 13.9429 30.9478 13.9189 31.0307 13.8897C31.1136 13.8604 31.2393 13.8355 31.31 13.8343C31.5148 13.8309 31.8262 13.7199 31.8406 13.6453C31.8634 13.5268 31.7947 13.5035 31.565 13.5523C31.3005 13.6084 31.2614 13.5831 31.2284 13.3342C31.1987 13.1105 31.0995 12.9089 30.9808 12.8312C30.8621 12.7534 30.2066 12.7495 30.0732 12.8257ZM30.8962 13.0474C30.9603 13.1213 31.0662 13.4267 31.0662 13.5375C31.0662 13.63 30.8551 13.7301 30.6598 13.7301C30.5932 13.7301 30.4317 13.7549 30.3011 13.7852C29.9305 13.8711 29.8881 13.8562 29.8417 13.6235C29.7536 13.1813 29.9666 12.9914 30.5553 12.9873C30.7863 12.9857 30.8529 12.9975 30.8962 13.0474ZM1.00127 13.3378C0.748158 13.4007 0.637544 13.6058 0.637544 14.0124C0.637544 14.2896 0.63992 14.2975 0.722518 14.2975C0.802987 14.2975 0.808803 14.2825 0.8326 14.0139C0.865972 13.6368 0.933177 13.5449 1.16462 13.5599L1.3291 13.5705L1.32949 13.9251C1.33003 14.4111 1.4111 14.5373 1.74216 14.5674C1.96828 14.5879 2.07315 14.5414 2.1916 14.3679C2.26544 14.2598 2.27349 14.2167 2.25615 14.0236C2.24225 13.8692 2.25218 13.7648 2.2892 13.6763C2.31828 13.6066 2.33339 13.5356 2.32275 13.5183C2.28821 13.4625 2.08191 13.4162 1.68602 13.3754C1.4727 13.3535 1.25725 13.3297 1.20725 13.3224C1.15724 13.3152 1.06454 13.3221 1.00127 13.3378ZM1.932 13.6868C2.07429 13.7579 2.09042 13.789 2.09106 13.9938C2.09145 14.1252 2.07237 14.1893 2.01449 14.2509C1.90821 14.3641 1.70418 14.3624 1.57048 14.2474C1.47862 14.1683 1.47164 14.1445 1.47979 13.9371C1.49323 13.5953 1.61456 13.5282 1.932 13.6868ZM24.7831 13.8014C24.9129 13.8621 25.0793 13.9794 25.1765 14.0787C25.3316 14.2371 25.3512 14.2774 25.4219 14.5845C25.4924 14.8907 25.4987 15.0141 25.4985 16.0836C25.4983 17.1421 25.4915 17.2773 25.4244 17.5554C25.3838 17.7239 25.3199 17.9117 25.2823 17.9727C25.1954 18.1139 24.9125 18.376 24.847 18.376C24.8195 18.376 24.7536 18.3985 24.7005 18.4261C24.6474 18.4536 24.474 18.4951 24.3152 18.5183C24.0749 18.5534 23.9748 18.5513 23.7186 18.5059C23.4368 18.4559 23.1175 18.3349 22.9775 18.2249C22.8944 18.1596 22.6611 17.8168 22.6611 17.76C22.6611 17.7329 22.6383 17.6563 22.6105 17.5897C22.4946 17.3123 22.4481 15.6842 22.5363 14.9891C22.6076 14.4268 22.7236 14.1441 22.9542 13.9704C23.2733 13.7301 23.6079 13.6523 24.2037 13.6798C24.5017 13.6935 24.5941 13.7129 24.7831 13.8014ZM31.7252 14.3442C31.6901 14.3699 31.6673 14.4217 31.6746 14.4595C31.6931 14.5557 31.9634 14.56 31.9819 14.4643C32.0088 14.3246 31.8522 14.2513 31.7252 14.3442ZM30.9598 14.4031C30.8915 14.4191 30.6187 14.4433 30.3536 14.4569C30.0885 14.4704 29.8518 14.4937 29.8277 14.5086C29.8035 14.5235 29.789 14.5819 29.7955 14.6383C29.8093 14.759 29.7624 14.7566 30.5342 14.6749C31.2767 14.5963 31.3322 14.5823 31.3322 14.4734C31.3322 14.3985 31.3146 14.3853 31.2081 14.3801C31.1398 14.3767 31.0281 14.387 30.9598 14.4031ZM0.637544 15.0403L0.513418 15.1437V15.6105C0.513418 15.8673 0.521398 16.09 0.53115 16.1054C0.540903 16.1209 0.891755 16.1314 1.31084 16.1287C2.01386 16.1243 2.07372 16.119 2.0851 16.0602C2.1133 15.9146 2.03911 15.8934 1.50093 15.8934C0.850651 15.8934 0.759613 15.8626 0.724823 15.6306C0.692869 15.4176 0.730568 15.2293 0.814052 15.1846C0.851821 15.1644 1.1466 15.1487 1.48873 15.1487H2.09631L2.08507 15.0511L2.07386 14.9536L1.41777 14.9453L0.76167 14.9368L0.637544 15.0403ZM29.8888 15.1575C29.8581 15.2119 29.8464 15.367 29.852 15.6434C29.8613 16.1063 29.8778 16.1858 29.9609 16.1699C30.0102 16.1606 30.0229 16.0968 30.0377 15.787C30.052 15.4865 30.0661 15.4134 30.1112 15.4048C30.1419 15.3989 30.3095 15.504 30.4836 15.6382C31.0691 16.0896 31.1641 16.1468 31.3081 16.1348L31.4386 16.124L31.4474 15.6452C31.4568 15.1376 31.433 15.0317 31.3243 15.0992C31.2735 15.1308 31.2578 15.203 31.2435 15.4715C31.2272 15.7776 31.2199 15.8046 31.1539 15.8028C31.1144 15.8017 30.9185 15.674 30.7186 15.5191C30.1266 15.0603 29.9798 14.9963 29.8888 15.1575ZM0.528242 16.553C0.492813 16.5957 0.491146 16.6417 0.52083 16.7562C0.541932 16.8376 0.551365 16.9541 0.541754 17.0152C0.532179 17.0763 0.541187 17.1367 0.561756 17.1494C0.582326 17.1621 0.919382 17.1615 1.3107 17.1481C2.06684 17.1221 2.18398 17.0956 2.10496 16.9683C2.06868 16.9098 2.01499 16.9053 1.49845 16.9171C1.18675 16.9242 0.897393 16.9191 0.855439 16.9058C0.802242 16.8889 0.767168 16.8337 0.739328 16.7233C0.693756 16.5423 0.599987 16.4666 0.528242 16.553ZM30.0474 16.5337C29.8732 16.5872 29.8449 16.6737 29.8423 17.1604C29.8403 17.519 29.8494 17.5976 29.8945 17.6156C30.0085 17.6608 31.0503 17.6774 31.1758 17.636C31.3494 17.5787 31.4287 17.427 31.4488 17.1132C31.4705 16.7752 31.4429 16.6656 31.3398 16.6802C31.2672 16.6905 31.2599 16.7149 31.2435 16.9982C31.2231 17.3524 31.1641 17.4539 30.9788 17.4539C30.7836 17.4539 30.7537 17.4015 30.7408 17.0379C30.7304 16.7414 30.7207 16.7021 30.6379 16.6193C30.5334 16.5148 30.245 16.4731 30.0474 16.5337ZM30.4233 16.7483C30.5724 16.8003 30.6052 16.8724 30.6052 17.1488C30.6052 17.4174 30.5697 17.4539 30.3086 17.4539C30.0888 17.4539 30.002 17.3444 30.0028 17.0678C30.0034 16.8407 30.0227 16.7975 30.1451 16.7486C30.2614 16.7022 30.2909 16.7021 30.4233 16.7483ZM1.98102 17.5337C1.97399 17.6074 1.98424 17.6732 2.04428 17.9407C2.10181 18.197 2.10181 18.1971 2.01691 18.3214C1.88618 18.513 1.61055 18.5865 1.58005 18.438C1.511 18.1015 1.48972 17.9771 1.46933 17.7908C1.45653 17.6738 1.4277 17.5663 1.40528 17.5519C1.2658 17.4627 0.929418 17.585 0.748974 17.7905C0.633572 17.9219 0.630841 17.9324 0.642899 18.195C0.657298 18.5088 0.732164 18.646 0.947151 18.7528C1.10894 18.8332 1.44422 18.8337 1.7433 18.754C2.08475 18.663 2.15578 18.6018 2.24774 18.3191C2.28828 18.1945 2.29672 18.1117 2.27488 18.0532C2.25739 18.0064 2.2314 17.8883 2.21707 17.7908C2.2027 17.6933 2.17604 17.5855 2.15777 17.5514C2.11975 17.4804 1.98733 17.4671 1.98102 17.5337ZM1.26381 17.8403C1.31971 17.8924 1.34138 17.9717 1.35964 18.1908C1.38982 18.5526 1.37546 18.5887 1.20175 18.5887C1.10174 18.5887 1.03439 18.5621 0.954775 18.4909C0.858524 18.4049 0.844728 18.3689 0.840615 18.1929C0.835401 17.9704 0.873774 17.9009 1.04298 17.8266C1.18678 17.7635 1.18093 17.7631 1.26381 17.8403ZM31.1801 18.0634C31.1565 18.0871 31.1371 18.1321 31.1371 18.1635C31.1371 18.1949 31.1151 18.2506 31.0883 18.2873C31.0412 18.3517 31.0295 18.352 30.7602 18.2953C30.2338 18.1844 29.8861 18.1634 29.7535 18.2344C29.6778 18.2749 29.6389 18.3884 29.6334 18.5847C29.6282 18.7687 29.7314 18.7774 29.8148 18.5999C29.8747 18.4722 29.8884 18.464 30.0573 18.4542C30.1557 18.4484 30.3313 18.4615 30.4473 18.4832C30.5634 18.5049 30.7222 18.5314 30.8002 18.542C30.9932 18.5682 31.0307 18.6076 31.0307 18.7843C31.0307 18.8901 31.0478 18.9423 31.0871 18.9574C31.1668 18.988 31.2081 18.9529 31.2081 18.8547C31.2081 18.7534 31.3291 18.6597 31.4599 18.6597C31.5681 18.6597 31.6509 18.5786 31.6214 18.5015C31.6102 18.4726 31.5406 18.4204 31.4667 18.3857C31.3515 18.3316 31.3296 18.3026 31.3144 18.1836C31.2955 18.035 31.2496 17.9939 31.1801 18.0634ZM2.25711 18.8961C2.24409 18.9091 2.23345 18.9869 2.23345 19.0691C2.23345 19.2406 2.18529 19.2944 1.99343 19.3375C1.92062 19.3539 1.70567 19.4022 1.51572 19.4449C1.1871 19.5188 1.16707 19.5196 1.1022 19.4609C1.06472 19.427 1.02432 19.3605 1.01244 19.3131C0.998681 19.2583 0.965379 19.2271 0.920588 19.2271C0.859978 19.2271 0.850332 19.2513 0.850332 19.4037C0.850332 19.5741 0.845296 19.5829 0.708473 19.6527C0.630451 19.6925 0.566615 19.7395 0.566615 19.7573C0.566615 19.8102 0.67613 19.9032 0.712197 19.8809C0.730604 19.8695 0.794546 19.8709 0.854269 19.8841C0.932149 19.9012 0.973182 19.9375 0.999354 20.0126C1.05227 20.1644 1.14866 20.1332 1.16295 19.9597C1.17299 19.8383 1.1898 19.8171 1.32254 19.759C1.40418 19.7233 1.55076 19.6827 1.64829 19.6689C1.74581 19.6551 1.84157 19.6318 1.86107 19.6172C1.88058 19.6026 1.97481 19.5794 2.07049 19.5655C2.16614 19.5516 2.28984 19.5067 2.34534 19.4657C2.43159 19.4019 2.44624 19.3666 2.44624 19.2227C2.44624 18.9561 2.35488 18.7983 2.25711 18.8961ZM29.5412 19.1364C29.5412 19.2436 29.5696 19.2614 29.8394 19.3231C29.9582 19.3503 30.1991 19.4059 30.3746 19.4465C30.8277 19.5515 31.0506 19.5672 31.0779 19.4961C31.1169 19.3942 31.0643 19.3429 30.8973 19.32C30.8067 19.3076 30.684 19.2826 30.6246 19.2645C30.4211 19.2026 29.7103 19.0569 29.5855 19.0517C29.5612 19.0506 29.5412 19.0887 29.5412 19.1364ZM31.401 19.491C31.2931 19.5712 31.3745 19.6704 31.5483 19.6704C31.7036 19.6704 31.7482 19.5949 31.6506 19.4974C31.5795 19.4263 31.4912 19.424 31.401 19.491ZM29.652 19.7591C29.4779 19.8003 29.3568 19.9015 29.2678 20.0804C29.181 20.255 29.1642 20.5143 29.2321 20.6309C29.3033 20.7529 29.4251 20.8939 29.4594 20.8939C29.4771 20.8939 29.5114 20.9137 29.5355 20.9379C29.5597 20.9621 29.6547 21.0009 29.7466 21.0243C29.8384 21.0476 29.9801 21.0866 30.0613 21.111C30.4506 21.2277 30.8152 20.9032 30.8172 20.4384C30.8185 20.1036 30.5761 19.8852 30.0901 19.7833C29.9336 19.7505 29.798 19.7252 29.7887 19.7272C29.7794 19.7292 29.7178 19.7436 29.652 19.7591ZM30.0304 19.9955C30.2745 20.0561 30.3859 20.1095 30.5254 20.2328C30.5889 20.2891 30.6052 20.3411 30.6052 20.4886C30.6052 20.6562 30.5932 20.6843 30.4798 20.7839C30.3357 20.9104 30.1559 20.9294 29.9436 20.8407C29.8736 20.8115 29.7882 20.7875 29.7539 20.7875C29.7197 20.7875 29.6259 20.7237 29.5455 20.6457C29.3838 20.4888 29.3588 20.366 29.4518 20.186C29.5114 20.0708 29.668 19.9364 29.7426 19.9364C29.7701 19.9364 29.8996 19.963 30.0304 19.9955ZM2.25118 20.0666C2.17316 20.0946 2.09418 20.1327 2.07563 20.1511C2.05709 20.1695 2.00921 20.1848 1.96924 20.1849C1.92924 20.185 1.85373 20.2074 1.80139 20.2347C1.74908 20.262 1.66105 20.2943 1.6058 20.3064C1.55051 20.3186 1.44571 20.3831 1.37287 20.4498C1.24966 20.5627 1.24044 20.5852 1.24044 20.7729C1.24044 20.9324 1.26154 21.0091 1.34088 21.1383C1.39613 21.2282 1.45132 21.3636 1.46348 21.4392C1.47568 21.5148 1.49423 21.5851 1.50469 21.5956C1.527 21.6179 1.92743 21.5022 2.05613 21.4363C2.10489 21.4113 2.17096 21.3908 2.20299 21.3907C2.23498 21.3906 2.33073 21.3589 2.41578 21.3203C2.50078 21.2817 2.60537 21.2498 2.64814 21.2494C2.78308 21.248 2.98332 21.1073 2.97122 21.0223C2.9625 20.9613 2.93718 20.9478 2.83635 20.9507C2.76808 20.9526 2.65637 20.9752 2.5881 21.0008C2.51983 21.0264 2.3762 21.079 2.26892 21.1178C2.16164 21.1566 2.02357 21.2098 1.96211 21.2361C1.7556 21.3247 1.6768 21.301 1.56037 21.1156C1.42802 20.9048 1.41901 20.7257 1.5353 20.6164C1.58044 20.574 1.62992 20.5393 1.6452 20.5393C1.66052 20.5393 1.72333 20.5169 1.78479 20.4895C1.84625 20.4622 2.02935 20.3983 2.19167 20.3476C2.6159 20.215 2.70921 20.1579 2.66967 20.0549C2.64623 19.9937 2.43776 19.9995 2.25118 20.0666ZM28.9155 21.1959C28.8776 21.2945 28.9839 21.3689 29.4348 21.5594C29.5031 21.5882 29.6148 21.6394 29.6831 21.6733C29.7513 21.7071 29.8509 21.7453 29.9042 21.7582C30.0173 21.7855 30.0558 21.8925 30.0279 22.1009C30.006 22.2636 29.8719 22.4496 29.7743 22.4524C29.699 22.4546 29.5111 22.4007 29.3462 22.3297C28.9978 22.1797 28.8751 22.1244 28.791 22.0793C28.6607 22.0094 28.5575 22.0162 28.514 22.0974C28.4938 22.1351 28.4773 22.1724 28.4773 22.1803C28.4773 22.1945 28.7727 22.3421 29.0092 22.4461C29.0775 22.4761 29.1733 22.5201 29.222 22.5438C29.6996 22.7764 30.0382 22.7224 30.1521 22.3957C30.185 22.3012 30.2223 22.1646 30.235 22.0922C30.2476 22.0197 30.2802 21.9419 30.3074 21.9193C30.3689 21.8683 30.3719 21.7298 30.3126 21.6845C30.2229 21.6161 29.0872 21.1422 29.0129 21.1422C28.9707 21.1422 28.9268 21.1663 28.9155 21.1959ZM2.97821 21.6094C2.92945 21.6297 2.80975 21.6791 2.71222 21.7192C2.6147 21.7594 2.41858 21.8455 2.27644 21.9105C2.13426 21.9756 2.00552 22.0288 1.99034 22.0288C1.97516 22.0288 1.87292 22.0747 1.76319 22.1308C1.65346 22.187 1.51888 22.2441 1.46412 22.2577C1.33765 22.2893 1.24044 22.3763 1.24044 22.4578C1.24044 22.6035 1.40684 22.5777 1.87881 22.3587C2.28406 22.1708 2.33967 22.1461 2.5881 22.0445C2.95792 21.8933 3.25544 21.7489 3.28037 21.7085C3.31459 21.6531 3.22902 21.5674 3.14234 21.5702C3.10081 21.5715 3.02697 21.5892 2.97821 21.6094ZM7.36401 21.5914C7.28666 21.6687 7.38398 21.8429 7.79665 22.3657C8.04493 22.6803 8.8641 23.505 9.24516 23.8242C9.68368 24.1914 10.2445 24.5853 10.7272 24.865C11.0157 25.0321 11.7477 25.398 11.7937 25.398C11.8198 25.398 12.0761 25.5125 12.2399 25.5974C12.2917 25.6243 12.3691 25.6462 12.4118 25.6462C12.4545 25.6462 12.5319 25.6689 12.5837 25.6967C12.7099 25.7644 13.2865 25.93 13.8127 26.0496C14.5283 26.2123 15.0222 26.2577 16.0647 26.2568C17.0392 26.2558 17.2391 26.2411 17.8556 26.1245C18.0117 26.095 18.2351 26.0543 18.3521 26.0339C18.4692 26.0136 18.6447 25.9724 18.7422 25.9425C19.0745 25.8406 19.2386 25.7947 19.3598 25.7695C19.4264 25.7557 19.5835 25.6984 19.7089 25.6421C19.8343 25.5858 19.9524 25.5398 19.9713 25.5398C20.0358 25.5398 20.9825 25.082 21.2602 24.9165C21.3382 24.87 21.426 24.8207 21.4553 24.807C21.4845 24.7933 21.5484 24.7547 21.5971 24.7213C21.6459 24.6878 21.7975 24.5889 21.9341 24.5015C22.846 23.918 24.0121 22.7691 24.6461 21.8297C24.7814 21.6292 24.7673 21.5685 24.5865 21.5736C24.4356 21.5779 24.3555 21.6341 24.239 21.8173C23.8793 22.3832 22.5299 23.7311 22.3231 23.7311C22.2458 23.7311 22.0024 23.6133 21.739 23.4484C21.7097 23.4301 21.602 23.3664 21.4996 23.3068C21.2546 23.1643 21.2546 23.0927 21.5001 22.8006C21.9067 22.317 22.3064 21.7401 22.3064 21.6371C22.3064 21.5768 22.2855 21.5667 22.1734 21.5726C22.1003 21.5765 22.0151 21.5921 21.9841 21.6074C21.9531 21.6226 21.814 21.7995 21.6751 22.0004C21.5361 22.2013 21.3743 22.4182 21.3155 22.4823C21.2568 22.5464 21.1663 22.6543 21.1146 22.7222C21.0628 22.79 20.9673 22.8708 20.9023 22.9016C20.7784 22.9604 20.6946 22.944 20.3381 22.7909C19.932 22.6165 19.8112 22.5727 19.5579 22.5087C19.2474 22.4302 19.1146 22.3599 19.1146 22.2739C19.1146 22.203 19.1803 22.036 19.3139 21.7674C19.3762 21.642 19.329 21.5678 19.1867 21.5678C19.0656 21.5678 19.0127 21.6276 18.8499 21.9489C18.6932 22.2584 18.6602 22.2716 18.2347 22.1947C17.6029 22.0806 17.4167 22.0559 16.8752 22.0149C16.5214 21.9881 16.2998 21.9557 16.2635 21.9255C16.232 21.8994 16.2065 21.8253 16.2065 21.7597C16.2065 21.6788 16.1847 21.6296 16.1379 21.6045C15.9672 21.5131 15.8519 21.597 15.8519 21.8124C15.8519 21.8788 15.8281 21.9323 15.7898 21.9522C15.7557 21.97 15.5283 21.995 15.2844 22.0078C14.8503 22.0305 14.2721 22.1018 13.919 22.1761C13.8215 22.1967 13.6619 22.2158 13.5644 22.2187L13.3871 22.2239L13.2547 21.9579C13.1819 21.8116 13.0884 21.664 13.0469 21.6298C12.957 21.5559 12.7719 21.5477 12.7455 21.6165C12.7352 21.6433 12.7731 21.767 12.8296 21.8914C13.0259 22.3233 13.0239 22.3157 12.9538 22.3675C12.919 22.3931 12.8028 22.4406 12.6955 22.473C12.5882 22.5054 12.4502 22.5544 12.3887 22.5818C12.3273 22.6093 12.2455 22.6317 12.207 22.6317C12.1438 22.6317 11.9968 22.6869 11.6794 22.8297C11.618 22.8573 11.5452 22.88 11.5177 22.88C11.4903 22.88 11.4368 22.9034 11.399 22.932C11.3611 22.9607 11.3008 22.9846 11.2649 22.9852C11.1949 22.9864 10.9765 22.7762 10.7178 22.4587C10.6297 22.3504 10.5398 22.2419 10.5182 22.2175C10.4485 22.1387 10.4109 22.0864 10.2353 21.8249C10.0701 21.5789 10.0566 21.5678 9.92392 21.5678C9.83515 21.5678 9.77806 21.5864 9.76536 21.6194C9.73851 21.6895 9.94293 22.0063 10.3992 22.6018C10.6089 22.8755 10.7804 23.1203 10.7804 23.1458C10.7804 23.1939 10.5264 23.373 10.2485 23.521C10.1607 23.5677 10.0508 23.6341 10.0043 23.6685C9.8442 23.787 9.69656 23.7516 9.41898 23.5281C8.95059 23.151 8.34745 22.518 7.88056 21.9136C7.64181 21.6045 7.60145 21.5678 7.50055 21.5678C7.43845 21.5678 7.37699 21.5784 7.36401 21.5914ZM15.8377 22.3892C15.8744 22.4487 15.8538 24.5229 15.8161 24.561C15.7519 24.6258 15.1609 24.7098 15.0193 24.6743C14.946 24.6559 14.5042 24.1675 14.5042 24.1048C14.5042 24.0835 14.3637 23.873 14.3256 23.8375C14.2002 23.7202 13.6473 22.7435 13.6595 22.6608C13.6738 22.5638 13.8519 22.4969 14.1141 22.4903C14.2214 22.4875 14.4687 22.4558 14.6638 22.4198C15.0737 22.344 15.7981 22.3252 15.8377 22.3892ZM17.235 22.3844C17.3618 22.4024 17.6251 22.4397 17.8202 22.4673C18.2302 22.5252 18.4268 22.5795 18.4503 22.6413C18.4693 22.6912 18.4381 22.7672 18.3158 22.9686C18.2684 23.0466 18.2141 23.1455 18.195 23.1884C18.1759 23.2312 18.1117 23.3333 18.0523 23.4153C17.9929 23.4973 17.9443 23.5824 17.9443 23.6044C17.9443 23.6264 17.9163 23.6702 17.8822 23.7017C17.8481 23.7332 17.7643 23.841 17.696 23.9413C17.6278 24.0416 17.4785 24.2508 17.3643 24.4061L17.1566 24.6887H16.9264C16.7001 24.6887 16.3379 24.608 16.2508 24.5382C16.2172 24.5112 16.2065 24.2487 16.2065 23.446C16.2065 22.6339 16.2168 22.3852 16.2508 22.3715C16.3261 22.3411 16.9918 22.3498 17.235 22.3844ZM13.2743 22.8179C13.3009 22.8618 13.414 23.0493 13.5255 23.2346C13.6371 23.4199 13.7474 23.6027 13.7705 23.6407C13.8134 23.7111 13.8831 23.8143 14.2803 24.3958C14.4035 24.576 14.5042 24.7424 14.5042 24.7654C14.5042 24.8199 14.3979 24.9368 14.348 24.9371C14.3266 24.9373 14.2664 24.9597 14.214 24.987C14.0144 25.0911 13.921 25.0887 13.7195 24.9745C13.6147 24.9151 13.4908 24.85 13.4443 24.8298C13.1828 24.7165 12.1453 23.9418 11.8 23.6022C11.513 23.3198 11.5218 23.2802 11.9064 23.1216C12.835 22.7387 13.1798 22.6622 13.2743 22.8179ZM19.2675 22.7927C19.8773 22.9734 20.0374 23.0318 20.3115 23.1731C20.5653 23.304 20.5303 23.3679 19.9194 23.8885C19.6838 24.0894 19.16 24.4791 18.9154 24.6355C18.2173 25.0818 18.0945 25.1158 17.7699 24.9528C17.5673 24.851 17.541 24.7694 17.6618 24.6177C17.7582 24.4967 18.1938 23.8618 18.2812 23.715C18.3202 23.6494 18.4539 23.4228 18.5782 23.2113C18.7026 22.9998 18.8293 22.8068 18.8598 22.7824C18.9334 22.7237 19.0445 22.7265 19.2675 22.7927ZM11.2904 23.6122C11.3707 23.6833 11.5323 23.831 11.6493 23.9403C11.8788 24.1547 12.7165 24.7951 12.7674 24.7951C12.7844 24.7951 12.8111 24.815 12.8267 24.8394C12.8556 24.8845 13.0685 25.0433 13.1001 25.0433C13.1435 25.0433 13.4479 25.2703 13.4653 25.3155C13.476 25.3433 13.4468 25.4065 13.4004 25.4558C13.3085 25.5536 13.1888 25.5572 12.9438 25.4694C12.8755 25.445 12.7319 25.3937 12.6246 25.3554C12.0588 25.1535 11.7679 25.0319 11.3939 24.8407C10.7346 24.5037 10.1775 24.1302 10.1775 24.025C10.1775 24.0082 10.2663 23.9391 10.3749 23.8716C10.4834 23.8041 10.6151 23.7211 10.6674 23.6873C10.7199 23.6535 10.8026 23.6096 10.8514 23.5898C10.9001 23.57 10.964 23.5388 10.9932 23.5204C11.0856 23.4624 11.1402 23.4793 11.2904 23.6122ZM21.1201 23.5152C21.1387 23.533 21.2503 23.5962 21.3682 23.6556C21.6482 23.7968 21.8809 23.9669 21.8809 24.0304C21.8809 24.0893 21.6536 24.2796 21.4077 24.4265C21.3133 24.4829 21.1918 24.5555 21.1376 24.5878C21.0138 24.6616 20.4908 24.9253 20.3027 25.0087C19.8026 25.2305 19.5569 25.327 19.4922 25.327C19.4632 25.327 19.3944 25.3492 19.3391 25.3763C19.2267 25.4315 19.0291 25.5026 18.9152 25.529C18.8208 25.5508 18.5788 25.3999 18.5913 25.327C18.5963 25.2978 18.7781 25.1541 18.9953 25.0078C19.2126 24.8615 19.4679 24.6828 19.5628 24.6107C19.6576 24.5385 19.7831 24.4437 19.8416 24.3999C19.9625 24.3094 20.5793 23.7829 20.7755 23.6027C20.9033 23.4852 21.0501 23.448 21.1201 23.5152ZM16.6853 24.9945C16.988 25.0496 17.3875 25.1596 17.6606 25.2631C17.8749 25.3444 18.228 25.5542 18.228 25.6004C18.228 25.6746 18.0499 25.7665 17.8591 25.7908C17.7597 25.8035 17.5586 25.8359 17.4123 25.863C17.2196 25.8986 16.8337 25.9117 16.0115 25.9106C15.0037 25.9091 14.8294 25.9003 14.4553 25.8319C14.0601 25.7596 13.8658 25.6872 13.8658 25.6123C13.8658 25.4679 14.8099 25.0806 15.3022 25.0231C15.4192 25.0094 15.5469 24.9854 15.5859 24.9698C15.7104 24.92 16.3552 24.9345 16.6853 24.9945ZM5.78683 28.7318C5.40211 28.813 5.15716 29.03 5.05254 29.3822C4.97639 29.6387 4.97966 29.6469 5.16815 29.6704C5.26082 29.682 5.39505 29.6989 5.46648 29.708C5.59397 29.7242 5.59681 29.7219 5.62015 29.5837C5.65203 29.3951 5.75502 29.273 5.91986 29.2287C6.09544 29.1814 6.29557 29.2445 6.39512 29.3787C6.48719 29.5028 6.49038 29.7671 6.40186 29.9363C6.36646 30.004 6.0864 30.3089 5.77945 30.6139C5.30167 31.0886 5.20283 31.2061 5.09194 31.4307C5.02072 31.5749 4.95277 31.7528 4.94096 31.8259L4.91947 31.9589H6.00579H7.09211V31.676V31.3931L6.46261 31.3834L5.83311 31.3737L6.28741 30.9194C6.5373 30.6696 6.80215 30.3717 6.87599 30.2575C7.16928 29.8037 7.14676 29.2825 6.82052 28.9729C6.59904 28.7628 6.14361 28.6565 5.78683 28.7318ZM10.845 28.7437C10.5415 28.829 10.3212 29.0577 10.2007 29.4125C10.1122 29.6732 10.0601 30.1744 10.0817 30.5581C10.1225 31.2821 10.2761 31.6559 10.6212 31.8702C10.768 31.9614 10.8335 31.9782 11.079 31.9879C11.3358 31.998 11.3859 31.9887 11.5604 31.8992C11.968 31.6902 12.1272 31.3155 12.1546 30.5011C12.1937 29.3381 11.8959 28.781 11.1998 28.715C11.0934 28.7049 10.9385 28.7174 10.845 28.7437ZM13.4935 28.7189C13.1647 28.7995 12.9575 28.956 12.8197 29.228C12.6421 29.5784 12.5678 30.4146 12.6622 31.0014C12.7664 31.6499 13.1159 31.9932 13.6727 31.994C14.2815 31.9949 14.6046 31.5948 14.6907 30.7338C14.787 29.7699 14.5603 29.0244 14.1051 28.8082C13.952 28.7355 13.6222 28.6873 13.4935 28.7189ZM16.1826 28.8292C16.094 29.0172 15.8136 29.2744 15.5473 29.4122L15.3201 29.5296L15.32 29.8035L15.3199 30.0775L15.4074 30.0443C15.5636 29.9848 15.7595 29.875 15.9405 29.7452L16.1179 29.6181L16.1272 30.7885L16.1365 31.9589H16.4375H16.7385V30.3275V28.6962H16.4919H16.2453L16.1826 28.8292ZM20.0081 28.7318C19.6414 28.8092 19.4012 29.0151 19.2847 29.352C19.1898 29.6266 19.1963 29.6463 19.3895 29.6704C19.4821 29.682 19.6141 29.6985 19.6828 29.7072C19.8061 29.7227 19.8082 29.7207 19.8601 29.5411C19.9263 29.3118 20.0448 29.2163 20.2631 29.2163C20.6424 29.2163 20.8104 29.5695 20.614 29.9539C20.5838 30.0131 20.3074 30.3115 19.9999 30.6169C19.5224 31.0912 19.4221 31.2103 19.3123 31.4326C19.2416 31.5758 19.1741 31.7528 19.1623 31.8259L19.1408 31.9589H20.2271H21.3134V31.6752V31.3915H20.7105C20.2522 31.3915 20.1076 31.3809 20.1076 31.3472C20.1076 31.3228 20.2988 31.1165 20.5324 30.8886C21.1312 30.3045 21.3142 29.9918 21.3131 29.5544C21.3126 29.3901 21.1774 29.0988 21.043 28.9729C20.8184 28.7623 20.3646 28.6566 20.0081 28.7318ZM22.5461 28.7346C22.2265 28.8099 22.0081 29.0429 21.867 29.4587C21.8044 29.6432 21.7947 29.7631 21.7935 30.363C21.7923 30.9933 21.7994 31.0753 21.8732 31.289C22.0675 31.8511 22.5746 32.117 23.1357 31.9512C23.3632 31.884 23.6242 31.6023 23.7202 31.3201C23.8854 30.8347 23.8969 29.968 23.7449 29.4587C23.6243 29.0544 23.3655 28.7979 23.0098 28.7305C22.8006 28.6908 22.729 28.6915 22.5461 28.7346ZM25.0849 28.731C24.7162 28.8093 24.447 29.0545 24.3499 29.4003C24.3183 29.513 24.2924 29.6151 24.2924 29.6273C24.2924 29.6394 24.3683 29.6588 24.4609 29.6704C24.5535 29.682 24.6873 29.6988 24.7582 29.7078C24.8854 29.7239 24.8876 29.7221 24.9279 29.562C24.9744 29.3771 25.0961 29.2465 25.2505 29.2156C25.6169 29.1423 25.8525 29.4325 25.7441 29.8236C25.7041 29.9677 25.6167 30.0735 25.1078 30.5935C24.7834 30.9251 24.4765 31.2682 24.4259 31.356C24.3461 31.4946 24.2215 31.8443 24.2215 31.9299C24.2215 31.9459 24.7083 31.9589 25.3032 31.9589H26.3849V31.6752V31.3915H25.782C25.3398 31.3915 25.1791 31.3802 25.1791 31.3493C25.1791 31.3261 25.392 31.0987 25.6522 30.8439C26.0412 30.463 26.1464 30.3375 26.2442 30.1372C26.3794 29.8606 26.4163 29.5831 26.3506 29.3388C26.2935 29.1269 26.0394 28.8601 25.8237 28.7857C25.6175 28.7146 25.2796 28.6896 25.0849 28.731ZM27.5552 28.7501C27.4479 28.7797 27.2965 28.8481 27.2187 28.9021C27.0639 29.0097 26.8935 29.3009 26.8585 29.5179L26.8375 29.6481L27.0102 29.6698C27.1051 29.6817 27.2407 29.6987 27.3113 29.7077C27.4367 29.7236 27.4404 29.7207 27.4616 29.5878C27.5074 29.3019 27.7631 29.1454 28.0356 29.2366C28.2157 29.297 28.3059 29.4264 28.3059 29.6247C28.3059 29.8981 28.2261 30.0159 27.668 30.5675C27.1266 31.1028 26.9333 31.3532 26.8324 31.6504C26.7184 31.9862 26.6276 31.9589 27.8566 31.9589H28.9383V31.676V31.3931L28.3088 31.3834L27.6793 31.3737L28.1936 30.8418C28.5101 30.5145 28.7394 30.2454 28.7896 30.1424C29.1406 29.423 28.774 28.7634 27.9948 28.7123C27.8382 28.7021 27.6801 28.7157 27.5552 28.7501ZM7.51768 29.0508V29.3345H8.22619H8.93467L8.73798 29.6363C8.50378 29.9956 8.30539 30.4141 8.17771 30.8183C8.08614 31.1081 7.97915 31.6695 7.97886 31.8614L7.97872 31.9589H8.27524H8.5718L8.59162 31.6486C8.63822 30.9195 8.96737 30.0849 9.4704 29.4203C9.63471 29.2032 9.64556 29.1759 9.64556 28.978V28.7671H8.58162H7.51768V29.0508ZM11.338 29.3092C11.4847 29.4419 11.5076 29.588 11.5057 30.3807C11.5042 31.0012 11.4939 31.1473 11.4441 31.2561C11.2749 31.6259 10.8881 31.5648 10.7801 31.1512C10.7171 30.91 10.6949 30.1841 10.7394 29.8231C10.7845 29.4582 10.8515 29.3105 11.0006 29.2478C11.1298 29.1935 11.2303 29.2117 11.338 29.3092ZM13.9445 29.3924C14.0425 29.5602 14.0892 30.0065 14.0664 30.5585C14.0374 31.2631 13.9394 31.4951 13.6698 31.4971C13.5168 31.4982 13.4204 31.4167 13.3457 31.2231C13.2904 31.0798 13.2807 30.9481 13.2807 30.3453C13.2807 29.591 13.3051 29.4415 13.4502 29.3078C13.4935 29.2679 13.5609 29.2284 13.5999 29.22C13.7138 29.1956 13.8773 29.2775 13.9445 29.3924ZM23.0967 29.4123C23.2271 29.6757 23.261 30.739 23.1523 31.1577C23.0707 31.4723 22.787 31.5938 22.5913 31.3981C22.4394 31.2461 22.403 30.9973 22.4195 30.2242C22.4323 29.6284 22.4412 29.5506 22.5121 29.4153C22.6507 29.151 22.9665 29.1494 23.0967 29.4123ZM17.9443 29.9197V30.2211H18.2457H18.5472V29.9197V29.6182H18.2457H17.9443V29.9197ZM17.9443 31.6575V31.9589H18.2457H18.5472V31.6575V31.356H18.2457H17.9443V31.6575Z" fill="#0058A3"/>
</svg>
