<svg width="48" height="28" viewBox="0 0 48 28" fill="none" xmlns="http://www.w3.org/2000/svg">
<rect x="0.5" y="0.5" width="47" height="27" rx="3.5" fill="white"/>
<path d="M27.9151 7.71094H20.7151V20.2887H27.9151V7.71094Z" fill="#FF5F00"/>
<path d="M21.1714 14C21.1714 11.4444 22.4057 9.17778 24.3029 7.71111C22.9086 6.64444 21.1486 6 19.2286 6C14.68 6 11 9.57778 11 14C11 18.4222 14.68 22 19.2286 22C21.1486 22 22.9086 21.3556 24.3029 20.2889C22.4057 18.8444 21.1714 16.5556 21.1714 14Z" fill="#EB001B"/>
<path d="M37.6276 14C37.6276 18.4222 33.9476 22 29.399 22C27.479 22 25.719 21.3556 24.3247 20.2889C26.2447 18.8222 27.4561 16.5556 27.4561 14C27.4561 11.4444 26.2218 9.17778 24.3247 7.71111C25.719 6.64444 27.479 6 29.399 6C33.9476 6 37.6276 9.6 37.6276 14Z" fill="#F79E1B"/>
<rect x="0.5" y="0.5" width="47" height="27" rx="3.5" stroke="#EBF0F5"/>
</svg>
