<svg width="48" height="28" viewBox="0 0 48 28" fill="none" xmlns="http://www.w3.org/2000/svg">
<rect x="0.5" y="0.5" width="47" height="27" rx="3.5" fill="white"/>
<path d="M20.4328 14.4674C20.4328 14.6453 20.4255 14.8233 20.4099 15.0012C20.3131 16.1376 19.9119 17.2296 19.2462 18.1685C18.5806 19.1073 17.6736 19.8603 16.6156 20.3525C15.5576 20.8448 14.3855 21.0591 13.2158 20.9741C12.0462 20.8891 10.9198 20.5078 9.94887 19.8681C8.97788 19.2285 8.19612 18.3528 7.68137 17.3282C7.16662 16.3035 6.93684 15.1657 7.01489 14.0279C7.09293 12.8901 7.47608 11.792 8.12621 10.8429C8.77634 9.89382 9.67078 9.1268 10.7205 8.61816C10.5418 8.84026 10.3806 9.07518 10.2383 9.32095C10.2264 9.34052 10.2154 9.361 10.2035 9.38146L10.1971 9.38678C10.1081 9.45736 10.0211 9.53061 9.93634 9.60653C9.83264 9.69905 9.73259 9.79513 9.6362 9.89477C9.61424 9.91701 9.59228 9.93924 9.57215 9.96237C9.55201 9.9855 9.52915 10.0077 9.5081 10.0309C9.47241 10.0691 9.43764 10.1083 9.40469 10.1483C9.33515 10.2275 9.26927 10.3084 9.20521 10.3921C8.92727 10.7518 8.69443 11.1424 8.51162 11.5557C8.49332 11.5966 8.47502 11.6375 8.45854 11.6785C8.44207 11.7194 8.4192 11.7763 8.39999 11.8261C8.38992 11.851 8.38077 11.8751 8.37254 11.9009C8.34417 11.9765 8.31946 12.053 8.29475 12.1295C8.27828 12.1793 8.26364 12.23 8.249 12.2799C8.24076 12.3065 8.23345 12.3341 8.22613 12.3599C8.21332 12.4106 8.19958 12.4613 8.18769 12.5129C8.14834 12.6766 8.11632 12.843 8.09619 13.012C8.08979 13.0538 8.0843 13.101 8.07881 13.1401C8.07332 13.1793 8.07057 13.2068 8.06782 13.2406C8.06233 13.2905 8.05868 13.3403 8.05502 13.3901C8.05545 13.3942 8.05545 13.3984 8.05502 13.4025C8.05502 13.4541 8.0486 13.5057 8.04586 13.5582C8.04586 13.6427 8.04037 13.7273 8.04037 13.8127C8.04312 15.0766 8.47763 16.3038 9.27564 17.3016C10.0737 18.2993 11.19 19.0111 12.4492 19.3251C13.7085 19.6391 15.0394 19.5376 16.2328 19.0364C17.4263 18.5353 18.4147 17.6629 19.0428 16.5563C19.0977 16.4584 19.1508 16.3588 19.1993 16.2582V16.2502C19.541 15.5468 19.7301 14.7824 19.7547 14.0048C19.7547 13.9434 19.7547 13.8812 19.7547 13.8189C19.7547 13.6327 19.7456 13.4488 19.7273 13.2673L19.7556 13.2905C19.8472 13.3634 19.9386 13.439 20.0201 13.5173C20.1024 13.3839 20.1894 13.2549 20.2827 13.1294C20.3366 13.3817 20.3751 13.6369 20.398 13.8936C20.4151 14.0834 20.4236 14.2759 20.4236 14.471" fill="#EA2227"/>
<path d="M19.7632 13.8139C19.7632 13.8761 19.7632 13.9384 19.7632 13.9998C19.7523 14.7791 19.5625 15.5462 19.2078 16.2452V16.2532C19.1593 16.3546 19.1062 16.4542 19.0513 16.5512C18.6298 17.2952 18.0439 17.939 17.3356 18.4363C16.4597 19.05 15.4266 19.4167 14.35 19.496C13.2735 19.5753 12.1953 19.3641 11.2343 18.8857C10.2733 18.4073 9.46672 17.6803 8.90354 16.7848C8.34037 15.8892 8.0424 14.86 8.04248 13.8103C8.04248 13.7213 8.04249 13.6404 8.04798 13.5559C8.04798 13.5043 8.05347 13.4518 8.05713 13.4002C8.05713 13.4002 8.05713 13.3922 8.05713 13.3886C8.05713 13.3388 8.06444 13.2881 8.06993 13.2392C8.06993 13.2054 8.07726 13.1724 8.08092 13.1386C8.08458 13.1048 8.0919 13.0497 8.0983 13.0105C8.1227 12.8421 8.15321 12.6757 8.18981 12.5114C8.20171 12.4598 8.21543 12.4091 8.22824 12.3584C8.23556 12.3317 8.2438 12.305 8.25112 12.2784C8.26576 12.2285 8.28039 12.1778 8.29686 12.128C8.32065 12.0515 8.3472 11.975 8.37465 11.8994C8.38288 11.8745 8.39204 11.8495 8.40302 11.8246C8.42223 11.7748 8.44144 11.7259 8.46065 11.6779C8.47987 11.6298 8.49634 11.596 8.51373 11.5551C8.69653 11.1418 8.92938 10.7512 9.20734 10.3915C9.27139 10.3078 9.33727 10.2269 9.40682 10.1477C9.44067 10.1077 9.47544 10.0685 9.51021 10.0303C9.53126 10.0071 9.55139 9.98401 9.57427 9.96177C9.59715 9.93953 9.61635 9.91641 9.63831 9.89417C9.7347 9.79453 9.83504 9.69845 9.93936 9.60593C10.0235 9.52942 10.1114 9.45646 10.2001 9.38618L10.2056 9.38086L10.1718 9.44314C10.159 9.46538 10.1471 9.48851 10.1352 9.51164C9.78236 10.2356 9.56544 11.0149 9.49466 11.8131C9.47361 12.039 9.46172 12.2694 9.46172 12.5034C9.46172 15.4845 11.2625 17.8999 13.4879 17.8999H13.5153C13.584 17.8999 13.6526 17.9061 13.7221 17.9061C14.1878 17.9062 14.649 17.8171 15.0792 17.6439C15.5095 17.4707 15.9004 17.2168 16.2297 16.8967C16.5589 16.5766 16.8201 16.1965 16.9983 15.7782C17.1764 15.3599 17.268 14.9116 17.2679 14.4588C17.2679 14.4268 17.2679 14.3956 17.2679 14.3636C17.2436 13.4572 16.8515 12.5969 16.1772 11.9705C17.4682 12.0013 18.7125 12.4461 19.7166 13.2356L19.7468 13.2578C19.7651 13.4358 19.7751 13.6235 19.7751 13.8103" fill="#F69220"/>
<path d="M19.7938 13.8143C19.7938 13.8765 19.7938 13.9388 19.7938 14.0011C19.7812 14.7886 19.5883 15.5636 19.2292 16.2696C19.1816 16.3692 19.1276 16.4707 19.0727 16.5676C18.6484 17.3146 18.0598 17.9613 17.3488 18.4616C16.1053 19.3342 14.5609 19.701 13.0437 19.484C11.5265 19.267 10.1561 18.4834 9.22379 17.2996C8.29146 16.1159 7.87066 14.6253 8.05082 13.1447C8.23098 11.6641 8.9979 10.3102 10.1886 9.37059L10.2462 9.3252C10.2344 9.34566 10.2234 9.36525 10.2115 9.38571C10.1996 9.40617 10.1886 9.4275 10.1767 9.44796C9.02309 10.3909 8.28927 11.731 8.12878 13.188C7.96828 14.6449 8.39355 16.1058 9.31561 17.2648C10.2377 18.4239 11.585 19.1913 13.0758 19.4066C14.5666 19.6219 16.0853 19.2683 17.314 18.4198C18.0184 17.924 18.6014 17.283 19.0215 16.5427C19.0764 16.4457 19.1295 16.3461 19.1779 16.2465C19.533 15.5475 19.724 14.7805 19.737 14.0011C19.737 13.9379 19.737 13.8756 19.737 13.8143C19.737 13.6363 19.7279 13.4477 19.7087 13.2654V13.2404L19.7389 13.2627L19.7672 13.2858C19.7837 13.4637 19.7929 13.6417 19.7929 13.8143" fill="#F69220"/>
<path d="M18.1905 10.264C18.1905 10.264 13.4012 9.38594 11.1511 13.4328C11.3696 12.4901 11.8367 11.619 12.5065 10.905C13.1764 10.1911 14.0259 9.65896 14.9714 9.36104L14.2934 8.13069C14.827 7.73896 15.4377 7.45789 16.0876 7.30487C16.7374 7.15185 17.4127 7.13013 18.0716 7.24107L18.1905 10.264Z" fill="#EA2227"/>
<path d="M12.2521 12.4215C12.2521 12.4215 14.1645 9.9902 18.5384 10.6227L18.4853 9.20557C19.6927 9.22086 20.8581 9.63851 21.7868 10.3888L19.9659 13.0576C19.4577 12.5783 18.8557 12.203 18.1955 11.954C17.5353 11.7051 16.8304 11.5876 16.1227 11.6084C14.7831 11.579 13.4553 11.8567 12.2466 12.4189" fill="#F69220"/>
<path d="M10.3679 14.6205C10.3679 14.6205 8.18188 9.98469 13.2613 7L14.4719 9.16802C13.8469 9.40606 13.2703 9.75005 12.769 10.184C11.4543 11.3405 10.6034 12.9122 10.367 14.6205" fill="#F69220"/>
<path d="M29.5628 10.585H23.8236C23.7996 10.585 23.7758 10.5895 23.7536 10.5985C23.7313 10.6074 23.7112 10.6206 23.6942 10.6371C23.6772 10.6536 23.6637 10.6732 23.6545 10.6948C23.6453 10.7164 23.6406 10.7395 23.6406 10.7629V11.1935C23.6406 11.2168 23.6453 11.24 23.6545 11.2616C23.6637 11.2832 23.6772 11.3028 23.6942 11.3193C23.7112 11.3358 23.7313 11.3489 23.7536 11.3578C23.7758 11.3668 23.7996 11.3714 23.8236 11.3714H28.0987V13.6746C27.9763 13.5031 27.8401 13.3413 27.6915 13.1907C27.4911 12.9648 27.2452 12.7811 26.969 12.6511C26.6928 12.521 26.3922 12.4473 26.0856 12.4345C25.8584 12.4389 25.6358 12.4981 25.4379 12.6068C25.24 12.7155 25.073 12.8703 24.9519 13.0572C24.7114 13.3659 24.5723 13.738 24.5529 14.1248C24.5347 14.5683 24.6556 15.0067 24.8997 15.3818C25.0555 15.6037 25.2672 15.783 25.5145 15.9028C25.7618 16.0225 26.0365 16.0787 26.3125 16.0659C26.6088 16.0854 26.9009 15.9905 27.1258 15.802C27.3506 15.6136 27.4901 15.3466 27.514 15.0589C27.5154 14.8959 27.4698 14.7358 27.3823 14.5967C27.2948 14.4577 27.1689 14.3454 27.0189 14.2725L26.7041 14.099V14.4548C26.7033 14.4785 26.6999 14.5021 26.6941 14.5251C26.6905 14.5398 26.6878 14.5546 26.6859 14.5696C26.6397 14.6649 26.5671 14.7458 26.4763 14.8031C26.3854 14.8605 26.2799 14.8921 26.1716 14.8943C25.9647 14.8961 25.7654 14.8184 25.6171 14.6781C25.5285 14.5758 25.4842 14.4441 25.4935 14.3107C25.5014 14.144 25.5658 13.9845 25.6766 13.857C25.7335 13.7809 25.8085 13.7195 25.8952 13.6778C25.9819 13.6361 26.0777 13.6155 26.1744 13.6177C26.467 13.6165 26.7547 13.6911 27.0079 13.8338C27.261 13.9766 27.4704 14.1824 27.6146 14.4299C27.9108 14.8392 28.0754 15.3246 28.0877 15.8249L28.1005 16.9867L28.9442 17.4911C28.972 17.5078 29.0039 17.5169 29.0367 17.5175C29.0694 17.5182 29.1016 17.5103 29.1301 17.4946C29.1586 17.479 29.1824 17.4563 29.1987 17.4287C29.2151 17.4012 29.2235 17.3699 29.2232 17.3381V11.3776H29.5628C29.6113 11.3776 29.6578 11.3588 29.6922 11.3255C29.7265 11.2921 29.7458 11.2469 29.7458 11.1997V10.7691C29.7466 10.7453 29.7425 10.7214 29.7337 10.6991C29.7249 10.6768 29.7115 10.6564 29.6944 10.6393C29.6774 10.6221 29.6569 10.6084 29.6343 10.5991C29.6117 10.5898 29.5873 10.5849 29.5628 10.585Z" fill="#EA2227"/>
<path d="M41.034 10.585H33.7539C33.7054 10.585 33.6588 10.6038 33.6245 10.6371C33.5902 10.6705 33.5709 10.7158 33.5709 10.7629V11.5458C33.3421 11.2509 33.055 11.0034 32.7264 10.818C32.3978 10.6325 32.0344 10.5127 31.6575 10.4658C31.1637 10.4404 30.6761 10.5829 30.2785 10.8688C30.1025 10.9856 29.9576 11.1415 29.8559 11.3236C29.7542 11.5057 29.6987 11.7087 29.6938 11.9159C29.6938 13.156 31.1195 13.1418 31.4718 12.955C31.5415 12.9081 31.6232 12.881 31.7078 12.8767C31.7627 12.8749 31.8172 12.8847 31.8678 12.9053C31.9184 12.9259 31.9639 12.9568 32.0011 12.9959C32.0383 13.0351 32.0665 13.0815 32.0836 13.1322C32.1007 13.1829 32.1065 13.2365 32.1004 13.2894C32.1004 13.5777 31.6776 13.8233 31.1771 13.8233C31.0692 13.8353 30.96 13.8199 30.86 13.7786C30.7601 13.7373 30.6729 13.6714 30.607 13.5875L30.3847 13.2601L30.2346 13.6248C30.1856 13.7283 30.1579 13.8402 30.1532 13.954C30.1595 14.1076 30.2009 14.258 30.2743 14.3941C30.3478 14.5303 30.4514 14.6489 30.5778 14.7413C30.8352 14.9528 31.1623 15.0671 31.4992 15.0634C31.7442 15.0731 31.9881 15.0261 32.2108 14.9263C32.4335 14.8266 32.6286 14.6769 32.7803 14.4895C33.0253 14.1793 33.1544 13.7971 33.1463 13.406C33.1353 13.1391 33.0394 12.882 32.8718 12.6703C32.7866 12.5276 32.6657 12.4081 32.5202 12.323C32.3748 12.238 32.2096 12.19 32.04 12.1837C31.9025 12.1937 31.7666 12.22 31.6356 12.262C31.5715 12.2789 31.4736 12.3055 31.4526 12.3073C31.3724 12.2992 31.2984 12.2616 31.2457 12.2023C31.1729 12.1315 31.1318 12.0356 31.1314 11.9355C31.1421 11.8436 31.1715 11.7547 31.2178 11.674C31.2641 11.5933 31.3265 11.5223 31.4012 11.4651C31.4759 11.408 31.5615 11.3658 31.6531 11.341C31.7447 11.3162 31.8404 11.3093 31.9348 11.3207H31.9577C32.3429 11.3469 32.7031 11.5156 32.9642 11.7922C33.2101 12.0119 33.4175 12.2691 33.5782 12.5538V16.9502L34.4246 17.4369C34.4523 17.4529 34.4839 17.4615 34.5161 17.4618C34.5402 17.4618 34.564 17.4572 34.5862 17.4483C34.6084 17.4393 34.6285 17.4262 34.6455 17.4097C34.6625 17.3931 34.676 17.3735 34.6852 17.3519C34.6944 17.3304 34.6991 17.3072 34.6991 17.2838V11.3759H35.9966V15.2012L37.0298 15.6042C37.0515 15.6129 37.0748 15.6175 37.0983 15.6176C37.1432 15.6179 37.1866 15.6023 37.2203 15.5736C37.254 15.5449 37.2758 15.5052 37.2814 15.4619L37.2859 15.4325C37.3275 14.946 37.4888 14.4764 37.7561 14.0631C38.0235 13.6499 38.3892 13.3052 38.8223 13.0581C38.8223 13.1222 38.8223 13.1916 38.8223 13.2663C38.8223 13.4211 38.8333 13.8375 38.8443 14.067C38.8469 14.1679 38.8549 14.2685 38.868 14.3686C38.8704 14.9088 38.9417 15.4467 39.0803 15.9699C39.3548 16.9209 39.8398 17.1317 40.1985 17.1415H40.2214C40.3071 17.1474 40.3932 17.1367 40.4747 17.1101C40.5562 17.0836 40.6315 17.0416 40.6963 16.9867C40.7438 16.94 40.781 16.8844 40.8055 16.8232C40.8301 16.762 40.8415 16.6966 40.839 16.6309C40.8465 16.4898 40.8186 16.349 40.7576 16.2208L40.6798 16.0829L40.5234 16.1194C40.4399 16.145 40.3528 16.1582 40.2653 16.1585H40.2351C40.2052 16.1607 40.1754 16.1535 40.15 16.138C40.0942 16.1096 39.9881 16.0162 39.9048 15.7146C39.854 15.4876 39.8261 15.2564 39.8215 15.0242C39.8215 13.7912 40.0841 12.8571 40.4904 12.6445L40.5115 12.6347C40.5334 12.624 40.5528 12.6091 40.5687 12.591C40.5845 12.5728 40.5965 12.5517 40.6039 12.529C40.6112 12.5063 40.6138 12.4823 40.6114 12.4586C40.609 12.4349 40.6019 12.4119 40.5902 12.3909L40.5783 12.3687C40.4477 12.1611 40.274 11.9821 40.0684 11.8432C39.8629 11.7043 39.6299 11.6085 39.3842 11.5618L39.3393 11.5503L39.2945 11.5583C38.6639 11.7232 38.0848 12.0364 37.608 12.4701C37.4323 12.6134 37.2695 12.753 37.1194 12.8918V11.3688H41.0348C41.0589 11.3688 41.0827 11.3642 41.1049 11.3552C41.1271 11.3463 41.1473 11.3331 41.1643 11.3166C41.1812 11.3001 41.1948 11.2805 41.204 11.2589C41.2132 11.2373 41.2179 11.2142 41.2179 11.1908V10.7612C41.2174 10.7141 41.1978 10.6692 41.1633 10.6362C41.1288 10.6032 41.0823 10.5848 41.034 10.585Z" fill="#EA2227"/>
<path d="M24.2184 19.1129V19.4554L24.5195 19.3379L24.6109 19.4207C24.6158 19.4531 24.6185 19.4858 24.6191 19.5185C24.625 19.6213 24.5899 19.7223 24.5212 19.8006C24.4848 19.8374 24.4406 19.8661 24.3916 19.8849C24.3427 19.9036 24.2901 19.9119 24.2376 19.9091C24.1739 19.908 24.1112 19.8936 24.0538 19.8669C23.9963 19.8401 23.9454 19.8018 23.9045 19.7543C23.8194 19.6611 23.7543 19.5522 23.7133 19.434L23.7965 19.3807C23.9021 19.6659 24.0521 19.8083 24.2467 19.8077C24.2812 19.8075 24.3153 19.8003 24.3468 19.7867C24.3783 19.7731 24.4065 19.7533 24.4298 19.7285C24.4549 19.7043 24.4748 19.6755 24.4883 19.6437C24.5019 19.6119 24.5087 19.5778 24.5085 19.5435C24.5086 19.513 24.5027 19.4827 24.4911 19.4545L24.2165 19.5701L24.1104 19.4883V19.1129H23.6318V19.0239H24.6896V19.1129H24.2184Z" fill="#231F20"/>
<path d="M24.897 19.1129V19.9064H24.7899V19.1129H24.6572V19.0239H25.0233V19.1129H24.897Z" fill="#231F20"/>
<path d="M25.5994 19.1128V19.1679C25.6833 19.168 25.7654 19.1919 25.8356 19.2364C25.8722 19.2551 25.9031 19.2829 25.9252 19.317C25.9472 19.351 25.9595 19.3901 25.9609 19.4303C25.9616 19.4602 25.9551 19.4899 25.9417 19.5168C25.9283 19.5437 25.9086 19.5671 25.8841 19.5852C25.8357 19.6223 25.7754 19.6418 25.7138 19.6403H25.6891V19.5407H25.744C25.7598 19.5432 25.7759 19.542 25.7912 19.5374C25.8064 19.5327 25.8203 19.5247 25.8318 19.5139C25.8432 19.5031 25.8519 19.4899 25.8572 19.4752C25.8624 19.4605 25.8642 19.4449 25.8621 19.4295C25.8621 19.3405 25.7706 19.2871 25.6004 19.272V19.9116H25.5006C25.4549 19.8242 25.3928 19.7458 25.3176 19.6803C25.2478 19.6113 25.1544 19.5695 25.055 19.5629L25.0221 19.441C25.0852 19.3975 25.2399 19.3067 25.4887 19.1679V19.1163H24.9836V19.0273H26.0286V19.1163H25.5949L25.5994 19.1128ZM25.4924 19.28C25.4375 19.3015 25.3865 19.3316 25.3414 19.369L25.2042 19.4811C25.2609 19.5132 25.3116 19.5545 25.3543 19.603C25.3781 19.6296 25.4238 19.6812 25.4933 19.7568V19.2791L25.4924 19.28Z" fill="#231F20"/>
<path d="M27.4429 18.8691C27.3089 18.7742 27.1506 18.7173 26.9853 18.7046C26.8909 18.6997 26.7977 18.727 26.7219 18.7819C26.6855 18.8111 26.6568 18.8483 26.638 18.8903C26.6193 18.9324 26.611 18.9781 26.6138 19.0239H26.7255V19.1129H26.6194V19.9037H26.5105V19.1129H26.397V19.0239H26.5105C26.5074 18.9649 26.5185 18.906 26.543 18.852C26.5674 18.7979 26.6045 18.7502 26.6514 18.7125C26.7486 18.6398 26.8692 18.6029 26.9918 18.6085C27.0839 18.609 27.1748 18.6281 27.259 18.6645C27.3434 18.7025 27.4245 18.7471 27.5015 18.798L27.4429 18.8691Z" fill="#231F20"/>
<path d="M27.5288 19.1139V19.9092H27.4309C27.3571 19.8108 27.2588 19.7321 27.1454 19.6806C27.037 19.6162 26.9149 19.5767 26.7885 19.565L26.7546 19.4422C26.8549 19.3774 26.9627 19.3246 27.0758 19.2847L27.4253 19.1557V19.1139H26.6824V19.0249H27.6413V19.1139H27.5297H27.5288ZM27.4253 19.2722C27.2571 19.3328 27.0922 19.4017 26.9312 19.4786C27.1123 19.5396 27.2799 19.6332 27.4253 19.7544V19.2722Z" fill="#231F20"/>
<path d="M27.6001 19.0239H28.6249V19.1129H27.6001V19.0239ZM28.183 19.902C28.1211 19.9003 28.0602 19.8857 28.0045 19.8594C27.9488 19.833 27.8995 19.7953 27.86 19.749C27.7748 19.6588 27.7121 19.5507 27.6769 19.4331L27.741 19.3682C27.7745 19.4723 27.8272 19.5697 27.8966 19.6555C27.9278 19.7003 27.9692 19.7374 28.0176 19.764C28.0661 19.7905 28.1202 19.8057 28.1757 19.8085C28.2118 19.8098 28.2478 19.8027 28.2807 19.7881C28.3136 19.7734 28.3424 19.7515 28.3651 19.724C28.4116 19.669 28.4363 19.5995 28.4346 19.5283C28.3744 19.5736 28.3011 19.5991 28.2251 19.6013C28.1595 19.6026 28.096 19.5793 28.0476 19.5363C28.0226 19.5164 28.0025 19.4913 27.9889 19.4628C27.9752 19.4343 27.9684 19.4032 27.9689 19.3718C27.9661 19.3149 27.9865 19.2593 28.0256 19.217C28.0464 19.1974 28.0711 19.1822 28.0982 19.1724C28.1253 19.1626 28.1541 19.1584 28.183 19.16C28.2265 19.1584 28.2693 19.1709 28.3047 19.1956C28.3207 19.2079 28.3334 19.2238 28.3417 19.2419C28.35 19.2601 28.3537 19.2799 28.3523 19.2997C28.3507 19.3198 28.3447 19.3392 28.3348 19.3569C28.3249 19.3745 28.3112 19.3899 28.2946 19.402L28.2223 19.3495C28.2335 19.3441 28.2429 19.3357 28.2494 19.3253C28.2559 19.3149 28.2592 19.303 28.259 19.2908C28.259 19.257 28.237 19.2401 28.1931 19.2401C28.1771 19.2396 28.1612 19.2424 28.1464 19.2482C28.1316 19.254 28.1182 19.2628 28.107 19.2739C28.0953 19.2856 28.0863 19.2996 28.0805 19.3149C28.0746 19.3302 28.0722 19.3466 28.0732 19.3629C28.0726 19.3825 28.0765 19.402 28.0845 19.42C28.0926 19.438 28.1047 19.454 28.1198 19.4669C28.15 19.4938 28.1897 19.5085 28.2306 19.5078C28.2736 19.5073 28.3159 19.4979 28.3549 19.4803C28.3938 19.4627 28.4285 19.4372 28.4566 19.4055L28.5554 19.5052C28.558 19.6071 28.523 19.7065 28.4566 19.7854C28.4235 19.8248 28.3815 19.8562 28.3339 19.8772C28.2863 19.8982 28.2343 19.9082 28.1821 19.9064" fill="#231F20"/>
<path d="M28.8387 19.1129V19.9064H28.7326V19.1129H28.5999V19.0239H28.9659V19.1129H28.8387Z" fill="#231F20"/>
<path d="M29.3707 19.9651C29.2864 19.9757 29.2011 19.955 29.1318 19.9073C29.0572 19.8311 29.0111 19.7328 29.0008 19.6282C28.9905 19.5235 29.0167 19.4185 29.075 19.33C29.1271 19.2529 29.1859 19.1802 29.2507 19.1129H28.9314V19.0239H29.4438V19.1129C29.3516 19.1508 29.2716 19.2123 29.2123 19.2908C29.1461 19.3652 29.108 19.4593 29.1044 19.5577C29.1044 19.7712 29.1959 19.8779 29.3789 19.8779C29.4089 19.8762 29.4375 19.8649 29.4603 19.8459V19.9491C29.4321 19.9632 29.4005 19.97 29.3688 19.9687" fill="#231F20"/>
<path d="M30.0576 19.1129V19.8957H29.9515V19.3736C29.9428 19.3397 29.9272 19.3079 29.9057 19.2801C29.8819 19.2341 29.8459 19.1952 29.8013 19.1674C29.7567 19.1397 29.7051 19.1242 29.6522 19.1226C29.6096 19.1255 29.5697 19.1439 29.5406 19.1742C29.5305 19.184 29.5086 19.2045 29.4729 19.2348C29.5092 19.22 29.5479 19.2116 29.5873 19.2098C29.6338 19.2088 29.6795 19.2218 29.7181 19.2472C29.737 19.2598 29.7523 19.2769 29.7627 19.2968C29.7731 19.3167 29.7783 19.3388 29.7776 19.3611C29.7772 19.4269 29.7518 19.4903 29.7062 19.539C29.6639 19.5918 29.6071 19.6318 29.5424 19.6547L29.4738 19.5657C29.5221 19.5479 29.5659 19.5199 29.6019 19.4838C29.6219 19.4688 29.6386 19.4501 29.651 19.4287C29.6635 19.4073 29.6713 19.3837 29.6742 19.3593C29.6742 19.3344 29.6449 19.3148 29.5827 19.2997C29.5443 19.2889 29.5046 19.2832 29.4646 19.2828C29.4518 19.2828 29.4391 19.2852 29.4271 19.2899L29.374 19.192C29.4103 19.1523 29.4494 19.1151 29.4911 19.0808C29.5343 19.0481 29.5874 19.0302 29.6422 19.0301C29.7049 19.0317 29.766 19.0494 29.8193 19.0815C29.8727 19.1135 29.9164 19.1587 29.9459 19.2125V19.0239H30.1683V19.1129H30.0576Z" fill="#231F20"/>
<path d="M30.9696 19.1139V19.9092H30.8717C30.8009 19.8127 30.7065 19.7348 30.5972 19.6823C30.4908 19.6195 30.3708 19.5814 30.2467 19.5711L30.2129 19.4493C30.418 19.3286 30.6362 19.2301 30.8635 19.1557V19.1139H30.1396V19.0249H31.0675V19.1139H30.976H30.9696ZM30.8653 19.2722C30.6987 19.3281 30.5382 19.3996 30.3858 19.4857C30.5623 19.5428 30.7253 19.6336 30.8653 19.7527V19.2722ZM30.5908 19.9377C30.5452 19.8962 30.493 19.8623 30.4362 19.8372L30.4819 19.7535C30.547 19.781 30.6051 19.822 30.6521 19.8736L30.5908 19.9377Z" fill="#231F20"/>
<path d="M32.4879 18.8692C32.354 18.7742 32.1956 18.7172 32.0304 18.7046C31.9357 18.6995 31.8421 18.7269 31.766 18.7819C31.7296 18.8112 31.7008 18.8483 31.6818 18.8903C31.6629 18.9324 31.6544 18.9781 31.657 19.0239H31.7687V19.1129H31.657V19.9038H31.5482V19.1129H31.4402V19.0239H31.5537C31.5507 18.9649 31.5618 18.9061 31.5863 18.852C31.6107 18.798 31.6478 18.7502 31.6946 18.7126C31.7918 18.6398 31.9124 18.6029 32.035 18.6085C32.1274 18.609 32.2186 18.6281 32.3031 18.6645C32.3871 18.7027 32.4679 18.7473 32.5447 18.798L32.4879 18.8692Z" fill="#231F20"/>
<path d="M32.3002 19.1129V19.4554L32.6003 19.3379L32.6918 19.4207C32.6968 19.4531 32.6995 19.4858 32.7 19.5185C32.7057 19.6213 32.6707 19.7222 32.6021 19.8006C32.5656 19.8374 32.5214 19.8661 32.4725 19.8849C32.4235 19.9036 32.3709 19.9119 32.3184 19.9091C32.2549 19.908 32.1923 19.8936 32.135 19.8669C32.0777 19.8401 32.027 19.8018 31.9863 19.7543C31.9008 19.6613 31.8358 19.5523 31.7951 19.434L31.8783 19.3807C31.9839 19.6659 32.1339 19.8083 32.3285 19.8077C32.363 19.8074 32.397 19.8002 32.4285 19.7866C32.46 19.773 32.4882 19.7532 32.5115 19.7285C32.5366 19.7043 32.5566 19.6755 32.5701 19.6437C32.5836 19.6119 32.5904 19.5778 32.5902 19.5435C32.5901 19.5129 32.5839 19.4827 32.5719 19.4545L32.2974 19.5701L32.1912 19.4883V19.1129H31.7136V19.0239H32.7668V19.1129H32.3002Z" fill="#231F20"/>
<path d="M33.782 18.8692C33.648 18.7743 33.4897 18.7173 33.3245 18.7046C33.2297 18.6996 33.1362 18.7269 33.06 18.782C33.0236 18.8111 32.9947 18.8482 32.9758 18.8903C32.9569 18.9323 32.9484 18.9781 32.9511 19.0239H33.0627V19.1129H32.9511V19.9038H32.8422V19.1129H32.7288V19.0239H32.8422C32.8392 18.9649 32.8504 18.9061 32.8749 18.8521C32.8993 18.798 32.9364 18.7502 32.9832 18.7126C33.0807 18.6397 33.2016 18.6028 33.3245 18.6085C33.4165 18.6091 33.5075 18.6281 33.5916 18.6645C33.6757 18.7026 33.7565 18.7473 33.8332 18.798L33.782 18.8692Z" fill="#231F20"/>
<path d="M33.7024 19.113C33.7161 19.1626 33.7476 19.2058 33.7913 19.2347C33.8349 19.2636 33.8879 19.2762 33.9403 19.2704C33.9565 19.2714 33.9727 19.2714 33.9888 19.2704L34.0694 19.3656C34.0197 19.4517 33.9885 19.5468 33.9778 19.645C33.9688 19.7368 33.9863 19.8292 34.0282 19.9119L33.9559 19.9492C33.9051 19.8766 33.8789 19.7905 33.8809 19.7028C33.8808 19.6484 33.8869 19.594 33.8991 19.5409C33.9046 19.5184 33.9208 19.462 33.9477 19.3719C33.8684 19.3638 33.7923 19.3369 33.7262 19.2936C33.6927 19.2733 33.6637 19.2467 33.6409 19.2154C33.6181 19.1841 33.602 19.1486 33.5935 19.1112C33.5461 19.1374 33.5059 19.1744 33.4764 19.219C33.4469 19.2637 33.429 19.3146 33.4242 19.3674C33.4242 19.427 33.449 19.4564 33.4993 19.4564C33.5287 19.4554 33.5573 19.4472 33.5825 19.4324C33.6083 19.4198 33.63 19.4004 33.6448 19.3763H33.7536C33.7811 19.4291 33.7931 19.4881 33.7884 19.5471C33.7884 19.7487 33.6795 19.8496 33.4618 19.8496C33.4181 19.8488 33.3751 19.8381 33.3364 19.8185C33.319 19.8105 33.2815 19.7891 33.2257 19.7544C33.19 19.7001 33.1443 19.6156 33.0848 19.5008L33.1451 19.4448C33.1821 19.5379 33.2337 19.625 33.298 19.7028L33.3034 19.6957L33.3766 19.7313C33.4005 19.7443 33.4271 19.7516 33.4544 19.7526C33.5118 19.755 33.5682 19.7384 33.6146 19.7055C33.6371 19.6886 33.6551 19.6667 33.6671 19.6416C33.679 19.6165 33.6845 19.589 33.6832 19.5614C33.6839 19.5296 33.6742 19.4985 33.6557 19.4724C33.6356 19.4968 33.6103 19.5167 33.5816 19.5309C33.5529 19.545 33.5213 19.5529 33.4892 19.5542C33.4647 19.5556 33.4403 19.5514 33.4179 19.5418C33.3954 19.5322 33.3756 19.5176 33.3602 19.4991C33.3291 19.4596 33.3132 19.4108 33.3153 19.3612C33.3233 19.2693 33.3618 19.1825 33.4251 19.1138H33.0125V19.0249H34.1471V19.1138L33.7024 19.113Z" fill="#231F20"/>
<path d="M34.3151 19.1128V19.8058H34.3736C34.468 19.8071 34.561 19.7834 34.6426 19.7373C34.6864 19.7214 34.7247 19.6937 34.7531 19.6575C34.7814 19.6213 34.7986 19.578 34.8027 19.5327C34.8027 19.4438 34.7579 19.3948 34.6682 19.3948C34.6196 19.4035 34.5732 19.4216 34.5319 19.4482L34.4898 19.3592C34.5546 19.3152 34.6323 19.2927 34.7113 19.2952C34.7407 19.2942 34.77 19.3002 34.7966 19.3125C34.8233 19.3249 34.8464 19.3434 34.8641 19.3664C34.8978 19.4138 34.9148 19.4706 34.9125 19.5283C34.9111 19.5753 34.8985 19.6213 34.8758 19.6628C34.8532 19.7043 34.821 19.7401 34.7817 19.7676C34.7067 19.8271 34.6178 19.8677 34.5228 19.8859C34.4188 19.9026 34.3134 19.9097 34.208 19.9072V19.1137H34.1165V19.0247H34.757V18.9971C34.7571 18.9688 34.7503 18.941 34.7371 18.9157C34.7238 18.8905 34.7046 18.8687 34.681 18.8522C34.6344 18.8174 34.5769 18.7992 34.5182 18.8006C34.4058 18.8112 34.2975 18.8468 34.2016 18.9046L34.1696 18.8317C34.2761 18.7618 34.4007 18.7224 34.5292 18.7178C34.6168 18.7164 34.7015 18.7483 34.7653 18.8068C34.7973 18.8343 34.8226 18.8683 34.8397 18.9065C34.8568 18.9446 34.8651 18.9858 34.8641 19.0274H34.9858V19.1164L34.3151 19.1128Z" fill="#231F20"/>
<path d="M35.2055 19.1129V19.9064H35.0985V19.1129H34.9658V19.0239H35.3272V19.1129H35.2055Z" fill="#231F20"/>
<path d="M36.2714 19.1136V19.9071H36.1717C36.1717 19.8884 36.1717 19.8608 36.1717 19.8253C36.1717 19.7897 36.1717 19.7621 36.1717 19.7434C36.1717 19.5566 36.1232 19.4631 36.0253 19.4631C36.007 19.4638 35.9891 19.4689 35.9732 19.4777C35.9573 19.4865 35.9438 19.4989 35.9338 19.5139C35.9111 19.5423 35.8974 19.5767 35.8944 19.6126H35.7718C35.7697 19.5741 35.756 19.537 35.7325 19.5059C35.7216 19.4892 35.7065 19.4754 35.6887 19.4659C35.6708 19.4563 35.6508 19.4513 35.6304 19.4513C35.6101 19.4513 35.5901 19.4563 35.5722 19.4659C35.5544 19.4754 35.5393 19.4892 35.5284 19.5059C35.5047 19.5406 35.4929 19.5817 35.4945 19.6233C35.4945 19.7212 35.5556 19.7701 35.6776 19.7701H35.716L35.6803 19.8733H35.6391C35.6039 19.8743 35.5688 19.8682 35.5362 19.8551C35.5035 19.8421 35.474 19.8225 35.4497 19.7977C35.4003 19.7464 35.3737 19.6784 35.3756 19.6082C35.3727 19.5381 35.3984 19.4697 35.447 19.4178C35.4719 19.3931 35.5019 19.3739 35.535 19.3613C35.5682 19.3487 35.6036 19.3431 35.6391 19.3448C35.6822 19.3477 35.7237 19.3617 35.7593 19.3855C35.7949 19.4093 35.8232 19.442 35.8414 19.4801C35.9036 19.3911 35.9667 19.3448 36.0317 19.3448C36.0967 19.3448 36.1314 19.3867 36.168 19.4712V19.1153H35.2905V19.0264H36.3721V19.1153H36.2668L36.2714 19.1136Z" fill="#231F20"/>
<path d="M36.9167 19.5522C36.9169 19.61 36.9301 19.667 36.9552 19.7194C36.9637 19.7473 36.9808 19.772 37.0042 19.7901C37.0276 19.8083 37.0562 19.819 37.086 19.8209C37.1141 19.8203 37.1415 19.8126 37.1656 19.7986L37.1986 19.8876C37.1663 19.9059 37.1297 19.9157 37.0924 19.916C36.9143 19.916 36.8252 19.7799 36.8252 19.5077C36.8381 19.4112 36.8713 19.3183 36.9226 19.2348C36.9739 19.1512 37.0423 19.0788 37.1235 19.022H37.2781V19.1109C37.2263 19.119 37.1767 19.1371 37.1323 19.1642C37.0878 19.1912 37.0494 19.2266 37.0192 19.2684C36.953 19.3486 36.9168 19.4484 36.9167 19.5513" fill="#231F20"/>
<path d="M38.1773 19.1139V19.9074H38.0776C38.0776 19.8887 38.0776 19.8612 38.0776 19.8256C38.0776 19.79 38.0776 19.7624 38.0776 19.7437C38.0776 19.5569 38.0287 19.4635 37.9311 19.4635C37.9128 19.4642 37.895 19.4692 37.879 19.478C37.8631 19.4868 37.8496 19.4992 37.8397 19.5142C37.8171 19.5427 37.8034 19.577 37.8003 19.613H37.685C37.6832 19.5743 37.6695 19.5371 37.6456 19.5062C37.6352 19.4899 37.6209 19.4763 37.6038 19.4667C37.5867 19.4571 37.5675 19.4517 37.5477 19.451C37.5267 19.4503 37.5058 19.4548 37.4871 19.4642C37.4683 19.4735 37.4524 19.4874 37.4407 19.5044C37.4176 19.5394 37.4062 19.5804 37.4078 19.6219C37.4078 19.7197 37.4681 19.7686 37.5907 19.7686H37.6292L37.5935 19.8718H37.5523C37.517 19.873 37.4819 19.8669 37.4493 19.8538C37.4166 19.8408 37.3872 19.8212 37.3629 19.7962C37.3163 19.7433 37.2907 19.6759 37.2907 19.6063C37.2907 19.5366 37.3163 19.4692 37.3629 19.4163C37.3878 19.3918 37.4176 19.3727 37.4506 19.3601C37.4835 19.3475 37.5188 19.3419 37.5542 19.3434C37.5971 19.3463 37.6385 19.3603 37.6739 19.3841C37.7093 19.4079 37.7375 19.4406 37.7555 19.4786C37.8168 19.3897 37.8808 19.3434 37.9467 19.3434C38.0126 19.3434 38.0456 19.3852 38.0822 19.4697V19.1139H37.2046V19.0249H38.2871V19.1139H38.1819H38.1773Z" fill="#231F20"/>
<path d="M39.0936 19.1129V19.9064H38.9874V19.8459C38.983 19.7975 38.9685 19.7506 38.9448 19.7079C38.921 19.6652 38.8885 19.6277 38.8493 19.5977C38.7823 19.5236 38.6887 19.4774 38.5876 19.4687C38.5502 19.4685 38.5139 19.4818 38.486 19.5061C38.4728 19.5171 38.462 19.5307 38.4546 19.5461C38.4472 19.5614 38.4433 19.5781 38.443 19.595C38.4426 19.6125 38.4459 19.6298 38.4528 19.6459C38.4598 19.662 38.4702 19.6765 38.4833 19.6884C38.51 19.7129 38.5454 19.7264 38.5821 19.7258C38.606 19.7256 38.6296 19.7207 38.6516 19.7116L38.6846 19.8095C38.6426 19.8263 38.5973 19.8338 38.5519 19.8317C38.5222 19.8321 38.4927 19.8261 38.4656 19.8141C38.4386 19.8021 38.4146 19.7844 38.3954 19.7623C38.3547 19.7177 38.3326 19.66 38.3332 19.6004C38.3322 19.5691 38.3378 19.538 38.3496 19.509C38.3614 19.4799 38.3792 19.4535 38.4019 19.4313C38.4237 19.4087 38.4503 19.3908 38.4798 19.3789C38.5092 19.3669 38.541 19.3612 38.5729 19.362C38.6599 19.3676 38.7439 19.3952 38.8166 19.442C38.8893 19.4888 38.9482 19.5532 38.9874 19.6289V19.1129H38.2454V19.0239H39.1851V19.1129H39.0936Z" fill="#231F20"/>
<path d="M39.5913 19.9652C39.507 19.9758 39.4218 19.9551 39.3525 19.9074C39.3087 19.8627 39.2745 19.8101 39.2517 19.7526C39.2289 19.695 39.2181 19.6337 39.2198 19.572C39.2217 19.486 39.2483 19.4022 39.2966 19.3301C39.3482 19.2534 39.4064 19.181 39.4705 19.1138H39.1511V19.0249H39.6635V19.1138C39.5711 19.1519 39.4909 19.2134 39.4312 19.2918C39.3652 19.3664 39.3271 19.4604 39.3231 19.5587C39.3231 19.7722 39.4146 19.879 39.5976 19.879C39.6279 19.8771 39.6568 19.8659 39.68 19.8469V19.9501C39.6518 19.9642 39.6203 19.971 39.5885 19.9697" fill="#231F20"/>
<path d="M39.7099 19.1137V19.4695C39.8431 19.3822 39.985 19.3083 40.1336 19.2489L40.2379 19.3815C40.1934 19.4751 40.1664 19.5758 40.1583 19.6787C40.1609 19.756 40.177 19.8324 40.2059 19.9046L40.1271 19.9402C40.0958 19.871 40.0758 19.7974 40.0677 19.7222C40.0682 19.6117 40.0795 19.5015 40.1015 19.393C39.9519 19.4598 39.8134 19.5479 39.6907 19.6546L39.5992 19.5728V19.1173H39.5168V19.0283H40.3093V19.1173H39.7062L39.7099 19.1137Z" fill="#231F20"/>
<path d="M41.1188 19.1129V19.9064H41.0125V19.8459C41.0081 19.7975 40.9936 19.7506 40.9699 19.7079C40.9461 19.6652 40.9136 19.6277 40.8744 19.5977C40.8074 19.5236 40.7137 19.4775 40.6126 19.4687C40.5752 19.4684 40.539 19.4817 40.5111 19.5061C40.4978 19.5171 40.487 19.5307 40.4796 19.546C40.4722 19.5614 40.4683 19.5781 40.4681 19.595C40.4677 19.6124 40.4711 19.6297 40.4778 19.6457C40.4846 19.6618 40.4946 19.6763 40.5074 19.6884C40.5343 19.7131 40.5702 19.7266 40.6072 19.7258C40.6314 19.7257 40.6554 19.7208 40.6777 19.7116L40.7088 19.8095C40.6668 19.8263 40.6215 19.8339 40.5761 19.8317C40.5465 19.832 40.5171 19.826 40.4902 19.814C40.4633 19.802 40.4395 19.7843 40.4205 19.7623C40.3795 19.7178 40.357 19.6601 40.3574 19.6004C40.3565 19.5691 40.3621 19.5381 40.3739 19.509C40.3857 19.48 40.4034 19.4535 40.426 19.4313C40.4479 19.4087 40.4745 19.3909 40.504 19.379C40.5334 19.367 40.5652 19.3612 40.5971 19.362C40.6842 19.3675 40.7684 19.3951 40.8413 19.4419C40.9141 19.4887 40.9731 19.5531 41.0125 19.6289V19.1129H40.2705V19.0239H41.212V19.1129H41.1188Z" fill="#231F20"/>
<path d="M13.2584 13.3704C13.2584 13.3704 12.8493 13.4594 12.8603 13.2557C12.8658 13.1872 12.9079 13.1613 12.9518 13.1667C12.9518 13.1293 12.8722 13.0217 13.0507 12.9799C13.1034 12.9186 13.1474 12.8507 13.1815 12.7779C13.1989 12.7263 13.2483 12.6551 13.4103 12.689C13.5536 12.7272 13.6813 12.8073 13.7763 12.9185C13.8678 12.9185 13.9703 12.9354 13.9346 12.9541C13.8989 12.9728 13.8778 13.0074 13.8852 13.0128C13.8925 13.0181 13.9438 13.0466 13.7781 13.0501C13.7836 13.0839 13.8156 13.0928 13.844 13.1088C13.8724 13.1249 13.8358 13.1462 13.844 13.1534C13.8522 13.1605 13.8669 13.2423 13.7836 13.2067C13.7003 13.1712 13.6921 13.148 13.6711 13.1516C13.65 13.1551 13.5878 13.164 13.5969 13.1863C13.6061 13.2085 13.6885 13.2601 13.5841 13.2752C13.5631 13.2939 13.6171 13.3232 13.5768 13.3384C13.5366 13.3535 13.3618 13.4869 13.2776 13.5163C13.1952 13.5163 13.1687 13.494 13.176 13.4611C13.1833 13.4282 13.22 13.4033 13.273 13.398C13.273 13.3757 13.2794 13.3588 13.2657 13.3606" fill="#EC1C24"/>
<path d="M13.2205 13.7958C13.1802 13.7958 13.064 13.7202 13.129 13.6775C13.255 13.591 13.3874 13.5137 13.5252 13.4462C13.5856 13.4293 13.6661 13.5076 13.592 13.5672C13.5178 13.6268 13.2259 13.7967 13.2259 13.7967" fill="#EC1C24"/>
<path d="M13.6462 13.6043C13.6556 13.5212 13.6709 13.4389 13.692 13.3579C13.692 13.3241 13.8311 13.3099 13.799 13.454C13.767 13.5981 13.6536 13.6488 13.6462 13.6043Z" fill="#EC1C24"/>
<path d="M13.8373 13.294C14.1116 13.2776 14.3866 13.2776 14.6608 13.294C14.7568 13.3988 14.8295 13.5217 14.8744 13.655C14.9192 13.7884 14.9353 13.9293 14.9216 14.0689C14.8585 14.4167 14.7478 14.5057 14.2555 14.5626C14.2522 14.3995 14.2273 14.2374 14.1813 14.0805C14.1329 14.0013 13.9682 13.8189 13.8922 13.8216C13.8922 13.9025 13.8767 14.1445 13.8767 14.1445C13.8767 14.1445 13.6332 14.1614 13.6021 14.1125C13.5976 14.0235 13.6021 13.7495 13.6021 13.7495C13.6897 13.6789 13.7694 13.5996 13.8401 13.5129C13.8767 13.5325 13.8821 13.6454 14.1557 13.6205C14.1503 13.5947 13.8309 13.6268 13.8401 13.2949" fill="#EC1C24"/>
<path d="M13.5465 13.6187C13.5465 13.6187 13.3049 13.8171 13.2573 13.8544C13.2317 13.9185 13.2042 14.1213 13.519 14.1213C13.5391 13.9976 13.5465 13.6187 13.5465 13.6187Z" fill="#EC1C24"/>
<path d="M12.9659 13.9205C12.8927 13.9205 12.8287 13.9019 12.8369 13.8423C12.8506 13.8071 12.8762 13.7775 12.9094 13.7583C12.9426 13.739 12.9816 13.7313 13.0199 13.7364C13.0885 13.7506 13.2029 13.7809 13.2029 14.0353C13.3071 14.1336 13.4441 14.1923 13.5891 14.2007C13.7721 14.2105 13.8855 14.1883 13.8855 14.2425V14.5877C13.6005 14.5224 13.3358 14.3912 13.1141 14.2052C13.0896 14.1809 13.0707 14.1519 13.0586 14.12C13.0464 14.0881 13.0413 14.0541 13.0437 14.0201C13.0391 13.9632 12.9979 13.9205 12.9723 13.9196" fill="#EC1C24"/>
<path d="M12.7997 13.9604C12.7082 13.9604 12.4419 14.1757 12.6386 14.2656C12.6761 14.2332 12.711 14.1981 12.7429 14.1606C12.7429 14.1606 12.6944 14.2851 12.7988 14.3163C12.9031 14.3474 12.8628 14.254 12.9196 14.2576C12.9516 14.3083 12.9598 14.3394 13.011 14.3394C13.0623 14.3394 13.0788 14.1873 13.011 14.101C12.9433 14.0147 12.8985 13.964 12.7978 13.9604" fill="#EC1C24"/>
<path d="M13.9333 13.9888V14.6711C13.9333 14.6711 14.1676 14.6008 14.1905 14.5439C14.1813 14.4255 14.1429 13.9852 13.9333 13.9896" fill="#EC1C24"/>
<path d="M13.3729 14.4389C13.5148 14.5331 13.6642 14.6164 13.8195 14.688C13.7947 14.7182 13.6785 14.8659 13.6364 14.8526C13.5134 14.7384 13.4221 14.5958 13.3711 14.438" fill="#EC1C24"/>
<path d="M12.404 14.8294H12.0499L12.0261 14.6978H12.404V14.8294Z" fill="#EC1C24"/>
<path d="M14.8094 14.8196H16.1188V14.6274H14.5486L14.8094 14.8196Z" fill="#EC1C24"/>
<path d="M14.2504 14.6151C14.2788 14.5866 14.4581 14.7298 14.4069 14.7565C14.2185 14.8441 14.0222 14.9144 13.8204 14.9664C13.7728 14.9504 13.7883 14.8303 13.8359 14.8063C13.9825 14.7615 14.122 14.6971 14.2504 14.6151Z" fill="#EC1C24"/>
<path d="M13.7073 14.9372C13.6487 14.9078 13.3349 15.2041 13.4721 15.2254C13.6609 15.2537 13.8474 15.2948 14.0303 15.3482C14.1081 15.3144 14.1813 15.2512 14.1676 15.2147C14.2215 15.2147 14.3131 15.2984 14.3826 15.2672C14.5544 15.1671 14.7159 15.0512 14.8648 14.9211C14.7737 14.8439 14.6643 14.7898 14.5464 14.7637C14.4768 14.7637 13.959 15.0635 13.7055 14.9416" fill="#EC1C24"/>
<path d="M13.5427 15.3115C13.7149 15.3709 13.8926 15.4138 14.0734 15.4396C14.1732 15.4209 14.1924 15.3266 14.2482 15.332C14.304 15.3373 14.3315 15.3871 14.4257 15.332C14.5304 15.2628 14.6278 15.1838 14.7167 15.0962C14.7222 15.1567 14.7167 15.3213 14.3507 15.4814C13.9847 15.6415 13.1382 15.8773 13.1163 15.9903C13.1903 15.9901 13.2628 15.9701 13.3258 15.9324C13.3699 15.9732 13.4029 16.024 13.4218 16.0802C13.4406 16.1364 13.4448 16.1963 13.4338 16.2545C13.4119 16.4324 13.2719 16.7394 13.2719 16.8256C13.2719 16.9119 13.2636 17.2918 13.2719 17.3309C13.2801 17.3701 13.3451 17.588 13.2371 17.572C13.1664 17.5577 13.0939 17.5541 13.022 17.5613C12.979 17.5693 12.893 17.637 12.8171 17.6272C12.7411 17.6174 12.6121 17.5801 12.6176 17.5436C12.6231 17.5071 12.7091 17.5071 12.7796 17.4804C12.85 17.4537 12.9012 17.3754 13.0412 17.3256C13.0358 17.2366 12.9946 16.5747 12.9946 16.4359C12.9677 16.2532 12.9727 16.0673 13.0092 15.8862C13.0724 15.7634 13.3963 15.3097 13.5464 15.3159" fill="#EC1C24"/>
<path d="M14.0601 15.7081C14.05 15.7508 14.3053 16.3504 14.4142 16.3602C14.8498 16.2846 15.2899 16.2361 15.7319 16.2152C15.7895 16.2908 15.9149 16.4358 15.9057 16.5159C15.9172 16.5841 15.9206 16.6533 15.9158 16.7223C15.9441 16.724 15.9724 16.7179 15.9972 16.7045C16.022 16.691 16.0424 16.671 16.0558 16.6467C16.0665 16.5251 16.0708 16.403 16.0686 16.281C16.0759 16.2348 16.1967 15.9981 16.0329 16.0026C15.7697 16.0128 15.5061 16.0006 15.2451 15.9661C15.0572 15.9085 14.8592 15.8885 14.6631 15.9074C14.5793 15.9583 14.5149 16.0345 14.4801 16.1244C14.4444 16.1324 14.4334 16.0978 14.4691 15.9955C14.5487 15.8138 14.5981 15.621 14.6155 15.4243C14.4911 15.467 14.0665 15.7081 14.0665 15.7081" fill="#EC1C24"/>
<path d="M13.4832 14.7636C13.4938 14.801 13.5132 14.8354 13.5399 14.8641L12.7265 14.8134C12.7265 14.8134 12.635 14.7565 12.6697 14.7432L13.4832 14.7636Z" fill="#EC1C24"/>
<path d="M12.5906 14.698H13.4041C13.3696 14.6527 13.3416 14.603 13.3208 14.5503C13.1781 14.5503 12.5705 14.5619 12.5705 14.5619C12.5705 14.5619 12.479 14.5557 12.479 14.7105C12.479 14.7523 12.544 14.8146 12.587 14.6989" fill="#EC1C24"/>
<path d="M11.8093 14.8313H11.9758C11.9758 14.8313 12.0298 14.809 11.9758 14.7423C11.9218 14.6755 11.8166 14.6453 11.8925 14.5359C11.8138 14.5225 11.6985 14.4994 11.7177 14.7423H11.6372C11.624 14.6982 11.5951 14.6601 11.5558 14.6347C11.5164 14.6094 11.4691 14.5983 11.4222 14.6035C11.199 14.6397 10.9812 14.7022 10.7734 14.7894C10.9873 14.8493 11.2049 14.8956 11.425 14.9282C11.4685 14.9241 11.5105 14.9107 11.5482 14.889C11.5858 14.8673 11.6181 14.8379 11.6427 14.8027H11.7077C11.7225 14.8505 11.7434 14.8962 11.7699 14.9389C11.7699 15.0047 11.7699 15.0928 11.7699 15.0928C11.7466 15.1022 11.7273 15.1191 11.715 15.1405C11.7027 15.162 11.6982 15.1869 11.7022 15.2111C11.7132 15.3001 11.7644 15.3001 11.78 15.3001C11.7955 15.3001 11.8175 15.2716 11.8825 15.2716C11.897 15.2426 11.8998 15.2092 11.8903 15.1783C11.8809 15.1473 11.8598 15.1209 11.8312 15.1043C11.8312 15.0518 11.8257 14.994 11.8257 14.994C11.8257 14.994 11.8934 14.9522 11.8852 14.9149C11.877 14.8775 11.8074 14.8793 11.8074 14.8259" fill="#EC1C24"/>
<path d="M12.7977 15.5946H12.8022C12.8391 15.5668 12.8654 15.528 12.8773 15.4842V15.478C12.8773 15.478 12.87 15.1168 12.87 15.0128C12.87 14.8935 12.6631 14.8161 12.6549 14.8126L12.6421 14.8081L12.632 14.817C12.6006 14.8462 12.5612 14.8659 12.5186 14.874C12.4937 14.8754 12.4688 14.871 12.446 14.861C12.4232 14.8511 12.4032 14.836 12.3877 14.817L12.3813 14.8108H12.3722C12.2056 14.8108 12.1251 15.0056 12.1214 15.0136V15.0207C12.1131 15.1641 12.1131 15.3079 12.1214 15.4513C12.1372 15.496 12.1621 15.5372 12.1946 15.5723C12.1617 15.6862 11.9924 16.3036 12.2193 16.3819V16.4877H12.7684V16.3765C12.9752 16.2875 12.8434 15.7538 12.7995 15.5972M12.1681 15.0261C12.1782 15.0029 12.2468 14.8597 12.3676 14.8535C12.3869 14.8744 12.4109 14.8909 12.4376 14.9017C12.4644 14.9124 12.4933 14.9173 12.5222 14.9158C12.5714 14.9094 12.6173 14.8886 12.654 14.8562C12.7116 14.8802 12.8297 14.9451 12.8297 15.0118C12.8297 15.1115 12.8361 15.4397 12.837 15.4753C12.8282 15.5058 12.8107 15.5333 12.7867 15.5545H12.6787V15.3526H12.3127V15.5492H12.2377C12.2088 15.5184 12.1864 15.4825 12.1718 15.4433C12.1638 15.305 12.1638 15.1662 12.1718 15.0279M12.5515 16.2947H12.4527C12.4411 16.2947 12.4301 16.2902 12.422 16.2823C12.4138 16.2744 12.4092 16.2636 12.4092 16.2524C12.4092 16.2412 12.4138 16.2305 12.422 16.2226C12.4301 16.2147 12.4411 16.2102 12.4527 16.2102H12.5515C12.563 16.2102 12.5741 16.2147 12.5822 16.2226C12.5904 16.2305 12.595 16.2412 12.595 16.2524C12.595 16.2636 12.5904 16.2744 12.5822 16.2823C12.5741 16.2902 12.563 16.2947 12.5515 16.2947ZM12.7565 16.3383L12.4884 16.0474L12.2422 16.3445C12.0766 16.292 12.1818 15.7965 12.2422 15.5901L12.7574 15.5981C12.816 15.8027 12.9111 16.2644 12.7574 16.3383" fill="#EC1C24"/>
<path d="M12.6776 15.7993C12.695 15.7779 12.703 15.7506 12.6999 15.7235C12.6968 15.6964 12.6829 15.6715 12.6612 15.6543H12.34C12.2375 15.6543 12.2704 15.7931 12.2704 15.7931L12.4736 15.9621C12.5514 15.9207 12.6206 15.8655 12.6776 15.7993Z" fill="#EC1C24"/>
<path d="M12.5457 15.995L12.7378 16.2201C12.7378 16.2201 12.7177 15.9532 12.7104 15.8643C12.6646 15.8714 12.5457 15.9923 12.5457 15.9923" fill="#EC1C24"/>
<path d="M12.2621 15.8667C12.2547 15.9557 12.2346 16.2226 12.2346 16.2226L12.4268 15.9975C12.4268 15.9975 12.3078 15.8765 12.2621 15.8694" fill="#EC1C24"/>
<path d="M12.6431 15.2842H12.677V15.2521C12.677 15.2434 12.6734 15.2351 12.6671 15.2289C12.6607 15.2227 12.6521 15.2192 12.6431 15.2192H12.3403C12.3313 15.2192 12.3227 15.2227 12.3163 15.2289C12.31 15.2351 12.3064 15.2434 12.3064 15.2521V15.2842H12.6431Z" fill="#EC1C24"/>
<path d="M12.2019 16.5161H12.1663V16.5517C12.1663 16.561 12.17 16.5699 12.1766 16.5765C12.1833 16.5832 12.1924 16.5871 12.2019 16.5873H12.7674C12.7771 16.5873 12.7864 16.5835 12.7933 16.5769C12.8002 16.5702 12.804 16.5612 12.804 16.5517V16.5161H12.2019Z" fill="#EC1C24"/>
<rect x="0.5" y="0.5" width="47" height="27" rx="3.5" stroke="#EBF0F5"/>
</svg>
