<svg width="48" height="28" viewBox="0 0 48 28" fill="none" xmlns="http://www.w3.org/2000/svg">
<rect x="0.5" y="0.5" width="47" height="27" rx="3.5" fill="white"/>
<g clip-path="url(#clip0_10140_10503)">
<path d="M26.0956 4.21564C26.5986 3.92821 27.2453 4.16773 27.5327 4.62282C28.0118 5.38929 28.4429 6.17971 28.898 6.97013C29.4489 6.44318 30.1914 6.0839 30.9818 6.1318C31.5806 6.10785 32.1315 6.6827 32.1076 7.2815C32.1076 8.47911 32.1315 9.67671 32.1076 10.8743C32.6345 10.6108 33.2333 10.5629 33.8082 10.7067C34.383 10.9462 34.7663 11.4971 34.9339 12.0719C35.4609 11.6168 35.9399 11.0899 36.5387 10.7067C37.3291 10.4911 38.2872 10.7067 38.7663 11.4252C39.2693 12.1438 39.1016 13.2216 38.4788 13.8204C37.9279 14.3953 37.3291 14.9462 36.7782 15.521C37.401 16.1198 37.9998 16.7426 38.5986 17.3653C39.2932 18.0839 39.1735 19.3773 38.383 19.9761C37.7842 20.4791 36.8501 20.5031 36.1794 20.1198C35.7244 19.7845 35.3651 19.3534 34.9339 18.9701C34.7663 19.5929 34.3112 20.1917 33.6645 20.3594C32.8501 20.4073 32.0597 20.3833 31.2453 20.3833C31.2453 19.8085 31.2453 19.2336 31.2453 18.6827C30.5507 19.4971 29.5926 20.1438 28.5627 20.4312C27.6525 20.4791 26.7423 20.4552 25.8321 20.4552C25.1375 20.4552 24.6106 19.9282 24.1794 19.4492C23.0537 21.6528 20.8741 23.3055 18.4309 23.7126C16.395 24.0959 14.2154 23.6408 12.5148 22.4432C10.7184 21.2695 9.47285 19.3534 9.11357 17.2695C8.73034 15.2336 9.20938 13.054 10.3591 11.3534C11.6285 9.46114 13.7363 8.16773 15.9878 7.90426C19.1255 7.44917 22.407 9.10186 23.9639 11.8564C24.1794 11.6408 24.395 11.4492 24.6106 11.2336C23.916 10.5869 23.2214 9.91623 22.5986 9.17372C22.2154 8.4312 22.1435 7.49707 22.5986 6.75456C22.8381 6.39528 23.1016 5.94019 23.5806 5.86833C23.9878 5.74857 24.3711 5.89228 24.7303 6.05995C24.8741 5.24558 25.401 4.57492 26.0956 4.21564ZM25.5447 6.6827C25.9519 7.80845 26.7184 8.74258 27.1974 9.82043C26.2633 8.83839 25.3052 7.90426 24.3711 6.92222C24.2034 6.75456 23.9878 6.49109 23.7244 6.65875C23.0537 7.16174 22.886 8.23959 23.4609 8.88629C24.2513 9.74857 25.1136 10.5629 25.9279 11.4013C25.0657 11.6408 24.5627 12.4312 23.9399 12.9821C23.6046 13.3653 23.0537 13.6767 23.1016 14.2516C23.1016 15.3534 23.1016 16.4312 23.1016 17.533C23.8441 17.3893 24.7064 17.1258 25.0657 16.3833C25.2094 15.8324 25.1136 15.2576 25.1375 14.6827C25.6645 14.1558 26.2154 13.5091 27.0297 13.5091C28.1076 13.3893 29.0896 14.2755 29.2333 15.3055C29.377 16.2396 28.6824 17.1498 27.8441 17.4851C27.2214 17.557 26.5028 17.6528 25.9519 17.3174C25.1854 16.9102 24.3232 17.3174 23.6525 17.7486C24.0836 18.1797 24.5387 18.6348 24.9699 19.0659C25.2333 19.3055 25.4729 19.6168 25.8561 19.6168C26.6226 19.6408 27.3651 19.6168 28.1315 19.6408C28.7303 19.6887 29.2333 19.3534 29.7124 19.042C30.7423 18.3953 31.3172 17.2456 31.5327 16.0719C31.6525 15.4013 31.389 14.7546 31.2932 14.1079C31.2453 11.7605 31.3172 9.38929 31.2693 7.04198C30.6465 6.92222 29.9279 7.11384 29.5447 7.66474C29.1854 8.16773 29.2333 8.86234 29.4968 9.38929C29.5687 9.55695 29.6405 9.70067 29.6884 9.86833C29.5687 9.79647 29.3531 9.62881 29.2333 9.55695L29.4729 9.50905C28.5387 8.00007 27.7244 6.41923 26.8142 4.88629C25.9758 5.05396 25.377 5.86833 25.5447 6.6827ZM15.4848 8.81444C13.3531 9.24558 11.4369 10.7306 10.5267 12.7186C9.80818 14.1079 9.68842 15.6887 9.92794 17.1977C10.2872 18.9222 11.2453 20.5031 12.6345 21.557C14.4788 22.9701 17.0417 23.4252 19.2453 22.6827C21.1375 22.0839 22.7423 20.6228 23.5567 18.8264C23.3651 18.6588 23.1974 18.4911 23.0058 18.3234C22.7663 18.3713 22.5267 18.4192 22.2872 18.4432C22.2872 17.0061 22.2393 15.545 22.2872 14.1079C22.2872 13.3893 22.886 12.9102 23.3411 12.4552C22.7184 11.3773 21.8561 10.4192 20.8022 9.74857C19.2453 8.74258 17.2812 8.4312 15.4848 8.81444ZM32.1076 12.024C32.1315 12.9582 32.0357 13.9162 32.2273 14.8504C32.3471 15.5689 32.2513 16.3114 32.1076 17.0061C32.0597 17.8683 32.1076 18.7546 32.0836 19.6168C32.7543 19.6168 33.7124 19.7845 34.0956 19.018C34.1914 18.3234 34.1196 17.6288 34.1435 16.9102C34.9339 17.7007 35.7244 18.4911 36.5148 19.2815C36.7543 19.5689 37.1615 19.5929 37.4968 19.521C38.1914 19.4492 38.4788 18.4192 37.9998 17.9402C37.2333 17.0779 36.395 16.3114 35.6046 15.4731C36.395 14.6827 37.1854 13.9162 37.9519 13.1258C38.2872 12.8144 38.3112 12.3114 38.0956 11.9282C37.7842 11.4013 36.9699 11.2576 36.5387 11.6887C35.7244 12.4552 34.9339 13.2456 34.1435 14.036C34.1196 13.3893 34.1914 12.7426 34.0956 12.1198C33.9519 11.7126 33.5447 11.3773 33.1136 11.4252C32.6824 11.4492 32.3711 11.7605 32.1076 12.024ZM26.0238 14.9701C26.0238 15.4492 25.9998 15.9043 25.88 16.3593C26.1435 16.4312 26.383 16.551 26.5747 16.7186C27.0058 16.7186 27.4848 16.8144 27.8441 16.527C28.7543 16.0001 28.419 14.2995 27.3411 14.2755C26.7902 14.2037 26.407 14.6588 26.0238 14.9701Z" fill="#212124"/>
<path d="M14.3831 13.1258C14.9579 12.9102 15.6765 13.4372 15.5567 14.0599C15.4849 14.7066 14.5987 15.0899 14.1196 14.6108C13.5927 14.2036 13.7843 13.3174 14.3831 13.1258Z" fill="#212124"/>
<path d="M18.9339 13.1497C19.4848 12.9102 20.2273 13.3413 20.1555 13.9641C20.2273 14.6347 19.2692 15.1138 18.7663 14.6347C18.2393 14.2515 18.3591 13.3892 18.9339 13.1497Z" fill="#212124"/>
<path d="M21.1375 15.8325C21.4489 15.8325 21.7603 15.8325 22.0717 15.8325C22.0717 17.6529 20.9938 19.4014 19.389 20.2397C17.7363 21.1259 15.6286 20.9822 14.0956 19.9283C12.7783 19.0181 11.916 17.4613 11.9399 15.8325C12.2992 15.8325 12.6346 15.8325 12.9938 15.8325C13.0178 17.3415 13.9759 18.8026 15.3651 19.4014C16.8741 20.1199 18.8142 19.7607 19.9878 18.5631C20.7304 17.8445 21.1136 16.8385 21.1375 15.8325Z" fill="#212124"/>
<path d="M25.5447 6.68264C25.3771 5.89222 25.9759 5.0539 26.7663 4.88623C27.6286 6.34731 28.395 7.85629 29.3052 9.29342C29.401 9.43713 29.4968 9.55689 29.6406 9.6527L29.904 9.82036C30.0238 9.89222 29.8801 9.94012 29.6645 9.89222C29.6166 9.72455 29.5447 9.55689 29.4729 9.41318C29.2094 8.86228 29.1615 8.19162 29.5208 7.68863C29.904 7.16168 30.5986 6.94611 31.2453 7.06587C31.3172 9.41318 31.2453 11.7844 31.2693 14.1317C31.3651 14.7784 31.6286 15.4252 31.5088 16.0958C31.3172 17.2455 30.7424 18.4192 29.6885 19.0659C29.2094 19.3772 28.6825 19.7126 28.1076 19.6647C27.3412 19.6407 26.5986 19.6886 25.8322 19.6407C25.4489 19.6168 25.2094 19.3293 24.9459 19.0898C24.5148 18.6587 24.0597 18.2036 23.6286 17.7725C24.2992 17.3413 25.1615 16.9341 25.928 17.3413C26.5028 17.6766 27.1974 17.5808 27.8202 17.509C28.6585 17.1737 29.3531 16.2635 29.2094 15.3293C29.0897 14.2994 28.0837 13.4132 27.0058 13.5329C26.1915 13.5329 25.6406 14.1796 25.1136 14.7066C25.0897 15.2575 25.1855 15.8563 25.0418 16.4072C24.7064 17.1497 23.8202 17.4132 23.0777 17.5569C23.0777 16.4551 23.0777 15.3772 23.0777 14.2755C23.0058 13.7006 23.5807 13.3653 23.916 13.006C24.5627 12.4551 25.0418 11.6647 25.904 11.4252C25.0897 10.5868 24.2274 9.77246 23.437 8.91018C22.8621 8.28743 23.0298 7.20958 23.7004 6.68264C23.9639 6.51497 24.1555 6.8024 24.3471 6.94611C25.2813 7.90419 26.2394 8.86228 27.1735 9.84431C26.7184 8.74252 25.9519 7.80839 25.5447 6.68264Z" fill="#FEE700"/>
<path d="M15.4848 8.81434C17.2812 8.43111 19.2453 8.74248 20.8022 9.74847C21.88 10.3952 22.7423 11.3533 23.3411 12.4551C22.886 12.9101 22.2872 13.3892 22.2872 14.1078C22.2393 15.5449 22.2872 17.006 22.2872 18.4431C22.5267 18.3952 22.7663 18.3712 23.0058 18.3233C23.1974 18.491 23.3651 18.6587 23.5567 18.8263C22.7423 20.6467 21.1375 22.1078 19.2453 22.6826C17.0417 23.4251 14.4788 22.994 12.6345 21.5569C11.2213 20.503 10.2633 18.8982 9.92793 17.1976C9.68841 15.6886 9.83213 14.0838 10.5267 12.7185C11.4369 10.7305 13.3531 9.24548 15.4848 8.81434ZM14.383 13.1257C13.7842 13.3173 13.5926 14.2275 14.1196 14.6107C14.5986 15.0898 15.4609 14.7066 15.5567 14.0598C15.6764 13.4131 14.9579 12.8862 14.383 13.1257ZM18.9339 13.1497C18.3591 13.4131 18.2393 14.2754 18.7663 14.6347C19.2693 15.1137 20.2034 14.6347 20.1555 13.964C20.2273 13.3173 19.4848 12.8862 18.9339 13.1497ZM21.1375 15.8323C21.0896 16.8383 20.7064 17.8443 19.9878 18.5628C18.8142 19.7604 16.874 20.1197 15.3651 19.4012C13.9519 18.8024 13.0178 17.3652 12.9938 15.8323C12.6345 15.8323 12.2992 15.8323 11.9399 15.8323C11.916 17.4371 12.7543 19.0179 14.0956 19.9281C15.6285 21.006 17.7363 21.1257 19.389 20.2395C20.9938 19.4012 22.0956 17.6527 22.0956 15.8323C21.7603 15.8323 21.4489 15.8323 21.1375 15.8323Z" fill="#FEE700"/>
<path d="M32.1075 12.024C32.3709 11.7366 32.6823 11.4491 33.0895 11.4491C33.5206 11.4012 33.9278 11.7605 34.0715 12.1437C34.1674 12.7665 34.0955 13.4372 34.1195 14.0599C34.9099 13.2934 35.7003 12.4791 36.5147 11.7126C36.9698 11.2815 37.7841 11.4252 38.0715 11.9521C38.2871 12.3354 38.2392 12.8384 37.9278 13.1497C37.1614 13.9402 36.3709 14.7066 35.5805 15.497C36.3709 16.3114 37.2093 17.1018 37.9757 17.9641C38.4548 18.4431 38.1674 19.4731 37.4727 19.5449C37.1374 19.6168 36.7302 19.5689 36.4907 19.3054C35.7003 18.515 34.9099 17.7246 34.1195 16.9342C34.0955 17.6288 34.1674 18.3473 34.0715 19.0419C33.7123 19.7845 32.7542 19.6168 32.0596 19.6407C32.0835 18.7785 32.0356 17.8922 32.0835 17.03C32.2272 16.3114 32.323 15.5928 32.2033 14.8743C32.0117 13.9402 32.1314 12.9821 32.1075 12.024Z" fill="#FEE700"/>
</g>
<rect x="0.5" y="0.5" width="47" height="27" rx="3.5" stroke="#EBF0F5"/>
<defs>
<clipPath id="clip0_10140_10503">
<rect width="30.4431" height="20" fill="white" transform="translate(8.77832 4)"/>
</clipPath>
</defs>
</svg>
