<svg width="43" height="28" viewBox="0 0 43 28" fill="none" xmlns="http://www.w3.org/2000/svg">
<path d="M7.14454 22.9371C6.90986 22.9819 6.78693 23.1498 6.76737 23.4576L6.7534 23.6618L6.61091 23.6702L6.46842 23.6786L6.46004 23.8241L6.45166 23.9724H6.60532H6.76178V24.6161V25.2625L6.96574 25.2541L7.1669 25.2457L7.17528 24.6077L7.18086 23.9724H7.3485H7.51613V23.8185V23.6646H7.3485H7.18086V23.5107C7.18086 23.3009 7.24792 23.2309 7.41835 23.2561L7.53848 23.2757L7.54966 23.1162C7.55525 23.0266 7.54686 22.9539 7.5301 22.9511C7.44908 22.9259 7.23674 22.9203 7.14454 22.9371Z" fill="black"/>
<path d="M25.313 24.1125V25.2598H25.5089H25.7047V24.1125V22.9652H25.5089H25.313V24.1125Z" fill="black"/>
<path d="M5.78369 23.1889V23.3848H5.97957H6.17545V23.1889V22.993H5.97957H5.78369V23.1889Z" fill="black"/>
<path d="M7.82471 23.1889V23.3848H8.02059H8.21646V23.1889V22.993H8.02059H7.82471V23.1889Z" fill="black"/>
<path d="M14.5298 23.1889V23.3848H14.7257H14.9215V23.1889V22.993H14.7257H14.5298V23.1889Z" fill="black"/>
<path d="M35.0924 23.1889V23.3848H35.2883H35.4842V23.1889V22.993H35.2883H35.0924V23.1889Z" fill="black"/>
<path d="M38.8091 23.1889V23.3848H39.019H39.2316L39.2232 23.1945L39.2148 23.007L39.0134 22.9986L38.8091 22.9902V23.1889Z" fill="black"/>
<path d="M1.08255 23.1188C1.07137 23.1328 1.06299 23.6197 1.06299 24.2018V25.2595H1.27253H1.47928L1.48766 24.8594L1.49604 24.462L1.74749 24.4424C2.0632 24.4144 2.26715 24.3221 2.38729 24.1486C2.45434 24.0535 2.47111 23.9947 2.48228 23.8212C2.49346 23.6449 2.48508 23.5918 2.43199 23.4826C2.36215 23.3371 2.22804 23.2336 2.02129 23.172C1.87322 23.1244 1.11887 23.0853 1.08255 23.1188ZM1.95983 23.575C2.06041 23.6869 2.07158 23.8688 1.98497 23.9807C1.92351 24.0563 1.6972 24.1262 1.56589 24.1094C1.49604 24.0982 1.49604 24.0954 1.48766 23.7792L1.47928 23.463L1.68044 23.4742C1.86204 23.4826 1.88719 23.491 1.95983 23.575Z" fill="black"/>
<path d="M11.6041 23.1384C11.5762 23.1748 10.7855 25.2091 10.7855 25.2427C10.7855 25.2539 10.8833 25.2595 11.0034 25.2539L11.2186 25.2455L11.3164 24.9993L11.4114 24.7558H11.836H12.2607L12.3557 25.0021L12.4507 25.2455L12.6798 25.2539C12.8111 25.2595 12.9089 25.2511 12.9089 25.2343C12.9089 25.2063 12.1378 23.2364 12.0959 23.1524C12.0735 23.1132 12.0288 23.1048 11.85 23.1048C11.7075 23.1048 11.6209 23.116 11.6041 23.1384ZM11.9953 23.9947C12.0679 24.2018 12.1266 24.3808 12.1266 24.3948C12.1266 24.4088 11.9953 24.42 11.8332 24.42C11.6712 24.42 11.5399 24.4144 11.5399 24.4088C11.5399 24.3501 11.8304 23.5833 11.8472 23.6001C11.8584 23.6113 11.9254 23.7904 11.9953 23.9947Z" fill="black"/>
<path d="M17.4536 23.1247C17.4425 23.1331 17.4341 23.217 17.4341 23.3066V23.4689H17.7414H18.0487V24.3643V25.2598H18.2583H18.4678V24.3643V23.4717L18.7696 23.4633L19.0685 23.4549V23.287V23.1191L18.2695 23.1107C17.8308 23.1079 17.4648 23.1135 17.4536 23.1247Z" fill="black"/>
<path d="M27.58 23.1667C27.2056 24.1265 26.7865 25.1982 26.7754 25.2234C26.7642 25.2514 26.8173 25.2598 26.9849 25.2598H27.2084L27.3034 25.0135L27.3984 24.7701H27.8286H28.2589L28.3539 25.0135L28.4489 25.2598H28.6864C28.8652 25.2598 28.9211 25.2514 28.9099 25.2234C28.9015 25.2066 28.7171 24.7365 28.4992 24.1824C28.2813 23.6284 28.0913 23.1583 28.0745 23.1387C28.055 23.1163 27.9683 23.1051 27.8259 23.1051C27.6219 23.1051 27.6023 23.1107 27.58 23.1667ZM27.9879 24.0005L28.1332 24.4203H27.8286H27.5241L27.6694 24.0005C27.7504 23.7711 27.8203 23.5808 27.8286 23.5808C27.837 23.5808 27.9097 23.7683 27.9879 24.0005Z" fill="black"/>
<path d="M37.9233 23.3065L37.7473 23.3625V23.5136V23.6647H37.5936H37.4399V23.8186V23.9725H37.5936H37.7473V24.4426C37.7473 24.8736 37.7529 24.9211 37.8115 25.0359C37.9009 25.2178 38.0602 25.2933 38.3116 25.2821C38.415 25.2765 38.5128 25.2597 38.5268 25.2457C38.5575 25.2122 38.5324 24.9184 38.4988 24.9379C38.4402 24.9743 38.2753 24.9575 38.2222 24.91C38.1719 24.8624 38.1664 24.8232 38.1664 24.4147V23.9725H38.3507H38.5324L38.524 23.8242L38.5156 23.6787L38.3424 23.6703L38.1664 23.6619V23.4549C38.1664 23.217 38.1775 23.2254 37.9233 23.3065Z" fill="black"/>
<path d="M3.14522 23.6534C3.11449 23.6618 3.02229 23.687 2.94406 23.7094L2.79599 23.7513V23.9304V24.1095L2.94127 24.034C3.0614 23.9724 3.12287 23.9584 3.2905 23.9584C3.52519 23.9584 3.59783 24.006 3.62577 24.1767L3.64253 24.2802H3.4302C3.03905 24.2802 2.82392 24.3614 2.69261 24.5572C2.606 24.6832 2.60321 24.921 2.68423 25.0525C2.75966 25.1729 2.98876 25.2876 3.15919 25.2876C3.31006 25.2876 3.56151 25.1729 3.61459 25.0833C3.64533 25.0246 3.64812 25.0302 3.66209 25.1337L3.67606 25.2456L3.85487 25.254L4.03088 25.2624L4.0225 24.6664C4.01133 24.0899 4.00853 24.0648 3.94148 23.9304C3.84649 23.7458 3.69282 23.6646 3.40785 23.6506C3.2933 23.645 3.17595 23.645 3.14522 23.6534ZM3.63415 24.602C3.63415 24.7 3.56989 24.8427 3.49725 24.907C3.46093 24.9406 3.3827 24.9658 3.28771 24.9742C3.16198 24.9854 3.12846 24.977 3.07817 24.9266C3.04744 24.8958 3.0195 24.8343 3.0195 24.7951C3.0195 24.616 3.1536 24.5349 3.44696 24.5321C3.62856 24.5321 3.63415 24.5349 3.63415 24.602Z" fill="black"/>
<path d="M4.87678 23.6618C4.53872 23.7458 4.32359 24.0508 4.3208 24.4481C4.3208 24.9882 4.60857 25.2876 5.12544 25.2876C5.22043 25.2876 5.34336 25.2736 5.40483 25.2568C5.50541 25.2288 5.511 25.2232 5.49423 25.1421C5.48585 25.0945 5.47747 25.0218 5.47747 24.977C5.47747 24.9014 5.47468 24.8986 5.40204 24.9266C5.27352 24.9742 5.04721 24.9658 4.94943 24.907C4.82929 24.8343 4.75106 24.6636 4.75106 24.4677C4.75106 24.269 4.79856 24.1459 4.92149 24.0452C5.01089 23.9696 5.02486 23.9668 5.22881 23.9808L5.44394 23.9948L5.45791 23.8493C5.4663 23.7709 5.4663 23.701 5.46071 23.6954C5.41601 23.6478 5.02765 23.6254 4.87678 23.6618Z" fill="black"/>
<path d="M9.04311 23.6813C8.43125 23.8771 8.37258 24.9097 8.95371 25.2091C9.08502 25.2763 9.41749 25.3071 9.59909 25.2679C9.70806 25.2427 9.71085 25.2399 9.71923 25.1084C9.73041 24.9181 9.71644 24.8901 9.62145 24.9265C9.48734 24.9769 9.25545 24.9657 9.17163 24.9041C9.03752 24.8034 8.98723 24.6802 8.98723 24.462C8.98723 24.3053 8.99841 24.2437 9.05149 24.1598C9.14648 24.0059 9.24986 23.9639 9.47616 23.9779L9.66335 23.9919L9.68012 23.9079C9.70806 23.768 9.69967 23.698 9.64938 23.6813C9.53763 23.6365 9.17722 23.6365 9.04311 23.6813Z" fill="black"/>
<path d="M13.4537 23.6674C13.1324 23.7485 12.976 24.0339 13.0989 24.3165C13.1631 24.4593 13.2553 24.5208 13.5291 24.5992C13.6828 24.6439 13.775 24.7195 13.775 24.8062C13.775 24.8258 13.7443 24.8734 13.7052 24.9098C13.6493 24.9657 13.6102 24.9797 13.49 24.9797C13.409 24.9769 13.2917 24.9602 13.2302 24.9378C13.0961 24.8902 13.0765 24.9098 13.0765 25.0945C13.0765 25.2484 13.0821 25.2512 13.4258 25.2792C13.6716 25.2959 13.9035 25.2484 14.0181 25.1504C14.1801 25.0133 14.2388 24.7755 14.155 24.5796C14.0991 24.4453 14.0265 24.3949 13.7554 24.297C13.5236 24.213 13.5096 24.2046 13.5012 24.1207C13.4956 24.0563 13.5096 24.0227 13.5571 23.9892C13.6269 23.9388 13.8253 23.9304 13.9706 23.9724C14.0851 24.0059 14.1103 23.9808 14.1103 23.8157C14.1103 23.7177 14.0991 23.6953 14.0488 23.6813C13.9287 23.6478 13.5655 23.6394 13.4537 23.6674Z" fill="black"/>
<path d="M15.7425 23.6646C15.6811 23.6758 15.5805 23.7094 15.5218 23.7318C15.4156 23.7766 15.4156 23.7766 15.4296 23.9165C15.438 23.9948 15.452 24.0648 15.4603 24.0732C15.4687 24.0816 15.5274 24.062 15.5944 24.0284C15.7341 23.9556 15.9912 23.9249 16.1001 23.9696C16.1868 24.0032 16.2538 24.0928 16.2678 24.1963C16.2762 24.2663 16.2762 24.2663 15.9828 24.283C15.6475 24.3026 15.4799 24.3614 15.3626 24.5013C15.2089 24.6804 15.2312 24.9882 15.4101 25.1449C15.628 25.3352 15.9828 25.3324 16.1895 25.1393L16.2845 25.047L16.3013 25.1533L16.3181 25.2596H16.4941H16.6701L16.6617 24.7196C16.6477 23.978 16.6086 23.8409 16.3684 23.7178C16.2398 23.6506 15.9241 23.6254 15.7425 23.6646ZM16.2678 24.5461C16.2762 24.5545 16.2734 24.6132 16.2622 24.6776C16.2287 24.8511 16.0806 24.9798 15.913 24.9798C15.6252 24.9798 15.5525 24.686 15.8124 24.5769C15.9074 24.5377 16.237 24.5153 16.2678 24.5461Z" fill="black"/>
<path d="M19.6841 23.6758C19.6031 23.7094 19.5053 23.8074 19.4271 23.9333C19.3991 23.978 19.3935 23.9613 19.3935 23.8241L19.3907 23.6618L19.2175 23.6702L19.0415 23.6786V24.4621V25.2457L19.2399 25.2541L19.441 25.2625L19.4522 24.7923C19.4606 24.4062 19.4718 24.3026 19.5137 24.2159C19.5807 24.0816 19.6981 24.0172 19.8434 24.0396L19.9495 24.0564V23.8465V23.6367H19.8601C19.8098 23.6395 19.7288 23.6562 19.6841 23.6758Z" fill="black"/>
<path d="M20.6346 23.6535C20.6039 23.6619 20.5117 23.6871 20.4335 23.7095L20.2854 23.7515V23.9166C20.2854 24.0089 20.2966 24.0845 20.3106 24.0845C20.3245 24.0845 20.4055 24.0509 20.4949 24.0117C20.6263 23.9501 20.6821 23.939 20.8218 23.9501C20.9643 23.9613 21.0034 23.9753 21.0593 24.0397C21.0956 24.0817 21.1236 24.1516 21.1236 24.1992V24.2803H20.914C20.4223 24.2803 20.1597 24.4342 20.1262 24.7365C20.1066 24.9016 20.1289 24.9827 20.2211 25.0946C20.4223 25.3353 20.8358 25.3521 21.0593 25.1282L21.1515 25.0331V25.1114C21.1515 25.2429 21.1822 25.2625 21.3611 25.2541L21.5231 25.2457L21.5175 24.7281C21.5091 23.9837 21.4616 23.8242 21.2186 23.7151C21.0928 23.6619 20.752 23.6255 20.6346 23.6535ZM21.1236 24.6161C21.1236 24.8092 20.9643 24.9799 20.7855 24.9799C20.5704 24.9799 20.467 24.8708 20.5257 24.7029C20.5648 24.5937 20.7129 24.5322 20.9364 24.5322H21.1236V24.6161Z" fill="black"/>
<path d="M24.0425 23.6619C23.8274 23.7178 23.6765 23.8494 23.5759 24.0704C23.4837 24.2747 23.4865 24.6553 23.5787 24.8623C23.6514 25.0218 23.7771 25.1506 23.9392 25.2233C24.09 25.2905 24.5566 25.2905 24.7354 25.2233L24.8667 25.1701V25.005C24.8667 24.9155 24.8639 24.8399 24.8611 24.8399C24.8555 24.8399 24.7773 24.8707 24.6851 24.9099C24.3107 25.0638 23.9783 24.9603 23.9056 24.6637L23.8889 24.5881H24.4365H24.9869L24.9673 24.395C24.9366 24.0396 24.822 23.827 24.6069 23.7234C24.4728 23.6591 24.1766 23.6255 24.0425 23.6619ZM24.4169 23.9865C24.4868 24.0229 24.5873 24.1963 24.5873 24.2803C24.5873 24.2971 24.4476 24.3083 24.2381 24.3083C24.0453 24.3083 23.8889 24.3027 23.8889 24.2943C23.8889 24.2887 23.9084 24.2299 23.9364 24.1656C24.0118 23.9697 24.2325 23.8885 24.4169 23.9865Z" fill="black"/>
<path d="M29.398 23.6898C29.1577 23.7737 29.0571 23.9024 29.0571 24.1263C29.0571 24.3641 29.1549 24.4761 29.4539 24.5768C29.574 24.616 29.6913 24.6664 29.7137 24.6915C29.7584 24.7335 29.7696 24.8343 29.7333 24.8846C29.6662 24.9854 29.4287 25.0105 29.2248 24.9378C29.1577 24.9154 29.1018 24.8986 29.0962 24.9014C29.0934 24.907 29.0851 24.9798 29.0823 25.0637L29.0711 25.2176L29.2108 25.254C29.4203 25.31 29.7444 25.2848 29.9121 25.2008C30.1048 25.1057 30.1747 24.991 30.1747 24.7671C30.1747 24.6104 30.1663 24.5796 30.0909 24.4957C30.0126 24.4033 29.9316 24.3614 29.6662 24.2662C29.5097 24.213 29.465 24.1627 29.4874 24.0759C29.5153 23.9556 29.7277 23.9108 29.9596 23.9752C30.021 23.992 30.0713 24.0004 30.0769 23.9948C30.0797 23.9892 30.0909 23.922 30.102 23.8437L30.1188 23.6982L29.9428 23.6674C29.6969 23.6254 29.5712 23.631 29.398 23.6898Z" fill="black"/>
<path d="M30.7751 23.673C30.6019 23.7318 30.518 23.7989 30.4538 23.9277C30.3867 24.0676 30.3811 24.1879 30.437 24.3222C30.4873 24.4397 30.6019 24.5153 30.8477 24.5881C31.0545 24.6496 31.1048 24.6916 31.1048 24.8035C31.1048 24.9658 30.8449 25.033 30.5823 24.9378C30.5208 24.9155 30.4622 24.9043 30.4482 24.9127C30.437 24.9211 30.4258 24.9938 30.4258 25.075C30.4258 25.2512 30.4258 25.2512 30.7751 25.2764C31.1048 25.3016 31.3255 25.2233 31.468 25.0302C31.5462 24.9238 31.563 24.7056 31.5015 24.5769C31.4372 24.4453 31.345 24.381 31.0768 24.2858C30.8729 24.2159 30.8589 24.2047 30.8505 24.1207C30.8449 24.0564 30.8589 24.0228 30.9064 23.9892C30.979 23.9361 31.1886 23.9305 31.3199 23.9752C31.4316 24.0144 31.4596 23.9836 31.4596 23.8157C31.4596 23.6786 31.4456 23.673 31.1104 23.6506C30.9623 23.6422 30.8477 23.6506 30.7751 23.673Z" fill="black"/>
<path d="M32.3691 23.6644C32.14 23.7232 31.9472 23.8715 31.8466 24.0674C31.774 24.2073 31.746 24.5627 31.7935 24.7362C31.8494 24.9293 31.9947 25.1027 32.1791 25.1923C32.3188 25.2622 32.3746 25.2734 32.5786 25.2734C32.7825 25.2734 32.8384 25.2622 32.9753 25.1951C33.2771 25.0468 33.4056 24.8033 33.3832 24.4088C33.3693 24.1345 33.305 24.0002 33.1262 23.8407C32.9362 23.6728 32.6205 23.6001 32.3691 23.6644ZM32.777 24.0198C32.9111 24.101 32.9781 24.2773 32.9642 24.5039C32.9418 24.8089 32.8049 24.9656 32.5646 24.96C32.3467 24.9544 32.2154 24.7921 32.193 24.5011C32.1791 24.2968 32.2238 24.1653 32.3439 24.0562C32.4221 23.989 32.4668 23.9722 32.5674 23.9722C32.6401 23.9722 32.7323 23.9946 32.777 24.0198Z" fill="black"/>
<path d="M34.1783 23.6646C34.0358 23.6982 33.8486 23.8213 33.7704 23.9361C33.6642 24.09 33.5999 24.3642 33.6251 24.5713C33.681 25.0666 33.9911 25.3156 34.5079 25.2792C34.6281 25.2708 34.737 25.2568 34.7538 25.2456C34.7817 25.2289 34.7985 24.8959 34.7734 24.8959C34.765 24.8959 34.7259 24.9099 34.6812 24.9266C34.5666 24.9686 34.3571 24.963 34.2593 24.9127C34.1419 24.8511 34.0581 24.6664 34.0581 24.4677C34.0581 24.2691 34.1056 24.1459 34.2286 24.0452C34.3152 23.9724 34.3347 23.9668 34.5303 23.978L34.7426 23.9864L34.7594 23.8465C34.7678 23.7682 34.7734 23.701 34.7678 23.6954C34.7287 23.6478 34.3347 23.6254 34.1783 23.6646Z" fill="black"/>
<path d="M36.3493 23.6534C36.3102 23.6618 36.2124 23.687 36.1342 23.7094L35.9861 23.7513V23.9164C35.9861 24.0144 35.9973 24.0843 36.0141 24.0843C36.0308 24.0843 36.0979 24.0564 36.1621 24.0228C36.2515 23.9752 36.3298 23.9612 36.4834 23.9584C36.6762 23.9584 36.693 23.964 36.7572 24.0368C36.7964 24.0815 36.8243 24.1515 36.8243 24.1991V24.2802H36.6148C36.1258 24.2802 35.8604 24.4341 35.8269 24.7363C35.8073 24.9042 35.8576 25.0441 35.9722 25.1449C36.1901 25.338 36.5477 25.3296 36.7572 25.1309L36.8522 25.0441V25.1169C36.8522 25.2428 36.8858 25.2624 37.0618 25.254L37.2266 25.2456L37.2182 24.7419C37.2154 24.4649 37.2071 24.1879 37.1987 24.1235C37.1568 23.8269 36.9528 23.6646 36.6064 23.6478C36.503 23.645 36.3884 23.6478 36.3493 23.6534ZM36.8243 24.616C36.8243 24.8091 36.665 24.9798 36.4834 24.9798C36.3046 24.9798 36.2096 24.9126 36.2096 24.7839C36.2124 24.6244 36.3661 24.5321 36.6371 24.5321H36.8243V24.616Z" fill="black"/>
<path d="M40.1163 23.6732C39.8341 23.7543 39.6525 23.9474 39.5743 24.2496C39.4709 24.6582 39.6525 25.0723 40.0017 25.2178C40.1694 25.2906 40.4488 25.3018 40.636 25.2486C41.0634 25.1227 41.2897 24.6414 41.1361 24.1713C41.0103 23.7795 40.5438 23.5528 40.1163 23.6732ZM40.6108 24.0649C40.8287 24.2832 40.798 24.7533 40.5549 24.9128C40.4627 24.9744 40.256 24.9716 40.161 24.91C39.9906 24.7981 39.9235 24.3923 40.0381 24.1685C40.1079 24.0314 40.2085 23.9754 40.3845 23.9726C40.4991 23.9726 40.5326 23.9866 40.6108 24.0649Z" fill="black"/>
<path d="M42.1886 23.6787C42.116 23.7011 42.0293 23.7515 41.993 23.7907C41.9036 23.8858 41.8813 23.8802 41.8813 23.7627V23.6648H41.6997H41.5181V24.4623V25.2598H41.7108H41.9036L41.9148 24.7617C41.9232 24.3503 41.9344 24.2496 41.9763 24.1684C42.0461 24.0313 42.1299 23.9726 42.2501 23.9726C42.5043 23.9726 42.5295 24.0369 42.5462 24.7197L42.5602 25.2598H42.7502H42.9429V24.6833C42.9429 24.314 42.9318 24.0649 42.9094 23.9921C42.8228 23.7011 42.5267 23.5752 42.1886 23.6787Z" fill="black"/>
<path d="M5.78369 24.4623V25.2598H5.97957H6.17545V24.4623V23.6648H5.97957H5.78369V24.4623Z" fill="black"/>
<path d="M7.82471 24.4623V25.2598H8.02059H8.21646V24.4623V23.6648H8.02059H7.82471V24.4623Z" fill="black"/>
<path d="M14.5298 24.4623V25.2598H14.7257H14.9215V24.4623V23.6648H14.7257H14.5298V24.4623Z" fill="black"/>
<path d="M21.752 23.7205C21.7604 23.7513 21.8917 24.1067 22.0426 24.5097L22.3164 25.2456H22.5483H22.7802L23.0679 24.4761C23.2244 24.0535 23.3417 23.6954 23.3305 23.6842C23.3194 23.673 23.23 23.6646 23.1322 23.6702L22.9534 23.6786L22.7718 24.2158C22.6712 24.5097 22.5818 24.7587 22.5734 24.7699C22.5622 24.7783 22.4868 24.588 22.4058 24.3446C22.3275 24.1011 22.2381 23.8493 22.2102 23.7821L22.1599 23.6646H21.9476C21.7464 23.6646 21.7352 23.6674 21.752 23.7205Z" fill="black"/>
<path d="M35.0924 24.462V25.2595H35.2883H35.4842V24.462V23.6645H35.2883H35.0924V24.462Z" fill="black"/>
<path d="M38.8091 24.4621V25.2625L39.0134 25.2541L39.2148 25.2457V24.4621V23.6786L39.0134 23.6702L38.8091 23.6618V24.4621Z" fill="black"/>
<path d="M9.55351 18.3398H8.49463C8.49463 18.3398 13.6016 6.32693 14.8587 3.38935L15.7587 5.50978C15.7587 5.50978 15.0212 7.32306 14.1383 9.53089L12.5346 13.5408L11.7355 15.5472C11.5167 16.0326 11.3343 16.5366 11.1349 17.0303L10.6096 18.3398H9.55351Z" fill="black"/>
<path d="M42.8977 3.78274C42.8977 4.37387 42.4192 4.85308 41.829 4.85308C41.2388 4.85308 40.7604 4.37387 40.7604 3.78274C40.7604 3.19161 41.2388 2.7124 41.829 2.7124C42.4192 2.7124 42.8977 3.19161 42.8977 3.78274ZM40.9741 3.78274C40.9741 4.25565 41.3569 4.63901 41.829 4.63901C42.3012 4.63901 42.684 4.25565 42.684 3.78274C42.684 3.30984 42.3012 2.92647 41.829 2.92647C41.3569 2.92647 40.9741 3.30984 40.9741 3.78274Z" fill="black"/>
<path d="M41.4069 3.76075V4.34839H41.5046H41.5996L41.608 4.08815L41.6164 3.83071L41.7337 3.83351C41.8874 3.83631 41.9209 3.86709 42.0522 4.13012L42.1612 4.34839H42.2758H42.3875L42.2618 4.11613C42.1919 3.99021 42.1137 3.85869 42.083 3.82511C42.0299 3.76355 42.0299 3.76355 42.1109 3.72997C42.2199 3.6852 42.273 3.60125 42.273 3.47813C42.273 3.34661 42.1891 3.24027 42.055 3.2011C41.9992 3.18711 41.8287 3.17312 41.6807 3.17312H41.4069V3.76075ZM41.9489 3.3522C42.0578 3.39698 42.0942 3.47813 42.0495 3.56487C42.0075 3.64043 41.9098 3.6768 41.7393 3.6768H41.6024V3.5145C41.6024 3.42496 41.6108 3.34101 41.622 3.33262C41.6527 3.29904 41.8511 3.31023 41.9489 3.3522Z" fill="black"/>
<path d="M1.06299 10.5186V18.3118H2.04085H3.01871V15.9892V13.6666H3.27854C4.06362 13.6638 5.39072 13.5267 6.24006 13.356C8.02815 12.9979 9.34966 12.1947 10.2716 10.9047C10.6181 10.4234 10.9394 9.6959 11.0483 9.16143C11.2719 8.05051 11.1182 6.80248 10.6404 5.84827C9.86374 4.29523 8.31033 3.31584 6.02214 2.93807C4.91017 2.75339 4.47712 2.7254 2.60801 2.7254H1.06299V10.5186ZM4.46036 4.60025C5.41028 4.65621 5.82936 4.72057 6.38534 4.89966C7.4554 5.24385 8.25446 5.85667 8.64001 6.62899C9.06468 7.47687 9.09821 8.69411 8.72104 9.58117C8.44444 10.2304 7.79626 10.846 7.00279 11.2182C6.17301 11.6071 5.22588 11.7806 3.73953 11.8114L2.99077 11.8282V8.19882V4.57226H3.47691C3.74512 4.57226 4.18656 4.58625 4.46036 4.60025Z" fill="black"/>
<path d="M26.7661 18.3398H25.7045H24.6428L24.6428 4.74025H21.807C20.248 4.74025 18.9712 4.73186 18.9712 4.72346C18.9712 4.70667 19.801 2.79266 19.8289 2.74509C19.8457 2.7171 33.0524 2.7199 33.0524 2.74789C33.0524 2.75908 32.8596 3.2096 32.6249 3.74687L32.1947 4.72626L29.4818 4.73466L26.7661 4.74025L26.7661 18.3398Z" fill="black"/>
<path d="M11.7213 15.5764L10.1763 14.8757C12.8112 13.3211 15.5136 12.2349 18.1655 11.5048C26.6319 9.17399 34.5846 10.4727 38.1903 11.7464L38.3163 12.0972C30.7908 10.1193 23.7357 11.0091 18.586 12.5628C15.5229 13.487 13.134 14.6461 11.7213 15.5764Z" fill="#1BA0DA"/>
<path d="M18.373 12.0297C17.9092 10.8349 15.7579 5.50978 15.7579 5.50978L14.8579 3.38935C15.0316 2.98342 15.1318 2.75018 15.1349 2.74509C15.1405 2.73389 15.4618 2.7283 15.8445 2.73109L16.543 2.73949L18.2557 6.79698C19.1972 9.0272 20.0074 10.9356 20.0521 11.0364C20.0996 11.1371 20.2086 11.3945 20.298 11.61C20.3874 11.8255 21.0495 13.4065 21.7732 15.1218C22.494 16.8372 23.1003 18.3398 23.1003 18.3398H22.0106H20.9071L19.8091 15.5891C19.2056 14.0781 18.6775 12.7657 18.6328 12.6733C18.5909 12.581 18.4736 12.29 18.373 12.0297Z" fill="black"/>
<path d="M33.3875 6.42481C32.5214 8.46195 31.7643 10.2333 31.7028 10.3648C31.5352 10.7286 31.4597 10.902 31.4597 10.9244C31.4597 10.9384 30.7557 12.6006 29.8951 14.6181C29.0346 16.6385 28.3306 18.3007 28.3306 18.3147C28.3306 18.3287 28.7692 18.3398 29.3867 18.3398H30.44L31.8844 14.7357C32.6807 12.7545 33.3735 11.028 33.4266 10.8964C33.4797 10.7649 33.9854 9.49731 34.5498 8.07579C35.1141 6.65707 35.5863 5.50418 35.5947 5.51537C35.6142 5.53776 37.8745 11.1735 38.0673 11.68C38.1176 11.8115 38.7378 13.3589 39.4447 15.1218L40.7326 18.3259L41.8362 18.3342C42.4453 18.337 42.9426 18.3342 42.9426 18.3287C42.9426 18.3203 41.7384 15.4604 40.2661 11.9682C38.7909 8.47874 37.3129 4.96971 36.9749 4.1722L36.3658 2.7255H35.6645H34.9633L33.3875 6.42481Z" fill="black"/>
<rect x="0.971191" y="20.3398" width="42" height="0.587635" fill="#1BA0DA"/>
</svg>
