<svg width="120" height="36" viewBox="0 0 120 36" fill="none" xmlns="http://www.w3.org/2000/svg">
<rect width="120" height="36" rx="8" fill="black"/>
<path d="M12.5079 7.40242C12.2213 7.66139 12.0503 8.09336 12.0503 8.66674V8.53712V27.4582V27.3336C12.0503 27.8631 12.197 28.2721 12.4455 28.5354L12.5089 28.5962V28.5965C12.71 28.7783 12.9679 28.8748 13.2635 28.8745C13.5523 28.8745 13.8773 28.7823 14.2202 28.5875L26.6156 21.5333L30.8733 19.1099C31.4141 18.8022 31.7177 18.4053 31.7684 18.001V17.9993C31.7177 17.5941 31.4141 17.1974 30.8734 16.8897L26.6153 14.4667L14.2202 7.41241C13.8766 7.21732 13.5514 7.12476 13.2618 7.12476C12.9666 7.12476 12.709 7.22097 12.508 7.40242H12.5079Z" fill="#00C1FF"/>
<path d="M12.5089 28.5964L12.4455 28.5356C12.197 28.2723 12.0503 27.8633 12.0503 27.3338V27.4584V8.54202V8.66695C12.0503 8.09356 12.2213 7.6616 12.5079 7.40262L23.0883 17.9999L12.5089 28.5964Z" fill="url(#paint0_linear_256_18756)"/>
<path d="M26.6149 21.5337L23.0876 18.0001L26.6146 14.4671L30.8727 16.8901C31.4134 17.1979 31.717 17.5945 31.7677 17.9998V18.0014C31.717 18.4057 31.4134 18.8027 30.8727 19.1103L26.615 21.5337" fill="url(#paint1_linear_256_18756)"/>
<path d="M13.2632 28.8748C12.9676 28.875 12.7097 28.7785 12.5086 28.5967V28.5964L23.088 17.9999L26.6153 21.5335L14.2198 28.5878C13.8769 28.7825 13.552 28.8748 13.2632 28.8748Z" fill="url(#paint2_linear_256_18756)"/>
<path d="M23.087 18.0002L12.5065 7.40299C12.7077 7.22155 12.9652 7.12533 13.2604 7.12533C13.55 7.12533 13.8752 7.21786 14.2188 7.41299L26.6139 14.4672L23.087 18.0002" fill="url(#paint3_linear_256_18756)"/>
<path d="M13.2632 29C12.9677 29 12.7095 28.9034 12.5083 28.7217L12.508 28.722C12.5072 28.7212 12.5063 28.7204 12.5053 28.7197L12.4503 28.6659C12.4486 28.6642 12.447 28.6622 12.4449 28.6603L12.5084 28.5967C12.7095 28.7785 12.9674 28.875 13.263 28.8747C13.5517 28.8747 13.8767 28.7825 14.2196 28.5877L26.615 21.5335L26.6945 21.613L26.614 21.6588L14.2196 28.7127C13.9071 28.8901 13.6098 28.9826 13.3413 28.998C13.3153 28.9993 13.2893 29 13.2632 29" fill="url(#paint4_linear_256_18756)"/>
<path d="M12.4455 28.6606C12.197 28.3973 12.0503 27.9887 12.0503 27.4588V27.3342C12.0503 27.8637 12.197 28.2727 12.4455 28.536L12.5089 28.5968L12.4455 28.6606Z" fill="url(#paint5_linear_256_18756)"/>
<path d="M26.6941 21.613L26.6147 21.5334L30.8724 19.1101C31.4132 18.8025 31.7167 18.4055 31.7675 18.0011C31.7675 18.1495 31.7344 18.2979 31.6688 18.4423C31.5363 18.7333 31.2708 19.0082 30.8725 19.2351L26.6941 21.613" fill="url(#paint6_linear_256_18756)"/>
<path d="M31.7678 17.9998C31.7171 17.5945 31.4135 17.1979 30.8728 16.8901L26.6147 14.4671L26.6941 14.3875H26.6944L30.8728 16.7655C31.4689 17.105 31.7675 17.5523 31.7678 17.9998Z" fill="url(#paint7_linear_256_18756)"/>
<path d="M12.0503 8.66699V8.53629C12.0503 8.48916 12.0515 8.44307 12.054 8.39833V8.39629C12.054 8.39567 12.054 8.39502 12.0542 8.39433V8.38929C12.0799 7.93319 12.2213 7.57742 12.4455 7.33985L12.5079 7.40263C12.2213 7.66164 12.0503 8.0936 12.0503 8.66699Z" fill="url(#paint8_linear_256_18756)"/>
<path d="M26.6147 14.467L14.2196 7.41271C13.876 7.21762 13.5508 7.1251 13.2612 7.1251C12.966 7.1251 12.7085 7.22131 12.5074 7.40276L12.4449 7.33994C12.4644 7.31927 12.4847 7.29933 12.5057 7.28017C12.5063 7.27948 12.5074 7.27878 12.508 7.27813C12.7075 7.09807 12.9624 7.00185 13.2549 7.00012H13.2612C13.5508 7.00012 13.876 7.09269 14.2196 7.28786L26.6945 14.3872L26.6941 14.3875L26.6147 14.467Z" fill="url(#paint9_linear_256_18756)"/>
<path d="M67.5421 13.022H67.6225V8.26926H68.2521L70.5973 12.0292H70.7512L70.7223 11.016V8.2693H71.1819V12.9415H70.6598L68.2062 8.99926H68.0523L68.0812 10.0129V12.9415H67.5421L67.5421 13.022L67.5421 13.1026H68.242V10.0103L68.2153 9.07765L68.1349 9.07982V9.16037H68.1616V9.07982L68.0934 9.12265L70.5706 13.1026H71.3428V8.10815H70.5615V11.0182L70.5882 11.9509L70.6686 11.9487V11.8681H70.6419V11.9487L70.7101 11.9059L68.3412 8.10815H67.4617V13.1026H67.5421L67.5421 13.022ZM92.7639 26.7164H94.2646V16.646H92.7638L92.7639 26.7164ZM106.281 20.2736L104.561 24.6396H104.509L102.724 20.2736H101.107L103.784 26.3759L102.258 29.7702H103.824L107.95 20.2736L106.281 20.2736ZM97.7703 25.5726C97.2781 25.5726 96.5929 25.3265 96.5929 24.7173C96.5929 23.94 97.447 23.6421 98.1837 23.6421C98.844 23.6421 99.1536 23.7846 99.555 23.9791C99.4383 24.9118 98.6365 25.5726 97.7703 25.5726ZM97.9513 20.0533C96.8647 20.0533 95.7396 20.5328 95.2739 21.5952L96.6057 22.1521C96.8905 21.5952 97.4205 21.4136 97.977 21.4136C98.7531 21.4136 99.5421 21.8803 99.555 22.7094V22.813C99.2831 22.6575 98.7016 22.4243 97.9899 22.4243C96.5543 22.4243 95.0922 23.2144 95.0922 24.6915C95.0922 26.0389 96.2696 26.9071 97.5886 26.9071C98.5979 26.9071 99.1536 26.4536 99.5035 25.9225H99.555V26.6997H101.003V22.8387C101.003 21.0511 99.6716 20.0533 97.9513 20.0533ZM88.6767 21.4995H86.5422V18.0476H88.6767C89.7986 18.0476 90.4356 18.978 90.4356 19.7735C90.4356 20.5539 89.7986 21.4995 88.6767 21.4995ZM88.6381 16.646H85.0422V26.7164H86.5421V22.901H88.6381C90.3013 22.901 91.9363 21.6949 91.9363 19.7735C91.9363 17.8522 90.3013 16.646 88.6381 16.646ZM69.0296 25.5744C67.9929 25.5744 67.1248 24.705 67.1248 23.5109C67.1248 22.3042 67.9929 21.4215 69.0296 21.4215C70.0532 21.4215 70.8565 22.3041 70.8565 23.5109C70.8565 24.705 70.0532 25.5744 69.0296 25.5744ZM70.7528 20.8375H70.701C70.3642 20.4353 69.716 20.0719 68.8999 20.0719C67.1896 20.0719 65.6219 21.5772 65.6219 23.5109C65.6219 25.4316 67.1895 26.9241 68.8999 26.9241C69.716 26.9241 70.3642 26.5606 70.701 26.1456H70.7528V26.6386C70.7528 27.9496 70.0532 28.6504 68.926 28.6504C68.006 28.6504 67.4359 27.9883 67.2024 27.4303L65.894 27.9754C66.2698 28.8838 67.2675 30 68.926 30C70.6881 30 72.1781 28.9615 72.1781 26.431V20.2796H70.7528V20.8375ZM73.2146 26.7164H74.7175V16.6457H73.2146V26.7164ZM76.9332 23.3941C76.8943 22.0703 77.9568 21.3956 78.7212 21.3956C79.3176 21.3956 79.8227 21.694 79.9907 22.1226L76.9332 23.3941ZM81.5977 22.2522C81.3129 21.4863 80.4443 20.0719 78.6693 20.0719C76.9072 20.0719 75.4432 21.4605 75.4432 23.498C75.4432 25.4187 76.8943 26.9241 78.8377 26.9241C80.4057 26.9241 81.3129 25.9637 81.6885 25.4057L80.5224 24.6269C80.1339 25.1981 79.6023 25.5744 78.8377 25.5744C78.0733 25.5744 77.5293 25.2239 77.1792 24.5363L81.7529 22.6414L81.5977 22.2522ZM45.1585 21.1231V22.5766H48.6309C48.5272 23.3941 48.2551 23.9911 47.8404 24.4064C47.3353 24.9127 46.5449 25.4706 45.1585 25.4706C43.0206 25.4706 41.3493 23.7446 41.3493 21.6033C41.3493 19.462 43.0206 17.7358 45.1585 17.7358C46.3117 17.7358 47.1537 18.1901 47.7757 18.7741L48.7993 17.749C47.9313 16.9182 46.778 16.2823 45.1585 16.2823C42.2302 16.2823 39.7684 18.6703 39.7684 21.6033C39.7684 24.5363 42.2302 26.9241 45.1585 26.9241C46.7393 26.9241 47.9313 26.4052 48.864 25.4316C49.8228 24.4712 50.121 23.1216 50.121 22.0316C50.121 21.694 50.0952 21.3827 50.043 21.1231H45.1585ZM54.0687 25.5744C53.032 25.5744 52.1379 24.7179 52.1379 23.498C52.1379 22.2651 53.032 21.4215 54.0687 21.4215C55.1051 21.4215 55.9991 22.2651 55.9991 23.498C55.9991 24.7179 55.1051 25.5744 54.0687 25.5744ZM54.0687 20.0719C52.1768 20.0719 50.6349 21.5124 50.6349 23.498C50.6349 25.4706 52.1768 26.9241 54.0687 26.9241C55.9602 26.9241 57.5021 25.4706 57.5021 23.498C57.5021 21.5124 55.9602 20.0719 54.0687 20.0719ZM61.5588 25.5744C60.5225 25.5744 59.6283 24.7179 59.6283 23.498C59.6283 22.2651 60.5225 21.4215 61.5589 21.4215C62.5953 21.4215 63.4894 22.2651 63.4894 23.498C63.4894 24.7179 62.5953 25.5744 61.5588 25.5744ZM61.5588 20.0719C59.667 20.0719 58.1254 21.5124 58.1254 23.498C58.1254 25.4706 59.667 26.9241 61.5589 26.9241C63.4505 26.9241 64.9924 25.4706 64.9924 23.498C64.9924 21.5124 63.4504 20.0719 61.5588 20.0719Z" fill="white"/>
<path d="M44.8969 10.8016H44.8164C44.8158 11.4611 44.6235 11.9733 44.2408 12.3579L44.24 12.3585L44.2396 12.3592C43.8001 12.8195 43.2351 13.0486 42.5248 13.0495C41.8469 13.0486 41.2795 12.817 40.8057 12.3475C40.333 11.8771 40.0992 11.3028 40.0983 10.6055C40.0992 9.90788 40.333 9.33392 40.8057 8.86381C41.2795 8.394 41.8469 8.16208 42.5248 8.16111C42.8601 8.16111 43.1793 8.22663 43.4837 8.35718C43.7884 8.48875 44.0291 8.66115 44.2085 8.87518L44.27 8.82319L44.2132 8.76625L43.789 9.19164L43.8459 9.24829L43.9078 9.19674C43.5735 8.7955 43.1042 8.59323 42.5248 8.59442C41.9981 8.59377 41.5347 8.78232 41.1513 9.15366C40.7643 9.52619 40.5699 10.0167 40.5705 10.6055C40.5699 11.1943 40.7643 11.6848 41.1513 12.0574C41.5347 12.4287 41.9981 12.6172 42.5248 12.6165C43.0815 12.6175 43.556 12.4284 43.9295 12.0533C44.1789 11.8028 44.3203 11.4558 44.3574 11.0243L44.3649 10.9368H42.6053V10.5174H44.8632V10.4368L44.784 10.451C44.806 10.5731 44.8164 10.6892 44.8164 10.8016H44.9772C44.9772 10.6791 44.9659 10.5533 44.9423 10.4224L44.9304 10.3563H42.4444V11.0979H44.2772V11.0174L44.1972 11.0105C44.1617 11.4158 44.0328 11.721 43.8158 11.9394C43.4702 12.2843 43.0461 12.4545 42.5248 12.4554C42.0357 12.4548 41.6207 12.2861 41.2629 11.9416C40.9085 11.5983 40.7323 11.1599 40.7314 10.6055C40.7323 10.051 40.9085 9.61272 41.2629 9.2694C41.6207 8.92485 42.0357 8.75618 42.5248 8.75553C43.0687 8.75683 43.4794 8.9368 43.7844 9.30025L43.841 9.36758L44.3269 8.88018L44.3791 8.82797L44.3316 8.77157C44.134 8.53563 43.8707 8.34835 43.5472 8.20933C43.223 8.06987 42.8808 8 42.5248 8C41.8099 7.99939 41.1929 8.25111 40.6924 8.74927C40.1901 9.24645 39.9369 9.87139 39.9375 10.6055C39.9369 11.3393 40.1901 11.9646 40.6927 12.462C41.1929 12.9599 41.8099 13.2113 42.5248 13.2106C43.2694 13.2113 43.8871 12.9636 44.3558 12.4705L44.2977 12.4148L44.3545 12.4718C44.7711 12.0549 44.9778 11.4916 44.9773 10.8016H44.8968M48.6039 8.78261H46.4063V10.3151H48.3881V10.8959H46.4063V12.4284H48.6039V13.0221H45.7868V8.18884H48.6039V8.78261Z" fill="white"/>
<path d="M44.8971 10.8016C44.8971 11.4765 44.6976 12.0139 44.298 12.4148C43.844 12.8916 43.2524 13.1301 42.5251 13.1301C41.8286 13.1301 41.2365 12.8884 40.7495 12.4044C40.2616 11.9208 40.0182 11.3211 40.0182 10.6055C40.0182 9.88961 40.2616 9.29023 40.7495 8.80619C41.2365 8.32259 41.8286 8.08057 42.5251 8.08057C42.8707 8.08057 43.2016 8.14827 43.5157 8.28327C43.8298 8.4186 44.0818 8.59824 44.2703 8.82321L43.8462 9.24831C43.5267 8.866 43.0869 8.67499 42.5251 8.67499C42.0172 8.67499 41.578 8.85376 41.2073 9.21152C40.8365 9.56965 40.6512 10.0341 40.6512 10.6055C40.6512 11.177 40.8365 11.6414 41.2073 11.9995C41.578 12.3573 42.0171 12.536 42.5251 12.536C43.064 12.536 43.5132 12.3563 43.8729 11.9964C44.1064 11.7619 44.2414 11.4359 44.2775 11.0174H42.5251V10.4368H44.8635C44.886 10.5631 44.897 10.6842 44.897 10.8016" fill="white"/>
<path d="M48.6043 8.78248V8.70193H46.3263V10.3955H48.308V10.815L46.3263 10.8152V12.5088H48.5238V12.9415H45.8676V8.26926H48.5238V8.78248H48.6043V8.70193V8.78248H48.6847V8.10815H45.7068V13.1026H48.6847V12.3477H46.4871V10.9763H48.4689V10.2344H46.4871V8.86303H48.6847V8.78248H48.6043ZM51.219 13.022H50.5986V8.78244H49.2508V8.18867H52.5668V8.78244H51.219V13.022" fill="white"/>
<path d="M51.2187 13.022V12.9415H50.6787V8.70193H49.331V8.2693H52.4861V8.70193H51.1383V13.022H51.2187V12.9415V13.022H51.2992V8.86303H52.6469V8.10815H49.1701V8.863H50.5178V13.1025H51.2992V13.022H51.2187M54.9658 13.022V8.18867H55.5856V13.022H54.9658" fill="white"/>
<path d="M54.9657 13.022H55.0461V8.26926H55.5051V12.9415H54.9657V13.022H55.0461H54.9657V13.1026H55.6659V8.10815H54.8853V13.1026H54.9657V13.022M58.336 13.022H57.7155V8.78244H56.3678V8.18867H59.6837V8.78244H58.336V13.022" fill="white"/>
<path d="M58.3361 13.0222V12.9416H57.796V8.70207H56.4484V8.26944H59.6034V8.70207H58.2557V13.0221H58.3361V12.9416V13.0221H58.4165V8.86317H59.7643V8.1083H56.2875V8.86314H57.6352V13.1027H58.4165V13.0221H58.3361M62.8808 11.9929C63.2379 12.3551 63.675 12.536 64.1918 12.536C64.7086 12.536 65.1458 12.3551 65.5024 11.9929C65.8599 11.6307 66.039 11.1678 66.039 10.6055C66.039 10.0433 65.8599 9.58029 65.5024 9.21811C65.1458 8.85593 64.7086 8.67499 64.1918 8.67499C63.675 8.67499 63.2379 8.85593 62.8808 9.21811C62.5242 9.58029 62.3451 10.0432 62.3451 10.6055C62.3451 11.1678 62.5242 11.6307 62.8808 11.9929ZM65.9611 12.3975C65.4867 12.8862 64.8967 13.1301 64.1918 13.1301C63.4861 13.1301 62.8964 12.8862 62.423 12.3975C61.9483 11.9094 61.7121 11.312 61.7121 10.6055C61.7121 9.89903 61.9483 9.30145 62.423 8.81347C62.8964 8.32472 63.4861 8.08057 64.1918 8.08057C64.893 8.08057 65.4814 8.32603 65.958 8.81662C66.4339 9.30717 66.6721 9.90344 66.6721 10.6055C66.6721 11.312 66.4345 11.9094 65.9611 12.3975Z" fill="white"/>
<path d="M62.881 11.9929L62.8238 12.0495C63.1943 12.4262 63.6564 12.6175 64.192 12.6166C64.7273 12.6175 65.1901 12.4262 65.5599 12.0495C65.9328 11.6725 66.1203 11.1848 66.1197 10.6055C66.1203 10.0262 65.9328 9.53847 65.5599 9.16144C65.1901 8.78478 64.7273 8.59348 64.192 8.59443C63.6564 8.59348 63.1943 8.78478 62.8238 9.16144C62.4519 9.53847 62.264 10.0262 62.265 10.6055C62.264 11.1847 62.4519 11.6725 62.8238 12.0495L62.881 11.9929L62.9382 11.9363C62.5971 11.5885 62.4265 11.1511 62.4258 10.6055C62.4265 10.0599 62.5971 9.62249 62.9382 9.27472C63.2825 8.92706 63.6937 8.75651 64.192 8.75557C64.6899 8.75651 65.1021 8.92706 65.4455 9.27472C65.7873 9.62249 65.9579 10.0599 65.9585 10.6055C65.9579 11.1511 65.7873 11.5885 65.4455 11.9363C65.1021 12.284 64.69 12.4545 64.192 12.4554C63.6937 12.4545 63.2825 12.284 62.9382 11.9363L62.881 11.9929ZM65.9614 12.3975L65.9039 12.3416C65.4427 12.8148 64.8788 13.0486 64.192 13.0495C63.505 13.0486 62.941 12.8148 62.4807 12.3416L62.4786 12.339L62.4807 12.3416C62.0206 11.8667 61.7935 11.294 61.7928 10.6055C61.7935 9.91697 62.0206 9.34431 62.4807 8.86946C62.941 8.39618 63.5049 8.16208 64.192 8.16114C64.8744 8.16208 65.437 8.39715 65.9007 8.8729C66.3625 9.34995 66.591 9.92172 66.5919 10.6055C66.591 11.294 66.3632 11.8667 65.9039 12.3416L65.9614 12.3975L66.0192 12.4535C66.5067 11.952 66.7533 11.3298 66.7528 10.6055C66.7534 9.88526 66.5058 9.26441 66.016 8.76064C65.526 8.25487 64.9121 7.99913 64.192 8C63.4682 7.99913 62.8525 8.25368 62.3655 8.75749V8.75712C61.877 9.25901 61.6313 9.88113 61.632 10.6055C61.6313 11.3298 61.877 11.952 62.3655 12.4538L62.3677 12.4561L62.3655 12.4535C62.8525 12.9573 63.4682 13.2113 64.192 13.2106C64.9155 13.2113 65.5313 12.9573 66.0192 12.4535L65.9614 12.3975ZM67.5425 13.0222V8.1888H68.2972L70.6424 11.9488H70.6691L70.6424 11.0173V8.1888H71.2629V13.0221H70.6156L68.1621 9.07991H68.1353L68.1621 10.0117V13.0221H67.5426" fill="white"/>
<defs>
<linearGradient id="paint0_linear_256_18756" x1="18.8118" y1="8.34209" x2="9.69385" y2="17.4747" gradientUnits="userSpaceOnUse">
<stop stop-color="#00A0FF"/>
<stop offset="0.00657" stop-color="#00A1FF"/>
<stop offset="0.2601" stop-color="#00BEFF"/>
<stop offset="0.5122" stop-color="#00D2FF"/>
<stop offset="0.7604" stop-color="#00DFFF"/>
<stop offset="1" stop-color="#00E3FF"/>
</linearGradient>
<linearGradient id="paint1_linear_256_18756" x1="32.4265" y1="17.939" x2="11.7633" y2="17.939" gradientUnits="userSpaceOnUse">
<stop stop-color="#FFE000"/>
<stop offset="0.4087" stop-color="#FFBD00"/>
<stop offset="0.7754" stop-color="#FFA500"/>
<stop offset="1" stop-color="#FF9C00"/>
</linearGradient>
<linearGradient id="paint2_linear_256_18756" x1="24.7426" y1="21.3595" x2="9.29157" y2="36.7224" gradientUnits="userSpaceOnUse">
<stop stop-color="#FF3A44"/>
<stop offset="1" stop-color="#C31162"/>
</linearGradient>
<linearGradient id="paint3_linear_256_18756" x1="9.77967" y1="5.8319" x2="16.6659" y2="12.6893" gradientUnits="userSpaceOnUse">
<stop stop-color="#32A071"/>
<stop offset="0.0685" stop-color="#2DA771"/>
<stop offset="0.4762" stop-color="#15CF74"/>
<stop offset="0.8009" stop-color="#06E775"/>
<stop offset="1" stop-color="#00F076"/>
</linearGradient>
<linearGradient id="paint4_linear_256_18756" x1="24.7347" y1="23.8106" x2="12.3607" y2="36.2045" gradientUnits="userSpaceOnUse">
<stop stop-color="#CC2E36"/>
<stop offset="1" stop-color="#9C0E4E"/>
</linearGradient>
<linearGradient id="paint5_linear_256_18756" x1="13.4597" y1="8.34246" x2="5.42696" y2="16.3883" gradientUnits="userSpaceOnUse">
<stop stop-color="#008DE0"/>
<stop offset="0.00657" stop-color="#008DE0"/>
<stop offset="0.2601" stop-color="#00A7E0"/>
<stop offset="0.5122" stop-color="#00B8E0"/>
<stop offset="0.7604" stop-color="#00C4E0"/>
<stop offset="1" stop-color="#00C7E0"/>
</linearGradient>
<linearGradient id="paint6_linear_256_18756" x1="32.4263" y1="18.0004" x2="11.763" y2="18.0004" gradientUnits="userSpaceOnUse">
<stop stop-color="#E0C500"/>
<stop offset="0.4087" stop-color="#E0A600"/>
<stop offset="0.7754" stop-color="#E09100"/>
<stop offset="1" stop-color="#E08900"/>
</linearGradient>
<linearGradient id="paint7_linear_256_18756" x1="32.4267" y1="18.0006" x2="11.7634" y2="18.0006" gradientUnits="userSpaceOnUse">
<stop stop-color="#FFE840"/>
<stop offset="0.4087" stop-color="#FFCE40"/>
<stop offset="0.7754" stop-color="#FFBC40"/>
<stop offset="1" stop-color="#FFB540"/>
</linearGradient>
<linearGradient id="paint8_linear_256_18756" x1="13.451" y1="8.35666" x2="5.71404" y2="15.7704" gradientUnits="userSpaceOnUse">
<stop stop-color="#40B8FF"/>
<stop offset="0.00657" stop-color="#40B9FF"/>
<stop offset="0.2601" stop-color="#40CEFF"/>
<stop offset="0.5122" stop-color="#40DDFF"/>
<stop offset="0.7604" stop-color="#40E7FF"/>
<stop offset="1" stop-color="#40EAFF"/>
</linearGradient>
<linearGradient id="paint9_linear_256_18756" x1="9.76504" y1="8.07278" x2="15.2906" y2="13.6073" gradientUnits="userSpaceOnUse">
<stop stop-color="#65B895"/>
<stop offset="0.0685" stop-color="#62BD95"/>
<stop offset="0.4762" stop-color="#50DB97"/>
<stop offset="0.8009" stop-color="#44ED98"/>
<stop offset="1" stop-color="#40F498"/>
</linearGradient>
</defs>
</svg>
