<svg width="72" height="72" viewBox="0 0 72 72" fill="none" xmlns="http://www.w3.org/2000/svg">
<rect x="0.5" y="0.5" width="71" height="71" rx="7.5" fill="white"/>
<g clip-path="url(#clip0_256_18740)">
<rect x="0.75" y="-0.75" width="98.5" height="98.5" rx="7.25" transform="matrix(1 0 0 -1 -28 70.5)" stroke="#F27D00" stroke-width="1.5"/>
</g>
<g clip-path="url(#clip1_256_18740)">
<rect x="99.25" y="71.25" width="98.5" height="98.5" rx="7.25" transform="rotate(-180 99.25 71.25)" stroke="#F27D00" stroke-width="1.5"/>
</g>
<g clip-path="url(#clip2_256_18740)">
<rect x="-27.25" y="0.75" width="98.5" height="98.5" rx="7.25" stroke="#F27D00" stroke-width="1.5"/>
</g>
<g clip-path="url(#clip3_256_18740)">
<rect x="-0.75" y="0.75" width="98.5" height="98.5" rx="7.25" transform="matrix(-1 0 0 1 98.5 0)" stroke="#F27D00" stroke-width="1.5"/>
</g>
<g clip-path="url(#clip4_256_18740)">
<path d="M26.2211 10.1191H24.4363V11.904H26.2211V10.1191Z" fill="#1A2B3D"/>
<path d="M28.006 10.1191H26.2211V11.904H28.006V10.1191Z" fill="#1A2B3D"/>
<path d="M36.9304 10.1191H35.1456V11.904H36.9304V10.1191Z" fill="#1A2B3D"/>
<path d="M40.5002 10.1191H38.7153V11.904H40.5002V10.1191Z" fill="#1A2B3D"/>
<path d="M42.2851 10.1191H40.5002V11.904H42.2851V10.1191Z" fill="#1A2B3D"/>
<path d="M44.07 10.1191H42.2851V11.904H44.07V10.1191Z" fill="#1A2B3D"/>
<path d="M45.8549 10.1191H44.07V11.904H45.8549V10.1191Z" fill="#1A2B3D"/>
<path d="M47.6398 10.1191H45.8549V11.904H47.6398V10.1191Z" fill="#1A2B3D"/>
<path d="M28.006 11.904H26.2211V13.6889H28.006V11.904Z" fill="#1A2B3D"/>
<path d="M33.3607 11.904H31.5758V13.6889H33.3607V11.904Z" fill="#1A2B3D"/>
<path d="M35.1456 11.904H33.3607V13.6889H35.1456V11.904Z" fill="#1A2B3D"/>
<path d="M38.7153 11.904H36.9304V13.6889H38.7153V11.904Z" fill="#1A2B3D"/>
<path d="M42.2851 11.904H40.5002V13.6889H42.2851V11.904Z" fill="#1A2B3D"/>
<path d="M44.07 11.904H42.2851V13.6889H44.07V11.904Z" fill="#1A2B3D"/>
<path d="M45.8549 11.904H44.07V13.6889H45.8549V11.904Z" fill="#1A2B3D"/>
<path d="M47.6398 11.904H45.8549V13.6889H47.6398V11.904Z" fill="#1A2B3D"/>
<path d="M28.006 13.6889H26.2211V15.4738H28.006V13.6889Z" fill="#1A2B3D"/>
<path d="M29.7909 13.6889H28.006V15.4738H29.7909V13.6889Z" fill="#1A2B3D"/>
<path d="M35.1456 13.6889H33.3607V15.4738H35.1456V13.6889Z" fill="#1A2B3D"/>
<path d="M38.7153 13.6889H36.9304V15.4738H38.7153V13.6889Z" fill="#1A2B3D"/>
<path d="M44.07 13.6889H42.2851V15.4738H44.07V13.6889Z" fill="#1A2B3D"/>
<path d="M26.2211 15.4738H24.4363V17.2587H26.2211V15.4738Z" fill="#1A2B3D"/>
<path d="M28.006 15.4738H26.2211V17.2587H28.006V15.4738Z" fill="#1A2B3D"/>
<path d="M31.5758 15.4738H29.7909V17.2587H31.5758V15.4738Z" fill="#1A2B3D"/>
<path d="M33.3607 15.4738H31.5758V17.2587H33.3607V15.4738Z" fill="#1A2B3D"/>
<path d="M36.9304 15.4738H35.1456V17.2587H36.9304V15.4738Z" fill="#1A2B3D"/>
<path d="M40.5002 15.4738H38.7153V17.2587H40.5002V15.4738Z" fill="#1A2B3D"/>
<path d="M42.2851 15.4738H40.5002V17.2587H42.2851V15.4738Z" fill="#1A2B3D"/>
<path d="M44.07 15.4738H42.2851V17.2587H44.07V15.4738Z" fill="#1A2B3D"/>
<path d="M45.8549 15.4738H44.07V17.2587H45.8549V15.4738Z" fill="#1A2B3D"/>
<path d="M47.6398 15.4738H45.8549V17.2587H47.6398V15.4738Z" fill="#1A2B3D"/>
<path d="M26.2211 17.2587H24.4363V19.0436H26.2211V17.2587Z" fill="#1A2B3D"/>
<path d="M28.006 17.2587H26.2211V19.0436H28.006V17.2587Z" fill="#1A2B3D"/>
<path d="M29.7909 17.2587H28.006V19.0436H29.7909V17.2587Z" fill="#1A2B3D"/>
<path d="M42.2851 17.2587H40.5002V19.0436H42.2851V17.2587Z" fill="#1A2B3D"/>
<path d="M44.07 17.2587H42.2851V19.0436H44.07V17.2587Z" fill="#1A2B3D"/>
<path d="M45.8549 17.2587H44.07V19.0436H45.8549V17.2587Z" fill="#1A2B3D"/>
<path d="M47.6398 17.2587H45.8549V19.0436H47.6398V17.2587Z" fill="#1A2B3D"/>
<path d="M26.2211 19.0436H24.4363V20.8284H26.2211V19.0436Z" fill="#1A2B3D"/>
<path d="M29.7909 19.0436H28.006V20.8284H29.7909V19.0436Z" fill="#1A2B3D"/>
<path d="M45.8549 19.0436H44.07V20.8284H45.8549V19.0436Z" fill="#1A2B3D"/>
<path d="M26.2211 20.8284H24.4363V22.6133H26.2211V20.8284Z" fill="#1A2B3D"/>
<path d="M29.7909 20.8284H28.006V22.6133H29.7909V20.8284Z" fill="#1A2B3D"/>
<path d="M33.3607 20.8284H31.5758V22.6133H33.3607V20.8284Z" fill="#1A2B3D"/>
<path d="M36.9304 20.8284H35.1456V22.6133H36.9304V20.8284Z" fill="#1A2B3D"/>
<path d="M40.5002 20.8284H38.7153V22.6133H40.5002V20.8284Z" fill="#1A2B3D"/>
<path d="M44.07 20.8284H42.2851V22.6133H44.07V20.8284Z" fill="#1A2B3D"/>
<path d="M47.6398 20.8284H45.8549V22.6133H47.6398V20.8284Z" fill="#1A2B3D"/>
<path d="M26.2211 22.6133H24.4363V24.3982H26.2211V22.6133Z" fill="#1A2B3D"/>
<path d="M31.5758 22.6133H29.7909V24.3982H31.5758V22.6133Z" fill="#1A2B3D"/>
<path d="M33.3607 22.6133H31.5758V24.3982H33.3607V22.6133Z" fill="#1A2B3D"/>
<path d="M35.1456 22.6133H33.3607V24.3982H35.1456V22.6133Z" fill="#1A2B3D"/>
<path d="M11.9421 24.3982H10.1572V26.1831H11.9421V24.3982Z" fill="#1A2B3D"/>
<path d="M13.7269 24.3982H11.9421V26.1831H13.7269V24.3982Z" fill="#1A2B3D"/>
<path d="M15.5118 24.3982H13.7269V26.1831H15.5118V24.3982Z" fill="#1A2B3D"/>
<path d="M19.0816 24.3982H17.2967V26.1831H19.0816V24.3982Z" fill="#1A2B3D"/>
<path d="M22.6514 24.3982H20.8665V26.1831H22.6514V24.3982Z" fill="#1A2B3D"/>
<path d="M26.2211 24.3982H24.4363V26.1831H26.2211V24.3982Z" fill="#1A2B3D"/>
<path d="M31.5758 24.3982H29.7909V26.1831H31.5758V24.3982Z" fill="#1A2B3D"/>
<path d="M36.9304 24.3982H35.1456V26.1831H36.9304V24.3982Z" fill="#1A2B3D"/>
<path d="M38.7153 24.3982H36.9304V26.1831H38.7153V24.3982Z" fill="#1A2B3D"/>
<path d="M49.4246 24.3982H47.6398V26.1831H49.4246V24.3982Z" fill="#1A2B3D"/>
<path d="M51.2095 24.3982H49.4246V26.1831H51.2095V24.3982Z" fill="#1A2B3D"/>
<path d="M52.9944 24.3982H51.2095V26.1831H52.9944V24.3982Z" fill="#1A2B3D"/>
<path d="M54.7793 24.3982H52.9944V26.1831H54.7793V24.3982Z" fill="#1A2B3D"/>
<path d="M56.5642 24.3982H54.7793V26.1831H56.5642V24.3982Z" fill="#1A2B3D"/>
<path d="M61.9188 24.3982H60.134V26.1831H61.9188V24.3982Z" fill="#1A2B3D"/>
<path d="M11.9421 26.1831H10.1572V27.968H11.9421V26.1831Z" fill="#1A2B3D"/>
<path d="M15.5118 26.1831H13.7269V27.968H15.5118V26.1831Z" fill="#1A2B3D"/>
<path d="M17.2967 26.1831H15.5118V27.968H17.2967V26.1831Z" fill="#1A2B3D"/>
<path d="M19.0816 26.1831H17.2967V27.968H19.0816V26.1831Z" fill="#1A2B3D"/>
<path d="M26.2211 26.1831H24.4363V27.968H26.2211V26.1831Z" fill="#1A2B3D"/>
<path d="M28.006 26.1831H26.2211V27.968H28.006V26.1831Z" fill="#1A2B3D"/>
<path d="M29.7909 26.1831H28.006V27.968H29.7909V26.1831Z" fill="#1A2B3D"/>
<path d="M33.3607 26.1831H31.5758V27.968H33.3607V26.1831Z" fill="#1A2B3D"/>
<path d="M38.7153 26.1831H36.9304V27.968H38.7153V26.1831Z" fill="#1A2B3D"/>
<path d="M42.2851 26.1831H40.5002V27.968H42.2851V26.1831Z" fill="#1A2B3D"/>
<path d="M45.8549 26.1831H44.07V27.968H45.8549V26.1831Z" fill="#1A2B3D"/>
<path d="M49.4246 26.1831H47.6398V27.968H49.4246V26.1831Z" fill="#1A2B3D"/>
<path d="M56.5642 26.1831H54.7793V27.968H56.5642V26.1831Z" fill="#1A2B3D"/>
<path d="M13.7269 27.968H11.9421V29.7529H13.7269V27.968Z" fill="#1A2B3D"/>
<path d="M17.2967 27.968H15.5118V29.7529H17.2967V27.968Z" fill="#1A2B3D"/>
<path d="M19.0816 27.968H17.2967V29.7529H19.0816V27.968Z" fill="#1A2B3D"/>
<path d="M20.8665 27.968H19.0816V29.7529H20.8665V27.968Z" fill="#1A2B3D"/>
<path d="M22.6514 27.968H20.8665V29.7529H22.6514V27.968Z" fill="#1A2B3D"/>
<path d="M26.2211 27.968H24.4363V29.7529H26.2211V27.968Z" fill="#1A2B3D"/>
<path d="M29.7909 27.968H28.006V29.7529H29.7909V27.968Z" fill="#1A2B3D"/>
<path d="M31.5758 27.968H29.7909V29.7529H31.5758V27.968Z" fill="#1A2B3D"/>
<path d="M35.1456 27.968H33.3607V29.7529H35.1456V27.968Z" fill="#1A2B3D"/>
<path d="M40.5002 27.968H38.7153V29.7529H40.5002V27.968Z" fill="#1A2B3D"/>
<path d="M42.2851 27.968H40.5002V29.7529H42.2851V27.968Z" fill="#1A2B3D"/>
<path d="M44.07 27.968H42.2851V29.7529H44.07V27.968Z" fill="#1A2B3D"/>
<path d="M45.8549 27.968H44.07V29.7529H45.8549V27.968Z" fill="#1A2B3D"/>
<path d="M54.7793 27.968H52.9944V29.7529H54.7793V27.968Z" fill="#1A2B3D"/>
<path d="M56.5642 27.968H54.7793V29.7529H56.5642V27.968Z" fill="#1A2B3D"/>
<path d="M60.134 27.968H58.3491V29.7529H60.134V27.968Z" fill="#1A2B3D"/>
<path d="M15.5118 29.7529H13.7269V31.5378H15.5118V29.7529Z" fill="#1A2B3D"/>
<path d="M17.2967 29.7529H15.5118V31.5378H17.2967V29.7529Z" fill="#1A2B3D"/>
<path d="M19.0816 29.7529H17.2967V31.5378H19.0816V29.7529Z" fill="#1A2B3D"/>
<path d="M29.7909 29.7529H28.006V31.5378H29.7909V29.7529Z" fill="#1A2B3D"/>
<path d="M35.1456 29.7529H33.3607V31.5378H35.1456V29.7529Z" fill="#1A2B3D"/>
<path d="M40.5002 29.7529H38.7153V31.5378H40.5002V29.7529Z" fill="#1A2B3D"/>
<path d="M42.2851 29.7529H40.5002V31.5378H42.2851V29.7529Z" fill="#1A2B3D"/>
<path d="M60.134 29.7529H58.3491V31.5378H60.134V29.7529Z" fill="#1A2B3D"/>
<path d="M61.9188 29.7529H60.134V31.5378H61.9188V29.7529Z" fill="#1A2B3D"/>
<path d="M11.9421 31.5378H10.1572V33.3226H11.9421V31.5378Z" fill="#1A2B3D"/>
<path d="M13.7269 31.5378H11.9421V33.3226H13.7269V31.5378Z" fill="#1A2B3D"/>
<path d="M15.5118 31.5378H13.7269V33.3226H15.5118V31.5378Z" fill="#1A2B3D"/>
<path d="M19.0816 31.5378H17.2967V33.3226H19.0816V31.5378Z" fill="#1A2B3D"/>
<path d="M22.6514 31.5378H20.8665V33.3226H22.6514V31.5378Z" fill="#1A2B3D"/>
<path d="M26.2211 31.5378H24.4363V33.3226H26.2211V31.5378Z" fill="#1A2B3D"/>
<path d="M28.006 31.5378H26.2211V33.3226H28.006V31.5378Z" fill="#1A2B3D"/>
<path d="M29.7909 31.5378H28.006V33.3226H29.7909V31.5378Z" fill="#1A2B3D"/>
<path d="M31.5758 31.5378H29.7909V33.3226H31.5758V31.5378Z" fill="#1A2B3D"/>
<path d="M35.1456 31.5378H33.3607V33.3226H35.1456V31.5378Z" fill="#1A2B3D"/>
<path d="M36.9304 31.5378H35.1456V33.3226H36.9304V31.5378Z" fill="#1A2B3D"/>
<path d="M38.7153 31.5378H36.9304V33.3226H38.7153V31.5378Z" fill="#1A2B3D"/>
<path d="M44.07 31.5378H42.2851V33.3226H44.07V31.5378Z" fill="#1A2B3D"/>
<path d="M45.8549 31.5378H44.07V33.3226H45.8549V31.5378Z" fill="#1A2B3D"/>
<path d="M49.4246 31.5378H47.6398V33.3226H49.4246V31.5378Z" fill="#1A2B3D"/>
<path d="M51.2095 31.5378H49.4246V33.3226H51.2095V31.5378Z" fill="#1A2B3D"/>
<path d="M60.134 31.5378H58.3491V33.3226H60.134V31.5378Z" fill="#1A2B3D"/>
<path d="M61.9188 31.5378H60.134V33.3226H61.9188V31.5378Z" fill="#1A2B3D"/>
<path d="M24.4363 33.3226H22.6514V35.1075H24.4363V33.3226Z" fill="#1A2B3D"/>
<path d="M26.2211 33.3226H24.4363V35.1075H26.2211V33.3226Z" fill="#1A2B3D"/>
<path d="M28.006 33.3226H26.2211V35.1075H28.006V33.3226Z" fill="#1A2B3D"/>
<path d="M29.7909 33.3226H28.006V35.1075H29.7909V33.3226Z" fill="#1A2B3D"/>
<path d="M31.5758 33.3226H29.7909V35.1075H31.5758V33.3226Z" fill="#1A2B3D"/>
<path d="M33.3607 33.3226H31.5758V35.1075H33.3607V33.3226Z" fill="#1A2B3D"/>
<path d="M35.1456 33.3226H33.3607V35.1075H35.1456V33.3226Z" fill="#1A2B3D"/>
<path d="M36.9304 33.3226H35.1456V35.1075H36.9304V33.3226Z" fill="#1A2B3D"/>
<path d="M42.2851 33.3226H40.5002V35.1075H42.2851V33.3226Z" fill="#1A2B3D"/>
<path d="M47.6398 33.3226H45.8549V35.1075H47.6398V33.3226Z" fill="#1A2B3D"/>
<path d="M54.7793 33.3226H52.9944V35.1075H54.7793V33.3226Z" fill="#1A2B3D"/>
<path d="M60.134 33.3226H58.3491V35.1075H60.134V33.3226Z" fill="#1A2B3D"/>
<path d="M61.9188 33.3226H60.134V35.1075H61.9188V33.3226Z" fill="#1A2B3D"/>
<path d="M19.0816 35.1075H17.2967V36.8924H19.0816V35.1075Z" fill="#1A2B3D"/>
<path d="M22.6514 35.1075H20.8665V36.8924H22.6514V35.1075Z" fill="#1A2B3D"/>
<path d="M35.1456 35.1075H33.3607V36.8924H35.1456V35.1075Z" fill="#1A2B3D"/>
<path d="M40.5002 35.1075H38.7153V36.8924H40.5002V35.1075Z" fill="#1A2B3D"/>
<path d="M42.2851 35.1075H40.5002V36.8924H42.2851V35.1075Z" fill="#1A2B3D"/>
<path d="M45.8549 35.1075H44.07V36.8924H45.8549V35.1075Z" fill="#1A2B3D"/>
<path d="M47.6398 35.1075H45.8549V36.8924H47.6398V35.1075Z" fill="#1A2B3D"/>
<path d="M49.4246 35.1075H47.6398V36.8924H49.4246V35.1075Z" fill="#1A2B3D"/>
<path d="M51.2095 35.1075H49.4246V36.8924H51.2095V35.1075Z" fill="#1A2B3D"/>
<path d="M52.9944 35.1075H51.2095V36.8924H52.9944V35.1075Z" fill="#1A2B3D"/>
<path d="M54.7793 35.1075H52.9944V36.8924H54.7793V35.1075Z" fill="#1A2B3D"/>
<path d="M11.9421 36.8924H10.1572V38.6773H11.9421V36.8924Z" fill="#1A2B3D"/>
<path d="M15.5118 36.8924H13.7269V38.6773H15.5118V36.8924Z" fill="#1A2B3D"/>
<path d="M19.0816 36.8924H17.2967V38.6773H19.0816V36.8924Z" fill="#1A2B3D"/>
<path d="M20.8665 36.8924H19.0816V38.6773H20.8665V36.8924Z" fill="#1A2B3D"/>
<path d="M24.4363 36.8924H22.6514V38.6773H24.4363V36.8924Z" fill="#1A2B3D"/>
<path d="M29.7909 36.8924H28.006V38.6773H29.7909V36.8924Z" fill="#1A2B3D"/>
<path d="M33.3607 36.8924H31.5758V38.6773H33.3607V36.8924Z" fill="#1A2B3D"/>
<path d="M38.7153 36.8924H36.9304V38.6773H38.7153V36.8924Z" fill="#1A2B3D"/>
<path d="M44.07 36.8924H42.2851V38.6773H44.07V36.8924Z" fill="#1A2B3D"/>
<path d="M47.6398 36.8924H45.8549V38.6773H47.6398V36.8924Z" fill="#1A2B3D"/>
<path d="M52.9944 36.8924H51.2095V38.6773H52.9944V36.8924Z" fill="#1A2B3D"/>
<path d="M58.3491 36.8924H56.5642V38.6773H58.3491V36.8924Z" fill="#1A2B3D"/>
<path d="M61.9188 36.8924H60.134V38.6773H61.9188V36.8924Z" fill="#1A2B3D"/>
<path d="M11.9421 38.6773H10.1572V40.4622H11.9421V38.6773Z" fill="#1A2B3D"/>
<path d="M13.7269 38.6773H11.9421V40.4622H13.7269V38.6773Z" fill="#1A2B3D"/>
<path d="M15.5118 38.6773H13.7269V40.4622H15.5118V38.6773Z" fill="#1A2B3D"/>
<path d="M17.2967 38.6773H15.5118V40.4622H17.2967V38.6773Z" fill="#1A2B3D"/>
<path d="M19.0816 38.6773H17.2967V40.4622H19.0816V38.6773Z" fill="#1A2B3D"/>
<path d="M20.8665 38.6773H19.0816V40.4622H20.8665V38.6773Z" fill="#1A2B3D"/>
<path d="M22.6514 38.6773H20.8665V40.4622H22.6514V38.6773Z" fill="#1A2B3D"/>
<path d="M24.4363 38.6773H22.6514V40.4622H24.4363V38.6773Z" fill="#1A2B3D"/>
<path d="M28.006 38.6773H26.2211V40.4622H28.006V38.6773Z" fill="#1A2B3D"/>
<path d="M29.7909 38.6773H28.006V40.4622H29.7909V38.6773Z" fill="#1A2B3D"/>
<path d="M31.5758 38.6773H29.7909V40.4622H31.5758V38.6773Z" fill="#1A2B3D"/>
<path d="M33.3607 38.6773H31.5758V40.4622H33.3607V38.6773Z" fill="#1A2B3D"/>
<path d="M35.1456 38.6773H33.3607V40.4622H35.1456V38.6773Z" fill="#1A2B3D"/>
<path d="M36.9304 38.6773H35.1456V40.4622H36.9304V38.6773Z" fill="#1A2B3D"/>
<path d="M40.5002 38.6773H38.7153V40.4622H40.5002V38.6773Z" fill="#1A2B3D"/>
<path d="M42.2851 38.6773H40.5002V40.4622H42.2851V38.6773Z" fill="#1A2B3D"/>
<path d="M47.6398 38.6773H45.8549V40.4622H47.6398V38.6773Z" fill="#1A2B3D"/>
<path d="M60.134 38.6773H58.3491V40.4622H60.134V38.6773Z" fill="#1A2B3D"/>
<path d="M11.9421 40.4622H10.1572V42.2471H11.9421V40.4622Z" fill="#1A2B3D"/>
<path d="M13.7269 40.4622H11.9421V42.2471H13.7269V40.4622Z" fill="#1A2B3D"/>
<path d="M17.2967 40.4622H15.5118V42.2471H17.2967V40.4622Z" fill="#1A2B3D"/>
<path d="M20.8665 40.4622H19.0816V42.2471H20.8665V40.4622Z" fill="#1A2B3D"/>
<path d="M26.2211 40.4622H24.4363V42.2471H26.2211V40.4622Z" fill="#1A2B3D"/>
<path d="M31.5758 40.4622H29.7909V42.2471H31.5758V40.4622Z" fill="#1A2B3D"/>
<path d="M47.6398 40.4622H45.8549V42.2471H47.6398V40.4622Z" fill="#1A2B3D"/>
<path d="M49.4246 40.4622H47.6398V42.2471H49.4246V40.4622Z" fill="#1A2B3D"/>
<path d="M51.2095 40.4622H49.4246V42.2471H51.2095V40.4622Z" fill="#1A2B3D"/>
<path d="M52.9944 40.4622H51.2095V42.2471H52.9944V40.4622Z" fill="#1A2B3D"/>
<path d="M54.7793 40.4622H52.9944V42.2471H54.7793V40.4622Z" fill="#1A2B3D"/>
<path d="M56.5642 40.4622H54.7793V42.2471H56.5642V40.4622Z" fill="#1A2B3D"/>
<path d="M58.3491 40.4622H56.5642V42.2471H58.3491V40.4622Z" fill="#1A2B3D"/>
<path d="M60.134 40.4622H58.3491V42.2471H60.134V40.4622Z" fill="#1A2B3D"/>
<path d="M61.9188 40.4622H60.134V42.2471H61.9188V40.4622Z" fill="#1A2B3D"/>
<path d="M13.7269 42.2471H11.9421V44.032H13.7269V42.2471Z" fill="#1A2B3D"/>
<path d="M15.5118 42.2471H13.7269V44.032H15.5118V42.2471Z" fill="#1A2B3D"/>
<path d="M19.0816 42.2471H17.2967V44.032H19.0816V42.2471Z" fill="#1A2B3D"/>
<path d="M22.6514 42.2471H20.8665V44.032H22.6514V42.2471Z" fill="#1A2B3D"/>
<path d="M24.4363 42.2471H22.6514V44.032H24.4363V42.2471Z" fill="#1A2B3D"/>
<path d="M28.006 42.2471H26.2211V44.032H28.006V42.2471Z" fill="#1A2B3D"/>
<path d="M31.5758 42.2471H29.7909V44.032H31.5758V42.2471Z" fill="#1A2B3D"/>
<path d="M38.7153 42.2471H36.9304V44.032H38.7153V42.2471Z" fill="#1A2B3D"/>
<path d="M44.07 42.2471H42.2851V44.032H44.07V42.2471Z" fill="#1A2B3D"/>
<path d="M45.8549 42.2471H44.07V44.032H45.8549V42.2471Z" fill="#1A2B3D"/>
<path d="M49.4246 42.2471H47.6398V44.032H49.4246V42.2471Z" fill="#1A2B3D"/>
<path d="M52.9944 42.2471H51.2095V44.032H52.9944V42.2471Z" fill="#1A2B3D"/>
<path d="M54.7793 42.2471H52.9944V44.032H54.7793V42.2471Z" fill="#1A2B3D"/>
<path d="M56.5642 42.2471H54.7793V44.032H56.5642V42.2471Z" fill="#1A2B3D"/>
<path d="M60.134 42.2471H58.3491V44.032H60.134V42.2471Z" fill="#1A2B3D"/>
<path d="M13.7269 44.032H11.9421V45.8168H13.7269V44.032Z" fill="#1A2B3D"/>
<path d="M19.0816 44.032H17.2967V45.8168H19.0816V44.032Z" fill="#1A2B3D"/>
<path d="M24.4363 44.032H22.6514V45.8168H24.4363V44.032Z" fill="#1A2B3D"/>
<path d="M28.006 44.032H26.2211V45.8168H28.006V44.032Z" fill="#1A2B3D"/>
<path d="M31.5758 44.032H29.7909V45.8168H31.5758V44.032Z" fill="#1A2B3D"/>
<path d="M36.9304 44.032H35.1456V45.8168H36.9304V44.032Z" fill="#1A2B3D"/>
<path d="M40.5002 44.032H38.7153V45.8168H40.5002V44.032Z" fill="#1A2B3D"/>
<path d="M42.2851 44.032H40.5002V45.8168H42.2851V44.032Z" fill="#1A2B3D"/>
<path d="M44.07 44.032H42.2851V45.8168H44.07V44.032Z" fill="#1A2B3D"/>
<path d="M51.2095 44.032H49.4246V45.8168H51.2095V44.032Z" fill="#1A2B3D"/>
<path d="M52.9944 44.032H51.2095V45.8168H52.9944V44.032Z" fill="#1A2B3D"/>
<path d="M54.7793 44.032H52.9944V45.8168H54.7793V44.032Z" fill="#1A2B3D"/>
<path d="M58.3491 44.032H56.5642V45.8168H58.3491V44.032Z" fill="#1A2B3D"/>
<path d="M61.9188 44.032H60.134V45.8168H61.9188V44.032Z" fill="#1A2B3D"/>
<path d="M11.9421 45.8168H10.1572V47.6017H11.9421V45.8168Z" fill="#1A2B3D"/>
<path d="M13.7269 45.8168H11.9421V47.6017H13.7269V45.8168Z" fill="#1A2B3D"/>
<path d="M15.5118 45.8168H13.7269V47.6017H15.5118V45.8168Z" fill="#1A2B3D"/>
<path d="M19.0816 45.8168H17.2967V47.6017H19.0816V45.8168Z" fill="#1A2B3D"/>
<path d="M20.8665 45.8168H19.0816V47.6017H20.8665V45.8168Z" fill="#1A2B3D"/>
<path d="M22.6514 45.8168H20.8665V47.6017H22.6514V45.8168Z" fill="#1A2B3D"/>
<path d="M24.4363 45.8168H22.6514V47.6017H24.4363V45.8168Z" fill="#1A2B3D"/>
<path d="M26.2211 45.8168H24.4363V47.6017H26.2211V45.8168Z" fill="#1A2B3D"/>
<path d="M31.5758 45.8168H29.7909V47.6017H31.5758V45.8168Z" fill="#1A2B3D"/>
<path d="M33.3607 45.8168H31.5758V47.6017H33.3607V45.8168Z" fill="#1A2B3D"/>
<path d="M35.1456 45.8168H33.3607V47.6017H35.1456V45.8168Z" fill="#1A2B3D"/>
<path d="M36.9304 45.8168H35.1456V47.6017H36.9304V45.8168Z" fill="#1A2B3D"/>
<path d="M40.5002 45.8168H38.7153V47.6017H40.5002V45.8168Z" fill="#1A2B3D"/>
<path d="M42.2851 45.8168H40.5002V47.6017H42.2851V45.8168Z" fill="#1A2B3D"/>
<path d="M47.6398 45.8168H45.8549V47.6017H47.6398V45.8168Z" fill="#1A2B3D"/>
<path d="M49.4246 45.8168H47.6398V47.6017H49.4246V45.8168Z" fill="#1A2B3D"/>
<path d="M51.2095 45.8168H49.4246V47.6017H51.2095V45.8168Z" fill="#1A2B3D"/>
<path d="M52.9944 45.8168H51.2095V47.6017H52.9944V45.8168Z" fill="#1A2B3D"/>
<path d="M54.7793 45.8168H52.9944V47.6017H54.7793V45.8168Z" fill="#1A2B3D"/>
<path d="M61.9188 45.8168H60.134V47.6017H61.9188V45.8168Z" fill="#1A2B3D"/>
<path d="M26.2211 47.6017H24.4363V49.3866H26.2211V47.6017Z" fill="#1A2B3D"/>
<path d="M28.006 47.6017H26.2211V49.3866H28.006V47.6017Z" fill="#1A2B3D"/>
<path d="M31.5758 47.6017H29.7909V49.3866H31.5758V47.6017Z" fill="#1A2B3D"/>
<path d="M35.1456 47.6017H33.3607V49.3866H35.1456V47.6017Z" fill="#1A2B3D"/>
<path d="M36.9304 47.6017H35.1456V49.3866H36.9304V47.6017Z" fill="#1A2B3D"/>
<path d="M47.6398 47.6017H45.8549V49.3866H47.6398V47.6017Z" fill="#1A2B3D"/>
<path d="M54.7793 47.6017H52.9944V49.3866H54.7793V47.6017Z" fill="#1A2B3D"/>
<path d="M58.3491 47.6017H56.5642V49.3866H58.3491V47.6017Z" fill="#1A2B3D"/>
<path d="M60.134 47.6017H58.3491V49.3866H60.134V47.6017Z" fill="#1A2B3D"/>
<path d="M61.9188 47.6017H60.134V49.3866H61.9188V47.6017Z" fill="#1A2B3D"/>
<path d="M31.5758 49.3866H29.7909V51.1715H31.5758V49.3866Z" fill="#1A2B3D"/>
<path d="M33.3607 49.3866H31.5758V51.1715H33.3607V49.3866Z" fill="#1A2B3D"/>
<path d="M35.1456 49.3866H33.3607V51.1715H35.1456V49.3866Z" fill="#1A2B3D"/>
<path d="M36.9304 49.3866H35.1456V51.1715H36.9304V49.3866Z" fill="#1A2B3D"/>
<path d="M47.6398 49.3866H45.8549V51.1715H47.6398V49.3866Z" fill="#1A2B3D"/>
<path d="M51.2095 49.3866H49.4246V51.1715H51.2095V49.3866Z" fill="#1A2B3D"/>
<path d="M54.7793 49.3866H52.9944V51.1715H54.7793V49.3866Z" fill="#1A2B3D"/>
<path d="M61.9188 49.3866H60.134V51.1715H61.9188V49.3866Z" fill="#1A2B3D"/>
<path d="M28.006 51.1715H26.2211V52.9564H28.006V51.1715Z" fill="#1A2B3D"/>
<path d="M31.5758 51.1715H29.7909V52.9564H31.5758V51.1715Z" fill="#1A2B3D"/>
<path d="M35.1456 51.1715H33.3607V52.9564H35.1456V51.1715Z" fill="#1A2B3D"/>
<path d="M38.7153 51.1715H36.9304V52.9564H38.7153V51.1715Z" fill="#1A2B3D"/>
<path d="M40.5002 51.1715H38.7153V52.9564H40.5002V51.1715Z" fill="#1A2B3D"/>
<path d="M47.6398 51.1715H45.8549V52.9564H47.6398V51.1715Z" fill="#1A2B3D"/>
<path d="M54.7793 51.1715H52.9944V52.9564H54.7793V51.1715Z" fill="#1A2B3D"/>
<path d="M58.3491 51.1715H56.5642V52.9564H58.3491V51.1715Z" fill="#1A2B3D"/>
<path d="M26.2211 52.9564H24.4363V54.7413H26.2211V52.9564Z" fill="#1A2B3D"/>
<path d="M28.006 52.9564H26.2211V54.7413H28.006V52.9564Z" fill="#1A2B3D"/>
<path d="M29.7909 52.9564H28.006V54.7413H29.7909V52.9564Z" fill="#1A2B3D"/>
<path d="M35.1456 52.9564H33.3607V54.7413H35.1456V52.9564Z" fill="#1A2B3D"/>
<path d="M42.2851 52.9564H40.5002V54.7413H42.2851V52.9564Z" fill="#1A2B3D"/>
<path d="M44.07 52.9564H42.2851V54.7413H44.07V52.9564Z" fill="#1A2B3D"/>
<path d="M47.6398 52.9564H45.8549V54.7413H47.6398V52.9564Z" fill="#1A2B3D"/>
<path d="M49.4246 52.9564H47.6398V54.7413H49.4246V52.9564Z" fill="#1A2B3D"/>
<path d="M51.2095 52.9564H49.4246V54.7413H51.2095V52.9564Z" fill="#1A2B3D"/>
<path d="M52.9944 52.9564H51.2095V54.7413H52.9944V52.9564Z" fill="#1A2B3D"/>
<path d="M54.7793 52.9564H52.9944V54.7413H54.7793V52.9564Z" fill="#1A2B3D"/>
<path d="M58.3491 52.9564H56.5642V54.7413H58.3491V52.9564Z" fill="#1A2B3D"/>
<path d="M60.134 52.9564H58.3491V54.7413H60.134V52.9564Z" fill="#1A2B3D"/>
<path d="M61.9188 52.9564H60.134V54.7413H61.9188V52.9564Z" fill="#1A2B3D"/>
<path d="M31.5758 54.7413H29.7909V56.5261H31.5758V54.7413Z" fill="#1A2B3D"/>
<path d="M35.1456 54.7413H33.3607V56.5261H35.1456V54.7413Z" fill="#1A2B3D"/>
<path d="M40.5002 54.7413H38.7153V56.5261H40.5002V54.7413Z" fill="#1A2B3D"/>
<path d="M44.07 54.7413H42.2851V56.5261H44.07V54.7413Z" fill="#1A2B3D"/>
<path d="M45.8549 54.7413H44.07V56.5261H45.8549V54.7413Z" fill="#1A2B3D"/>
<path d="M47.6398 54.7413H45.8549V56.5261H47.6398V54.7413Z" fill="#1A2B3D"/>
<path d="M49.4246 54.7413H47.6398V56.5261H49.4246V54.7413Z" fill="#1A2B3D"/>
<path d="M51.2095 54.7413H49.4246V56.5261H51.2095V54.7413Z" fill="#1A2B3D"/>
<path d="M54.7793 54.7413H52.9944V56.5261H54.7793V54.7413Z" fill="#1A2B3D"/>
<path d="M60.134 54.7413H58.3491V56.5261H60.134V54.7413Z" fill="#1A2B3D"/>
<path d="M61.9188 54.7413H60.134V56.5261H61.9188V54.7413Z" fill="#1A2B3D"/>
<path d="M26.2211 56.5261H24.4363V58.311H26.2211V56.5261Z" fill="#1A2B3D"/>
<path d="M28.006 56.5261H26.2211V58.311H28.006V56.5261Z" fill="#1A2B3D"/>
<path d="M29.7909 56.5261H28.006V58.311H29.7909V56.5261Z" fill="#1A2B3D"/>
<path d="M35.1456 56.5261H33.3607V58.311H35.1456V56.5261Z" fill="#1A2B3D"/>
<path d="M36.9304 56.5261H35.1456V58.311H36.9304V56.5261Z" fill="#1A2B3D"/>
<path d="M38.7153 56.5261H36.9304V58.311H38.7153V56.5261Z" fill="#1A2B3D"/>
<path d="M42.2851 56.5261H40.5002V58.311H42.2851V56.5261Z" fill="#1A2B3D"/>
<path d="M45.8549 56.5261H44.07V58.311H45.8549V56.5261Z" fill="#1A2B3D"/>
<path d="M47.6398 56.5261H45.8549V58.311H47.6398V56.5261Z" fill="#1A2B3D"/>
<path d="M58.3491 56.5261H56.5642V58.311H58.3491V56.5261Z" fill="#1A2B3D"/>
<path d="M60.134 56.5261H58.3491V58.311H60.134V56.5261Z" fill="#1A2B3D"/>
<path d="M26.2211 58.311H24.4363V60.0959H26.2211V58.311Z" fill="#1A2B3D"/>
<path d="M28.006 58.311H26.2211V60.0959H28.006V58.311Z" fill="#1A2B3D"/>
<path d="M35.1456 58.311H33.3607V60.0959H35.1456V58.311Z" fill="#1A2B3D"/>
<path d="M42.2851 58.311H40.5002V60.0959H42.2851V58.311Z" fill="#1A2B3D"/>
<path d="M47.6398 58.311H45.8549V60.0959H47.6398V58.311Z" fill="#1A2B3D"/>
<path d="M56.5642 58.311H54.7793V60.0959H56.5642V58.311Z" fill="#1A2B3D"/>
<path d="M58.3491 58.311H56.5642V60.0959H58.3491V58.311Z" fill="#1A2B3D"/>
<path d="M26.2211 60.0959H24.4363V61.8808H26.2211V60.0959Z" fill="#1A2B3D"/>
<path d="M31.5758 60.0959H29.7909V61.8808H31.5758V60.0959Z" fill="#1A2B3D"/>
<path d="M33.3607 60.0959H31.5758V61.8808H33.3607V60.0959Z" fill="#1A2B3D"/>
<path d="M35.1456 60.0959H33.3607V61.8808H35.1456V60.0959Z" fill="#1A2B3D"/>
<path d="M36.9304 60.0959H35.1456V61.8808H36.9304V60.0959Z" fill="#1A2B3D"/>
<path d="M38.7153 60.0959H36.9304V61.8808H38.7153V60.0959Z" fill="#1A2B3D"/>
<path d="M44.07 60.0959H42.2851V61.8808H44.07V60.0959Z" fill="#1A2B3D"/>
<path d="M52.9944 60.0959H51.2095V61.8808H52.9944V60.0959Z" fill="#1A2B3D"/>
<path d="M58.3491 60.0959H56.5642V61.8808H58.3491V60.0959Z" fill="#1A2B3D"/>
<path d="M60.134 60.0959H58.3491V61.8808H60.134V60.0959Z" fill="#1A2B3D"/>
<path d="M11.9421 10.1191H10.1572V11.904H11.9421V10.1191Z" fill="#F27D00"/>
<path d="M13.7269 10.1191H11.9421V11.904H13.7269V10.1191Z" fill="#F27D00"/>
<path d="M15.5118 10.1191H13.7269V11.904H15.5118V10.1191Z" fill="#F27D00"/>
<path d="M17.2967 10.1191H15.5118V11.904H17.2967V10.1191Z" fill="#F27D00"/>
<path d="M19.0816 10.1191H17.2967V11.904H19.0816V10.1191Z" fill="#F27D00"/>
<path d="M20.8665 10.1191H19.0816V11.904H20.8665V10.1191Z" fill="#F27D00"/>
<path d="M22.6514 10.1191H20.8665V11.904H22.6514V10.1191Z" fill="#F27D00"/>
<path d="M51.2095 10.1191H49.4246V11.904H51.2095V10.1191Z" fill="#F27D00"/>
<path d="M52.9944 10.1191H51.2095V11.904H52.9944V10.1191Z" fill="#F27D00"/>
<path d="M54.7793 10.1191H52.9944V11.904H54.7793V10.1191Z" fill="#F27D00"/>
<path d="M56.5642 10.1191H54.7793V11.904H56.5642V10.1191Z" fill="#F27D00"/>
<path d="M58.3491 10.1191H56.5642V11.904H58.3491V10.1191Z" fill="#F27D00"/>
<path d="M60.134 10.1191H58.3491V11.904H60.134V10.1191Z" fill="#F27D00"/>
<path d="M61.9188 10.1191H60.134V11.904H61.9188V10.1191Z" fill="#F27D00"/>
<path d="M11.9421 11.904H10.1572V13.6889H11.9421V11.904Z" fill="#F27D00"/>
<path d="M22.6514 11.904H20.8665V13.6889H22.6514V11.904Z" fill="#F27D00"/>
<path d="M51.2095 11.904H49.4246V13.6889H51.2095V11.904Z" fill="#F27D00"/>
<path d="M61.9188 11.904H60.134V13.6889H61.9188V11.904Z" fill="#F27D00"/>
<path d="M11.9421 13.6889H10.1572V15.4738H11.9421V13.6889Z" fill="#F27D00"/>
<path d="M15.5118 13.6889H13.7269V15.4738H15.5118V13.6889Z" fill="#F27D00"/>
<path d="M17.2967 13.6889H15.5118V15.4738H17.2967V13.6889Z" fill="#F27D00"/>
<path d="M19.0816 13.6889H17.2967V15.4738H19.0816V13.6889Z" fill="#F27D00"/>
<path d="M22.6514 13.6889H20.8665V15.4738H22.6514V13.6889Z" fill="#F27D00"/>
<path d="M51.2095 13.6889H49.4246V15.4738H51.2095V13.6889Z" fill="#F27D00"/>
<path d="M54.7793 13.6889H52.9944V15.4738H54.7793V13.6889Z" fill="#F27D00"/>
<path d="M56.5642 13.6889H54.7793V15.4738H56.5642V13.6889Z" fill="#F27D00"/>
<path d="M58.3491 13.6889H56.5642V15.4738H58.3491V13.6889Z" fill="#F27D00"/>
<path d="M61.9188 13.6889H60.134V15.4738H61.9188V13.6889Z" fill="#F27D00"/>
<path d="M11.9421 15.4738H10.1572V17.2587H11.9421V15.4738Z" fill="#F27D00"/>
<path d="M15.5118 15.4738H13.7269V17.2587H15.5118V15.4738Z" fill="#F27D00"/>
<path d="M17.2967 15.4738H15.5118V17.2587H17.2967V15.4738Z" fill="#F27D00"/>
<path d="M19.0816 15.4738H17.2967V17.2587H19.0816V15.4738Z" fill="#F27D00"/>
<path d="M22.6514 15.4738H20.8665V17.2587H22.6514V15.4738Z" fill="#F27D00"/>
<path d="M51.2095 15.4738H49.4246V17.2587H51.2095V15.4738Z" fill="#F27D00"/>
<path d="M54.7793 15.4738H52.9944V17.2587H54.7793V15.4738Z" fill="#F27D00"/>
<path d="M56.5642 15.4738H54.7793V17.2587H56.5642V15.4738Z" fill="#F27D00"/>
<path d="M58.3491 15.4738H56.5642V17.2587H58.3491V15.4738Z" fill="#F27D00"/>
<path d="M61.9188 15.4738H60.134V17.2587H61.9188V15.4738Z" fill="#F27D00"/>
<path d="M11.9421 17.2587H10.1572V19.0436H11.9421V17.2587Z" fill="#F27D00"/>
<path d="M15.5118 17.2587H13.7269V19.0436H15.5118V17.2587Z" fill="#F27D00"/>
<path d="M17.2967 17.2587H15.5118V19.0436H17.2967V17.2587Z" fill="#F27D00"/>
<path d="M19.0816 17.2587H17.2967V19.0436H19.0816V17.2587Z" fill="#F27D00"/>
<path d="M22.6514 17.2587H20.8665V19.0436H22.6514V17.2587Z" fill="#F27D00"/>
<path d="M51.2095 17.2587H49.4246V19.0436H51.2095V17.2587Z" fill="#F27D00"/>
<path d="M54.7793 17.2587H52.9944V19.0436H54.7793V17.2587Z" fill="#F27D00"/>
<path d="M56.5642 17.2587H54.7793V19.0436H56.5642V17.2587Z" fill="#F27D00"/>
<path d="M58.3491 17.2587H56.5642V19.0436H58.3491V17.2587Z" fill="#F27D00"/>
<path d="M61.9188 17.2587H60.134V19.0436H61.9188V17.2587Z" fill="#F27D00"/>
<path d="M11.9421 19.0436H10.1572V20.8284H11.9421V19.0436Z" fill="#F27D00"/>
<path d="M22.6514 19.0436H20.8665V20.8284H22.6514V19.0436Z" fill="#F27D00"/>
<path d="M51.2095 19.0436H49.4246V20.8284H51.2095V19.0436Z" fill="#F27D00"/>
<path d="M61.9188 19.0436H60.134V20.8284H61.9188V19.0436Z" fill="#F27D00"/>
<path d="M11.9421 20.8284H10.1572V22.6133H11.9421V20.8284Z" fill="#F27D00"/>
<path d="M13.7269 20.8284H11.9421V22.6133H13.7269V20.8284Z" fill="#F27D00"/>
<path d="M15.5118 20.8284H13.7269V22.6133H15.5118V20.8284Z" fill="#F27D00"/>
<path d="M17.2967 20.8284H15.5118V22.6133H17.2967V20.8284Z" fill="#F27D00"/>
<path d="M19.0816 20.8284H17.2967V22.6133H19.0816V20.8284Z" fill="#F27D00"/>
<path d="M20.8665 20.8284H19.0816V22.6133H20.8665V20.8284Z" fill="#F27D00"/>
<path d="M22.6514 20.8284H20.8665V22.6133H22.6514V20.8284Z" fill="#F27D00"/>
<path d="M51.2095 20.8284H49.4246V22.6133H51.2095V20.8284Z" fill="#F27D00"/>
<path d="M52.9944 20.8284H51.2095V22.6133H52.9944V20.8284Z" fill="#F27D00"/>
<path d="M54.7793 20.8284H52.9944V22.6133H54.7793V20.8284Z" fill="#F27D00"/>
<path d="M56.5642 20.8284H54.7793V22.6133H56.5642V20.8284Z" fill="#F27D00"/>
<path d="M58.3491 20.8284H56.5642V22.6133H58.3491V20.8284Z" fill="#F27D00"/>
<path d="M60.134 20.8284H58.3491V22.6133H60.134V20.8284Z" fill="#F27D00"/>
<path d="M61.9188 20.8284H60.134V22.6133H61.9188V20.8284Z" fill="#F27D00"/>
<path d="M11.9421 49.3866H10.1572V51.1715H11.9421V49.3866Z" fill="#F27D00"/>
<path d="M13.7269 49.3866H11.9421V51.1715H13.7269V49.3866Z" fill="#F27D00"/>
<path d="M15.5118 49.3866H13.7269V51.1715H15.5118V49.3866Z" fill="#F27D00"/>
<path d="M17.2967 49.3866H15.5118V51.1715H17.2967V49.3866Z" fill="#F27D00"/>
<path d="M19.0816 49.3866H17.2967V51.1715H19.0816V49.3866Z" fill="#F27D00"/>
<path d="M20.8665 49.3866H19.0816V51.1715H20.8665V49.3866Z" fill="#F27D00"/>
<path d="M22.6514 49.3866H20.8665V51.1715H22.6514V49.3866Z" fill="#F27D00"/>
<path d="M11.9421 51.1715H10.1572V52.9564H11.9421V51.1715Z" fill="#F27D00"/>
<path d="M22.6514 51.1715H20.8665V52.9564H22.6514V51.1715Z" fill="#F27D00"/>
<path d="M11.9421 52.9564H10.1572V54.7413H11.9421V52.9564Z" fill="#F27D00"/>
<path d="M15.5118 52.9564H13.7269V54.7413H15.5118V52.9564Z" fill="#F27D00"/>
<path d="M17.2967 52.9564H15.5118V54.7413H17.2967V52.9564Z" fill="#F27D00"/>
<path d="M19.0816 52.9564H17.2967V54.7413H19.0816V52.9564Z" fill="#F27D00"/>
<path d="M22.6514 52.9564H20.8665V54.7413H22.6514V52.9564Z" fill="#F27D00"/>
<path d="M11.9421 54.7413H10.1572V56.5261H11.9421V54.7413Z" fill="#F27D00"/>
<path d="M15.5118 54.7413H13.7269V56.5261H15.5118V54.7413Z" fill="#F27D00"/>
<path d="M17.2967 54.7413H15.5118V56.5261H17.2967V54.7413Z" fill="#F27D00"/>
<path d="M19.0816 54.7413H17.2967V56.5261H19.0816V54.7413Z" fill="#F27D00"/>
<path d="M22.6514 54.7413H20.8665V56.5261H22.6514V54.7413Z" fill="#F27D00"/>
<path d="M11.9421 56.5261H10.1572V58.311H11.9421V56.5261Z" fill="#F27D00"/>
<path d="M15.5118 56.5261H13.7269V58.311H15.5118V56.5261Z" fill="#F27D00"/>
<path d="M17.2967 56.5261H15.5118V58.311H17.2967V56.5261Z" fill="#F27D00"/>
<path d="M19.0816 56.5261H17.2967V58.311H19.0816V56.5261Z" fill="#F27D00"/>
<path d="M22.6514 56.5261H20.8665V58.311H22.6514V56.5261Z" fill="#F27D00"/>
<path d="M11.9421 58.311H10.1572V60.0959H11.9421V58.311Z" fill="#F27D00"/>
<path d="M22.6514 58.311H20.8665V60.0959H22.6514V58.311Z" fill="#F27D00"/>
<path d="M11.9421 60.0959H10.1572V61.8808H11.9421V60.0959Z" fill="#F27D00"/>
<path d="M13.7269 60.0959H11.9421V61.8808H13.7269V60.0959Z" fill="#F27D00"/>
<path d="M15.5118 60.0959H13.7269V61.8808H15.5118V60.0959Z" fill="#F27D00"/>
<path d="M17.2967 60.0959H15.5118V61.8808H17.2967V60.0959Z" fill="#F27D00"/>
<path d="M19.0816 60.0959H17.2967V61.8808H19.0816V60.0959Z" fill="#F27D00"/>
<path d="M20.8665 60.0959H19.0816V61.8808H20.8665V60.0959Z" fill="#F27D00"/>
<path d="M22.6514 60.0959H20.8665V61.8808H22.6514V60.0959Z" fill="#F27D00"/>
</g>
<rect x="0.5" y="0.5" width="71" height="71" rx="7.5" stroke="#EBF0F5"/>
<defs>
<clipPath id="clip0_256_18740">
<path d="M60 72H64C68.4183 72 72 68.4183 72 64V60H60V72Z" fill="white"/>
</clipPath>
<clipPath id="clip1_256_18740">
<path d="M12 72H8C3.58172 72 0 68.4183 0 64V60H12V72Z" fill="white"/>
</clipPath>
<clipPath id="clip2_256_18740">
<path d="M60 0H64C68.4183 0 72 3.58172 72 8V12H60V0Z" fill="white"/>
</clipPath>
<clipPath id="clip3_256_18740">
<path d="M12 0H8C3.58172 0 0 3.58172 0 8V12H12V0Z" fill="white"/>
</clipPath>
<clipPath id="clip4_256_18740">
<rect width="54" height="54" fill="white" transform="translate(9.03845 9)"/>
</clipPath>
</defs>
</svg>
