<?xml version="1.0" standalone="no"?>
<!DOCTYPE svg PUBLIC "-//W3C//DTD SVG 20010904//EN"
 "http://www.w3.org/TR/2001/REC-SVG-20010904/DTD/svg10.dtd">
<svg version="1.0" xmlns="http://www.w3.org/2000/svg"
 width="700.000000pt" height="700.000000pt" viewBox="0 0 700.000000 700.000000"
 preserveAspectRatio="xMidYMid meet">
<metadata>
Created by potrace 1.14, written by Peter Selinger 2001-2017
</metadata>
<g transform="translate(0.000000,700.000000) scale(0.100000,-0.100000)"
fill="#000000" stroke="none">
<path d="M3279 6996 c-2 -2 -40 -6 -84 -10 -44 -3 -98 -9 -120 -12 -22 -3 -53
-7 -70 -9 -238 -29 -521 -104 -796 -211 -207 -80 -528 -251 -690 -367 -31 -23
-67 -49 -79 -57 -45 -30 -187 -145 -265 -214 -361 -321 -680 -754 -865 -1176
-23 -52 -46 -104 -51 -115 -47 -102 -149 -428 -175 -560 -2 -11 -10 -54 -19
-95 -29 -147 -35 -193 -52 -370 -15 -161 -8 -590 12 -711 2 -13 6 -46 10 -74
9 -76 16 -116 25 -160 5 -22 11 -53 14 -70 19 -103 62 -260 109 -400 79 -235
211 -522 237 -518 8 1 60 14 115 28 55 14 114 28 130 31 17 2 57 11 90 19 74
17 124 27 127 25 2 -1 16 3 31 9 15 6 41 13 57 16 15 3 56 12 89 21 34 8 69
17 78 19 143 28 615 183 747 245 328 152 444 222 567 343 153 151 151 280 -7
376 -55 33 -210 87 -272 95 -45 5 -95 13 -172 26 -30 6 -136 24 -235 41 -436
74 -650 209 -720 453 -38 132 12 303 133 456 135 170 439 403 697 533 197 100
430 197 565 237 41 12 102 31 135 42 33 11 69 22 80 24 49 10 134 24 175 29
25 3 61 8 80 11 75 11 284 -51 324 -95 16 -18 19 -17 74 5 68 27 188 40 209
22 27 -22 53 -87 53 -134 0 -81 -44 -139 -129 -169 -75 -26 -171 -112 -171
-153 0 -4 124 6 165 14 11 2 40 6 65 9 25 3 146 23 270 45 267 48 206 36 601
115 75 16 340 64 374 69 22 3 49 7 60 10 11 2 56 9 100 16 44 7 89 14 100 16
11 3 63 11 115 19 52 8 106 17 120 20 13 2 42 7 65 10 22 3 51 8 65 10 54 11
68 13 145 25 44 7 88 14 97 15 9 2 48 7 85 10 37 4 70 9 72 11 2 2 -85 4 -195
5 -866 3 -984 5 -998 20 -21 21 -128 408 -121 436 4 19 18 27 45 25 23 -2 102
-15 130 -22 19 -5 53 -11 75 -15 22 -3 99 -17 170 -30 72 -13 144 -27 160 -30
83 -15 360 -66 430 -79 44 -9 96 -18 115 -21 19 -3 67 -12 105 -20 39 -8 111
-21 160 -30 139 -25 180 -32 330 -60 77 -15 151 -29 165 -31 14 -2 74 -14 135
-25 130 -24 162 -28 193 -20 23 6 22 8 -45 141 -220 430 -506 790 -878 1106
-223 189 -576 409 -835 519 -36 15 -83 35 -105 45 -168 73 -527 172 -745 206
-25 3 -53 8 -62 10 -9 1 -43 6 -75 9 -32 4 -76 9 -98 12 -48 5 -541 14 -546 9z"/>
<path d="M6730 4739 c-30 -15 -55 -25 -80 -34 -3 -1 -12 -4 -20 -8 -58 -23
-189 -57 -242 -63 -35 -3 -66 -8 -69 -10 -3 -2 -33 -6 -65 -10 -32 -3 -61 -7
-64 -9 -3 -2 -34 -6 -69 -10 -35 -4 -129 -26 -210 -50 -134 -40 -446 -131
-481 -140 -8 -3 -154 -45 -325 -95 -170 -50 -314 -92 -320 -93 -22 -5 -35 -19
-51 -55 -9 -20 -32 -68 -50 -107 -40 -85 -127 -284 -184 -420 -23 -55 -60
-140 -82 -190 -22 -49 -60 -137 -85 -195 -24 -58 -48 -114 -53 -125 -6 -11
-39 -90 -74 -175 -36 -85 -87 -207 -114 -270 -28 -63 -55 -126 -60 -140 -15
-36 -199 -466 -226 -525 -12 -27 -49 -112 -81 -187 -51 -121 -65 -144 -117
-197 -67 -68 -107 -83 -154 -58 -54 28 -67 50 -62 109 10 115 83 324 248 713
54 127 155 367 225 535 70 168 133 318 141 334 8 16 14 33 14 38 0 5 8 28 19
51 16 36 39 92 71 172 4 11 15 36 23 55 17 39 67 161 180 440 42 102 85 204
96 227 12 23 21 45 21 48 0 5 -89 -4 -101 -11 -3 -2 -19 -5 -35 -8 -40 -7
-193 -34 -224 -40 -80 -15 -417 -74 -465 -80 -11 -2 -45 -7 -75 -11 -30 -4
-62 -9 -71 -10 -141 -26 -336 -23 -391 6 -18 10 -31 1 -112 -78 -125 -123
-141 -137 -224 -199 -84 -64 -184 -114 -227 -114 -114 0 -209 91 -191 182 6
28 78 107 99 108 10 0 57 33 122 85 84 67 126 105 240 220 86 85 114 120 123
152 7 23 28 64 46 92 19 27 32 52 29 55 -22 21 -405 -74 -558 -139 -344 -145
-422 -185 -627 -325 -220 -150 -379 -322 -429 -467 -18 -51 -19 -56 -3 -89 20
-41 49 -63 129 -97 95 -39 159 -55 382 -92 114 -19 219 -37 233 -40 14 -2 48
-9 75 -15 28 -6 61 -12 74 -15 49 -9 200 -55 242 -74 141 -61 275 -191 344
-336 35 -72 36 -77 34 -182 -2 -125 -24 -202 -85 -289 -105 -154 -344 -309
-684 -448 -139 -56 -429 -155 -535 -182 -33 -8 -79 -22 -102 -29 -23 -8 -52
-17 -65 -19 -13 -3 -77 -19 -143 -36 -66 -18 -127 -33 -135 -35 -8 -2 -55 -13
-105 -25 -79 -19 -242 -52 -315 -65 -14 -2 -56 -8 -93 -12 -66 -8 -67 -9 -53
-28 9 -11 52 -72 97 -134 280 -397 650 -736 1084 -994 192 -113 525 -260 730
-322 50 -14 104 -30 120 -35 17 -5 41 -11 55 -14 14 -2 43 -9 65 -15 50 -13
234 -48 300 -56 28 -4 61 -9 75 -11 149 -25 698 -25 840 0 14 3 45 7 70 10 25
3 72 11 105 17 33 5 74 13 90 15 394 69 890 276 1260 524 543 364 999 904
1249 1480 16 36 36 83 46 105 54 123 147 418 176 560 17 81 54 301 59 350 4
33 9 71 11 85 9 48 11 526 3 612 -7 81 -17 167 -24 213 -12 86 -18 122 -36
205 -41 193 -106 422 -151 526 l-13 30 -35 -17z"/>
</g>
</svg>
