<svg width="48" height="28" viewBox="0 0 48 28" fill="none" xmlns="http://www.w3.org/2000/svg">
<rect x="0.5" y="0.5" width="47" height="27" rx="3.5" fill="white"/>
<rect x="0.5" y="0.5" width="47" height="27" rx="3.5" stroke="#EBF0F5"/>
<path d="M8.15533 17.1549C7.87008 17.2119 7.71034 17.2575 7.60765 17.2918C7.08279 16.3105 6.78613 15.1923 6.78613 14.0057C6.78613 10.1377 9.92387 7 13.7918 7C16.6329 7 19.0746 8.68867 20.1814 11.119L20.0331 11.1304L15.8 10.3659C15.7658 10.3545 15.7429 10.3659 15.7201 10.3888C15.6973 10.4116 15.6973 10.4344 15.6973 10.4686L15.9255 11.2559C15.9369 11.2901 15.9711 11.313 16.0054 11.3244L18.4357 11.3358L17.9907 11.3814L15.8913 11.7237C14.5563 11.9976 13.7006 12.1459 13.3354 12.1687C13.3697 12.1117 13.3925 12.066 13.4153 12.0204C13.4724 11.9747 13.5522 11.9291 13.6321 11.872C13.9059 11.8036 13.9402 11.6324 13.9402 11.5297V11.4841C13.9402 11.4156 13.9173 11.3472 13.8603 11.2787L13.8489 11.2559C13.8375 11.2331 13.8032 11.2217 13.7804 11.2217H13.7462C13.6435 11.2217 13.5408 11.2331 13.4153 11.2787C13.3697 11.3015 13.3354 11.313 13.3012 11.3358C13.2213 11.2217 13.0388 11.1532 12.6965 11.0962C12.6851 11.0962 12.6737 11.0962 12.6623 11.0962C12.2629 11.1418 11.9891 11.1989 11.8407 11.2673C11.5098 11.3472 11.0306 11.5412 10.4145 11.8492C9.35337 12.4768 8.83992 13.0473 8.83992 13.5835C8.83992 13.7205 8.88556 13.8802 8.98825 14.0399C9.13658 14.2795 9.43324 14.4735 9.92387 14.6104C10.346 14.6903 10.7682 14.7588 11.179 14.8272C11.6354 14.9299 11.8864 15.0897 11.932 15.3064C11.932 15.3178 11.9206 15.3293 11.9206 15.3407V15.3977C11.9206 15.4319 11.8978 15.5346 11.738 15.7172C11.4984 15.9454 11.2702 16.1165 11.042 16.2078L10.483 16.4817C9.86682 16.7441 9.07953 16.9609 8.15533 17.1549ZM20.3411 11.4955C20.2613 11.5526 20.0901 11.621 19.725 11.7237C19.725 11.7237 19.7136 11.7237 19.7022 11.7237C19.4398 11.7579 19.1659 11.7922 18.9035 11.8378L16.3134 12.5909C16.0396 13.1842 15.8 13.7319 15.6174 14.1883L15.606 14.2111C15.5946 14.2339 15.5147 14.3708 15.1268 15.3521C15.0127 15.5917 14.9214 15.8085 14.853 15.9682C14.8416 16.0024 14.7845 16.128 14.5449 16.6756L14.157 17.577L14.1455 17.5884C13.9744 17.8166 13.8831 17.8623 13.8147 17.8623C13.8147 17.8623 13.8032 17.8623 13.7918 17.8623C13.7804 17.8623 13.769 17.8623 13.7576 17.8623C13.6435 17.8166 13.5865 17.7596 13.5865 17.6797C13.5865 17.4401 13.7804 16.8924 14.1912 15.9568C14.5905 15.0098 15.0583 13.8688 15.5832 12.5909L15.5946 12.5795C15.6288 12.5224 15.6631 12.454 15.6973 12.3855C14.6362 12.5795 13.9972 12.6936 13.8032 12.7164L13.4609 12.762C13.4381 12.762 13.4153 12.762 13.3925 12.7506L13.2556 12.762C13.1072 12.762 13.0046 12.7392 12.9019 12.6936C12.7535 12.8533 12.571 13.0245 12.3542 13.2184C12.0233 13.4694 11.8978 13.5037 11.8179 13.5037H11.7837C11.5555 13.4808 11.43 13.3553 11.43 13.1614C11.43 13.0701 11.4756 13.013 11.8065 12.8191C12.2173 12.4768 12.4455 12.2486 12.5824 12.0888C12.6166 11.9519 12.6851 11.8378 12.7878 11.7237C12.7764 11.7237 12.7535 11.7237 12.7421 11.7123C12.32 11.7351 11.7723 11.9177 11.0991 12.2258C10.9051 12.2942 10.5742 12.4996 10.1064 12.8305C9.79836 13.1043 9.60439 13.3553 9.52452 13.5721C9.51311 13.6406 9.5017 13.6634 9.5017 13.6748C9.5017 13.8688 9.88964 14.0399 10.5514 14.1198C11.6011 14.2795 11.8636 14.4165 11.9548 14.4963C12.2173 14.6447 12.4226 14.8957 12.5367 15.2152L12.5482 15.2494V15.5232C12.5482 16.3447 11.3159 17.0065 8.68018 17.6112L8.02982 17.7368C8.02982 17.7368 8.01841 17.7368 8.007 17.7368C7.98418 17.7368 7.97277 17.7368 7.94995 17.7253L7.8929 17.7368H7.88149C9.12517 19.6993 11.3159 21 13.8032 21C15.7429 21 17.4887 20.2127 18.7552 18.9462C20.0217 17.6797 20.809 15.9226 20.809 13.9943C20.809 13.1271 20.6378 12.2714 20.3411 11.4955Z" fill="#1882FF"/>
<path d="M22.3624 17.2461C22.2939 17.2461 22.2483 17.2233 22.214 17.1777C22.1798 17.132 22.1684 17.0864 22.1798 17.0179L23.5262 10.6854C23.5376 10.6169 23.5718 10.5599 23.6175 10.5143C23.6631 10.4686 23.7202 10.4458 23.7886 10.4458H26.1847C26.5498 10.4458 26.8807 10.4914 27.1546 10.5713C27.4284 10.6512 27.668 10.7881 27.8391 10.9592C28.0103 11.1304 28.1358 11.3472 28.1929 11.6096C28.2499 11.872 28.2499 12.1687 28.1814 12.511C28.0331 13.1956 27.725 13.709 27.2572 14.0628C26.7894 14.4051 26.1961 14.5762 25.4659 14.5762H23.6745L23.1611 17.0065C23.1497 17.075 23.1154 17.1206 23.0698 17.1663C23.0242 17.2119 22.9671 17.2347 22.8872 17.2347H22.3624V17.2461ZM23.8343 13.7889H25.4545C25.9109 13.7889 26.2874 13.6862 26.6069 13.4694C26.9264 13.2526 27.1317 12.9446 27.223 12.5338C27.2801 12.26 27.2801 12.0318 27.2572 11.8492C27.223 11.6667 27.1203 11.5183 26.9378 11.4271C26.7552 11.3244 26.4814 11.2787 26.1048 11.2787H24.3819L23.8343 13.7889Z" fill="#003897"/>
<path d="M30.1092 17.3485C29.7555 17.3485 29.4589 17.28 29.2307 17.1545C29.0025 17.029 28.8199 16.8579 28.6944 16.6411C28.5689 16.4243 28.5004 16.1733 28.4662 15.8994C28.432 15.6256 28.4434 15.3289 28.489 15.0209C28.5118 14.9182 28.5232 14.8155 28.5461 14.7356C28.5689 14.6443 28.5917 14.5531 28.6145 14.439C28.6944 14.1309 28.7971 13.8456 28.9226 13.5718C29.0481 13.298 29.2192 13.0469 29.4132 12.8302C29.6072 12.602 29.8468 12.4308 30.132 12.3053C30.4173 12.1798 30.7368 12.1113 31.1133 12.1113C31.5241 12.1113 31.8435 12.1798 32.0489 12.3167C32.2543 12.4536 32.4254 12.6248 32.5395 12.8302L32.6194 12.4308C32.6308 12.3623 32.6651 12.3167 32.7107 12.2711C32.7563 12.2254 32.8134 12.2026 32.8932 12.2026H33.3268C33.3953 12.2026 33.4409 12.2254 33.4752 12.2711C33.5094 12.3167 33.5208 12.3623 33.5094 12.4308L32.5281 17.029C32.5167 17.0975 32.4825 17.1431 32.4369 17.1888C32.3912 17.2344 32.3342 17.2572 32.2657 17.2572H31.8207C31.7523 17.2572 31.7066 17.2344 31.6724 17.1888C31.6382 17.1431 31.6267 17.0975 31.6382 17.029L31.7294 16.6183C31.5241 16.8236 31.3073 16.9948 31.0791 17.1317C30.8509 17.28 30.52 17.3485 30.1092 17.3485ZM30.3146 16.5612C30.6341 16.5612 30.9193 16.4813 31.1589 16.333C31.3985 16.1847 31.5925 15.9907 31.7408 15.7625C31.8892 15.5343 31.9919 15.2947 32.0489 15.0551C32.0717 14.9524 32.106 14.8269 32.1288 14.6786C32.1516 14.5302 32.1858 14.4047 32.1972 14.302C32.2543 14.0738 32.2543 13.857 32.2087 13.6289C32.163 13.4121 32.0717 13.2295 31.912 13.0812C31.7523 12.9443 31.5126 12.8644 31.2046 12.8644C30.8965 12.8644 30.6455 12.9328 30.4287 13.0812C30.2119 13.2295 30.0294 13.4121 29.8924 13.6517C29.7555 13.8913 29.6414 14.1423 29.5615 14.4161C29.5387 14.5188 29.5159 14.6101 29.4931 14.7014C29.4703 14.7927 29.4589 14.8839 29.4474 14.9866C29.4132 15.2605 29.4018 15.5115 29.4132 15.7511C29.436 15.9907 29.5159 16.1733 29.6528 16.3216C29.7897 16.4813 30.0065 16.5612 30.3146 16.5612Z" fill="#003897"/>
<path d="M34.4122 19.0942C34.3323 19.0942 34.2867 19.06 34.2525 18.9916C34.2297 18.9231 34.2411 18.8546 34.2981 18.7634L35.4962 16.9035L34.5491 12.4651C34.5377 12.3966 34.5491 12.3396 34.5834 12.2825C34.6176 12.2255 34.6746 12.2026 34.7773 12.2026H35.1995C35.268 12.2026 35.325 12.214 35.3592 12.2483C35.3935 12.2825 35.4163 12.3167 35.4163 12.3738L36.1579 15.9109L38.4285 12.3738C38.4513 12.3281 38.4856 12.2939 38.5312 12.2597C38.5768 12.2255 38.6339 12.214 38.7024 12.214H39.2044C39.2614 12.214 39.3071 12.2369 39.3527 12.2939C39.3984 12.351 39.3869 12.408 39.3413 12.4993L35.1767 18.9345C35.1425 18.9801 35.1082 19.0144 35.0626 19.0486C35.0169 19.0828 34.9599 19.0942 34.8914 19.0942H34.4122Z" fill="#003897"/>
<path d="M40.3121 11.8721H40.0839V12.6366H39.947V11.8721H39.7302V11.7466H40.3235V11.8721H40.3121Z" fill="#003897"/>
<path d="M41.2147 12.6366H41.0777V12.0775L40.8838 12.5681H40.7811L40.5871 12.0661V12.6366H40.4502V11.7466H40.5871L40.8267 12.3627L41.0663 11.7466H41.2033V12.6366H41.2147Z" fill="#003897"/>
</svg>
