<svg width="48" height="28" viewBox="0 0 48 28" fill="none" xmlns="http://www.w3.org/2000/svg">
<rect x="0.5" y="0.5" width="47" height="27" rx="3.5" fill="white"/>
<path d="M16.4629 23.4217H15.9939V23.1499H17.2746V23.4217H16.8056V24.5879H16.4629V23.4217Z" fill="#77787B"/>
<path d="M17.8789 23.5092C17.9421 23.4829 18.0232 23.4653 18.1134 23.4653V23.7634C18.0773 23.7634 18.0503 23.7634 18.0412 23.7634C17.951 23.7634 17.8699 23.7897 17.8157 23.8424C17.7617 23.8949 17.7346 23.9739 17.7346 24.0703V24.5876H17.4099V23.4829H17.7255V23.6319C17.7617 23.5706 17.8157 23.5354 17.8789 23.5092Z" fill="#77787B"/>
<path d="M19.4564 23.4829V24.5878H19.1407V24.4474C19.0956 24.4913 19.0415 24.5351 18.9874 24.5526C18.9243 24.579 18.8611 24.5878 18.789 24.5878C18.6357 24.5878 18.5184 24.5439 18.4373 24.4649C18.3471 24.386 18.311 24.2545 18.311 24.0967V23.4829H18.6357V24.0616C18.6357 24.237 18.7078 24.3247 18.8611 24.3247C18.9423 24.3247 19.0055 24.2983 19.0505 24.2458C19.0956 24.1931 19.1227 24.123 19.1227 24.0265V23.4829H19.4564Z" fill="#77787B"/>
<path d="M19.8715 24.5614C19.7813 24.5351 19.7091 24.5087 19.655 24.4737L19.7633 24.2457C19.8173 24.2808 19.8715 24.2983 19.9436 24.3246C20.0158 24.3421 20.0879 24.3509 20.1511 24.3509C20.2864 24.3509 20.3585 24.3158 20.3585 24.2544C20.3585 24.2194 20.3404 24.2019 20.3044 24.1843C20.2683 24.1667 20.2051 24.158 20.133 24.1492C20.0428 24.1317 19.9617 24.1229 19.9075 24.1054C19.8444 24.0879 19.7993 24.0528 19.7542 24.009C19.7091 23.9651 19.6911 23.9037 19.6911 23.816C19.6911 23.7459 19.7091 23.6845 19.7542 23.6319C19.7993 23.5793 19.8535 23.5354 19.9346 23.5092C20.0158 23.4829 20.106 23.4653 20.2142 23.4653C20.2953 23.4653 20.3765 23.4741 20.4577 23.4916C20.5389 23.5092 20.602 23.5354 20.6561 23.5618L20.5479 23.7897C20.4487 23.7371 20.3404 23.7108 20.2232 23.7108C20.1511 23.7108 20.0969 23.7196 20.0609 23.7371C20.0248 23.7547 20.0067 23.781 20.0067 23.8072C20.0067 23.8424 20.0248 23.8686 20.0609 23.8774C20.0969 23.8949 20.16 23.9037 20.2413 23.9125C20.3315 23.9301 20.4126 23.9476 20.4667 23.9563C20.5298 23.9739 20.5749 24.0002 20.62 24.0528C20.6651 24.0967 20.6831 24.158 20.6831 24.2369C20.6831 24.3071 20.6651 24.3685 20.62 24.421C20.5749 24.4737 20.5208 24.5175 20.4397 24.5439C20.3585 24.5701 20.2593 24.5876 20.1511 24.5876C20.0518 24.5964 19.9617 24.5876 19.8715 24.5614Z" fill="#77787B"/>
<path d="M21.612 24.5263C21.5759 24.5525 21.5398 24.5701 21.4947 24.5789C21.4496 24.5877 21.3955 24.5964 21.3504 24.5964C21.2151 24.5964 21.1069 24.5613 21.0347 24.5C20.9625 24.4298 20.9265 24.3334 20.9265 24.2018V23.7459H20.7461V23.5003H20.9175V23.2285H21.2422V23.5003H21.5218V23.7459H21.2422V24.193C21.2422 24.2369 21.2512 24.272 21.2783 24.2982C21.3053 24.3246 21.3414 24.3334 21.3865 24.3334C21.4406 24.3334 21.4857 24.3158 21.5218 24.2895L21.612 24.5263Z" fill="#77787B"/>
<path d="M23.3886 24.2723H22.7031L22.5769 24.5791H22.2251L22.8835 23.1499H23.2172L23.8756 24.5791H23.5148L23.3886 24.2723ZM23.2804 24.0267L23.0459 23.4743L22.8113 24.0267H23.2804Z" fill="#77787B"/>
<path d="M24.6507 24.579L24.3982 24.237L24.1366 24.579H23.7759L24.2088 24.0265L23.7849 23.4829H24.1546L24.3982 23.8074L24.6417 23.4829H24.9934L24.5695 24.0178L25.0115 24.579H24.6507Z" fill="#77787B"/>
<path d="M25.2015 23.2727C25.1655 23.2376 25.1475 23.1938 25.1475 23.15C25.1475 23.0974 25.1655 23.0535 25.2015 23.0272C25.2377 22.9921 25.2917 22.9746 25.3459 22.9746C25.409 22.9746 25.4541 22.9921 25.4902 23.0272C25.5262 23.0623 25.5442 23.0974 25.5442 23.15C25.5442 23.2026 25.5262 23.2464 25.4902 23.2815C25.4541 23.3166 25.4 23.3341 25.3459 23.3341C25.2917 23.3253 25.2377 23.3078 25.2015 23.2727ZM25.1835 23.4832H25.5082V24.588H25.1835V23.4832Z" fill="#77787B"/>
<path d="M26.6802 23.5883C26.7704 23.6672 26.8245 23.7899 26.8245 23.9565V24.5879H26.5179V24.4475C26.4547 24.5528 26.3375 24.6054 26.1751 24.6054C26.085 24.6054 26.0128 24.5879 25.9496 24.5616C25.8865 24.5352 25.8414 24.4914 25.8053 24.4388C25.7692 24.3862 25.7512 24.3336 25.7512 24.2634C25.7512 24.1582 25.7873 24.0793 25.8685 24.0179C25.9496 23.9566 26.0668 23.9302 26.2383 23.9302H26.4998C26.4998 23.8601 26.4817 23.8075 26.4366 23.7724C26.3915 23.7373 26.3284 23.7198 26.2383 23.7198C26.1751 23.7198 26.121 23.7285 26.0579 23.7461C26.0037 23.7637 25.9496 23.7899 25.9135 23.825L25.7963 23.6058C25.8594 23.5619 25.9316 23.5269 26.0217 23.5094C26.1119 23.483 26.1932 23.4742 26.2924 23.4742C26.4547 23.4655 26.59 23.5094 26.6802 23.5883ZM26.4006 24.3423C26.4457 24.316 26.4728 24.281 26.4908 24.2284V24.1144H26.2653C26.1301 24.1144 26.0668 24.1582 26.0668 24.2459C26.0668 24.2898 26.085 24.316 26.1119 24.3423C26.139 24.3686 26.1932 24.3775 26.2473 24.3775C26.3104 24.3862 26.3555 24.3686 26.4006 24.3423Z" fill="#77787B"/>
<path d="M27.8524 24.5263C27.8163 24.5525 27.7803 24.5701 27.7352 24.5789C27.6901 24.5877 27.6359 24.5964 27.5908 24.5964C27.4556 24.5964 27.3473 24.5613 27.2752 24.5C27.203 24.4386 27.167 24.3334 27.167 24.2018V23.7459H26.9956V23.5003H27.167V23.2285H27.4916V23.5003H27.7712V23.7459H27.4916V24.193C27.4916 24.2369 27.5006 24.272 27.5277 24.2982C27.5548 24.3246 27.5908 24.3334 27.6359 24.3334C27.6901 24.3334 27.7352 24.3158 27.7712 24.2895L27.8524 24.5263Z" fill="#77787B"/>
<path d="M28.8994 23.5883C28.9896 23.6672 29.0437 23.7899 29.0437 23.9565V24.5879H28.7371V24.4475C28.6739 24.5528 28.5567 24.6054 28.3943 24.6054C28.3041 24.6054 28.232 24.5879 28.1689 24.5616C28.1058 24.5352 28.0607 24.4914 28.0245 24.4388C27.9885 24.3862 27.9705 24.3336 27.9705 24.2634C27.9705 24.1582 28.0065 24.0793 28.0877 24.0179C28.1689 23.9566 28.2861 23.9302 28.4574 23.9302H28.719C28.719 23.8601 28.701 23.8075 28.6559 23.7724C28.6108 23.7373 28.5476 23.7198 28.4574 23.7198C28.3943 23.7198 28.3402 23.7285 28.2771 23.7461C28.223 23.7637 28.1689 23.7899 28.1328 23.825L28.0156 23.6058C28.0787 23.5619 28.1509 23.5269 28.241 23.5094C28.3312 23.483 28.4123 23.4742 28.5116 23.4742C28.6649 23.4655 28.8002 23.5094 28.8994 23.5883ZM28.6198 24.3423C28.6649 24.316 28.692 24.281 28.71 24.2284V24.1144H28.4845C28.3492 24.1144 28.2861 24.1582 28.2861 24.2459C28.2861 24.2898 28.3041 24.316 28.3312 24.3423C28.3673 24.3686 28.4123 24.3775 28.4665 24.3775C28.5206 24.3862 28.5747 24.3686 28.6198 24.3423Z" fill="#77787B"/>
<path d="M30.9382 23.2111C31.0374 23.2549 31.1095 23.3163 31.1637 23.3952C31.2177 23.4741 31.2448 23.5618 31.2448 23.6758C31.2448 23.781 31.2177 23.8687 31.1637 23.9476C31.1095 24.0265 31.0374 24.0879 30.9382 24.1317C30.839 24.1756 30.7308 24.1931 30.5955 24.1931H30.2979V24.5877H29.9551V23.1584H30.5955C30.7217 23.1497 30.839 23.1672 30.9382 23.2111ZM30.8119 23.8512C30.866 23.8073 30.8931 23.7459 30.8931 23.667C30.8931 23.5881 30.866 23.5267 30.8119 23.4829C30.7578 23.439 30.6766 23.4215 30.5774 23.4215H30.2979V23.9213H30.5774C30.6766 23.9213 30.7578 23.895 30.8119 23.8512Z" fill="#77787B"/>
<path d="M32.3003 23.5883C32.3905 23.6672 32.4446 23.7899 32.4446 23.9565V24.5879H32.138V24.4475C32.0748 24.5528 31.9576 24.6054 31.7953 24.6054C31.7051 24.6054 31.6329 24.5879 31.5698 24.5616C31.5066 24.5352 31.4615 24.4914 31.4255 24.4388C31.3894 24.3862 31.3713 24.3336 31.3713 24.2634C31.3713 24.1582 31.4075 24.0793 31.4886 24.0179C31.5698 23.9566 31.687 23.9302 31.8584 23.9302H32.1199C32.1199 23.8601 32.1019 23.8075 32.0568 23.7724C32.0117 23.7373 31.9486 23.7198 31.8584 23.7198C31.7953 23.7198 31.7411 23.7285 31.678 23.7461C31.6239 23.7637 31.5698 23.7899 31.5337 23.825L31.4164 23.6058C31.4796 23.5619 31.5517 23.5269 31.6419 23.5094C31.7321 23.483 31.8133 23.4742 31.9125 23.4742C32.0748 23.4655 32.2101 23.5094 32.3003 23.5883ZM32.0207 24.3423C32.0658 24.316 32.0929 24.281 32.1109 24.2284V24.1144H31.8855C31.7502 24.1144 31.687 24.1582 31.687 24.2459C31.687 24.2898 31.7051 24.316 31.7321 24.3423C31.7682 24.3686 31.8133 24.3775 31.8674 24.3775C31.9305 24.3862 31.9846 24.3686 32.0207 24.3423Z" fill="#77787B"/>
<path d="M33.8424 23.4829L33.3284 24.6491C33.2743 24.7719 33.2112 24.8683 33.139 24.9209C33.0668 24.9735 32.9676 24.9998 32.8594 24.9998C32.7963 24.9998 32.7421 24.991 32.6881 24.9735C32.6339 24.956 32.5798 24.9297 32.5437 24.9034L32.661 24.6754C32.6881 24.693 32.7151 24.7105 32.7512 24.728C32.7872 24.7367 32.8143 24.7455 32.8504 24.7455C32.8955 24.7455 32.9315 24.7367 32.9586 24.7105C32.9857 24.693 33.0127 24.6579 33.0308 24.6053V24.5965L32.5437 23.4829H32.8864L33.2021 24.2283L33.5177 23.4829H33.8424Z" fill="#77787B"/>
<path d="M30.316 22.2905H19.2136C17.2656 22.2905 15.6782 20.756 15.6782 18.8532V8.05928C15.6782 6.16533 17.2565 4.63086 19.2136 4.63086H30.316C32.2641 4.63086 33.8514 6.16533 33.8514 8.06809V18.862C33.8424 20.756 32.2641 22.2905 30.316 22.2905Z" fill="url(#paint0_linear_10140_10480)"/>
<path d="M26.068 5.86719C20.7649 5.86719 16.4629 10.0497 16.4629 15.2056C16.4629 18.0378 17.7616 20.5719 19.7999 22.2817H30.316C32.2641 22.2817 33.8514 20.7473 33.8514 18.8445V9.73406C32.1018 7.39289 29.2698 5.86719 26.068 5.86719Z" fill="url(#paint1_linear_10140_10480)"/>
<path d="M23.3256 21.1331C28.476 21.1331 32.6512 17.0739 32.6512 12.0666C32.6512 7.05927 28.476 3 23.3256 3C18.1752 3 14 7.05927 14 12.0666C14 17.0739 18.1752 21.1331 23.3256 21.1331Z" fill="url(#paint2_linear_10140_10480)"/>
<path d="M31.8216 14.5771C32.4563 10.7868 29.8105 7.21391 25.9118 6.5968C22.0132 5.97967 18.3382 8.55205 17.7034 12.3424C17.0687 16.1327 19.7145 19.7056 23.6131 20.3227C27.5118 20.9399 31.1868 18.3675 31.8216 14.5771Z" fill="white"/>
<path d="M21.1877 14.5131C21.1787 14.557 21.1787 14.5832 21.1787 14.6008C21.1787 14.7411 21.2599 14.8113 21.4132 14.8113C21.4944 14.8113 21.5935 14.7849 21.6928 14.7411L21.8371 15.5741C21.6206 15.6881 21.341 15.7495 20.9983 15.7495C20.6466 15.7495 20.367 15.6706 20.1686 15.504C19.9701 15.3374 19.8619 15.1093 19.8619 14.8113C19.8619 14.7148 19.871 14.6184 19.898 14.5131L20.0603 13.7503H19.6274L19.8168 12.8383H20.2407L20.4121 11.9966H21.6928L21.5214 12.8383H22.1528L21.9633 13.7503H21.332L21.1877 14.5131Z" fill="url(#paint3_linear_10140_10480)"/>
<path d="M26.0681 12.6806L25.4548 15.6969H24.2462L24.3004 15.4251C24.0659 15.6442 23.7863 15.7583 23.4617 15.7583C23.2542 15.7583 23.0468 15.7056 22.8484 15.5917C22.6499 15.4777 22.4966 15.3199 22.3703 15.1094C22.2441 14.8989 22.1899 14.6534 22.1899 14.3641C22.1899 14.0396 22.2621 13.7503 22.4154 13.4872C22.5688 13.2242 22.7671 13.0138 23.0197 12.8647C23.2722 12.7156 23.5428 12.6367 23.8404 12.6367C24.2553 12.6367 24.5529 12.7595 24.7242 13.0138L24.7964 12.6981H26.0681V12.6806ZM23.6059 14.6359C23.6871 14.7236 23.7953 14.7674 23.9397 14.7674C24.102 14.7674 24.2373 14.7061 24.3455 14.5832C24.4537 14.4605 24.4988 14.2939 24.4988 14.0835C24.4988 13.9432 24.4537 13.8292 24.3726 13.7415C24.2913 13.6538 24.1831 13.61 24.0388 13.61C23.8765 13.61 23.7412 13.6714 23.633 13.7941C23.5248 13.9169 23.4797 14.0835 23.4797 14.2939C23.4797 14.443 23.5248 14.557 23.6059 14.6359Z" fill="url(#paint4_linear_10140_10480)"/>
<path d="M29.2243 12.794C29.4227 12.9081 29.576 13.0659 29.7023 13.2763C29.8285 13.4867 29.8827 13.7323 29.8827 14.0216C29.8827 14.346 29.8105 14.6354 29.6572 14.8984C29.5038 15.1615 29.3054 15.372 29.0529 15.521C28.8004 15.6701 28.5298 15.749 28.2322 15.749C27.8173 15.749 27.5197 15.6263 27.3484 15.372L27.0597 16.7574H25.7791L26.6178 12.68H27.8264L27.7722 12.9518C28.0067 12.7327 28.2863 12.6187 28.611 12.6187C28.8274 12.6275 29.0258 12.68 29.2243 12.794ZM28.4306 14.5828C28.5389 14.46 28.584 14.2934 28.584 14.083C28.584 13.9427 28.5389 13.8287 28.4576 13.741C28.3765 13.6533 28.2683 13.6095 28.124 13.6095C27.9616 13.6095 27.8264 13.6709 27.7182 13.7937C27.6099 13.9164 27.5648 14.083 27.5648 14.2934C27.5648 14.4337 27.6009 14.5477 27.682 14.6354C27.7632 14.7231 27.8714 14.767 28.0158 14.767C28.1962 14.767 28.3314 14.7055 28.4306 14.5828Z" fill="url(#paint5_linear_10140_10480)"/>
<rect x="0.5" y="0.5" width="47" height="27" rx="3.5" stroke="#EBF0F5"/>
<defs>
<linearGradient id="paint0_linear_10140_10480" x1="32.8374" y1="5.19836" x2="16.9408" y2="22.4007" gradientUnits="userSpaceOnUse">
<stop stop-color="#50B748"/>
<stop offset="0.4038" stop-color="#4FB74A"/>
<stop offset="0.5492" stop-color="#4EB851"/>
<stop offset="0.6529" stop-color="#4AB85C"/>
<stop offset="0.7368" stop-color="#45BA6D"/>
<stop offset="0.8085" stop-color="#3FBB83"/>
<stop offset="0.8721" stop-color="#37BD9F"/>
<stop offset="0.9296" stop-color="#2EBFBF"/>
<stop offset="0.9807" stop-color="#24C2E3"/>
<stop offset="1" stop-color="#1FC3F3"/>
</linearGradient>
<linearGradient id="paint1_linear_10140_10480" x1="18.2767" y1="8.80931" x2="33.3546" y2="21.9189" gradientUnits="userSpaceOnUse">
<stop offset="0.1329" stop-color="#00934A"/>
<stop offset="0.8791" stop-color="#37B34A"/>
<stop offset="1" stop-color="#50B748"/>
</linearGradient>
<linearGradient id="paint2_linear_10140_10480" x1="17.1104" y1="5.6215" x2="29.1331" y2="18.8024" gradientUnits="userSpaceOnUse">
<stop stop-color="#EC1C24"/>
<stop offset="0.3115" stop-color="#E91C24"/>
<stop offset="0.5147" stop-color="#E11C24"/>
<stop offset="0.6869" stop-color="#D21D23"/>
<stop offset="0.8419" stop-color="#BD1D22"/>
<stop offset="0.984" stop-color="#A21E21"/>
<stop offset="1" stop-color="#9E1E21"/>
</linearGradient>
<linearGradient id="paint3_linear_10140_10480" x1="21.27" y1="13.8972" x2="27.0875" y2="15.9488" gradientUnits="userSpaceOnUse">
<stop stop-color="#EC1C24"/>
<stop offset="1" stop-color="#50B748"/>
</linearGradient>
<linearGradient id="paint4_linear_10140_10480" x1="21.5276" y1="13.1698" x2="27.3451" y2="15.2214" gradientUnits="userSpaceOnUse">
<stop stop-color="#EC1C24"/>
<stop offset="1" stop-color="#50B748"/>
</linearGradient>
<linearGradient id="paint5_linear_10140_10480" x1="21.653" y1="12.8129" x2="27.4704" y2="14.8645" gradientUnits="userSpaceOnUse">
<stop stop-color="#EC1C24"/>
<stop offset="1" stop-color="#50B748"/>
</linearGradient>
</defs>
</svg>
