<svg width="48" height="28" viewBox="0 0 48 28" fill="none" xmlns="http://www.w3.org/2000/svg">
<rect x="0.5" y="0.5" width="47" height="27" rx="3.5" fill="white"/>
<path d="M34.2283 19.0801C34.2459 19.0807 34.264 19.0818 34.2816 19.0824V19.0807C34.2635 19.0807 34.2459 19.0807 34.2283 19.0801Z" fill="#807AB7"/>
<path d="M34.3289 19.0827C34.3344 19.0827 34.34 19.082 34.3463 19.082C34.3407 19.082 34.3344 19.082 34.3289 19.082V19.0827Z" fill="#807AB7"/>
<path d="M34.2986 14.77V14.7726C34.3005 14.7726 34.3025 14.7726 34.3044 14.7726" fill="#4A4A49"/>
<path d="M16.5601 11.4438C17.5462 11.4438 18.3482 10.6715 18.3482 9.72183C18.3482 8.7723 17.5462 8 16.5601 8C15.574 8 14.772 8.7723 14.772 9.72183C14.772 10.6715 15.574 11.4438 16.5601 11.4438Z" fill="#004899"/>
<path d="M5.7881 11.4438C6.77415 11.4438 7.5762 10.6715 7.5762 9.72183C7.5762 8.7723 6.77415 8 5.7881 8C4.80204 8 4 8.7723 4 9.72183C4 10.6715 4.80204 11.4438 5.7881 11.4438Z" fill="#FFD600"/>
<path d="M17.5786 12.4243H15.8402C15.4153 12.4243 15.0696 12.7572 15.0696 13.1664V13.8542C15.0696 15.7755 13.7585 16.5618 12.8766 16.8731C12.859 16.8795 12.8415 16.8853 12.8245 16.8912C12.8069 16.8976 12.7894 16.9029 12.7712 16.9092C12.221 17.1033 11.6822 17.1674 11.2041 17.1657V17.1674C12.0091 17.1751 12.6617 17.8069 12.6617 18.5839C12.6617 19.3568 12.0152 19.987 11.2156 19.9998C12.687 20.0103 13.6023 19.7503 13.7082 19.7182C14.8463 19.456 15.7929 18.9954 16.5247 18.3332C17.7354 17.2369 18.3498 15.6233 18.3498 13.5383V13.1658C18.3492 12.7572 18.0035 12.4243 17.5786 12.4243Z" fill="#004899"/>
<path d="M11.1893 17.1669C11.1881 17.1669 11.1869 17.1669 11.1857 17.1669V17.1651C10.196 17.1593 9.47265 16.8731 9.47265 16.8731C8.59071 16.5613 7.27898 15.7755 7.27898 13.8536V13.1658C7.27898 12.7566 6.93335 12.4238 6.50841 12.4238H4.77056C4.34563 12.4238 4 12.7566 4 13.1658V13.5383C4 15.6233 4.61379 17.2369 5.82502 18.3333C6.55381 18.9925 7.49508 19.4519 8.62642 19.7148H8.6022C8.6494 19.7247 8.69536 19.7334 8.74205 19.7422C9.04586 19.808 9.36365 19.8599 9.69417 19.8978C10.2202 19.9643 10.7026 19.9929 11.1396 19.9986C11.1645 19.9992 11.1905 19.9998 11.2153 19.9998C12.015 19.9864 12.662 19.3568 12.662 18.5839C12.6608 17.8029 12.001 17.1669 11.1893 17.1669Z" fill="#FFD600"/>
<path d="M28.9551 15.9331C28.9067 16.1302 28.9164 16.3272 29.0792 16.5592C29.3698 16.973 29.9612 17.1993 30.4503 16.9987C31.0344 16.7598 32.5367 15.9285 33.6191 14.8968V17.5053C33.6191 17.6918 33.7764 17.8434 33.9702 17.8434H34.8424C35.0361 17.8434 35.1935 17.6918 35.1935 17.5053V12.9388C35.1935 12.8315 35.2837 12.7441 35.3957 12.7441H36.1269C36.211 12.7441 36.2794 12.81 36.2794 12.891V17.5053C36.2794 17.6918 36.4368 17.8434 36.6305 17.8434H37.5027C37.697 17.8434 37.8538 17.6918 37.8538 17.5053V11.6179C37.8538 11.4313 37.6965 11.2798 37.5027 11.2798H33.9702C33.7764 11.2798 33.6191 11.4313 33.6191 11.6179C33.6191 11.7812 33.6154 12.3069 33.6203 12.4695C32.8436 11.8622 32.4944 11.566 30.969 11.4104C30.512 11.3637 30.0477 11.3981 29.6089 11.5288C28.5574 11.8411 28.5617 12.4077 28.558 12.5144C28.5453 12.8775 28.6658 13.2355 28.9001 13.5199C29.1422 13.8143 29.2717 14.1786 29.2856 14.5523C29.2959 14.8222 29.2474 15.092 29.1658 15.3491C29.0974 15.5619 29.0006 15.7473 28.9551 15.9331ZM30.3141 13.127C30.2293 13.056 30.2505 12.9219 30.354 12.8787C30.9169 12.6462 32.9648 13.1888 32.8818 13.5835C32.7971 13.9869 30.3317 15.7594 30.5326 15.1527C30.5647 15.0565 30.673 14.7149 30.6984 14.6059C30.7402 14.4281 30.765 14.2485 30.7566 14.0656C30.7377 13.6627 30.5634 13.4272 30.3141 13.127Z" fill="#4A4A49"/>
<path d="M44.1381 11.2798H38.7387C38.5414 11.2798 38.3828 11.4273 38.3875 11.6063L38.3628 12.4888C38.3628 12.4934 38.3633 12.4987 38.3633 12.5046C38.3779 12.7412 38.327 13.2932 38.525 13.6458C38.629 13.8318 38.8452 13.9454 39.1678 13.9915C39.4905 14.0381 39.8161 14.0644 39.919 14.1681C40.3167 14.5715 39.5994 14.7493 39.1381 14.9049C38.5116 15.1165 38.379 15.3066 38.379 15.7817C38.379 16.2974 38.2961 16.5767 38.5098 17.0617C38.7399 17.584 39.2598 17.5024 39.7779 17.468C42.9159 17.2599 42.9468 18.1576 43.9213 17.7227C44.3384 17.5362 44.4812 17.2231 44.494 16.769C44.4994 16.5837 44.4903 16.3949 44.4903 16.2089V14.4479V11.5987C44.4897 11.4226 44.3324 11.2798 44.1381 11.2798ZM42.5419 16.1308C41.6689 15.9682 40.5625 16.0218 40.459 16.0037C40.2035 15.96 40.1708 15.7233 40.4626 15.5577C40.629 15.4627 41.7222 15.1404 41.7397 14.3109V14.3005C41.7482 13.8919 41.4807 13.5228 41.0739 13.38L40.5667 13.2023C40.3125 13.155 40.2035 12.9428 40.2035 12.8222C40.2035 12.7727 40.2343 12.7516 40.2677 12.7429C40.307 12.733 40.8748 12.7406 40.8748 12.7406H42.5055C42.6992 12.7406 42.8566 12.8834 42.8566 13.0595C42.879 13.4972 42.8954 13.7781 42.9069 14.2153C42.9159 14.5546 42.9226 14.8938 42.9201 15.2325C42.9195 15.3205 42.9631 15.6965 42.9643 15.953C42.9656 16.2648 42.6478 16.1506 42.5419 16.1308Z" fill="#4A4A49"/>
<path d="M27.8801 12.7385C28.0738 12.7385 28.2311 12.5829 28.2311 12.3911V11.6351C28.2311 11.4433 28.0738 11.2877 27.8801 11.2877L27.0266 11.2725C27.3825 10.7642 27.3577 9.45328 25.9521 9.2213C25.1029 9.08081 23.7784 9.76284 22.9601 9.16122C22.6423 8.92754 22.313 8.89252 22.1756 9.24053C22.1108 9.40376 22.0612 9.57918 22.043 9.7243C22.0255 9.85785 22.0073 10.218 22.399 10.4698C22.8378 10.752 23.7495 10.8575 25.1688 10.5736C25.882 10.4314 26.1204 11.2877 25.3662 11.2877H23.5745H22.2052C22.0109 11.2877 21.8542 11.4433 21.8542 11.6357V12.3911C21.8542 12.5829 22.0115 12.7385 22.2052 12.7385L24.2584 12.7379C24.2584 12.7379 24.2591 13.6444 24.2627 14.5538C24.2652 15.2142 24.6368 15.4829 25.73 15.3552L26.6204 15.2095C26.7167 15.1908 26.8032 15.273 26.7869 15.3686C26.6694 16.0681 25.8414 16.4225 24.8935 16.3649C24.2506 16.3258 23.8239 16.1323 23.6453 15.8221C23.1901 15.0334 23.2978 13.5418 23.2978 13.5418C23.2978 13.35 23.1405 13.1944 22.9468 13.1944H22.2416C22.155 13.1944 22.0757 13.2253 22.0146 13.2766C21.9383 13.3402 21.8349 13.6648 21.8075 13.9545C21.7682 14.3812 21.7518 15.0387 21.8542 15.4881C22.2216 17.1022 23.1314 17.8921 25.1114 17.8921C26.1447 17.8921 26.8795 17.5277 27.3746 17.1255C27.9248 16.679 28.2324 16.0967 28.2324 15.3925V14.3165C28.2324 14.1586 28.1906 13.8193 27.8444 13.7033C27.7094 13.6584 27.5623 13.6671 27.4279 13.7143L26.4273 13.9434C26.42 13.9458 26.4115 13.9486 26.4043 13.9498C26.1041 14.0157 25.954 13.9901 25.8335 13.884C25.7439 13.8053 25.6998 13.6893 25.7003 13.5727L25.704 12.7403L27.8801 12.7385Z" fill="#4A4A49"/>
<path d="M41.1304 19.979C41.812 20.0623 42.3883 19.508 42.3016 18.8516C42.2423 18.4038 41.8677 18.0425 41.4028 17.9854C40.7206 17.902 40.1449 18.4564 40.2316 19.1133C40.2909 19.561 40.6661 19.9224 41.1304 19.979Z" fill="#4A4A49"/>
<rect x="0.5" y="0.5" width="47" height="27" rx="3.5" stroke="#EBF0F5"/>
</svg>
