<svg width="48" height="28" viewBox="0 0 48 28" fill="none" xmlns="http://www.w3.org/2000/svg">
<rect x="0.5" y="0.5" width="47" height="27" rx="3.5" fill="white"/>
<path d="M21.7719 18.8556H19.1973L20.8077 9.17578H23.3824L21.7719 18.8556Z" fill="#00579F"/>
<path d="M31.1006 9.41219C30.3641 9.13631 29.581 8.99654 28.7918 9.00007C26.2493 9.00007 24.459 10.3183 24.4486 12.2024C24.4277 13.5925 25.7307 14.3652 26.707 14.8289C27.7034 15.3026 28.0412 15.6117 28.0412 16.034C28.0308 16.6826 27.236 16.9815 26.4951 16.9815C25.6587 17.0041 24.8293 16.8272 24.0794 16.4664L23.7406 16.3118L23.3801 18.4847C24.2954 18.8298 25.2693 19.0046 26.251 18.9999C28.9524 18.9999 30.7106 17.7019 30.7314 15.6945C30.7419 14.5966 30.0539 13.7521 28.5703 13.0579C27.6695 12.6154 27.1188 12.3165 27.1188 11.863C27.1292 11.4508 27.5852 11.0286 28.6015 11.0286C29.2614 11.0098 29.9171 11.1366 30.5195 11.3993L30.7523 11.5024L31.0997 9.41219H31.1006Z" fill="#00579F"/>
<path d="M34.5258 15.4267C34.7377 14.871 35.5534 12.7184 35.5534 12.7184C35.543 12.7387 35.7653 12.1517 35.8921 11.7894L36.072 12.6238C36.072 12.6238 36.5593 14.9412 36.6652 15.4251L34.5258 15.4267ZM37.7033 9.17737H35.7115C35.4269 9.14395 35.139 9.20513 34.8947 9.35095C34.6504 9.49676 34.4641 9.71863 34.366 9.98049L30.5439 18.8571H33.2454L33.7857 17.4054H37.0909C37.1647 17.7432 37.3984 18.8571 37.3984 18.8571H39.7819L37.7041 9.17567L37.7033 9.17737Z" fill="#00579F"/>
<path d="M17.046 9.17578L14.527 15.7765L14.2516 14.4379C13.6229 12.7039 12.3536 11.2591 10.6902 10.3843L12.9999 18.8496H15.7222L19.7692 9.18001L17.046 9.17578Z" fill="#00579F"/>
<path d="M12.1842 9.17587H8.04256L8 9.37182C9.39136 9.64965 10.6905 10.2577 11.7816 11.1417C12.8728 12.0258 13.7222 13.1584 14.2542 14.4389L13.3534 9.99C13.2985 9.7376 13.1486 9.51424 12.9332 9.36365C12.7177 9.21306 12.4522 9.14608 12.1886 9.17587H12.1842Z" fill="#FAA61A"/>
<rect x="0.5" y="0.5" width="47" height="27" rx="3.5" stroke="#EBF0F5"/>
</svg>
